<svg class="svg-logo-dpmb" xmlns="http://www.w3.org/2000/svg" xmlns:xlink="http://www.w3.org/1999/xlink" version="1.1" id="Layer_1" x="0" y="0" viewBox="0 0 292.1 212.3" enable-background="new 0 0 292.1 212.3" xml:space="preserve">
  <path class="svg-clr-red" fill="#CB3232" d="M0.1 2.1c0-0.3 0.2-0.6 0.5-0.9C1 1 1.6 0.8 2.3 0.7 3 0.6 3.7 0.4 4.4 0.4c0.7-0.1 1.5-0.1 2.5-0.2 1 0 1.8 0 2.4 0 0.6 0 1.4 0 2.2 0 0.8 0 1.3 0 1.5 0H18c1 0 2.3 0 4.1-0.1C23.8 0 25.1 0 25.9 0c14 0 24 2.4 30 7.2l1.6 1.4c0.5 0.5 1.1 1.1 1.7 1.8 0.6 0.7 1.4 1.9 2.3 3.4 0.9 1.5 1.7 3.1 2.4 4.9 0.7 1.8 1.3 3.9 1.8 6.5 0.5 2.6 0.7 5.3 0.7 8 0 4.3-0.6 8.3-1.8 12 -1.2 3.7-2.8 7-4.8 9.7 -2 2.7-4.4 5.1-7.2 7.1 -2.7 2-5.7 3.5-8.9 4.4 -3.2 1-6.5 1.5-9.9 1.5h-1.4c-1.3 0-3.1 0-5.6-0.1 -2.5-0.1-4.4-0.1-5.6-0.1 -7.4 0-14 0.1-20 0.4 -0.7-1.4-1.1-2.7-1.1-3.9V2.1zM26 52.6c1.8 0 3.3-0.2 4.8-0.6 1.4-0.4 2.6-0.9 3.6-1.6 1-0.6 1.8-1.5 2.6-2.5 0.7-1 1.3-2 1.7-3.1 0.4-1.1 0.8-2.3 1-3.6 0.2-1.4 0.4-2.7 0.5-3.9 0.1-1.2 0.1-2.6 0.1-4.1v-2.7c0-5.4-1.1-9.4-3.2-11.9 -2.1-2.6-5.9-3.9-11.2-4.1 -0.1 0.3-0.4 0.8-0.7 1.3 -0.3 0.6-0.6 1-0.7 1.3v2.1c0 0.4 0 1.6 0 3.4C24 42.5 24.5 52.4 26 52.6z"/>

  <path class="svg-clr-red" fill="#CB3232" d="M68.9 34.9l-0.1-1c0.6-4.8 1.1-8.1 1.6-10 1.1-4.4 3.2-8.1 6.2-11l1.1-1.1c1.4-1.6 3.5-3.1 6.4-4.2h1.7c2.9-1.2 7.6-2.3 14.2-3.3 1.6 0 3.4 0.1 5.2 0.4 1.8 0.2 3.8 0.7 6 1.2 2.2 0.6 4.3 1.5 6.4 2.7 2 1.2 3.7 2.7 5.1 4.5v1.2c4.8 6 7.2 12.8 7.2 20.2 0 8.4-1.9 15.3-5.8 20.6l-1.8 2.2c-1.4 1.7-3 3.1-5 4.3 -2 1.2-4.1 2.1-6.4 2.8 -2.3 0.6-4.4 1.1-6.5 1.3 -2.1 0.3-4.1 0.4-6.2 0.4 -3 0-5.9-0.4-8.6-1.1 -2.7-0.7-5.3-1.8-7.7-3.4 -2.4-1.5-4.5-3.4-6.3-5.6 -1.8-2.2-3.3-4.9-4.4-8.1 -1.1-3.2-1.8-6.6-2-10.5V34.9zM93.1 35.2c0 10.3 2 15.5 5.9 15.5 1.1 0 2-0.2 2.8-0.6 0.8-0.4 1.5-1 2-1.9 0.5-0.9 0.9-1.7 1.2-2.6 0.3-0.9 0.5-2 0.7-3.3 0.1-1.3 0.2-2.5 0.3-3.5 0-1 0.1-2.2 0.1-3.6v-1.6c0-1.5-0.1-3-0.3-4.4 -0.2-1.4-0.5-2.8-0.9-4.2 -0.4-1.4-1.1-2.6-2-3.4 -0.9-0.9-2-1.3-3.2-1.3 -4.4 0-6.6 4.3-6.6 13V35.2z"/>

  <path class="svg-clr-red" fill="#CB3232" d="M194.3 6.2c0.4 0.1 0.6 0.6 0.8 1.5 0.2 0.9 0.3 2 0.3 3.4 0 1.4 0 2.6 0 3.9 0 1.2-0.1 2.5-0.1 3.8 0 1.3-0.1 2.1-0.1 2.4 -0.1 1.2-0.1 2.8-0.1 4.9v4.7c0 2.1 0 4.9 0.1 8.5 0.1 3.6 0.1 6.2 0.1 7.9v16c-0.1 1-0.9 1.5-2.5 1.5h-24.6c-0.5-0.1-1.2-1.3-2-3.7 -0.6-1.6-1.5-4.1-2.8-7.7 -1.3-3.5-2.4-6.7-3.4-9.4 -0.9-2.7-1.8-5.3-2.6-7.8v-0.3 0.3c-0.1 1.9-0.2 4.8-0.3 8.6 -0.1 3.8-0.2 6.7-0.3 8.6v9c0 0.9-0.1 1.5-0.3 1.8 -0.2 0.3-0.7 0.6-1.6 0.8h-18.1L135 63c0.1-4.9 0.3-12.5 0.4-22.9 0.1-10.4 0.2-18.1 0.4-23.1V7.6c0.3-1.1 0.6-1.6 1.1-1.6v0.2c2 0 5.1-0.1 9.4-0.2 4.3-0.1 7.5-0.2 9.6-0.2h7.4c0 0 0.1 0 0.1 0 0.5 0.2 0.8 0.4 0.9 0.7l0 0.3c1.1 2.8 2.1 5.8 3.2 8.8 1.1 3.1 2.4 6.7 3.9 11.1 1.5 4.3 2.5 7.3 3.1 9v-6.5c0.6-10.3 0.9-17.7 0.9-22 0-0.5 0.3-0.8 1-0.9 0.6-0.1 1.6-0.2 3-0.2H194.3z"/>

  <path class="svg-clr-red" fill="#CB3232" d="M201 29l4.3-18.7c0.1-0.3 0.2-0.8 0.4-1.4 0.3-1.2 0.5-2 0.6-2.6 0.1-0.5 0.3-1.2 0.6-2 0.2-0.8 0.5-1.4 0.7-1.8 0.2-0.4 0.4-0.8 0.7-1.2 0.3-0.4 0.6-0.7 1-0.9 0.4-0.1 0.7-0.2 1.2-0.2H223c4.9 0 7.4 0.4 7.4 1.2v0.4c-0.1 0-0.1 0.1-0.1 0.2 -3.8 10.9-6.1 17.5-7 20l-2.5 6.5c-0.4 0.8-3.4 1.1-9 1.1H208c-0.2 0-0.6 0-1.1 0 -0.5 0-0.9 0-1.1 0 -0.8 0-1.3 0-1.8-0.1h-1.7V29H201z"/>

  <path class="svg-clr-red" fill="#CB3232" d="M231.3 14c0-0.5 0-1.3 0.1-2.4s0.1-1.8 0.1-2.1c0-0.1 0-0.7-0.1-1.6 -0.1-0.9-0.1-1.7-0.1-2.4 0-3.1 0.3-4.7 0.9-4.7 0.2 0 0.4 0 0.6 0.1 6.1 0 15.2-0.1 27.3-0.2 12-0.1 21.1-0.2 27-0.2 1.5 0 2.4 0.1 2.8 0.4 0.4 0.3 0.6 0.8 0.6 1.5v1.2c0 1.5 0 3.8 0 6.8 0 3 0 5.2 0 6.8 0 1.5-0.4 2.3-1.2 2.3 -1.6 0-4.1 0-7.3-0.1 -3.3-0.1-5.7-0.1-7.3-0.1v47.2c-0.2 0.9-0.7 1.3-1.5 1.4 -1 0-2.5 0-4.5 0 -2 0-3.5 0-4.5 0 -0.1 0-0.1 0-0.2 0.1 -1.3 0-3.1 0-5.4 0 -2.3 0-4.1 0-5.2 0h-2.6c-0.6 0.1-1.4 0.1-2.6 0.1l-1.8-2.1c0-4.5 0.1-11.1 0.4-19.9 0.3-8.8 0.4-15.4 0.4-19.9 0-0.2 0-0.5 0-1 0-0.5 0-0.9 0-1.1 0-0.3 0-0.7-0.1-1.1 0-0.4-0.1-0.8-0.2-1.1 -0.1-0.3-0.2-0.6-0.4-0.8 -0.1-0.3-0.3-0.5-0.6-0.6 -0.2-0.1-0.5-0.2-0.9-0.2h-12.6C231.7 19.8 231.3 17.8 231.3 14z"/>

  <path class="svg-clr-orange" fill="#F26622" d="M0 114.7V76.9c0-0.1 0.1-0.2 0.2-0.3 0.1-0.1 0.3-0.2 0.6-0.2 0.3 0 0.5-0.1 0.7-0.1 0.2 0 0.5 0 0.9 0 0.4 0 0.6 0 0.8 0h23c1.9 0 3.7 0.3 5.4 0.9 1.7 0.6 3.2 1.5 4.5 2.6 1.3 1.1 2.3 2.6 3.1 4.4 0.8 1.8 1.1 3.8 1.1 6.1 0 1.7-0.2 3.2-0.6 4.6 -0.4 1.4-0.9 2.6-1.5 3.5 -0.6 1-1.4 1.8-2.3 2.6 -0.9 0.8-1.9 1.4-2.8 1.9 -1 0.5-2 0.9-3.2 1.2 -1.2 0.3-2.2 0.6-3.2 0.7 -1 0.2-2 0.3-3.1 0.3H18c-0.2 3-0.2 6.3-0.2 10v3.2c-0.1 0.7-0.4 1-1 1H0.7C0.2 117.9 0 116.4 0 114.7zM16 94.9l0.9 1.2c0.8 0 1.5-0.1 2.2-0.2 0.7-0.1 1.4-0.3 2.1-0.6 0.7-0.3 1.3-0.6 1.8-1.1 0.5-0.4 0.9-1 1.2-1.7 0.3-0.7 0.5-1.5 0.5-2.3 0-0.7-0.1-1.3-0.3-1.8 -0.2-0.5-0.4-0.9-0.7-1.3 -0.3-0.3-0.6-0.6-1-0.9 -0.4-0.2-0.9-0.4-1.2-0.6 -0.4-0.1-0.9-0.2-1.5-0.3 -0.6-0.1-1.1-0.1-1.5-0.1 -0.4 0-0.9 0-1.5 0C16.3 85.6 16 88.8 16 94.9z"/>

  <path class="svg-clr-orange" fill="#F26622" d="M42.4 117.5V80.2c0-0.2 0.2-0.3 0.5-0.4 0.3-0.1 0.5-0.2 0.5-0.3h15.3v36.9c-0.1 0.4-0.2 0.7-0.3 0.8 -0.1 0.1-0.2 0.2-0.4 0.2H42.4z"/>

  <path class="svg-clr-orange" fill="#F26622" d="M61.1 89.9V79.7h33c0.3 0.1 0.5 0.2 0.6 0.4 0.1 0.2 0.1 0.4 0.1 0.8v9.1c0 0.5-0.3 0.7-0.8 0.7h-8.1v26.1c0 0 0 0.1 0 0.1 0 0.1 0 0.1 0 0.1 0 0 0 0.1 0 0.1 0 0.1 0 0.1-0.1 0.1 0 0 0 0.1-0.1 0.1 0 0 0 0.1-0.1 0.1 0 0-0.1 0-0.1 0.1 0 0-0.1 0.1-0.1 0.1 0 0-0.1 0-0.2 0 -0.1 0-0.1 0-0.2 0h-1.8c-2.4 0-3.6-0.1-3.6-0.2 -0.2 0-0.4 0-0.7 0 -0.3 0-0.5 0-0.7 0h-2.3c-0.4 0-1.1 0-1.9 0 -0.8 0-1.4 0-1.9 0h-1.6l-1.1-0.8v-6.1c0-1.1 0.1-3.4 0.2-7 0.1-3.6 0.2-6.4 0.2-8.5v-0.7c0-0.2 0-0.4 0-0.7 0-0.3 0-0.6 0-0.7 0-0.2 0-0.5 0-1 0-0.5 0-0.9 0-1h-7.1c-0.4 0-0.8-0.1-1.2-0.2C61.3 90.4 61.1 90.2 61.1 89.9z"/>

  <path class="svg-clr-orange" fill="#F26622" d="M115.2 118.3c-3.2 0-6-0.5-8.5-1.6 -2.5-1.1-4.6-2.5-6.2-4.4 -1.6-1.9-2.8-4.1-3.7-6.6 -0.8-2.5-1.3-5.3-1.3-8.3V97c0-0.1 0.1-0.5 0.1-1 0-0.5 0.1-0.9 0.1-1 0-0.2 0-0.5 0.1-0.9 0.1-0.5 0.1-0.8 0.1-1 0-0.2 0.1-0.5 0.2-0.9 0.1-0.4 0.1-0.7 0.2-1 0.1-0.3 0.2-0.6 0.3-0.9 0.1-0.4 0.2-0.7 0.4-1 0.1-0.3 0.3-0.7 0.5-1v0.1c0.9-1.8 2-3.4 3.3-4.7 1.3-1.3 2.8-2.3 4.4-3.1 1.6-0.7 3.2-1.3 4.9-1.6 1.7-0.3 3.4-0.5 5.3-0.5 2.3 0 4.5 0.2 6.4 0.7 1.9 0.5 3.5 1.1 4.7 1.9 1.2 0.8 2.3 1.7 3.2 2.8 0.9 1.1 1.6 2.2 2 3.4 0.5 1.2 0.8 2.4 1 3.8v2.4c-0.1 0.3-0.2 0.5-0.4 0.6 -0.2 0.1-0.5 0.2-0.7 0.3 -0.3 0-0.6 0-1.1 0h-12.1V92c-0.1-0.6-0.4-1.2-0.8-1.8 -0.5-0.5-1-0.8-1.7-0.8 -0.6 0-1.1 0.1-1.5 0.4 -0.4 0.2-0.8 0.6-1 1 -0.3 0.4-0.5 0.9-0.6 1.4 -0.2 0.5-0.3 1.1-0.3 1.7 0 0.6-0.1 1.2-0.1 1.8 0 0.6 0 1.2 0 1.7 0 0.4 0 0.7 0 0.8v3.2c0 0.5 0 0.9 0.1 1.4 0 0.4 0.2 1 0.3 1.7 0.2 0.7 0.5 1.3 0.9 1.7 0.5 0.4 1 0.7 1.7 0.7 0.7 0 1.3-0.3 1.6-0.9 0.3-0.6 0.6-1.3 0.9-2.2 0.2-0.9 0.5-1.4 0.8-1.7 0.8 0 1.9 0 3.4 0 1.5 0 2.6 0 3.4 0 0.5 0 1.3 0 2.4 0 1 0 1.8 0 2.4 0h2.1c0.6 0 1 0.4 1 1.1v1.1c-0.4 3.8-1.8 6.8-4.2 9.1 -2.4 2.3-5.3 3.8-8.9 4.4v0.2C118.7 118.2 117.1 118.3 115.2 118.3z"/>

  <path class="svg-clr-orange" fill="#F26622" d="M173.1 80.7v34.9c0 0.4 0 0.7 0 0.9 0 0.2-0.1 0.5-0.2 0.7 -0.1 0.2-0.3 0.3-0.6 0.3h-14.5v-0.6c0 0-0.2-0.1-0.4-0.3 -0.3-0.1-0.4-0.3-0.5-0.4v-11.5c0-0.4 0-0.7-0.1-0.7 -0.1-0.1-0.3-0.1-0.8-0.1H154c-0.5 0-1 0-1.6 0.1v12.2c-0.1 0.3-0.2 0.6-0.4 0.7 -0.2 0.1-0.5 0.1-1 0.1h-1.3c-0.9 0-2.3 0-4.2 0.1 -1.9 0-3.3 0.1-4.3 0.1h-3.7c-0.8 0-1.2-0.5-1.2-1.4l0.2-35.7c0-0.1 0-0.2 0.1-0.2 0.1-0.1 0.2-0.2 0.3-0.3 0.2-0.1 0.3-0.2 0.3-0.2h15.3v12.2h4.9V79.2h14.5c0.5 0 0.8 0.1 1 0.3C173 79.7 173.1 80.1 173.1 80.7z"/>

  <path class="svg-clr-orange" fill="#F26622" d="M253.2 108c0 0.3 0 0.9 0.1 1.6 0 0.7 0.1 1.4 0.1 2 0 0.6 0 1.4 0 2.1 0 0.8 0 1.5-0.1 2.1 -0.1 0.6-0.2 1.2-0.3 1.8 -0.1 0.6-0.3 1-0.6 1.3 -0.3 0.3-0.6 0.5-1 0.5h-12.9c-0.9-0.7-1.4-3.3-1.4-7.8 0-1.6 0-3.6 0-5.9 0-2.3 0-4 0-4.9v-2c0-0.2 0-0.5 0-1 0-0.5 0-0.9 0-1.1 -0.8 2.7-1.7 6.7-2.8 11.8 -1.1 5.1-1.9 8.5-2.3 10.2 -0.2 0.5-1.1 0.8-2.6 0.8h-10c-1.2 0-1.9-0.3-2.2-1l-2.7-11.9c-0.2-1.2-0.5-2.5-0.8-3.8 -0.3-1.3-0.6-2.8-1-4.5 -0.4-1.7-0.7-2.9-0.9-3.7 -0.2 6-0.3 10.7-0.3 13.8v5c0 2.2 0 3.9 0.1 5 -0.1 0.4-0.3 0.6-0.6 0.6h-2.7c-1.1 0-2.8 0-4.9 0 -2.2 0-3.8 0-4.9 0 -1 0-1.5-0.2-1.5-0.5V76.6c0-0.2 0-0.3 0.1-0.4 0.1-0.1 0.2-0.2 0.4-0.3 0.2-0.1 0.4-0.1 0.5-0.2 0.2 0 0.4-0.1 0.7-0.1 0.3 0 0.5 0 0.7 0 0.2 0 0.4 0 0.7 0 0.3 0 0.4 0 0.5 0h3.3c5.4 0 9.2 0.1 11.4 0.2 2.2 0.2 3.9 0.2 5.1 0.2 0.5 2.5 1.2 6.3 2.2 11.3l2.2 11.3 4.5-22.9c0.3 0.1 0.5 0.1 0.6 0.1 2 0 5 0 9-0.1 3.9-0.1 6.9-0.1 9-0.1h4.2c0.5 0.1 0.8 0.6 0.8 1.6C253 95.6 253.2 105.8 253.2 108z"/>

  <path class="svg-clr-orange" fill="#F26622" d="M258.2 117.5v-1.1c0-3.2 0-8 0.1-14.3 0.1-6.3 0.1-11.1 0.1-14.3V76.1h33v9.3c0 0.1 0 0.2 0 0.4 0 0.2 0 0.4 0 0.5 0 0.1 0 0.2 0 0.4 0 0.2-0.1 0.3-0.1 0.4 0 0.1-0.1 0.2-0.2 0.3 -0.1 0.1-0.2 0.2-0.3 0.3 -0.1 0.1-0.3 0.1-0.5 0.2 -0.2 0-0.4 0.1-0.6 0.1H289c-4.9 0-9.4-0.1-13.4-0.2 0 0.3-0.1 0.8-0.2 1.4 -0.1 0.6-0.2 1.2-0.2 1.7 0 0.5-0.1 0.9-0.1 1.4h13.5c0.6 0 0.9 0.1 1.1 0.2 0.2 0.2 0.3 0.4 0.3 0.7 0 0.1 0 0.2 0 0.5 0 0.2 0 0.4 0 0.5 0 0.9 0 2.2 0.1 4 0.1 1.8 0.1 3.1 0.1 4 -0.1 0.4-0.2 0.6-0.5 0.6 -0.1 0-0.2 0-0.3-0.1 -6 0.3-10.4 0.5-13.3 0.5h-0.7v4.1c1.7 0 4.1-0.1 7.3-0.2 3.2-0.2 5.6-0.2 7.2-0.2 1.2 0 2 0.3 2.2 0.8v2.2c0 0.9 0 2.2 0.1 4 0 1.8 0.1 3.1 0.1 4 0 0.9-0.4 1.4-1.1 1.4 -1 0-2.5 0-4.5 0 -2 0-3.6 0-4.6 0 -2.7 0-6.6 0.1-11.7 0.2 -5.1 0.1-8.7 0.2-11 0.2l-0.8-0.9C258.3 118 258.2 117.7 258.2 117.5z"/>

  <path class="svg-clr-blue" fill="#3499CB" d="M0.4 202v-72.2l46.3-1.6c2.9 0 5.5 0.2 8 0.5 2.5 0.4 5 1 7.6 2 2.6 1 4.7 2.3 6.5 3.8 1.8 1.6 3.3 3.6 4.4 6.2 1.1 2.6 1.7 5.5 1.7 8.9 0 4.5-1 8.1-2.9 10.9 -2 2.8-4.9 5.2-8.8 7.4 4.6 1.3 8.1 3.5 10.5 6.7s3.6 7.2 3.6 12c0 3.6-0.7 6.8-2 9.6 -1.4 2.8-3.1 5.2-5.3 6.9 -2.1 1.8-4.7 3.3-7.6 4.5 -2.9 1.2-5.8 2-8.6 2.5 -2.8 0.5-5.7 0.7-8.7 0.7 -1.7 0-4.3 0-7.7-0.1 -3.4-0.1-6.1-0.1-7.8-0.1 -9.9 0-19.1 0.1-27.3 0.4C1.1 209.1 0.5 206.1 0.4 202zM31.2 147.7c0 1.6 0.1 4 0.2 7.2 0.1 3.2 0.2 5.6 0.2 7.2 0 0.7 0.4 1.1 1.3 1.2 0.5-0.1 1.4-0.2 2.6-0.3 1.2-0.2 2.2-0.3 2.9-0.4 0.7-0.1 1.6-0.4 2.6-0.8 1-0.4 1.8-0.9 2.4-1.5 0.6-0.6 1.1-1.4 1.5-2.5 0.4-1.1 0.6-2.4 0.6-3.8 0-5.4-3.8-8.1-11.3-8.1 -1.5 0.3-2.4 0.5-2.6 0.8C31.3 146.8 31.2 147.2 31.2 147.7zM32.1 188.6c0 2.6 0.1 4 0.4 4h1.7c1.4 0 2.6 0 3.6-0.1 1-0.1 2.1-0.3 3.3-0.7 1.2-0.4 2.1-0.8 2.8-1.5 0.7-0.6 1.3-1.5 1.8-2.7 0.5-1.1 0.8-2.5 0.8-4.1 0-0.9-0.1-1.7-0.3-2.5 -0.2-0.8-0.5-1.4-0.9-1.9 -0.4-0.5-0.8-1-1.2-1.4 -0.4-0.4-0.9-0.7-1.6-1 -0.7-0.3-1.3-0.5-1.7-0.6 -0.4-0.2-1.1-0.3-2-0.4 -0.9-0.1-1.5-0.2-1.9-0.2 -0.4 0-1.1-0.1-2-0.1 -1-0.1-1.6-0.1-1.8-0.1v2c0 0.4-0.2 1.7-0.6 4 -0.3 2.3-0.5 4-0.5 5.4V188.6z"/>

  <path class="svg-clr-blue" fill="#3499CB" d="M162.8 209.5c-0.8 0.8-2.4 1.3-5 1.4 -2.5 0.1-5.6 0.1-9.3-0.1 -3.7-0.2-5.6-0.3-5.9-0.3 -2.4 0-4.2 0-5.3-0.1h-5.4c-0.8-0.3-1.4-1.4-2-3.5 -0.5-2.1-1.1-5.1-1.6-9 -0.5-3.9-0.8-6-0.8-6.2 -0.1-3.5-0.7-5.9-1.7-7 -1-1.1-2.8-1.7-5.5-1.7h-2.4v26.2c-0.1 0.4-0.4 0.8-1.1 1.1 -0.7 0.3-1.7 0.5-2.9 0.6 -1.3 0.1-2.4 0.1-3.4 0.2 -1 0-2.3 0-3.9 0 -1.6 0-2.6-0.1-2.9-0.1h-7.7c-4.4 0-7.6 0-9.9 0.1 -0.5-0.2-1-0.5-1.5-0.8v-80c0-1 1.4-1.5 4.3-1.5h46.8c8.1 0.2 14.3 2.1 18.5 5.8 4.2 3.6 6.4 8.8 6.4 15.4 0 8.7-4.4 15-13.1 19 1.6 0.5 3.1 1.2 4.3 2.1 1.3 0.9 2.4 1.9 3.2 2.9 0.9 1 1.6 2.2 2.3 3.7 0.6 1.4 1.1 2.8 1.5 4 0.4 1.3 0.7 2.7 0.9 4.5 0.3 1.7 0.5 3.2 0.6 4.5 0.1 1.3 0.2 2.7 0.4 4.5 0.2 1.7 0.3 3.1 0.4 4.1v4.7c0.1 0.6 0.4 1.4 1 2.4 0.6 1 0.9 1.8 1 2.3C163.3 209.1 163.1 209.5 162.8 209.5zM117.8 151.4c0 2.1 0 3.7 0.1 4.8 0 1 0.2 2.4 0.6 4.1 0.4 1.7 0.9 2.9 1.6 3.6 1.5 0 2.9-0.2 4.3-0.5 1.3-0.3 2.6-0.8 3.9-1.6 1.3-0.7 2.2-1.8 3-3.2 0.7-1.4 1.1-3.1 1.1-5.1 0-1.1-0.2-2.1-0.6-2.9 -0.4-0.8-1-1.5-1.7-2 -0.8-0.5-1.5-0.9-2.2-1.2 -0.7-0.3-1.6-0.5-2.7-0.6 -1.1-0.1-1.9-0.2-2.5-0.2 -0.6 0-1.3-0.1-2.2-0.1h-1.3c-0.5 0.3-0.9 0.8-1 1.5C117.9 148.7 117.8 149.8 117.8 151.4z"/>

  <path class="svg-clr-blue" fill="#3499CB" d="M164.5 168.9v-5.9c0.4-5 1.4-9.6 3.3-13.7 1.8-4.1 4.1-7.6 6.9-10.4 2.8-2.8 6-5.2 9.7-7.2 3.7-1.9 7.5-3.4 11.6-4.3 4-0.9 8.2-1.3 12.5-1.3 2.4 0 4.8 0.2 7.4 0.6 2.6 0.4 5.3 1 8.1 1.9 2.9 0.9 5.6 2.1 8.2 3.8 2.6 1.7 4.8 3.6 6.5 5.9 3.5 4.3 6.1 8.9 7.7 13.6 1.6 4.7 2.4 10 2.4 15.8 0.1 12.1-2.5 21.8-7.9 29.2l-2.4 3.2c-2.1 2.9-5 5.2-8.9 7.2 -3.9 1.9-7.7 3.2-11.6 4 -3.9 0.7-7.8 1.1-11.7 1.1 -4.6 0-8.9-0.5-12.8-1.4 -3.9-0.9-7.3-2.2-10.1-3.8 -2.8-1.6-5.3-3.5-7.6-5.7 -2.2-2.3-4-4.6-5.4-7.1 -1.4-2.5-2.6-5.2-3.5-8.1 -0.9-2.9-1.6-5.8-1.9-8.6C164.7 174.7 164.5 171.9 164.5 168.9zM207.2 147.7c-1.5 0-2.8 0.3-3.9 1 -1.2 0.7-2.1 1.5-2.8 2.5 -0.7 1-1.4 2.3-1.9 3.9 -0.5 1.6-0.9 3.1-1.2 4.4 -0.3 1.3-0.4 2.9-0.6 4.9 -0.1 2-0.2 3.5-0.2 4.6 0 1.1 0 2.5 0 4.2 0 1.6 0.1 3.2 0.2 4.7 0.1 1.5 0.4 3.1 0.8 4.7 0.4 1.7 0.9 3.1 1.6 4.3 0.7 1.2 1.6 2.3 2.7 3.1 1.2 0.8 2.5 1.3 4 1.4 1.6 0 3-0.3 4.2-0.8 1.2-0.5 2.2-1.2 3.1-2 0.8-0.8 1.5-1.9 2.1-3.2s1-2.7 1.3-3.9c0.3-1.3 0.5-2.8 0.7-4.7 0.2-1.9 0.3-3.5 0.3-4.8 0-1.3 0.1-3 0.1-5.1 0-1.5 0-2.9-0.1-4.2 -0.1-1.3-0.2-2.7-0.5-4.3 -0.2-1.6-0.6-3-1.1-4.2 -0.5-1.2-1.1-2.3-1.8-3.4 -0.7-1.1-1.7-1.9-2.8-2.4C210.1 148 208.7 147.7 207.2 147.7z"/>

  <path class="svg-clr-blue" fill="#3499CB" d="M256.2 130.9c0-1.2 3-1.8 9.1-1.8h6.4c5.3-0.4 9.5-0.6 12.7-0.6 3.2 0 4.8 0.7 4.8 2.1l-3.9 48.8c0 0.4-0.2 0.7-0.6 0.9 -0.4 0.3-0.8 0.5-1.5 0.6 -0.6 0.1-1.3 0.2-2 0.3 -0.7 0.1-1.4 0.1-2.3 0.1 -0.5 0-1.2 0-2.1-0.1 -0.9 0-1.6-0.1-2.1-0.1 -1 0-2.4 0-4.2 0.1 -1.9 0.1-3.3 0.1-4.2 0.1h-4.6c-0.4-0.1-0.7-0.4-1-0.6 -0.3-0.3-0.5-0.7-0.7-1.1 -0.2-0.4-0.3-0.9-0.4-1.3 -0.1-0.4-0.2-0.9-0.2-1.6 0-0.6-0.1-1.2-0.1-1.6 0-0.4 0-1 0-1.6L256.2 130.9zM257.9 209.3l-0.5-8.1c0-2.8 0.2-5.4 0.5-7.6 0.4-2.2 0.8-3.4 1.4-3.4h10.5c3.7 0 6.7 0 8.9 0.1 2.2 0.1 3.9 0.2 5.1 0.3 1.2 0.2 1.9 0.3 2.3 0.6 0.3 0.2 0.5 0.5 0.5 0.9v16.9c-0.1 0.4-0.6 0.7-1.5 0.9 -0.9 0.2-2.1 0.4-3.6 0.6 -1.5 0.1-3.1 0.3-4.8 0.3 -1.7 0.1-3.5 0.1-5.5 0.1 -2 0-3.7 0-5.1 0 -1.4 0-2.9 0-4.3 0 -1.4 0-2.3 0-2.5 0v-0.9c-0.1-0.1-0.3-0.3-0.7-0.4S257.9 209.4 257.9 209.3z"/>
</svg>
