<?xml version="1.0" encoding="utf-8"?>
<!-- Generator: Adobe Illustrator 20.0.0, SVG Export Plug-In . SVG Version: 6.00 Build 0)  -->
<!DOCTYPE svg PUBLIC "-//W3C//DTD SVG 1.1//EN" "http://www.w3.org/Graphics/SVG/1.1/DTD/svg11.dtd">
<svg version="1.1" id="Layer_1" xmlns="http://www.w3.org/2000/svg" xmlns:xlink="http://www.w3.org/1999/xlink" x="0px" y="0px"
	 viewBox="0 0 816.9 77.4" style="enable-background:new 0 0 816.9 77.4;" xml:space="preserve">
<style type="text/css">
	<!-- .st0{fill:#414042;} -->
	.st0{fill:#FFFFFF;}
	.st1{fill:#712B62;}
	.st2{fill:#9A357D;}
	.st3{fill:#66265A;}
	.st4{fill:#642A5B;}
	.st5{fill:#712D64;}
	.st6{fill:#6B2B5F;}
	.st7{fill:#A13480;}
	.st8{fill:#722A63;}
	.st9{fill:#65285A;}
	.st10{fill:#5B2252;}
	.st11{fill:#5E2958;}
	.st12{fill:#80306D;}
	.st13{fill:#5E2A57;}
	.st14{fill:#842E6D;}
	.st15{fill:#8E2E74;}
	.st16{fill:#7E306C;}
	.st17{fill:#65295B;}
	.st18{fill:#943177;}
	.st19{fill:#5C3159;}
	.st20{fill:#632F5B;}
	.st21{fill:#732560;}
	.st22{fill:#96377C;}
	.st23{fill:#792B67;}
	.st24{fill:#591F50;}
	.st25{fill:#A13A84;}
	.st26{fill:#8A3173;}
	.st27{fill:#902D74;}
	.st28{fill:#5C2654;}
	.st29{fill:#AF3688;}
	.st30{fill:#783068;}
	.st31{fill:#6B285D;}
	.st32{fill:#582854;}
	.st33{fill:#67295C;}
	.st34{fill:#66295C;}
	.st35{fill:#B4338A;}
	.st36{fill:#C33C96;}
	.st37{fill:#C33794;}
	.st38{fill:#B9378F;}
	.st39{fill:#C03D95;}
	.st40{fill:#BD3B92;}
	.st41{fill:#C14096;}
	.st42{fill:#B73D91;}
	.st43{fill:#992E79;}
	.st44{fill:#A63483;}
	.st45{fill:#692A5E;}
	.st46{fill:#632B5B;}
	.st47{fill:#5F2154;}
	.st48{fill:#95357B;}
	.st49{fill:#B03489;}
	.st50{fill:#B63D90;}
	.st51{fill:#91387A;}
	.st52{fill:#772965;}
	.st53{fill:#B23489;}
	.st54{fill:#B03C8C;}
	.st55{fill:#5D2655;}
	.st56{fill:#AC3D8B;}
	.st57{fill:#6B295E;}
	.st58{fill:#99337B;}
	.st59{fill:#832E6E;}
	.st60{fill:#592854;}
	.st61{fill:#934581;}
	.st62{fill:#772C67;}
	.st63{fill:#7D2868;}
	.st64{fill:#8E3175;}
	.st65{fill:#98397E;}
	.st66{fill:#9F4487;}
	.st67{fill:#6E3665;}
	.st68{fill:#742661;}
	.st69{fill:#70265F;}
	.st70{fill:#80296A;}
	.st71{fill:#872E70;}
	.st72{fill:#8B2D71;}
	.st73{fill:#6B4D6F;}
	.st74{fill:#6C265D;}
	.st75{fill:#5E2153;}
	.st76{fill:#65265A;}
	.st77{fill:#6C235C;}
	.st78{fill:#5E2354;}
	.st79{fill:#5B2152;}
	.st80{fill:#7C2B69;}
	.st81{fill:#752562;}
	.st82{fill:#602B5A;}
	.st83{fill:#732D65;}
	.st84{fill:#642357;}
	.st85{fill:#752863;}
	.st86{fill:#7A2B68;}
	.st87{fill:#612255;}
	.st88{fill:#702860;}
	.st89{fill:#702861;}
	.st90{fill:#FFFFFF;}
	.st91{fill:#FCFADB;}
	.st92{fill:#F9D3C6;}
</style>
<path class="st0" d="M219.4,39.3c0-6.5,5.3-11.3,15.3-11.3c6.5,0,12.6,2,17.5,4.5v-26c-4.5-2.3-12.7-4.1-20.7-4.1
	c-23.9,0-41,15.5-41,36.3c0,20.9,17.2,36.3,40.7,36.3c8.4,0,16.8-1.9,21.4-4.4V45.8c-4.9,2.7-11.4,4.7-17.9,4.7
	C224.7,50.5,219.4,45.8,219.4,39.3z"/>
<polygon class="st0" points="125.4,33.4 125.3,33.5 104.5,3.5 78.2,3.5 78.2,73.9 104.3,73.9 104.3,44 104.4,43.9 125.2,73.9
	151.5,73.9 151.5,3.5 125.5,3.5 125.4,33.4 "/>
<rect x="157.3" y="3.5" class="st0" width="29" height="70.4"/>
<path class="st0" d="M46.5,40.1c0,7.1-2.2,11.2-8.7,11.2c-6.7,0-8.8-4.7-8.8-11.3V3.5H0v38.4c0,11.5,3.1,17.8,6.6,21.9
	C12.8,71.1,23.7,75,36.1,75c12,0,23.6-3.6,30-11.4c3.7-4.5,6.4-11.3,6.4-22.1v-38H46.5V40.1z"/>
<path class="st0" d="M638.9,40.1c0,7.1-2.2,11.2-8.7,11.2c-6.7,0-8.8-4.7-8.8-11.3V3.5h-29v38.4c0,11.5,3.1,17.8,6.6,21.9
	c6.2,7.3,17.1,11.2,29.5,11.2c12,0,23.6-3.6,30-11.4c3.7-4.5,6.4-11.3,6.4-22.1v-38h-26.1V40.1z"/>
<polygon class="st0" points="717.8,33.4 717.7,33.5 696.9,3.5 670.6,3.5 670.6,73.9 696.6,73.9 696.6,44 696.8,43.9 717.6,73.9
	743.9,73.9 743.9,3.5 717.8,3.5 717.8,33.4 "/>
<polygon class="st0" points="748.7,3.5 748.7,27.4 768.3,27.4 768.3,73.9 797.3,73.9 797.3,27.4 816.9,27.4 816.9,3.5 748.7,3.5 "/>
<polygon class="st0" points="557.8,25.3 543.2,25.3 543.2,3.5 514.2,3.5 514.2,73.9 543.2,73.9 543.2,48.2 557.8,48.2 557.8,73.9
	586.8,73.9 586.8,3.5 557.8,3.5 "/>
<polygon class="st0" points="455.7,33.4 455.5,33.5 434.8,3.5 408.5,3.5 408.5,73.9 434.5,73.9 434.5,44 434.7,43.9 455.4,73.9
	481.8,73.9 481.8,3.5 455.7,3.5 455.7,33.4 "/>
<path class="st0" d="M392.2,42.6c5.3-3.7,8.8-9.1,8.8-16.7c0-18.8-19.7-22.4-34.2-22.4h-28.9v70.4h29V50.8h0.4l10.5,23.1h30.4
	L392.2,42.6z M369.1,34.6h-2.1V23.8h2.1c4.5,0,6.6,2.3,6.6,5.3C375.7,32.2,373.6,34.6,369.1,34.6z"/>
<g>
	<circle class="st1" cx="295.4" cy="38.6" r="38.6"/>
	<g>
		<path class="st2" d="M302.7,0.7c-2.4-0.4-4.8-0.7-7.3-0.7c-2.5,0-4.8,0.2-7.2,0.7l4.8,0.7L302.7,0.7z"/>
		<path class="st3" d="M327.9,59.5c2.6-4.1,4.5-8.6,5.4-13.5l-9.2,2L327.9,59.5z"/>
		<path class="st4" d="M333.3,45.9c0.5-2.4,0.7-4.8,0.7-7.3c0-0.2,0-0.3,0-0.5l-9.9,9.8L333.3,45.9z"/>
		<path class="st5" d="M331.1,23.9c-1-2.4-2.2-4.6-3.6-6.7l1.6,6.7L331.1,23.9z"/>
		<path class="st6" d="M333,29.7c-0.5-2-1.1-3.9-1.9-5.8l-2,0L333,29.7z"/>
		<path class="st7" d="M300,4.2l9.1-1.7c-2.1-0.8-4.2-1.4-6.4-1.8L293,1.3L300,4.2z"/>
		<path class="st8" d="M315.9,35l18,0.3c-0.2-1.9-0.5-3.8-0.9-5.7l-3.8-5.8L315.9,35z"/>
		<path class="st1" d="M324.1,48l9.9-9.8c0-0.9-0.1-1.8-0.1-2.8l-18-0.3L324.1,48z"/>
		<path class="st9" d="M318.8,55.6l8.1,5.5c0.4-0.5,0.7-1,1-1.5L324.1,48L318.8,55.6z"/>
		<path class="st10" d="M314.4,72.3c4-2.3,7.6-5.3,10.6-8.8l-17.4,5.2L314.4,72.3z"/>
		<path class="st11" d="M309.1,74.8c1.8-0.7,3.6-1.5,5.3-2.5l-6.9-3.6L309.1,74.8z"/>
		<path class="st12" d="M324.3,13c-1.9-2.1-4-4-6.3-5.7l-4,3.7L324.3,13z"/>
		<path class="st13" d="M307.5,68.7l17.4-5.2c0.7-0.8,1.3-1.6,2-2.5l-8.1-5.5L307.5,68.7z"/>
		<polygon class="st14" points="315.9,35 329.2,23.9 305.7,20.2 		"/>
		<polygon class="st15" points="329.2,23.9 314,11 305.7,20.2 		"/>
		<path class="st16" d="M329.2,23.9l-1.6-6.7c-1-1.5-2.1-2.9-3.2-4.2L314,11L329.2,23.9z"/>
		<polygon class="st17" points="307.5,68.7 318.8,55.6 313.5,56.1 		"/>
		<path class="st18" d="M314,11l4-3.7c-2.7-2-5.7-3.6-8.9-4.8L300,4.2L314,11z"/>
		<polygon class="st19" points="318.8,55.6 324.1,48 313.5,56.1 		"/>
		<polygon class="st1" points="324.1,48 315.9,35 313.5,56.1 		"/>
		<polygon class="st20" points="305.7,59 307.5,68.7 313.5,56.1 		"/>
		<polygon class="st21" points="313.5,56.1 315.9,35 305.7,59 		"/>
		<polygon class="st22" points="302.5,22.8 315.9,35 305.7,20.2 		"/>
		<polygon class="st23" points="305.7,59 315.9,35 287.5,38.3 		"/>
		<path class="st24" d="M297.3,72.8l3.8,4c2.8-0.4,5.4-1.1,8-2.1l-1.6-6.1L297.3,72.8z"/>
		<polygon class="st25" points="305.7,20.2 314,11 304.1,16.1 		"/>
		<polygon class="st26" points="287.5,38.3 315.9,35 299.2,26 		"/>
		<polygon class="st27" points="299.2,26 315.9,35 302.5,22.8 		"/>
		<path class="st28" d="M297,77.2c1.4-0.1,2.8-0.2,4.1-0.4l-3.8-4L297,77.2z"/>
		<polygon class="st29" points="314,11 300,4.2 304.1,16.1 		"/>
		<polygon class="st30" points="305.7,59 287.5,38.3 284.7,49.1 		"/>
		<polygon class="st31" points="292.1,60.5 305.7,59 284.7,49.1 		"/>
		<path class="st32" d="M295.5,77.2c0.5,0,1,0,1.5,0l0.3-4.4L295.5,77.2z"/>
		<polygon class="st33" points="292.1,60.5 297.3,72.8 305.7,59 		"/>
		<polygon class="st34" points="297.3,72.8 307.5,68.7 305.7,59 		"/>
		<polygon class="st35" points="304.1,16.1 302.5,22.8 305.7,20.2 		"/>
		<polygon class="st36" points="300,4.2 288.3,9.3 304.1,16.1 		"/>
		<polygon class="st37" points="300,4.2 293,1.3 294.4,3 		"/>
		<polygon class="st38" points="302.5,22.8 288.3,9.3 299.2,26 		"/>
		<polygon class="st39" points="304.1,16.1 288.3,9.3 302.5,22.8 		"/>
		<polygon class="st40" points="294.4,3 288.3,9.3 300,4.2 		"/>
		<polygon class="st41" points="290.3,4.4 288.3,9.3 294.4,3 		"/>
		<polygon class="st42" points="299.2,26 288.3,9.3 281.8,23.4 		"/>
		<polygon class="st43" points="299.2,26 281.8,23.4 287.5,38.3 		"/>
		<path class="st44" d="M288.2,0.7c-1.9,0.4-3.8,0.9-5.6,1.5L293,1.3L288.2,0.7z"/>
		<polygon class="st45" points="276.3,62.4 297.3,72.8 292.1,60.5 		"/>
		<path class="st46" d="M276.3,62.4l6.8,12.9c3.3,1.1,6.9,1.8,10.6,2l3.6-4.4L276.3,62.4z"/>
		<path class="st47" d="M293.7,77.2c0.6,0,1.1,0,1.7,0c0,0,0.1,0,0.1,0l1.8-4.4L293.7,77.2z"/>
		<polygon class="st48" points="287.5,38.3 281.8,23.4 279.4,26.6 		"/>
		<polygon class="st49" points="293,1.3 290.3,4.4 294.4,3 		"/>
		<path class="st50" d="M293,1.3l-10.4,0.9c-0.3,0.1-0.5,0.2-0.8,0.3l8.5,2L293,1.3z"/>
		<polygon class="st3" points="284.7,49.1 276.3,62.4 292.1,60.5 		"/>
		<polygon class="st51" points="277.1,32.3 287.5,38.3 279.4,26.6 		"/>
		<polygon class="st52" points="284.7,49.1 287.5,38.3 278.9,44.5 		"/>
		<path class="st53" d="M290.3,4.4l-8.5-2c-0.1,0-0.2,0.1-0.4,0.1l6.8,6.7L290.3,4.4z"/>
		<polygon class="st54" points="288.3,9.3 279.1,4.4 281.8,23.4 		"/>
		<path class="st55" d="M268.7,66.5c4.1,3.9,9,6.9,14.4,8.7l-6.8-12.9L268.7,66.5z"/>
		<path class="st56" d="M288.3,9.3l-6.8-6.7c-0.3,0.1-0.6,0.3-1,0.4l-1.4,1.5L288.3,9.3z"/>
		<polygon class="st57" points="273.3,52.2 276.3,62.4 284.7,49.1 		"/>
		<polygon class="st58" points="281.8,23.4 279.1,4.4 270,20.8 		"/>
		<polygon class="st59" points="278.9,44.5 287.5,38.3 277.1,32.3 		"/>
		<path class="st60" d="M272.1,61.2l-5,3.7c0.5,0.6,1.1,1.1,1.6,1.6l7.6-4.2L272.1,61.2z"/>
		<polygon class="st61" points="278.9,45.9 284.7,49.1 278.9,44.5 		"/>
		<polygon class="st62" points="273.3,52.2 284.7,49.1 278.9,45.9 		"/>
		<path class="st63" d="M270,20.8l-1.5-9.8c-1.1,1.1-2.1,2.2-3.1,3.4l-0.2,0.6L270,20.8z"/>
		<path class="st64" d="M279.1,4.4l-2.2,0.3c-3.1,1.7-5.9,3.8-8.5,6.3l1.5,9.8L279.1,4.4z"/>
		<polygon class="st65" points="281.8,23.4 270,20.8 279.4,26.6 		"/>
		<path class="st66" d="M279.1,4.4l1.4-1.5c-0.6,0.2-1.1,0.5-1.7,0.8L279.1,4.4z"/>
		<polygon class="st67" points="272.1,61.2 276.3,62.4 273.3,52.2 		"/>
		<polygon class="st68" points="269.5,29.9 278.9,44.5 277.1,32.3 		"/>
		<polygon class="st69" points="269.5,29.9 261.2,47 278.9,44.5 		"/>
		<polygon class="st70" points="279.4,26.6 269.5,29.9 277.1,32.3 		"/>
		<polygon class="st71" points="279.4,26.6 270,20.8 269.5,29.9 		"/>
		<path class="st72" d="M278.8,3.7c-0.6,0.3-1.3,0.6-1.9,1l2.2-0.3L278.8,3.7z"/>
		<polygon class="st73" points="278.9,44.5 273.3,52.2 278.9,45.9 		"/>
		<polygon class="st74" points="278.9,44.5 261.2,47 273.3,52.2 		"/>
		<polygon class="st75" points="261.2,47 268.5,53.3 273.3,52.2 		"/>
		<polygon class="st76" points="268.5,53.3 272.1,61.2 273.3,52.2 		"/>
		<polygon class="st77" points="263.1,29.8 261.2,47 269.5,29.9 		"/>
		<path class="st78" d="M268.5,53.3l-8.8,0.2c0.6,1.5,1.3,2.9,2.1,4.2l10.3,3.4L268.5,53.3z"/>
		<path class="st79" d="M261.9,57.8c1.5,2.6,3.2,5,5.3,7.1l5-3.7L261.9,57.8z"/>
		<polygon class="st80" points="270,20.8 263.1,29.8 269.5,29.9 		"/>
		<polygon class="st81" points="265.2,14.9 263.1,29.8 270,20.8 		"/>
		<path class="st82" d="M257.8,47.3c0.1,0.5,0.2,1,0.4,1.5l3.1-1.9L257.8,47.3z"/>
		<path class="st83" d="M263.1,29.8l-5.3,0.2c-0.3,1.5-0.6,3.1-0.8,4.7l4.3,12.3L263.1,29.8z"/>
		<path class="st84" d="M261.2,47l-3.1,1.9c0.4,1.6,1,3.2,1.6,4.7l8.8-0.2L261.2,47z"/>
		<path class="st85" d="M265.2,14.9l-5,7.7c-1.1,2.4-1.9,4.8-2.5,7.4l5.3-0.2L265.2,14.9z"/>
		<path class="st86" d="M265.4,14.3c-0.1,0.2-0.2,0.3-0.4,0.5l0.2,0.1L265.4,14.3z"/>
		<path class="st87" d="M257,34.7c-0.1,1.3-0.2,2.6-0.2,4c0,3,0.3,5.9,1,8.7l3.5-0.3L257,34.7z"/>
		<path class="st88" d="M264.8,15c-1.8,2.3-3.3,4.9-4.6,7.6l5-7.7L264.8,15z"/>
		<path class="st89" d="M265,14.8c-0.1,0.1-0.1,0.2-0.2,0.2l0.4-0.1L265,14.8z"/>
	</g>
	<g>
		<path class="st90" d="M312.1,55l7.2-8.5l-23.7-23.3l-2.1-9.4l-2.7,2.5l-2.3,5.9l-7.6-8.4l-2.7,3.9l1.7,6.6l-13.1,40.4
			c7,7.7,16.9,12.5,28,12.7l-1.4-29.2L312.1,55z"/>
		<polygon class="st91" points="296.2,28 319.3,46.5 296.2,23.8 		"/>
		<polygon class="st92" points="289.1,40.7 311.3,50.2 312.1,55 293.3,48.2 		"/>
		<polygon class="st92" points="319.3,46.5 311.3,50.2 312.1,55 317.2,51.3 		"/>
		<polygon class="st92" points="291.1,22.8 293.5,13.8 295.6,23.2 		"/>
		<polygon class="st92" points="280.8,13.8 282.8,25.7 288.4,22.2 		"/>
		<polygon class="st90" points="292.6,26.7 309.8,5.6 297.6,32.9 		"/>
		<polygon class="st92" points="295,29.7 299.2,29.2 309.8,5.6 		"/>
		<polygon class="st92" points="285.3,32.9 288.4,30.5 291.4,34.5 		"/>
		<polygon class="st91" points="291.4,34.5 311.3,50.2 289.1,40.7 285.3,32.9 		"/>
		<path class="st92" d="M271.8,69.4c6.4,4.9,14.3,7.8,22.9,8l-1.4-29.2L271.8,69.4z"/>
		<path class="st91" d="M289.1,40.7l-19.1,27.2c0.6,0.5,1.3,1.1,1.9,1.6l21.5-21.2L289.1,40.7z"/>
	</g>
</g>
</svg>
