<svg class="svg-logo-sd" style="display: none;" xmlns="http://www.w3.org/2000/svg" xmlns:xlink="http://www.w3.org/1999/xlink" version="1.1" id="Layer_1" x="0px" y="0px" viewBox="0 316.8 595.3 208.3" enable-background="new 0 316.8 595.3 208.3" xml:space="preserve">
  <rect x="85.4" y="431" class="svg-clr-yellow" fill="#FFD797" width="37" height="11.8"/>

  <rect x="109.9" y="429.8" class="svg-clr-blue" fill="#1DACE2" width="14.8" height="14"/>

  <path class="svg-clr-grey" fill="#454849" d="M262.9 410.9c-2.3-1.7-5.2-2.5-8.7-2.5 -1.4 0-2.9 0.1-4.2 0.4 -1.4 0.3-2.6 0.8-3.7 1.4 -1.1 0.7-1.9 1.6-2.6 2.7 -0.6 1.1-1 2.5-1 4.2 0 1.6 0.5 2.9 1.4 3.8s2.2 1.8 3.7 2.4c1.6 0.6 3.3 1.1 5.3 1.5 2 0.4 4 0.9 6 1.3s4 1 6 1.7c2 0.6 3.7 1.5 5.3 2.6 1.6 1.1 2.8 2.5 3.7 4.2 0.9 1.7 1.4 3.8 1.4 6.3 0 2.7-0.6 5.1-1.8 7s-2.8 3.5-4.7 4.7c-1.9 1.2-4.1 2.1-6.4 2.7 -2.4 0.6-4.7 0.8-7.1 0.8 -2.9 0-5.6-0.4-8.2-1.1 -2.6-0.7-4.8-1.8-6.8-3.3s-3.5-3.3-4.6-5.6c-1.1-2.3-1.7-5-1.7-8.1h6.5c0 2.2 0.4 4 1.3 5.6 0.8 1.6 1.9 2.8 3.3 3.8 1.4 1 3 1.7 4.8 2.2 1.8 0.5 3.7 0.7 5.6 0.7 1.5 0 3.1-0.1 4.6-0.4 1.6-0.3 3-0.8 4.2-1.5 1.2-0.7 2.3-1.6 3-2.8 0.8-1.2 1.2-2.7 1.2-4.6 0-1.8-0.5-3.2-1.4-4.3 -0.9-1.1-2.2-2-3.7-2.7 -1.6-0.7-3.3-1.3-5.3-1.7s-4-0.9-6-1.3 -4-1-6-1.6c-2-0.6-3.7-1.4-5.3-2.4s-2.8-2.3-3.7-3.8c-0.9-1.6-1.4-3.5-1.4-5.9 0-2.6 0.5-4.8 1.6-6.7 1.1-1.9 2.5-3.5 4.2-4.7 1.7-1.2 3.7-2.1 6-2.7 2.2-0.6 4.5-0.9 6.9-0.9 2.6 0 5.1 0.3 7.3 0.9 2.3 0.6 4.2 1.6 5.9 2.9s3 3 4 5.1c1 2 1.5 4.5 1.6 7.3h-6.5C266.5 415.2 265.1 412.6 262.9 410.9z"/>

  <path class="svg-clr-grey" fill="#454849" d="M283.1 411.4v-7.5h6.1v7.5H283.1zM289.2 418.1v37.1h-6.1v-37.1H289.2z"/>

  <path class="svg-clr-grey" fill="#454849" d="M305.2 403.9v51.3h-6.1v-51.3H305.2z"/>

  <path class="svg-clr-grey" fill="#454849" d="M315 411.4v-7.5h6.1v7.5H315zM321.1 418.1v37.1H315v-37.1H321.1z"/>

  <path class="svg-clr-grey" fill="#454849" d="M352.8 424.5c-1.5-1.3-3.6-1.9-6.2-1.9 -2.2 0-4.1 0.4-5.5 1.2 -1.5 0.8-2.7 1.9-3.6 3.2 -0.9 1.3-1.5 2.9-1.9 4.6 -0.4 1.8-0.6 3.6-0.6 5.4 0 1.7 0.2 3.4 0.6 5s1 3.1 1.9 4.4c0.9 1.3 2 2.3 3.4 3.1 1.4 0.8 3 1.2 5 1.2 3 0 5.4-0.8 7.1-2.4s2.7-3.8 3.1-6.7h6.3c-0.7 4.6-2.4 8.1-5.1 10.6 -2.8 2.5-6.5 3.7-11.3 3.7 -2.8 0-5.3-0.5-7.5-1.4 -2.2-0.9-4-2.2-5.5-3.9 -1.5-1.7-2.6-3.7-3.3-6 -0.7-2.3-1.1-4.9-1.1-7.7 0-2.8 0.4-5.4 1.1-7.8 0.7-2.4 1.8-4.5 3.3-6.3 1.5-1.8 3.3-3.2 5.5-4.2 2.2-1 4.8-1.5 7.7-1.5 2.1 0 4.1 0.3 5.9 0.8 1.8 0.5 3.5 1.3 4.9 2.3 1.4 1.1 2.6 2.4 3.5 4 0.9 1.6 1.5 3.5 1.7 5.7h-6.3C355.3 427.6 354.3 425.8 352.8 424.5z"/>

  <path class="svg-clr-grey" fill="#454849" d="M368.3 429c0.8-2.4 1.9-4.4 3.5-6.2 1.5-1.7 3.4-3.1 5.7-4.1 2.3-1 4.8-1.5 7.8-1.5 3 0 5.6 0.5 7.8 1.5 2.2 1 4.1 2.4 5.6 4.1 1.5 1.8 2.7 3.8 3.5 6.2 0.8 2.4 1.2 4.9 1.2 7.7s-0.4 5.3-1.2 7.6c-0.8 2.3-1.9 4.4-3.5 6.1 -1.5 1.8-3.4 3.1-5.6 4.1 -2.2 1-4.8 1.5-7.8 1.5 -2.9 0-5.5-0.5-7.8-1.5s-4.1-2.3-5.7-4.1c-1.5-1.7-2.7-3.8-3.5-6.1 -0.8-2.3-1.2-4.9-1.2-7.6C367.1 433.9 367.5 431.4 368.3 429zM374.5 442.7c0.6 1.8 1.4 3.2 2.5 4.4 1.1 1.2 2.3 2.1 3.7 2.7 1.4 0.6 2.9 0.9 4.5 0.9 1.6 0 3.1-0.3 4.5-0.9 1.4-0.6 2.6-1.5 3.7-2.7s1.9-2.6 2.5-4.4c0.6-1.7 0.9-3.7 0.9-6 0-2.3-0.3-4.3-0.9-6 -0.6-1.7-1.4-3.2-2.5-4.4 -1.1-1.2-2.3-2.1-3.7-2.7 -1.4-0.6-2.9-0.9-4.5-0.9 -1.6 0-3.1 0.3-4.5 0.9s-2.6 1.5-3.7 2.7c-1.1 1.2-1.9 2.7-2.5 4.4 -0.6 1.7-0.9 3.8-0.9 6S373.9 440.9 374.5 442.7z"/>

  <path class="svg-clr-grey" fill="#454849" d="M416.1 418.1v5.9h0.1c2.5-4.5 6.6-6.8 12.1-6.8 2.4 0 4.5 0.3 6.1 1 1.6 0.7 2.9 1.6 4 2.8 1 1.2 1.7 2.6 2.1 4.3 0.4 1.7 0.6 3.5 0.6 5.5v24.4H435V430c0-2.3-0.7-4.1-2-5.5 -1.3-1.3-3.2-2-5.5-2 -1.9 0-3.5 0.3-4.9 0.9 -1.4 0.6-2.5 1.4-3.4 2.4 -0.9 1.1-1.6 2.3-2 3.7 -0.4 1.4-0.7 3-0.7 4.6v21h-6.1v-37.1H416.1z"/>

  <path class="svg-clr-blue" fill="#1DACE2" d="M224.8 471.6c3.3 0 6.4 0.5 9.2 1.6 2.9 1.1 5.3 2.6 7.4 4.7s3.7 4.7 4.9 7.9c1.2 3.2 1.8 6.9 1.8 11.1 0 3.7-0.5 7.2-1.4 10.4 -1 3.2-2.4 5.9-4.3 8.2s-4.4 4.1-7.3 5.4c-2.9 1.3-6.3 2-10.2 2h-22.1v-51.3L224.8 471.6 224.8 471.6zM224 513.4c1.6 0 3.2-0.3 4.7-0.8 1.5-0.5 2.9-1.4 4.1-2.6 1.2-1.2 2.2-2.8 2.9-4.8 0.7-2 1.1-4.4 1.1-7.2 0-2.6-0.3-4.9-0.8-7 -0.5-2.1-1.3-3.9-2.5-5.4 -1.2-1.5-2.7-2.6-4.6-3.4 -1.9-0.8-4.2-1.2-7-1.2h-8.1v32.3H224L224 513.4z"/>

  <path class="svg-clr-blue-2" fill="#0A76BD" d="M263.8 487.6v6.9h0.1c0.5-1.2 1.1-2.2 1.9-3.2 0.8-1 1.7-1.8 2.8-2.5 1.1-0.7 2.2-1.2 3.4-1.6 1.2-0.4 2.4-0.6 3.7-0.6 0.7 0 1.4 0.1 2.2 0.4v9.5c-0.5-0.1-1.1-0.2-1.7-0.3 -0.7-0.1-1.3-0.1-1.9-0.1 -1.9 0-3.5 0.3-4.7 0.9 -1.3 0.6-2.3 1.5-3.1 2.6 -0.8 1.1-1.4 2.3-1.7 3.8 -0.3 1.4-0.5 3-0.5 4.7v16.7h-10.2v-37.2H263.8z"/>

  <path class="svg-clr-blue" fill="#1DACE2" d="M283.8 477.7v-8.4H294v8.4L283.8 477.7 283.8 477.7zM294 483.5v37.1h-10.2v-37.1H294z"/>

  <path class="svg-clr-blue-2" fill="#0A76BD" d="M311.8 488v5.2h0.2c1.3-2.2 3-3.7 5-4.7 2.1-1 4.2-1.5 6.3-1.5 2.7 0 5 0.4 6.7 1.1 1.7 0.7 3.1 1.8 4.1 3.1s1.7 2.9 2.1 4.8c0.4 1.9 0.6 4 0.6 6.3v22.8h-10.2v-21c0-3.1-0.5-5.4-1.4-6.9 -1-1.5-2.7-2.3-5.1-2.3 -2.8 0-4.8 0.8-6 2.5 -1.2 1.7-1.9 4.4-1.9 8.2v19.5h-10.2V488H311.8z"/>

  <path class="svg-clr-blue" fill="#1DACE2" d="M354.3 469.3v27.5l12.9-13.4h12.1l-14 13.7 15.6 23.5h-12.4L358.2 504l-4 3.8v12.8h-10.2v-51.3H354.3z"/>

  <path class="svg-clr-blue-2" fill="#0A76BD" d="M387.2 491.4c1.1-1.6 2.4-2.8 4-3.8 1.6-1 3.5-1.6 5.5-2.1 2-0.4 4.1-0.6 6.1-0.6 1.9 0 3.8 0.1 5.7 0.4 1.9 0.3 3.7 0.8 5.3 1.5 1.6 0.8 2.9 1.8 3.9 3.2 1 1.4 1.5 3.2 1.5 5.4v19.3c0 1.7 0.1 3.3 0.3 4.8 0.2 1.5 0.5 2.7 1 3.5h-10.4c-0.2-0.6-0.3-1.2-0.5-1.8 -0.1-0.6-0.2-1.2-0.3-1.8 -1.6 1.7-3.5 2.9-5.8 3.5 -2.2 0.7-4.5 1-6.8 1 -1.8 0-3.4-0.2-5-0.6s-2.9-1.1-4-2c-1.1-0.9-2-2.1-2.7-3.5 -0.6-1.4-1-3-1-5 0-2.1 0.4-3.8 1.1-5.2 0.7-1.4 1.7-2.5 2.9-3.3 1.2-0.8 2.5-1.4 4-1.8 1.5-0.4 3-0.7 4.6-1 1.5-0.2 3-0.4 4.5-0.6 1.5-0.1 2.8-0.4 4-0.6 1.2-0.3 2.1-0.7 2.7-1.3 0.7-0.6 1-1.4 0.9-2.4 0-1.1-0.2-2-0.5-2.6 -0.4-0.6-0.8-1.2-1.4-1.5 -0.6-0.4-1.3-0.6-2.1-0.7 -0.8-0.1-1.6-0.2-2.6-0.2 -2 0-3.6 0.4-4.7 1.3 -1.2 0.9-1.8 2.3-2 4.3h-10.2C385.6 495 386.2 493 387.2 491.4zM407.4 505.8c-0.6 0.2-1.3 0.4-2.1 0.5 -0.7 0.1-1.5 0.3-2.3 0.4 -0.8 0.1-1.6 0.2-2.4 0.4 -0.8 0.1-1.5 0.3-2.3 0.6 -0.7 0.2-1.4 0.6-1.9 1 -0.6 0.4-1 0.9-1.3 1.5 -0.3 0.6-0.5 1.4-0.5 2.4 0 0.9 0.2 1.7 0.5 2.3 0.3 0.6 0.8 1.1 1.4 1.5 0.6 0.4 1.2 0.6 2 0.8 0.8 0.1 1.6 0.2 2.4 0.2 2 0 3.6-0.3 4.7-1 1.1-0.7 1.9-1.5 2.4-2.4 0.5-0.9 0.8-1.9 1-2.8 0.1-1 0.2-1.7 0.2-2.3v-3.8C408.6 505.3 408.1 505.6 407.4 505.8z"/>

  <path class="svg-clr-blue" fill="#1DACE2" d="M437.3 469.7v18.7h0.1c1.2-1.9 2.9-3.3 5.1-4.2 2.1-0.9 4.4-1.3 6.7-1.3 1.9 0 3.7 0.4 5.5 1.1 1.8 0.8 3.5 1.9 4.9 3.5 1.5 1.6 2.6 3.6 3.6 6.1 0.9 2.5 1.4 5.4 1.4 8.8s-0.5 6.3-1.4 8.8c-0.9 2.5-2.1 4.5-3.6 6.1 -1.5 1.6-3.1 2.8-4.9 3.5s-3.7 1.2-5.5 1.2c-2.7 0-5.2-0.4-7.3-1.3 -2.2-0.9-3.8-2.3-4.9-4.4h-0.1v4.7h-9.7v-51.3L437.3 469.7 437.3 469.7zM453.8 497.9c-0.3-1.4-0.9-2.7-1.6-3.8 -0.7-1.1-1.6-2-2.7-2.6 -1.1-0.6-2.4-1-3.9-1 -1.5 0-2.8 0.3-3.9 1 -1.1 0.6-2 1.5-2.7 2.6 -0.7 1.1-1.2 2.4-1.6 3.8 -0.3 1.4-0.5 2.9-0.5 4.5 0 1.5 0.2 3 0.5 4.5 0.3 1.4 0.9 2.7 1.6 3.8 0.7 1.1 1.6 2 2.7 2.6 1.1 0.6 2.4 1 3.9 1 1.5 0 2.8-0.3 3.9-1 1.1-0.6 2-1.5 2.7-2.6 0.7-1.1 1.2-2.4 1.6-3.8 0.3-1.4 0.5-2.9 0.5-4.5C454.3 500.9 454.2 499.3 453.8 497.9z"/>

  <path class="svg-clr-blue-2" fill="#0A76BD" d="M469.7 497c0.9-2.4 2.2-4.5 3.9-6.2 1.7-1.7 3.7-3 6-4s5-1.4 7.9-1.4c2.9 0 5.6 0.5 7.9 1.4 2.4 0.9 4.4 2.3 6.1 4 1.7 1.7 3 3.8 3.9 6.2s1.4 5.1 1.4 8.1c0 3-0.5 5.7-1.4 8.1 -0.9 2.4-2.2 4.4-3.9 6.1 -1.7 1.7-3.7 3-6.1 3.9 -2.4 0.9-5 1.4-7.9 1.4 -2.9 0-5.6-0.5-7.9-1.4s-4.4-2.2-6-3.9 -3-3.8-3.9-6.1c-0.9-2.4-1.4-5.1-1.4-8.1C468.4 502.1 468.8 499.4 469.7 497zM479 509.4c0.3 1.4 0.8 2.7 1.5 3.8 0.7 1.1 1.6 2 2.8 2.7 1.2 0.7 2.6 1 4.3 1 1.7 0 3.2-0.3 4.4-1 1.2-0.7 2.1-1.6 2.8-2.7 0.7-1.1 1.2-2.4 1.5-3.8 0.3-1.4 0.4-2.9 0.4-4.3 0-1.5-0.1-2.9-0.4-4.4 -0.3-1.4-0.8-2.7-1.5-3.8 -0.7-1.1-1.6-2-2.8-2.7 -1.2-0.7-2.6-1-4.4-1s-3.2 0.3-4.3 1c-1.1 0.7-2.1 1.6-2.8 2.7 -0.7 1.1-1.2 2.4-1.5 3.8 -0.3 1.4-0.4 2.9-0.4 4.4S478.7 508 479 509.4z"/>

  <path class="svg-clr-blue" fill="#1DACE2" d="M538.5 522.1v-5.2h-0.2c-1.3 2.2-3 3.7-5 4.7 -2.1 1-4.2 1.4-6.3 1.4 -2.7 0-5-0.4-6.7-1.1 -1.7-0.7-3.1-1.7-4.1-3.1s-1.7-2.9-2.1-4.8c-0.4-1.9-0.6-4-0.6-6.3V485h10.2v21c0 3.1 0.5 5.4 1.4 6.9 1 1.5 2.7 2.3 5.1 2.3 2.8 0 4.8-0.8 6-2.5 1.2-1.7 1.9-4.4 1.9-8.2V485h10.2v37.1H538.5z"/>

  <path class="svg-clr-blue-2" fill="#0A76BD" d="M577.9 486.5v6.8h-7.5v18.4c0 1.7 0.3 2.9 0.9 3.4s1.7 0.9 3.5 0.9c0.6 0 1.1 0 1.7-0.1 0.5 0 1-0.1 1.5-0.2v7.9c-0.9 0.1-1.8 0.2-2.9 0.3 -1.1 0-2.1 0.1-3.1 0.1 -1.6 0-3.1-0.1-4.5-0.3 -1.4-0.2-2.7-0.6-3.7-1.3s-1.9-1.5-2.6-2.7c-0.6-1.1-0.9-2.7-0.9-4.5v-21.9H554v-6.8h6.2v-11.1h10.2v11.1H577.9z"/>

  <path class="svg-clr-blue-2" fill="#0A76BD" d="M578.1 471.7v-1.6h7v1.6h-2.6v7h-1.9v-7H578.1z"/>

  <path class="svg-clr-blue-2" fill="#0A76BD" d="M588.7 470.1l2 5.9h0l1.9-5.9h2.6v8.6h-1.8v-6.1h0l-2.1 6.1h-1.5l-2.1-6h0v6H586v-8.6H588.7z"/>

  <path class="svg-clr-orange" fill="#E0B376" d="M113.6 463.6c0.7-1.8 6.8-17.5-1.9-26.3 -9.8-10-25.3-6.2-25.9-6.1l2.6 10.5c0.1 0 10.2-2.4 15.6 3.2 2.9 2.9 0.9 11.2-0.5 14.6L113.6 463.6z"/>

  <path class="svg-clr-orange" fill="#E0B376" d="M39.6 452.1c0.4 0 0.8 0 1.1 0 9.9-0.4 29.9-11.6 33.8-13.8l-5.4-9.4c-8.2 4.7-23.2 12.1-28.8 12.4 -10.2 0.4-21.7-8.3-21.8-8.4l-6.6 8.6C12.4 441.9 25.7 452.1 39.6 452.1z"/>

  <path class="svg-clr-black" d="M50.4 477c0 6.4 6 11.2 13.4 11.2h22.9c7.4 0 13.5-4.8 13.5-11.2v-1.2c0-6.4-6.1-11.9-13.5-11.9H63.8c-7.4 0-13.4 5.5-13.4 11.9C50.4 475.8 50.4 477 50.4 477z"/>

  <path class="svg-clr-green" fill="#85C556" d="M106.4 432.4l-4.5 11.4c-5.4-2.5-11.7-1.6-11.8-1.6L88.6 430C89.1 429.9 98 428.7 106.4 432.4z"/>

  <path class="svg-clr-green" fill="#85C556" d="M42 441.2c4.5-2 8.8-4 12.1-5.8l6 9.4c-1.9 1-7.5 3.8-14 6.6L42 441.2z"/>

  <path class="svg-clr-blue" fill="#1DACE2" d="M47.5 476.7c-1.6-4.3-0.5-50.9 27-50.9s28.7 46.7 27 50.9H47.5z"/>

  <polygon class="svg-clr-orange" fill="#E0B376" points="62.9,519.7 69.9,519.6 72.8,482.4 60.3,482.5  "/>

  <path class="svg-clr-orange" fill="#E0B376" d="M42.1 520c0-0.1 0-0.2 0-0.4 -0.1-6.2 5.9-11.3 13.3-11.4 7.4-0.1 13.5 4.8 13.6 11 0 0.1 0 0.2 0 0.4L42.1 520z"/>

  <polygon class="svg-clr-orange" fill="#E0B376" points="86.6,519.7 79.7,519.6 76.7,482.4 89.2,482.5  "/>

  <path class="svg-clr-orange" fill="#E0B376" d="M107.4 520c0-0.1 0-0.2 0-0.4 0.1-6.2-5.9-11.3-13.3-11.4 -7.4-0.1-13.5 4.8-13.6 11 0 0.1 0 0.2 0 0.4L107.4 520z"/>

  <ellipse class="svg-clr-orange-2" fill="#E0AD68" cx="70.3" cy="401" rx="38.2" ry="40"/>

  <path opacity="0.3" class="svg-clr-yellow-2" fill="#FCB553" enable-background="new    " d="M64.8 438.8c21.1 0 38.2-17.9 38.2-40 0-16-9-29.8-21.9-36.2 15.8 4.9 27.3 20.2 27.3 38.3 0 22.1-17.1 40-38.2 40 -5.8 0-11.4-1.4-16.3-3.8C57.4 438.2 61 438.8 64.8 438.8z"/>

  <path opacity="0.3" class="svg-clr-yellow-2" fill="#FCB553" enable-background="new    " d="M39 379c1.4-3.9 4.9-7.5 8.4-10.3h45.7c0.2 0-0.1 0.6-0.1 0.7v14.9H39V379z"/>

  <g opacity="0.5">
    <path class="svg-clr-yellow-2" fill="#FCB553" d="M108.7 400.2c2.8 0.1 4.2 2 4.2 4.3s-1.3 4.2-4.2 4.3V400.2z"/>

    <circle class="svg-clr-yellow" fill="#FFD797" cx="109.1" cy="407.1" r="2.7"/>
  </g>

  <path class="svg-clr-black" d="M83.3 412.8c-0.3 8.5-8.2 15.1-17.8 15.1s-17.5-6.5-17.8-15.1H83.3z"/>

  <circle class="svg-clr-pink" fill="#F9AF97" cx="90.4" cy="415.5" r="5.4"/>

  <circle class="svg-clr-pink" fill="#F9AF97" cx="40.6" cy="415.5" r="5.4"/>

  <path class="svg-clr-grey-2" fill="#C7C9C9" d="M74.7 412.8c-0.3 2.8-2.6 5.2-5.4 5.2 -2.3 0-4.3-1.3-5.1-3.3 -0.8 2-2.8 3.3-5.1 3.3 -2.8 0-5.1-2.3-5.4-5.1L74.7 412.8 74.7 412.8z"/>

  <path class="svg-clr-white" fill="#FFFFFF" d="M73.1 412.8c-0.3 2.8-2.6 5.2-5.4 5.2 -2.3 0-4.3-1.3-5.1-3.3 -0.8 2-2.8 3.3-5.1 3.3 -2.8 0-5.1-2.3-5.4-5.1L73.1 412.8 73.1 412.8z"/>

  <polygon class="svg-clr-blue-3" fill="#D2EDF5" points="9.4,458.1 31.1,454.6 27.3,414.6 0.4,418.9   "/>

  <polygon class="svg-clr-yellow-3" fill="#F5C134" points="28.2,423.2 31.1,454.6 9.4,458.1 2.4,427.4   "/>

  <polygon opacity="0.5" class="svg-clr-white" fill="#FFFFFF" enable-background="new    " points="17.9,417.2 24.3,416.2 28.1,456.2 22.1,457.1   "/>

  <path class="svg-clr-orange" fill="#E0B376" d="M0.3 441.5c1 5.1 4.5 8.7 7.7 8.1s5.1-5.3 4.1-10.4c-1-5.1-4.5-8.7-7.7-8.1C1.1 431.7-0.7 436.4 0.3 441.5z"/>

  <circle class="svg-clr-orange" fill="#E0B376" cx="106.6" cy="466.4" r="9.4"/>

  <polygon class="svg-clr-white" fill="#FFFFFF" points="28.3,424.3 2.6,428.4 2.1,426.3 28.1,422.1  "/>

  <polygon class="svg-clr-black" points="62.1,508.3 70.8,508.2 72.8,482.4 60.3,482.5  "/>

  <polygon class="svg-clr-black" points="87.4,508.3 78.8,508.2 76.7,482.4 89.2,482.5  "/>

  <path class="svg-clr-brown" fill="#3C2415" d="M107.6 520.3c0 0 0-0.2 0-0.4 0-0.1 0-0.3 0-0.4 0-0.1 0-0.2 0-0.3 0-0.1-0.1-0.1-0.2-0.2 -0.4-0.5-1-1.1-1.6-1.7 -0.6-0.6-1.2-1.2-1.6-1.7 -0.1 0-0.1-0.1-0.2-0.2 -0.1 0-0.2 0-0.3 0 -0.2 0-0.3 0-0.4 0 -0.2 0-0.4 0-0.4 0s0 0.2 0 0.4c0 0.1 0 0.3 0 0.4 0 0.1 0 0.2 0 0.3 0 0.1 0.1 0.1 0.2 0.2 0.4 0.5 1 1.1 1.6 1.7 0.6 0.6 1.2 1.2 1.6 1.7 0.1 0 0.1 0.1 0.2 0.2 0.1 0 0.2 0 0.3 0 0.2 0 0.3 0 0.4 0C107.4 520.3 107.6 520.3 107.6 520.3z"/>

  <path class="svg-clr-brown" fill="#3C2415" d="M102.7 515.5c0 0 0.1-0.1 0.2-0.3 0-0.1 0.1-0.2 0.2-0.4 0-0.1 0.1-0.1 0.1-0.2 0-0.1-0.1-0.1-0.1-0.2 -0.2-0.5-0.5-1.2-0.7-1.9 -0.3-0.7-0.5-1.4-0.7-1.9 0-0.1 0-0.1-0.1-0.2 -0.1 0-0.1-0.1-0.2-0.1 -0.1-0.1-0.3-0.1-0.4-0.2 -0.2-0.1-0.3-0.1-0.3-0.1s-0.1 0.1-0.2 0.3c0 0.1-0.1 0.2-0.2 0.4 0 0.1-0.1 0.1-0.1 0.2 0 0.1 0.1 0.1 0.1 0.2 0.2 0.5 0.5 1.2 0.7 1.9 0.3 0.7 0.5 1.4 0.7 1.9 0 0.1 0 0.1 0.1 0.2 0.1 0 0.1 0.1 0.2 0.1 0.1 0.1 0.3 0.1 0.4 0.2C102.5 515.4 102.7 515.5 102.7 515.5z"/>

  <path class="svg-clr-brown" fill="#3C2415" d="M102.9 515.5c0 0-0.2 0-0.4-0.1 -0.1 0-0.3 0-0.4 0 -0.1 0-0.2 0-0.3 0 -0.1 0-0.1 0.1-0.2 0.1 -0.6 0.4-1.3 0.8-2.1 1.3 -0.8 0.5-1.5 1-2.1 1.3 -0.1 0.1-0.2 0-0.2 0.1 0 0.1-0.1 0.2-0.1 0.2 -0.1 0.2-0.1 0.3-0.2 0.4 -0.1 0.2-0.1 0.4-0.1 0.4s0.2 0 0.4 0.1c0.1 0 0.3 0 0.4 0 0.1 0 0.2 0 0.3 0 0.1 0 0.1-0.1 0.2-0.1 0.6-0.4 1.3-0.8 2.1-1.3 0.8-0.5 1.5-1 2.1-1.3 0.1-0.1 0.2 0 0.2-0.1 0-0.1 0.1-0.2 0.1-0.2 0.1-0.2 0.1-0.3 0.2-0.4C102.8 515.6 102.9 515.5 102.9 515.5z"/>

  <rect x="92.3" y="506.8" transform="matrix(1.757610e-002 -0.9998 0.9998 1.757610e-002 -428.5731 605.2455)" class="svg-clr-brown" fill="#3C2415" width="2.8" height="27.8"/>

  <rect x="42.1" y="519.3" transform="matrix(0.9998 -1.762655e-002 1.762655e-002 0.9998 -9.1701 1.0679)" class="svg-clr-brown" fill="#3C2415" width="27.8" height="2.8"/>

  <path class="svg-clr-brown" fill="#3C2415" d="M42.3 519.7c0 0 0.2 0 0.4 0 0.1 0 0.3 0 0.4 0 0.1 0 0.2 0 0.3 0 0.1 0 0.1-0.1 0.2-0.2 0.5-0.4 1.1-1 1.7-1.6 0.6-0.6 1.2-1.2 1.7-1.6 0-0.1 0.1-0.1 0.2-0.2 0-0.1 0-0.2 0-0.3 0-0.2 0-0.3 0.1-0.4 0-0.2 0-0.4 0-0.4s-0.2 0-0.4 0c-0.1 0-0.3 0-0.4 0 -0.1 0-0.2 0-0.3 0 -0.1 0-0.1 0.1-0.2 0.1 -0.5 0.4-1.1 1-1.7 1.6 -0.6 0.6-1.2 1.2-1.7 1.6 0 0.1-0.1 0.1-0.2 0.2 0 0.1 0 0.2 0 0.3 0 0.2 0 0.3-0.1 0.4C42.3 519.6 42.3 519.7 42.3 519.7z"/>

  <path class="svg-clr-brown" fill="#3C2415" d="M47.4 515.1c0 0 0.1 0 0.4-0.1 0.1 0 0.2-0.1 0.4-0.2 0.1 0 0.1-0.1 0.2-0.1 0.1 0 0-0.1 0.1-0.2 0.2-0.5 0.5-1.2 0.8-1.9 0.3-0.7 0.6-1.4 0.8-1.9 0-0.1 0.1-0.1 0.1-0.2 0-0.1-0.1-0.2-0.1-0.2 0-0.1-0.1-0.3-0.1-0.4 -0.1-0.2-0.1-0.3-0.1-0.3s-0.1 0-0.3 0.1c-0.1 0-0.2 0.1-0.4 0.2 -0.1 0-0.1 0.1-0.2 0.1 -0.1 0 0 0.1-0.1 0.2 -0.2 0.5-0.5 1.2-0.8 1.9 -0.3 0.7-0.6 1.4-0.8 1.9 0 0.1-0.1 0.1-0.1 0.2 0 0.1 0.1 0.2 0.1 0.2 0 0.1 0.1 0.3 0.1 0.4C47.3 515 47.4 515.1 47.4 515.1z"/>

  <path class="svg-clr-brown" fill="#3C2415" d="M47.2 515.1c0 0 0 0.2 0.1 0.4 0 0.1 0.1 0.3 0.1 0.4 0 0.1 0.1 0.2 0.1 0.3 0 0.1 0.1 0.1 0.2 0.1 0.6 0.4 1.3 0.9 2 1.4 0.7 0.5 1.5 1 2 1.4 0.1 0 0.1 0.1 0.2 0.1s0.2 0 0.3 0c0.2 0 0.3 0 0.4 0 0.3 0 0.4 0 0.4 0s0-0.2-0.1-0.4c0-0.1-0.1-0.3-0.1-0.4 0-0.1-0.1-0.2-0.1-0.3 0-0.1-0.1-0.1-0.2-0.1 -0.6-0.4-1.3-0.9-2-1.4 -0.7-0.5-1.5-1-2-1.4 -0.1 0-0.1-0.1-0.2-0.1s-0.2 0-0.3 0c-0.2 0-0.3 0-0.4 0C47.4 515.1 47.2 515.1 47.2 515.1z"/>

  <path class="svg-clr-brown-2" fill="#6B4E2F" d="M2.4 399.7c3.2-0.3 4.4-1.5 5.7-3.1 1.3-1.7 5.3-12 8.2-14.2 2.9-2.2 11.3-4.9 14.2-2.6s5.5 4.7 5.8 6.3c0.3 1.6 3.5 15.4-6.5 21.2C19.8 413.1 4.4 403.5 2.4 399.7z"/>

  <path class="svg-clr-pink-2" fill="#F489A2" d="M33.6 372.3c-1.7-0.3-3.7 5.5-3.5 7.2 0.2 1.8 4.7 6.6 6.1 6.2 1.4-0.4 4-4.8 3.5-6.7S36.3 372.7 33.6 372.3z"/>

  <path class="svg-clr-brown-2" fill="#6B4E2F" d="M83.3 357.8c2.2 3.3-5.4 21.5-27.1 23 2.7-2.2 3.7-2.5 6-5.2 -7.8 5.2-18.3 8.5-29.9-0.2C29.4 356.2 68.2 335.7 83.3 357.8z"/>

  <path class="svg-clr-brown-2" fill="#6B4E2F" d="M73.8 358.7c-2.5 1.7-2.1 20.2 14.3 21.3 -2-1.7-2.5-3.5-4.2-5.6 5.9 3.9 4 10.6 23.6 9C111.8 368.1 91.8 346.5 73.8 358.7z"/>

  <path class="svg-clr-white" fill="#FFFFFF" d="M25.5 395.9c0 5 4 9 9 9h16.1c5 0 9-4 9-9v-4.7c0-5-4-9-9-9H34.5c-5 0-9 4-9 9C25.5 391.2 25.5 395.9 25.5 395.9z"/>

  <path class="svg-clr-orange-3" fill="#E4C196" d="M24.8 395.9v-4.7c0-5.4 4.4-9.7 9.7-9.7h16.1c5.4 0 9.7 4.4 9.7 9.7v4.7c0 5.4-4.4 9.7-9.7 9.7H34.5C29.1 405.6 24.8 401.3 24.8 395.9zM34.5 382.9c-4.6 0-8.3 3.7-8.3 8.3v4.7c0 4.6 3.7 8.3 8.3 8.3h16.1c4.6 0 8.3-3.7 8.3-8.3v-4.7c0-4.6-3.7-8.3-8.3-8.3H34.5z"/>

  <path class="svg-clr-white" fill="#FFFFFF" d="M61 395.9c0 5 4 9 9 9h16.1c5 0 9-4 9-9v-4.7c0-5-4-9-9-9H70.1c-5 0-9 4-9 9V395.9z"/>

  <path class="svg-clr-orange-3" fill="#E4C196" d="M60.3 395.9v-4.7c0-5.4 4.4-9.7 9.7-9.7h16.1c5.4 0 9.7 4.4 9.7 9.7v4.7c0 5.4-4.4 9.7-9.7 9.7H70.1C64.7 405.6 60.3 401.3 60.3 395.9zM70.1 382.9c-4.6 0-8.3 3.7-8.3 8.3v4.7c0 4.6 3.7 8.3 8.3 8.3h16.1c4.6 0 8.3-3.7 8.3-8.3v-4.7c0-4.6-3.7-8.3-8.3-8.3H70.1z"/>

  <path class="svg-clr-black" d="M47.7 386.4c0.3 0 0.7 0 1 0.1l-0.4 6 3.4-4.2c1 1.2 1.6 2.7 1.6 4.5 0 3.5-2.5 6.4-5.6 6.4s-5.6-2.9-5.6-6.4C42.2 389.3 44.7 386.4 47.7 386.4z"/>

  <path class="svg-clr-black" d="M78.1 386.4c0.3 0 0.7 0 1 0.1l-0.4 6 3.4-4.2c1 1.2 1.6 2.7 1.6 4.5 0 3.5-2.5 6.4-5.6 6.4 -3.1 0-5.6-2.9-5.6-6.4C72.6 389.3 75.1 386.4 78.1 386.4z"/>

  <path class="svg-clr-brown-2" fill="#6B4E2F" d="M135.5 399.7c-3.2-0.3-4.4-1.5-5.7-3.1 -1.3-1.7-5.3-12-8.2-14.2 -2.9-2.2-11.3-4.9-14.2-2.6 -2.9 2.3-5.5 4.7-5.8 6.3 -0.3 1.6-3.5 15.4 6.5 21.2C118 413.1 133.4 403.5 135.5 399.7z"/>

  <path class="svg-clr-pink-2" fill="#F489A2" d="M104.3 372.3c1.7-0.3 3.7 5.5 3.5 7.2 -0.2 1.8-4.7 6.6-6.1 6.2 -1.4-0.4-4-4.8-3.5-6.7C98.7 377.1 101.5 372.7 104.3 372.3z"/>

  <path class="svg-clr-yellow" fill="#FFD797" d="M177.6 451.5c-0.4 0-0.8 0-1.2 0 -10.4-0.4-31.4-12.2-35.5-14.5l5.7-9.9c8.6 4.9 24.4 12.8 30.3 13 10.8 0.4 22.8-8.7 22.9-8.8l7 9C206.2 440.7 192.2 451.5 177.6 451.5z"/>

  <path class="svg-clr-blue" fill="#1DACE2" d="M175.2 439.9c-4.7-2.1-9.3-4.3-12.8-6.1l-6.3 9.9c2 1.1 7.9 4 14.7 6.9L175.2 439.9z"/>

  <path class="svg-clr-black" d="M166.4 477.6c0 6.7-6.3 11.5-14.2 11.5h-24.1c-7.8 0-14-4.8-14-11.5v-1.2c0-6.7 6.2-12.9 14-12.9h24.1c7.8 0 14.2 6.2 14.2 12.9V477.6z"/>

  <path class="svg-clr-green" fill="#85C556" d="M169.3 477.1c1.7-4.3 0.5-53.6-28.4-53.6s-30.2 49.3-28.4 53.6H169.3z"/>

  <polygon class="svg-clr-black" points="153.1,522.6 145.7,522.5 142.7,483.3 155.8,483.4    "/>

  <path class="svg-clr-black" d="M175 522.8c0-0.1 0-0.3 0-0.4 0.1-6.5-6.2-11.9-14-12 -7.8-0.1-14.2 5.1-14.3 11.6 0 0.1 0 0.3 0 0.4L175 522.8z"/>

  <polygon class="svg-clr-black" points="128.1,522.6 135.5,522.5 138.5,483.3 125.4,483.4    "/>

  <path class="svg-clr-black" d="M106.2 522.8c0-0.1 0-0.3 0-0.4 -0.1-6.5 6.2-11.9 14-12 7.8-0.1 14.2 5.1 14.3 11.6 0 0.1 0 0.3 0 0.4L106.2 522.8z"/>

  <ellipse class="svg-clr-black" cx="178.3" cy="368.2" rx="10.3" ry="12.3"/>

  <ellipse class="svg-clr-yellow" fill="#FFD797" cx="145.4" cy="397.7" rx="40.2" ry="42.1"/>

  <path opacity="0.3" class="svg-clr-yellow-2" fill="#FCB553" enable-background="new    " d="M151.1 437.4c-22.2 0-40.2-18.8-40.2-42.1 0-16.8 9.4-31.3 23-38.1 -16.6 5.2-28.7 21.3-28.7 40.4 0 23.2 18 42.1 40.2 42.1 6.1 0 12-1.4 17.1-4C158.9 436.8 155.1 437.4 151.1 437.4z"/>

  <path opacity="0.3" class="svg-clr-yellow-2" fill="#FCB553" enable-background="new    " d="M178.3 374.5c-1.7-4.1-5.2-7.9-8.9-11.2h-48.1c-0.2 0 0.1 1 0.1 1.1v15.5h56.9L178.3 374.5 178.3 374.5z"/>

  <path class="svg-clr-yellow" fill="#FFD797" d="M192.6 401.4c0 5.3-4.3 9.6-9.6 9.6 -5.3 0-9.6-4.3-9.6-9.6s4.3-9.6 9.6-9.6S192.6 396.1 192.6 401.4z"/>

  <path opacity="0.3" class="svg-clr-yellow-2" fill="#FCB553" enable-background="new    " d="M192.6 401.4c0 5.3-4.3 9.6-9.6 9.6 -5.3 0-9.6-4.3-9.6-9.6s4.3-9.6 9.6-9.6S192.6 396.1 192.6 401.4z"/>

  <path class="svg-clr-yellow" fill="#FFD797" d="M113.9 400.3c0 5.3-4.3 9.6-9.6 9.6 -5.3 0-9.6-4.3-9.6-9.6 0-5.3 4.3-9.6 9.6-9.6C109.6 390.7 113.9 395 113.9 400.3z"/>

  <g opacity="0.5">
    <path class="svg-clr-yellow-2" fill="#FCB553" d="M104.8 396.8c-2.7 0.1-4.4 2.1-4.4 4.5s1.7 4.5 4.4 4.5V396.8z"/>

    <circle class="svg-clr-yellow" fill="#FFD797" cx="104.5" cy="404.1" r="2.8"/>
  </g>

  <path class="svg-clr-black" d="M131.7 409.9c0.3 9.3 8.6 15.8 18.7 15.8 10.2 0 18.4-6.5 18.7-15.8H131.7z"/>

  <circle class="svg-clr-pink" fill="#F9AF97" cx="124.2" cy="412.9" r="5.7"/>

  <circle class="svg-clr-pink" fill="#F9AF97" cx="176.6" cy="412.9" r="5.7"/>

  <path class="svg-clr-black" d="M170.4 367.4c34.9-14.3 12-48.2 12-48.2s-0.7 12.3-5.7 16.3c-1.9 1.5 1.5-18.6 1.5-18.6l-10.7 13.7 -0.8-13.3c0 0-3.9 6-8.8 11.7 -4 4.7-10.9 6.9-14.8 7.7 -13.1 2.9-16-1.5-27.3 4.6 -11.1 6-10 21.7-10 21.7s-15.9 6.8-4.9 27.5c1 1.9 7.7 6.2 7.7 6.2l-1.1 9.1 13.7 1.1c0 0-7.6-33.8 11.4-38.8C145.8 364.5 156.5 373 170.4 367.4z"/>

  <path class="svg-clr-white" fill="#FFFFFF" d="M196 391.4c0 5.3-4.3 9.5-9.5 9.5h-16.9c-5.3 0-9.5-4.3-9.5-9.5v-5c0-5.3 4.3-9.5 9.5-9.5h16.9c5.3 0 9.5 4.3 9.5 9.5V391.4z"/>

  <path class="svg-clr-white" fill="#FFFFFF" d="M154.4 391.5c0 5.3-4.3 9.4-9.6 9.4h-16.9c-5.3 0-9.5-4.1-9.5-9.4v-4.9c0-5.3 4.3-9.7 9.5-9.7h16.9c5.3 0 9.6 4.4 9.6 9.7V391.5z"/>

  <path class="svg-clr-black" d="M172 382.3c-0.4 0-0.7 0.1-1 0.1l0.5 6.3 -3.6-4.4c-1 1.2-1.7 2.9-1.7 4.7 0 3.7 2.6 6.8 5.9 6.8s5.9-3 5.9-6.8C177.9 385.3 175.3 382.3 172 382.3z"/>

  <path class="svg-clr-black" d="M135.6 382.3c-0.4 0-0.7 0.1-1 0.1l0.5 6.3 -3.6-4.4c-1 1.2-1.7 2.9-1.7 4.7 0 3.7 2.6 6.8 5.9 6.8s5.9-3 5.9-6.8C141.4 385.3 138.8 382.3 135.6 382.3z"/>

  <path class="svg-clr-grey-2" fill="#C7C9C9" d="M140.7 409.9c0.3 3 2.7 5.5 5.7 5.5 2.4 0 4.5-1.3 5.3-3.5 0.8 2.2 2.9 3.4 5.3 3.4 3 0 5.4-2.4 5.7-5.4H140.7L140.7 409.9z"/>

  <path class="svg-clr-white" fill="#FFFFFF" d="M142.4 409.9c0.3 3 2.7 5.5 5.7 5.5 2.4 0 4.5-1.3 5.3-3.5 0.8 2.2 2.9 3.4 5.3 3.4 3 0 5.4-2.4 5.7-5.4H142.4L142.4 409.9z"/>

  <polygon class="svg-clr-blue-3" fill="#D2EDF5" points="209.4,457.7 186.6,454 190.5,411.9 218.9,416.5   "/>

  <polygon class="svg-clr-yellow-3" fill="#F5C134" points="189.7,421 186.6,454 209.4,457.7 216.8,425.4   "/>

  <polygon opacity="0.5" class="svg-clr-white" fill="#FFFFFF" enable-background="new    " points="200.5,414.7 193.7,413.6 189.8,455.7 196.1,456.7       "/>

  <path class="svg-clr-yellow" fill="#FFD797" d="M219 440.2c-1 5.4-4.7 9.2-8.1 8.5 -3.4-0.7-5.4-5.6-4.3-10.9 1.1-5.4 4.7-9.2 8.1-8.5C218.1 430 220.1 434.9 219 440.2z"/>

  <rect class="svg-clr-black" x="126.1" y="376.9" opacity="0.1" enable-background="new    " width="28.3" height="9.3"/>

  <rect class="svg-clr-black" x="163.4" y="376.9" opacity="0.1" enable-background="new    " width="28.6" height="9.3"/>

  <path class="svg-clr-black" d="M196.7 392.6c0 7.1-5.9 12.9-13.1 12.9h-16.3c-7.1 0-13-5.8-13-12.9v-5.5c0-7.1 5.8-12.9 13-12.9h16.3c7.1 0 13.1 5.8 13.1 12.9V392.6zM188.7 387.7c0-3.4-2.7-6.1-6.1-6.1h-16.5c-3.4 0-6.1 2.7-6.1 6.1v4.5c0 3.4 2.7 6.1 6.1 6.1h16.5c3.4 0 6.1-2.7 6.1-6.1V387.7z"/>

  <path class="svg-clr-grey" fill="#454849" d="M198 392.6c0 7.1-5.8 12.9-12.9 12.9h-16.4c-7.1 0-12.9-5.8-12.9-12.9v-5.5c0-7.1 5.8-12.9 12.9-12.9h16.4c7.1 0 12.9 5.8 12.9 12.9V392.6zM192 387.7c0-3.4-3-6.1-6.4-6.1h-16.3c-3.4 0-6 2.7-6 6.1v4.3c0 3.4 2.7 5.9 6 5.9h16.3c3.4 0 6.4-2.6 6.4-5.9V387.7z"/>

  <path class="svg-clr-black" d="M159 392.6c0 7.1-5.9 12.9-13 12.9h-16.3c-7.1 0-13-5.8-13-12.9v-5.5c0-7.1 5.9-12.9 13-12.9H146c7.1 0 13 5.8 13 12.9V392.6zM151.7 387.7c0-3.4-2.7-6.1-6.1-6.1h-16.5c-3.4 0-6.1 2.7-6.1 6.1v4.5c0 3.4 2.7 6.1 6.1 6.1h16.5c3.4 0 6.1-2.7 6.1-6.1V387.7z"/>

  <path class="svg-clr-grey" fill="#454849" d="M160.7 392.6c0 7.1-5.8 12.9-12.9 12.9h-16.4c-7.1 0-12.9-5.8-12.9-12.9v-5.5c0-7.1 5.8-12.9 12.9-12.9h16.4c7.1 0 12.9 5.8 12.9 12.9V392.6zM154.7 387.7c0-3.4-2.7-6.1-6.1-6.1h-16.5c-3.4 0-6.1 2.7-6.1 6.1v4.5c0 3.4 2.7 6.1 6.1 6.1h16.5c3.4 0 6.1-2.7 6.1-6.1V387.7z"/>

  <polygon class="svg-clr-white" fill="#FFFFFF" points="189.6,422.2 216.6,426.5 217.1,424.3 189.8,419.9  "/>
</svg>
