<svg class="svg-logo-ctf" xmlns="http://www.w3.org/2000/svg" xmlns:xlink="http://www.w3.org/1999/xlink" version="1.1" x="0" y="0" viewBox="0 0 462.6 403" enable-background="new 0 0 462.6 403" xml:space="preserve">
  <g id="Layer_3">
    <path class="svg-clr-red" fill="#C55836" d="M297 248c0.5 6 20 7 20.8 4.3 0.5-7.1 3.5-12.1-0.2-19C310.1 237.1 296 236.2 297 248z"/>

    <path class="svg-clr-red" fill="#C55836" d="M210.4 206.6c2.2-4.9-6-7.5-10-5.4 -4.4 2.3-3.1 11.5-0.7 11.7C204.3 212.7 208.9 211.4 210.4 206.6z"/>

    <path class="svg-clr-red" fill="#C55836" d="M227.3 129.9c3.6-8.2-10.1-12.5-16.7-9.1 -7.3 3.8-5.1 19.1-1.2 19.5C217.2 140 224.8 137.9 227.3 129.9z"/>

    <path class="svg-clr-red" fill="#C55836" d="M461.9 163.5c-1-7.7-5-13.5-7.6-20.7 -2.3-6.3-4.5-12.6-8-18.4 -3.4-5.6-8.2-10.4-13-14.8 -10.3-9.6-20.9-19.1-32.5-27.2C376 65 347.2 60.1 317.7 56c-15.5-2.1-30.9-3.5-46.4-5.2 -15.7-1.7-31-5.5-46.1-10.2 -2.1-0.7-4.3-1.4-6.4-2.1 0 0 0 0 0 0 -3.5-1.4-7.1-2.6-10.5-4.4 -6.2-3.3-11.7-7.9-18-11 -11.5-5.8-24.5-8.2-36.7-12.2 -14-4.6-27.9-8.5-42.7-10C98.8-0.4 86.6-1 75.4 4.5 65.5 9.3 57.7 17.8 50.7 26c-7.4 8.8-15.5 18-21.3 27.8 -3.3 5.6-2.1 11-3.3 17 -0.6 3-1.6 5.8-2.6 8.7 -1 3-2 5.9-3.2 8.8 -1.2 2.1-2.4 4.1-3.8 6.1 -2.7 3.8-5.1 7.4-6.9 11.4 -3.3 5.6-5.2 12.1-6.7 18.4 -1 4.4-1.9 9.2-2.3 14 -0.9 2.8-0.5 6.3-0.4 9.1 0.1 3.1 0.4 7 1.6 10.3 0.2 1.1 0.4 2.1 0.5 2.8 1.2 7.4 3.5 14.7 5.4 22 6.2 24.5 2.2 50.3 8.2 74.8 3 12.2 8.1 23.4 16.1 33.1 3.9 4.8 8 9.6 12.4 13.9 4.6 4.4 10 8 15.1 11.8 10.3 7.6 18.2 17.9 28.7 25.2 8.7 6.1 18.7 11.5 28.7 15.8 17.2 9.7 36.6 16 55.3 22.1 20.6 6.7 41.5 13 62.8 17.5 21.2 4.5 42.7 6.7 64.4 6.6 11.8-0.1 23.5-0.8 35.2-1.6 5.3-0.4 12-0.5 17.9-1.9 1-0.1 2-0.3 2.9-0.4 6.6-0.9 14.5-2.8 20.4-6.7 9.6-4.5 18.6-11.1 26.6-17.2 15.1-11.3 33.8-19.6 44.7-35.6 4.9-7.2 6-15.7 7-24.1 1.4-11.5 3.1-23 4-34.5 0.9-11 0-22.3 0.1-33.4 0.1-7 0.3-14.3-0.1-21.6 0.1-1.1 0.1-2.2 0.1-3.4 0.1-5.3 0.2-10.6 0.3-15.9 0-5.8 1.9-11.7 2.8-17.5 0.2-1.2 0.4-2.4 0.5-3.6C462.7 178.3 462.9 170.9 461.9 163.5zM87.8 175.1c-6.3-2-13-4.5-18.3-8.7 -9.1-7.6-11-19.1-9.6-30.3 2.5-16.8 11.2-32.3 29.5-36.6 8.7-2 15.8-0.7 23.9 1.6 3.1 1 8.1 4.9 5.4 9.6 -2.1 4.1-6.3 3.5-10.2 4.8 -6.3 2-12.9-2.6-18-0.8 -13.2 4.6-16.8 19.6-12.9 32.3 4.1 13.5 19.1 20.6 32.3 16.2 4.9-1.6 11.7-9.1 16.2-5.8 5.3 4.3 8.4 9.9 2.8 13.8C117.2 179.9 102.3 179.6 87.8 175.1zM153.1 205.8c-1.5 4.8-10.4 4.2-15.6 4.2 -0.9 6.2 2.4 33.4 2 39.7 -0.1 1.9-1.5 3.4-3.5 3.4 -2.4 0-3.4-0.7-4.2-3.2 -2.1-5.6-1.5-34.3-4.4-39.6 -3.8 2.9-10.9 5.2-12.8-0.1 -0.5-1.4 1-3.4 2.5-4.4 3.8-1.9 9.1-1.4 11.5-4.3 1.9-2.4 1.4-6.7 1.9-10.1 0.5-3.5 1.1-6.7 1.5-10.1 0.5-4.7 6.7-4.7 10.5-2.4 0.5 0.5 1 2 0.5 3.4 -2.9 6.2-3.9 13.4-3.9 20.2C144.5 202.1 155 199.6 153.1 205.8zM186.5 233.6c-0.2 2.5-5.3 3.7-7 2 -5.3-6.5-0.4-16-4.5-23.8 -4.5 4.5-7.9 9.9-10.8 16 -0.8 1.3-3.7 2.5-5.3 2.1 -0.8-0.4-3.3-0.4-3.3-1.6 0-7.4 0.4-14.4 1.2-21.9 0.7-6.1-2.1-13.2 0.9-18.6 0.8-2 4.1-3.3 6.9-2 1.3 0.8 1.3 2.5 1.3 4.1 -0.8 7.4-2.1 14.8 0 22.3 3.3-5.7 9.1-12.8 16.4-9.5C184.9 213 187.5 223.3 186.5 233.6zM187.6 174.9c-0.3 4.1-8.9 6.1-11.7 3.3 -8.9-10.9-0.7-26.7-7.4-39.7 -7.6 7.6-13.2 16.5-18 26.7 -1.3 2.1-6.1 4.1-8.9 3.5 -1.3-0.7-5.4-0.7-5.4-2.6 0-12.4 0.7-24.1 2-36.4 1.2-10.2-3.5-21.9 1.5-31 1-2.5 4.5-4.4 8.2-4.1 1.1 0.1 2.3 0.3 3.4 0.8 1 0.6 1.6 1.6 1.8 2.8 0.3 1.2 0.3 2.6 0.3 4 -1.3 12.4-3.5 24.7 0 37.1 5.4-9.6 15.2-21.3 27.4-15.8C184.8 140.5 189.2 157.8 187.6 174.9zM202.3 223.5c3.5 6 9.8 3.4 15.3 0.5 3.6 2.6 1.7 8.5-2.4 9.1 -4.5 0.7-9.3 1.9-14-0.2 -9.9-4.5-12.1-15.6-12.3-25.1 -0.2-9.8 7-16.9 16.7-15.5 7.7 1.1 14.7 8.5 14.6 16.8 -1.6 4.7-12.7 8.8-16.4 12.4C203.4 221.6 201.7 222.5 202.3 223.5zM212 173.8c-16.5-7.4-20.1-26-20.4-41.9 -0.2-9.6 3.9-17.7 10.6-22.2 4.7-3.2 10.6-4.6 17.3-3.7 0.8 0.1 1.7 0.3 2.5 0.5 11.8 2.9 22 14.6 21.9 27.5 -2.6 7.9-21.1 14.7-27.4 20.6 -0.7 0.2-3.6 1.8-2.6 3.5 5.8 10.1 16.3 5.6 25.6 0.8 5.9 4.3 2.8 14.2-4 15.2C228 175.3 219.9 177.3 212 173.8zM264 240.8c-2.4 7.1 5.4 14.6 8.1 21.9 3.2 6.6-5.9 10.7-9.9 7.9 -8.3-6.7-6.5-19.4-14.1-26.8 -0.8-1.3-3.8 0.9-6.3 0.7 -2.5-0.4-5.4-2.6-3.7-5.4 1.6-2.7 6.4-4.4 6.8-6.9 0.7-5.2-2.3-9.8-4-14.7 -3.1-8.4-5.5-16.4-5.8-24.6 -0.1-1.2 0.8-3.8 2.1-3.9 11.9-5.7 26.5-6.1 38.9-1 4.7 1.8 0.7 6.1-2.1 8.4 -7.8 4.7-15.5-3.3-23.6-1.2 -0.5 12 5.1 23.3 8.7 34.3 6.9-0.2 21.9-7 22.4 2.4C282 238.8 265.9 235.5 264 240.8zM280.7 175.3c-6.6 3.8-17.1 4.9-21.6-0.8 -14.2-18.6-13.2-42.2-11.2-64.6 0.8-7.4 10.6-8.9 14.3-4.1 7.4 9.2 0.3 22.6 3.3 35 1.6 6.4 1.6 13.5 5.8 18.8 2.5 3.1 4.9-0.8 5.6-1.8 4.9-7.4 6.1-15.5 12.2-21.6 4.3-4.1 7.4-4.8 11.9-0.7 7.7 7.1 8.6 19.6 17.1 25.1 1.6 1 3.6-2 4.6-3.8 5.6-9.6 4.4-19.3 4.3-28.3 -0.1-4.3 0.1-8.5 1.3-12.4 1.8-5.6 14-4.9 15 4.3 0 0.4 0.1 0.9 0.1 1.3 0.1 1.3 0.3 2.5 0.4 3.8 0.3 3.7 0.5 7.3 0.4 11 -0.2 14-3.7 27.3-15.9 35.4 -5.6 3.6-13 5.4-20.6 1.8 -6.4-3-10.4-14.5-13-15C292.3 158.1 287.3 171.7 280.7 175.3zM328.6 246.1c0.3 8.4 1.4 26.6-6.6 22.3 -2.5-1.3-3-4.6-4.9-4.4 -9.9-0.7-20.7 1-27.1-7.6 -4.2-4.5-3.7-14.4-0.8-19.2 9.5-16 29.2-13.4 29.4-13.9 1-2 1.2-8.3-1.9-8.5 -8.2-0.9-12.9 3.3-19.8 6.5 -5.2 2.5-7.6-8.4-6.5-9.8 9.1-7.7 29-13.7 36.5-1.5C333.6 221.1 328.3 233.4 328.6 246.1zM384.3 217.4c-1.3 6.9-13.7 7.2-20.9 8 -0.3 8.4 7.5 43.1 8.4 53.3 0 0.4 0.1 0.7 0.1 1.1 0.1 2.6-1.6 4.8-4.3 5.1 -1.9 0.2-3.2 0-4.2-0.8 -0.8-0.6-1.4-1.5-2-2.9 -3.7-7.5-7.1-47.1-11.8-53.9 -4.8 4.5-14.2 8.8-17.6 1.7 -0.9-1.8 0.9-4.8 2.8-6.4 4.9-3.1 12.3-3.2 15.2-7.5 2.2-3.5 0.9-9.5 1.1-14.2 0.2-4.8 0.5-9.4 0.6-14.1 0-2.9 1.7-4.7 4-5.6 1.1-0.1 2.2-0.4 3.3-0.6 2.3-0.1 4.7 0.4 6.8 1.4 0.8 0.6 1.7 2.6 1.2 4.6 -3 9-3.4 19.1-2.4 28.4C371.9 213.4 386 208.5 384.3 217.4z"/>
  </g>

  <g id="Layer_1">
    <path class="svg-clr-yellow" fill="#E7D59F" d="M455.8 162.4c1.6 7.7 1.3 15.6 0.5 23.3 -0.9 8.2-3.9 15.9-5.1 24 -0.8 5.4 0.3 10.8 1.2 16.2 0 0 0 0 0 0 0 0.6 0 1.2 0.1 1.8v0c-0.5 2.7-1.1 5.4-1.4 8.2 -0.6 7.4-0.3 15.1-1.8 22.4 -2.8 14.2-10.9 25.1-20.8 35.1 -5 5-9.1 11-13.7 16.3 -4.7 5.4-9.8 10.4-15.1 15.2 -5.6 5-11.7 9.1-18.5 12.2 -4.4 2.1-10.6 2.8-14.1 6.4 -0.3 0.3 0.1 0.9 0.5 0.7 4.8-3 10.9-3.8 16.1-6 6.6-2.9 12.5-6.7 18.1-11.2 12.1-9.6 20.5-22.5 31.4-33.2 9.5-9.3 16.1-20.1 19.8-32.9 0.2-0.6 0.3-1.1 0.5-1.7 0.1 5.3 0.2 10.6 0 15.9 -0.2 10.4-1.7 20.7-3 30.9 -1.2 9.5-1.3 19.8-5.9 28.4 -8.7 16.4-28.7 24.9-43.1 35.4 -12.1 8.9-26.2 19.3-41.4 22.5 -0.2 0-0.5 0-0.7 0 -1.9 0.3-3.7 0.6-5.5 0.9 -0.7 0.1-1.4 0.1-2 0.1 -0.6-0.4-1.5-0.5-2.3-0.1 -0.3 0.1-0.7 0.3-1 0.5 -0.4 0.2-0.6 0.4-0.8 0.6 -5 0.9-9.9 1.7-15 2.1 -11.1 0.8-22.2 1.4-33.2 1.6 -21.9 0.3-43.5-2-65-6.5 -20.7-4.3-40.9-10.5-61-17 -15.9-5.1-31.2-11.3-46.6-17.4 -9.5-7.3-21.6-11.1-31.9-17.2 -10.5-6.2-17.8-15.8-27.4-23.3 -9.5-7.5-19-14.1-27.1-23.2 -4-4.5-7.9-9-11.2-14.1 -3.7-5.6-5.9-12.2-8-18.6 -1.7-5.3-2.8-10.6-3.5-15.9 0.1-2 0.1-4.1 0.1-6.1 0.6 0.3 1.3 0.1 1.8-0.4 0.1 0.1 0.1 0.3 0.2 0.4 0.5 0.9 1.8 1 2.5 0.5 9.9 14 24.3 23.7 38 34.1 19.1 14.4 39.2 27.8 61.3 37.1 0.8 0.3 1.5-0.8 0.7-1.2 -20-9.6-38.3-22.2-56-35.3C50 262 30.9 248.8 20.9 230.6c-0.2-0.4-0.5-0.6-0.9-0.7 -0.4-1.6-0.8-3.2-1.1-4.8 -0.2-1.1-1.1-1.3-1.9-1 -0.2-0.1-0.5-0.2-0.7-0.3 0-0.1 0-0.2 0-0.4 -0.2-12.4-1.2-25.5-3.3-37.8 -0.9-5.1-2.5-10.1-3.8-15.1 0.3-6-2.3-12.2-3.7-17.8 -0.1-0.3-0.2-0.7-0.2-1 0.7-0.7 0.4-1.9-0.4-2.4 -1.2-8.4 0.7-17.7 2.5-25.7 2.1-9.4 6.2-16.8 12.4-24 4.2-4.9 8.9-10.5 7.7-17.3 0-0.2-0.1-0.4-0.2-0.5 1.2-3.2 2.3-6.4 3.2-9.7 0.6-2.4 0.5-5 0.7-7.4 0.3-4.2 2-7.6 4.3-11 3.5-5.4 8-10.3 12-15.4 7.1-9 14.4-18.1 23.6-24.9 10.6-7.8 21.5-8.3 34.2-7.6 8.2 0.4 16.2 1.6 24.2 3.5 7.2 1.7 14.2 4.3 21.3 6.3 12.8 3.6 26.3 7 38.3 12.9 0.4 0.2 0.8 0.4 1.2 0.6 0 0.3 0.1 0.6 0.4 0.8 3.7 3 8.2 5.2 12.6 7.2 1.3 0.8 2.6 1.6 4 2.3 5.5 2.9 12.6 5.7 18.7 7 0.1 0 0.3 0 0.4 0 0.8 0.3 1.7 0.6 2.5 0.8 14.4 4.7 29.2 7.8 44.2 9.7 30.4 3.8 61.8 5.3 91.3 14.5 15.2 4.7 28.9 12.8 41.3 22.7 5.5 4.3 10.5 9.2 15.8 13.8 5.2 4.5 10.3 9 14.9 14.1 5 5.6 8.1 12.2 10.7 19.2C450 148.3 454.3 155 455.8 162.4zM436.9 235.8c1.9-11.6 3.7-23.3 3.2-35.1 -0.5-11.3-0.3-22.7-3.5-33.7 -3.3-11-7.7-22.3-12.6-32.6 -4.6-9.7-11.4-18.4-19-25.9 -7-6.9-15.2-12.4-24.1-16.6 -10.4-4.9-21.6-6.7-32.8-8.5 -13.2-2.1-26.6-3.7-39.8-6.2 -12.1-2.3-24.4-5.1-36.8-4.6 -5.5-1.2-11.4-0.2-16.9 0.7 -10.3 1.8-20 5.9-30.3 7.6 -9 1.5-17.8 2.6-26.3 6.2 -9.5 4-16.6 11.7-26.1 15.8 0.3-3.1 1.4-6.1 2.4-9.1 1.2-3.9 1.5-7.8 1.5-11.8 0-8.2-1.4-16.3-4.5-23.8 -2.6-6.1-5-12.7-9.2-17.9 -4-4.8-10.8-7.1-16.4-9.5 -14.7-6.3-31.5-6.6-47.1-4.5 -6.7 0.9-13.5 2.2-19.8 4.6 -2.8 1-5.3 2.5-7.6 4.3 -0.8 0.6-2.2 3-3.2 4.3 -0.1 0-0.2 0.1-0.3 0.2 -0.3 0.3-0.7 0.7-1 1 -0.5 0.6-0.3 1.5 0.3 1.8 -6.3 5.6-12.7 15-14.4 17.3 -4.6 6.2-9 12.7-12.7 19.5 -4.9 9.1-3.4 19.2-4.8 29.1 -1 7-4.2 14.2-6.2 21 -2 7.1-1 14.8-0.6 22.1 0.3 6.2-2 11.9-2.5 18.1 -0.5 5.7 2.6 11.5 5.7 16.1 6.1 9 17 15.2 27.2 18.4 2.8 0.9 6.4 0.3 9.4 0.3 -2.2 2-4.7 3.6-6.8 5.7 -9.3 9.3-3.8 22.8 2.4 31.8 7.9 11.6 18.6 21.6 29.2 30.6 21.1 18 47.1 35 75.2 38.8 4.8 1.8 9.3 3.9 14 6.1 6.2 3 12.9 4.5 19.6 6 14.9 3.1 30.2 4.5 45.4 6.2 15.5 1.8 31.1 4 46.7 4.9 14.5 0.8 29.6 0.6 43.5-4 12.6-4.2 23.8-11.9 35.2-18.5 5.6-3.2 11.2-6.2 16.4-10.2 5.5-4.3 10.5-9.2 15.9-13.7 3.7-3 7-7.3 8.6-11.9 0.9-2.5 1-5.4 1.6-8 0.8-3.4 4.4-5.9 6.6-8.3 4-4.3 6-10.3 9-15.2 1.5-2.5 3.1-5.1 4.3-7.8C435.5 237.1 436.7 237 436.9 235.8zM337.2 350.6c2.4-0.6 1.4-4.2-1-3.7 -17 3.3-33.4 7.9-50.9 7.3 -16.9-0.6-33.6-5.6-50.2-9.2 -16.6-3.7-33.3-7-49.8-11.4 -16.4-4.4-32.1-11.5-48.9-14.6 -2.3-0.4-3.3 2.9-1 3.5 16.3 4.9 33.1 7.8 49.2 13.2 16.8 5.6 33.8 9.6 51 13.8 16.4 4 32.6 7.5 49.5 8.7C302.6 359.5 320.6 354.9 337.2 350.6z"/>

    <path class="svg-clr-orange" fill="#DCBF89" d="M56.9 300.9c-4.5-12-7.3-24.1-9-36.8 -9.5-7.3-18.5-14.9-25.4-24.7 -0.8 0.5-2 0.4-2.5-0.5 -0.1-0.1-0.1-0.3-0.2-0.4 -0.5 0.5-1.2 0.7-1.8 0.4 0 2-0.1 4.1-0.1 6.1 0.8 5.4 1.9 10.7 3.5 15.9 2 6.4 4.3 12.9 8 18.6 3.3 5.1 7.2 9.6 11.2 14.1 6.3 7.1 13.5 12.7 20.9 18.4C59.9 308.3 58.3 304.7 56.9 300.9z"/>

    <path class="svg-clr-orange" fill="#DCBF89" d="M112.9 287.9c0 0-0.1 0-0.1-0.1 -1.6 0.5-3.2 0.8-4.8 1.1C109.8 288.6 111.4 288.3 112.9 287.9z"/>

    <path class="svg-clr-orange" fill="#DCBF89" d="M456.2 185.8c0.9-7.7 1.1-15.7-0.5-23.3 -1.5-7.4-5.8-14.2-8.5-21.3 -2.6-6.9-5.7-13.6-10.7-19.2 -4.6-5.1-9.7-9.6-14.9-14.1 -5.3-4.6-10.3-9.5-15.8-13.8 -12.5-9.9-26.1-17.9-41.3-22.7C335 62.3 303.7 60.8 273.2 57c-15-1.9-29.8-5-44.2-9.7 -0.8-0.3-1.7-0.6-2.5-0.8 -0.1 0-0.3 0-0.4 0 -6.1-1.3-13.2-4.1-18.7-7 -1.4-0.7-2.7-1.5-4-2.3 -4.4-2-8.9-4.2-12.6-7.2 -0.3-0.2-0.4-0.5-0.4-0.8 -0.4-0.2-0.8-0.4-1.2-0.6 -12-5.9-25.5-9.3-38.3-12.9 -7.2-2-14.1-4.6-21.3-6.3 -8-1.8-16-3-24.2-3.5 -12.7-0.7-23.6-0.2-34.2 7.6 -9.2 6.8-16.5 15.9-23.6 24.9 -4 5.1-8.5 10-12 15.4 -2.2 3.4-4 6.9-4.3 11 -0.2 2.4-0.1 5.1-0.7 7.4 -0.8 3.3-1.9 6.5-3.2 9.7 0.1 0.1 0.2 0.3 0.2 0.5 1.2 6.8-3.5 12.4-7.7 17.3 -6.2 7.2-10.3 14.6-12.4 24 -1.8 8-3.7 17.3-2.5 25.7 0.8 0.5 1.1 1.7 0.4 2.4 0.1 0.3 0.2 0.7 0.2 1 1.4 5.7 4 11.8 3.7 17.8 1.3 5 2.9 10 3.8 15 2.1 12.3 3.1 25.3 3.3 37.8 0 0.1 0 0.2 0 0.4 0.2 0 0.5 0.1 0.7 0.3 0.8-0.3 1.7 0 1.9 1 0.3 1.6 0.6 3.2 1.1 4.8 0.3 0.1 0.6 0.3 0.9 0.7 6.2 11.3 15.9 20.7 26.3 29.1 0-0.3 0-0.2 0 0 0 0 0.1 0.1 0.1 0.1 -0.4-2.7-0.7-5.4-0.9-8.1 -0.3-4.8-0.2-9.6 0.9-14.3 1.3-5.4 4.7-9.8 9.1-12.7 -0.6-5.2 0.5-10.4 4.8-14.7 2.1-2.1 4.6-3.7 6.8-5.6 -3 0-6.6 0.6-9.4-0.3 -2.8-0.9-5.6-2-8.4-3.3 -9.8 2.9-21.7-0.8-26.6-10.3 -1.7-3.2-3.1-6.6-4.5-10 -6-15.1-7.3-33.5-3-49.3 3.2-11.7 9.6-21.9 14.6-32.8 0.2-0.6 1.4-3.6 1.7-4.4 0.5-1.5 1.1-3 1.6-4.4 1-2.9 2-5.8 3-8.7 2.4-7.1 5.1-14.1 8.2-20.8 6.5-13.9 17-26.3 30.2-34.3 25.3-15.3 60-17.1 85.9-2.1 13.9 8 25.1 20.5 29.7 36.1 0.4 1.4 0.7 2.8 1 4.2 5.7-2.9 11.6-5.2 17.5-6.7 17.2-4.4 33.8-3 51 0.4 15.8 3.1 31.5 6.6 47.2 9.8 7.8 1.6 15.7 3.1 23.6 4.4 1.7 0.3 9.9 1.4 4.5 0.7 3.9 0.5 7.7 1 11.5 1.6 7.8 1.1 15.8 2.8 23.2 5.7 4.8 0.5 9.6 2.5 13.8 6.4 0.4 0.4 0.8 0.8 1.1 1.2 0.1 0.1 0.1 0.1 0.2 0.2 0.9 0.6 1.7 1.2 2 1.4 2.2 1.4 4.5 2.8 6.7 4.2 5.7 3.6 11.3 7.4 16.3 11.9 9.1 8.1 16.7 18.9 22.3 29.7 11 21.3 15.7 44.6 15.3 68.5 -0.3 17.6-3.2 35.4-8.9 52.2 0 1.2 0 2.5-0.1 3.7 -0.4 10.8-3 20.2-8.1 29.7 -0.9 1.8-2 3.5-3 5.1 0.1-0.1 0.2-0.2 0.2-0.3 9.9-10 18-20.9 20.8-35.1 1.4-7.3 1.1-15 1.8-22.4 0.2-2.8 0.9-5.5 1.4-8.2v0c0-0.6-0.1-1.2-0.1-1.8 0 0 0 0 0 0 -1-5.4-2-10.8-1.2-16.2C452.3 201.7 455.3 194 456.2 185.8z"/>

    <path class="svg-clr-orange" fill="#DCBF89" d="M453 261.1c-3.7 12.8-10.3 23.6-19.8 32.9 -10.3 10.1-18.3 22.1-29.4 31.6 -1.7 6.6-3.6 13.2-5.6 19.8 -3.7 12-7.9 23.9-12.3 35.6 5.5-3.5 10.8-7.4 15.7-11 14.4-10.5 34.3-19 43.1-35.4 4.6-8.6 4.7-18.9 5.9-28.4 1.3-10.3 2.7-20.6 3-30.9 0.1-5.3 0-10.6 0-15.9C453.3 259.9 453.1 260.5 453 261.1z"/>

    <path class="svg-clr-orange-2" fill="#BEA06E" d="M38.1 290.8c-3.7-12.1-8.4-27.9-7.8-41.9 -2.8-2.9-5.5-6-7.9-9.4 -0.8 0.5-2 0.4-2.5-0.5 -0.1-0.1-0.1-0.3-0.2-0.4 -0.5 0.5-1.2 0.7-1.8 0.4 0 2-0.1 4.1-0.1 6.1 0.8 5.4 1.9 10.7 3.5 15.9 2 6.4 4.3 12.9 8 18.6C31.9 283.6 35 287.3 38.1 290.8 38.1 290.9 38.1 290.8 38.1 290.8z"/>

    <path class="svg-clr-orange-2" fill="#BEA06E" d="M9.3 170.5c1.3 5 2.9 10 3.8 15 2.1 12.3 3.1 25.3 3.3 37.8 0 0.1 0 0.2 0 0.4 0.2 0 0.5 0.1 0.7 0.3 0.8-0.3 1.7 0 1.9 1 0.3 1.6 0.6 3.2 1.1 4.8 0.3 0.1 0.6 0.3 0.9 0.7 2.7 4.9 6.1 9.5 9.9 13.7 0.3-2 0.7-4 1.3-5.8 0.9-6 2.9-11.7 5.7-15.9 1-1.5 2.1-3 3.2-4.4 -5.5-3-10.5-6.8-14.4-11.4 -8.8-10.3-13.7-22-14.9-35.2 -1.3-2-2.2-4.2-2.7-6.7C9.2 166.8 9.4 168.6 9.3 170.5z"/>

    <path class="svg-clr-orange-2" fill="#BEA06E" d="M198 51c4.1-3.4 9.3-5.4 14.7-5.4 4.6 0 9 1.4 12.8 3.9 5.5 0.2 11.1 0.7 16.6 1.5 -4.4-1.1-8.7-2.4-13-3.8 -0.8-0.3-1.7-0.6-2.5-0.8 -0.1 0-0.3 0-0.4 0 -6.1-1.3-13.2-4.1-18.7-7 -1.4-0.7-2.7-1.5-4-2.3 -4.4-2-8.9-4.2-12.6-7.2 -0.3-0.2-0.4-0.5-0.4-0.8 -0.4-0.2-0.8-0.4-1.2-0.6 -12-5.9-25.5-9.3-38.3-12.9 -7.2-2-14.1-4.6-21.3-6.3 -8-1.8-16-3-24.2-3.5 -12.7-0.7-23.6-0.2-34.2 7.6 -9.2 6.8-16.5 15.9-23.6 24.9 -4 5.1-8.5 10-12 15.4 -2.2 3.4-4 6.9-4.3 11 -0.2 2.4-0.1 5.1-0.7 7.4 -0.8 3.3-1.9 6.5-3.2 9.7 0.1 0.1 0.2 0.3 0.2 0.5 1.2 6.8-3.5 12.4-7.7 17.3 -6.2 7.2-10.3 14.6-12.4 24 -1.8 8-3.7 17.3-2.5 25.7 0.8 0.5 1.1 1.7 0.4 2.4 0.1 0.3 0.2 0.7 0.2 1 0.9 3.8 2.4 7.8 3.2 11.8 -0.1-0.3-0.1-0.5-0.1-0.8C7.6 156.7 7.8 152 9 145c1.1-6.1 2.5-12.5 4.4-18.4 3.2-9.4 7.9-17.9 12.2-26.8 0.6-1.2 3.2-7.9 0.9-1.8 0.9-2.3 1.7-4.6 2.6-6.9 1.8-4.6 3.5-9.2 5.5-13.7 4.1-9.7 3.4-20.8 9.9-29.6 5.6-7.5 12.3-13.1 18.5-20 13.2-14.9 30-21.1 49.7-21.2 4.6 0 8.8 1.4 12.4 3.7 5.5-0.7 11.2 0.7 15.8 3.8 -0.6-0.7 0.4-0.6 2.4 1.2 2.8 1 5.5 1.9 8.3 2.8 1.2 0.4 2.3 0.8 3.5 1.2 0.8 0.3 1.6 0.6 2.4 1 0 0 0.5 0.1 1.5 0.5 5.1 1.6 10.4 3.1 15.1 5.7 1.9 1 3.7 2.3 5.4 3.7 2.1 1.1 4.2 2.6 5.7 4.4C191.7 37.8 197 43.9 198 51z"/>

    <path class="svg-clr-orange-2" fill="#BEA06E" d="M416.9 109.1c11.4 11.8 23 23.2 28.8 38.9 1.6 4.3 2.6 8.6 3.1 12.9 0.3 0.3 0.7 0.6 1 1 6.6 6.6 8.9 18.8 4.2 27.3 0.5 0.5 0.9 1 1.3 1.6 0.3-1.7 0.6-3.3 0.8-5 0.9-7.7 1.1-15.7-0.5-23.3 -1.5-7.4-5.8-14.2-8.5-21.3 -2.6-6.9-5.7-13.6-10.7-19.2 -4.6-5.1-9.7-9.6-14.9-14.1 -5.3-4.6-10.3-9.5-15.8-13.8 -12.5-9.9-26.1-17.9-41.3-22.7 -4.9-1.5-9.8-2.8-14.8-3.9 10.5 3.9 20.8 8.3 30.5 13.4C394.1 88 406.2 97.9 416.9 109.1z"/>

    <path class="svg-clr-orange-2" fill="#BEA06E" d="M448.1 254.5c-3.4 9.3-7.7 18.1-13.1 26.2 -0.3 0.8-0.6 1.6-1 2.4 0.2 1.4 0.3 2.9 0.3 4.3 0 0 0 0 0 0 7.2-8.3 12.9-17.6 15.1-28.9 0.7-3.7 1-7.5 1.2-11.4C449.8 249.6 449 252.1 448.1 254.5z"/>

    <path class="svg-clr-orange-2" fill="#BEA06E" d="M453.4 259.4c-0.1 0.6-0.3 1.2-0.5 1.7 -3.6 12.5-9.9 23.1-19 32.2 -1.8 21.9-6.8 43.3-13.4 64.3 9.6-6.3 18.9-13.2 24.1-23.1 4.6-8.6 4.7-18.9 5.9-28.4 1.3-10.3 2.7-20.6 3-30.9C453.6 269.9 453.5 264.6 453.4 259.4z"/>

    <path class="svg-clr-orange" fill="#DCBF89" d="M312.6 354.6c0.5 0.3 0.9 0.8 1.1 1.4 4.5-0.9 9-1.9 13.5-2.9 0.1 0 0.1 0 0.2-0.1C322.6 353.9 317.6 354.4 312.6 354.6z"/>

    <path class="svg-clr-orange" fill="#DCBF89" d="M97.4 295.7c2 1.3 4 2.5 6.1 3.6 -3.1-1.9-6.3-3.8-9.3-5.8C95.2 294.3 96.3 295 97.4 295.7z"/>

    <path class="svg-clr-orange" fill="#DCBF89" d="M72.4 279.6c-0.2 0-0.2 0.2-0.1 0.2 1.9 0.7 3.7 1.6 5.5 2.6 -1.2-0.8-2.3-1.7-3.5-2.5C73.7 279.8 73.1 279.7 72.4 279.6z"/>

    <path class="svg-clr-orange" fill="#DCBF89" d="M310.1 354.6c-0.2 0.1-0.3 0.1-0.5 0.2 1 0 2-0.1 3-0.2C312 354.2 311.1 354.1 310.1 354.6z"/>

    <path class="svg-clr-orange" fill="#DCBF89" d="M210.5 385.9C210.6 385.9 210.6 385.9 210.5 385.9 210.6 385.9 210.6 385.9 210.5 385.9 210.6 385.9 210.6 385.9 210.5 385.9z"/>

    <path class="svg-clr-orange" fill="#DCBF89" d="M200 382.9c0 0.1 0.1 0.2 0.1 0.3 0.1 0 0.3-0.1 0.4-0.1C200.4 383 200.2 382.9 200 382.9z"/>

    <path class="svg-clr-orange" fill="#DCBF89" d="M333.1 351.1c-1.9 0.7-3.7 1.3-5.6 1.9 0.1 0 0.2 0 0.3 0 2.4-0.6 4.8-1.2 7.2-1.8C334.4 350.9 333.8 350.8 333.1 351.1z"/>

    <path class="svg-clr-orange" fill="#DCBF89" d="M327.2 353.1c0.2 0 0.3-0.1 0.5-0.1 -0.1 0-0.2 0-0.3 0C327.4 353.1 327.3 353.1 327.2 353.1z"/>

    <path class="svg-clr-orange" fill="#DCBF89" d="M205.5 383.6c-0.6 0.2-1.2 0.3-1.8 0.4 1.1 0.3 2.2 0.6 3.2 0.9 -0.1-0.1-0.1-0.2-0.2-0.3C206.3 384.3 205.9 384 205.5 383.6z"/>

    <path class="svg-clr-orange" fill="#DCBF89" d="M192.8 380.7c0.2 0 0.3 0.1 0.5 0.1 0-0.1-0.1-0.2-0.1-0.4C193 380.6 192.9 380.7 192.8 380.7z"/>

    <path class="svg-clr-orange" fill="#DCBF89" d="M414.2 275c0.1-0.4 0.3-0.8 0.4-1.1 -0.3-0.3-0.5-0.7-0.7-1.1 -0.1 0.5-0.2 1.1-0.3 1.6 0.2 0.2 0.4 0.5 0.5 0.8C414.1 275.1 414.2 275.1 414.2 275z"/>

    <path class="svg-clr-orange" fill="#DCBF89" d="M270.6 360.3c0.2 0.2 0.5 0.4 0.7 0.6 0.1 0.1 0.2 0.2 0.3 0.3 -0.3-0.4-0.5-0.8-0.8-1.1C270.8 360.2 270.7 360.2 270.6 360.3z"/>

    <path class="svg-clr-orange" fill="#DCBF89" d="M284.8 361.4C284.8 361.4 284.8 361.5 284.8 361.4c1.1-0.2 2.3 0.2 2.9 1.1 0.2-0.4 0.4-0.8 0.6-1.2 -1.2-0.1-2.4-0.1-3.6-0.2C284.8 361.2 284.8 361.3 284.8 361.4z"/>

    <path class="svg-clr-orange" fill="#DCBF89" d="M294.2 361.5c0.1 0.6 0.1 1.3 0.1 1.9 0.4-0.6 0.8-1.3 1.2-1.9C295.1 361.5 294.6 361.5 294.2 361.5z"/>

    <path class="svg-clr-orange" fill="#DCBF89" d="M26.8 138.5c0.3 0 0.6 0.1 0.9 0.2 0-0.3 0-0.6 0-0.9 -0.3 0-0.6 0-0.9 0C26.8 138 26.8 138.2 26.8 138.5z"/>

    <path class="svg-clr-orange" fill="#DCBF89" d="M94.2 293.5c-5.4-3.7-10.6-7.9-16.3-11C83.2 286.3 88.7 290 94.2 293.5z"/>

    <path class="svg-clr-orange" fill="#DCBF89" d="M206.8 384.6c-0.2-0.3-0.2-0.7-0.2-1.2 0-0.7 0-1.3 0-2 0 0 0 0.1-0.1 0.1 -1 1.4-2.7 1.6-3.9 0.9 -0.1 0-0.2 0.1-0.3 0.1 0 0-0.1 0-0.1 0.1 -0.5 0.3-1 0.4-1.5 0.4 -0.1 0-0.1 0-0.2 0 1.1 0.3 2.2 0.6 3.2 0.9 0.6-0.1 1.2-0.3 1.8-0.4C205.9 384 206.3 384.3 206.8 384.6z"/>

    <path class="svg-clr-orange" fill="#DCBF89" d="M210.6 385.9c0.2 0.1 0.5 0.1 0.7 0.2 0-0.2-0.1-0.4-0.1-0.6C211 385.7 210.8 385.8 210.6 385.9z"/>

    <path class="svg-clr-orange" fill="#DCBF89" d="M196.5 380.5c-0.6-0.8-0.9-1.8-0.4-2.9 -0.4-1.1-0.1-2.5 1.1-3.3 -0.5-0.1-1-0.1-1.4 0.2 -0.4 0.2-0.8 0.5-1.2 0.7 -0.1-0.6-0.4-1.1-0.8-1.4 0.2-0.3 0.5-0.6 0.7-0.9 1.4-1.7-0.4-4.7-2.5-3.3 -3.6 2.4-7.2 5.1-11 7.5 3.9 1.2 7.8 2.4 11.7 3.6 0.1-0.1 0.3-0.1 0.4-0.2 0 0.1 0 0.2 0.1 0.4 0.7 0.2 1.5 0.4 2.2 0.7C195.8 381.1 196.1 380.8 196.5 380.5z"/>

    <path class="svg-clr-orange" fill="#DCBF89" d="M227.5 343.3c-10.7-2.7-21.4-5.5-32.1-8.1 -9.6-2.3-19.2-5-28.8-7.6 6.2 2.1 12.5 4.2 18.8 5.9C199.3 337.3 213.4 340.3 227.5 343.3z"/>

    <path class="svg-clr-orange" fill="#DCBF89" d="M277.5 359.4c0.8-0.1 1.6 0.1 2.3 0.6 0.1-0.2 0.3-0.4 0.4-0.6 1.4-1.8 4.5-0.5 4.7 1.6 1.2 0.1 2.4 0.2 3.6 0.2 0.2-0.4 0.4-0.8 0.7-1.3 1.4-2.6 4.9-1.2 5.2 1.4 0 0 0 0 0 0.1 0.4 0 0.9 0 1.3 0 0.8-1.2 1.6-2.3 2.6-3.3 -4.3 0.3-8.5 0.4-12.7 0 -3.2-0.2-6.4-0.6-9.5-0.9C276.5 357.9 277.1 358.6 277.5 359.4z"/>

    <path class="svg-clr-orange" fill="#DCBF89" d="M352.4 348.6c-5.9 0.2-11.5 1.5-17.2 2.8 1.3 1.1 1.4 3.8-0.8 4.6 -3.7 1.4-7.6 2.6-11.4 3.7 10.2-1.3 20.2-3.4 29.9-7C355.1 352 354.9 348.5 352.4 348.6z"/>

    <path class="svg-clr-orange" fill="#DCBF89" d="M313.9 356.9c4.5-1.1 9-2.4 13.4-3.8 -4.4 1.1-8.9 2.1-13.5 2.9C313.8 356.3 313.9 356.6 313.9 356.9z"/>

    <path class="svg-clr-orange" fill="#DCBF89" d="M245.4 351.7c-3.2-0.7-6.4-1.5-9.6-2.2 -17.2-4.2-34.2-8.1-51-13.8 -9-3-18.1-5.2-27.2-7.5 1.6 0.6 3.2 1.2 4.8 1.7 8.7 2.9 17.6 5.4 26.3 8.2 0.8 0.3 1.2 1 1.3 1.7 1.3 0.3 2.5 0.6 3.8 1 17.3 4.4 34.5 8.9 51.8 13.3C245.2 353.5 245.2 352.6 245.4 351.7z"/>

    <path class="svg-clr-orange" fill="#DCBF89" d="M124.8 306.2c-3.9-2.9-8.6-4.2-13-6.1 -5-2.2-9.8-5.2-14.4-8 -7.3-4.3-14.5-10.2-22.9-12.1 1.2 0.8 2.3 1.7 3.5 2.5 5.7 3.2 10.9 7.3 16.3 11 3.1 2 6.2 3.9 9.3 5.8 6.5 3.6 13.2 6.6 20.2 9.4C125.3 309.3 125.9 307.1 124.8 306.2z"/>

    <path class="svg-clr-orange" fill="#DCBF89" d="M294.1 376.1c0.9-0.2 1.8-0.8 2-2 0-0.2 0.1-0.3 0.1-0.5 -0.4 0.6-0.8 1.1-1.3 1.7C294.7 375.7 294.4 375.9 294.1 376.1z"/>

    <path class="svg-clr-orange" fill="#DCBF89" d="M286.4 375.2c-0.1 0.1-0.2 0.1-0.3 0.2 -0.2 0.1-0.4 0.2-0.6 0.2 0.2 0.1 0.4 0.1 0.6 0.2C286.2 375.6 286.3 375.4 286.4 375.2z"/>

    <path class="svg-clr-orange" fill="#DCBF89" d="M290.7 378.6c0.6-0.3 1.2-0.8 1.4-1.7 0-0.1 0.1-0.2 0.1-0.4 -0.2 0-0.5-0.1-0.7-0.2C291.3 377 291 377.8 290.7 378.6z"/>

    <path class="svg-clr-orange" fill="#DCBF89" d="M300.5 369.5c0.2-0.3 0.4-0.6 0.6-0.9 -0.7 0.6-1.3 1.3-2 2C299.7 370.4 300.2 370 300.5 369.5z"/>

    <path class="svg-clr-orange" fill="#DCBF89" d="M295.5 361.5c-0.4 0.6-0.8 1.2-1.2 1.9 0-0.6 0-1.3-0.1-1.9 -1.9 0-3.9-0.1-5.8-0.2 -0.2 0.4-0.4 0.8-0.6 1.2 -0.6-0.9-1.8-1.3-2.9-1 0 0 0-0.1 0-0.1 0-0.1 0-0.2 0-0.4 -4.5-0.3-9.1-0.8-13.6-1.5 -0.1 0.2-0.2 0.4-0.4 0.6 0.3 0.4 0.6 0.7 0.8 1.1 0.2 0.2 0.4 0.5 0.5 0.7 0.8 0.7 1.6 1.4 2.4 2.1 0.7 0.2 1.3 0.7 1.7 1.5 0.2 0.2 0.4 0.3 0.6 0.5 0.3 0.3 0.5 0.6 0.7 0.9 0.4 0.1 0.8 0.4 1.2 0.8 0.2 0.3 0.4 0.6 0.6 0.9 0.7-1.6 3.1-2.3 4.4-0.8 0.5 0.6 1.1 1.3 1.6 1.9 1.4-1.1 2.6-2.3 4.2-3.3 1.3-0.8 2.9-0.2 3.6 1 0.4-0.2 0.9-0.3 1.4-0.2 0.5-0.4 1-0.8 1.5-1.2 0.3-0.2 0.7-0.3 1-0.4 1.4-1.5 2.8-2.9 4.4-4.1 -0.1 0-0.1 0-0.2 0C299.3 361.4 297.4 361.5 295.5 361.5z"/>

    <path class="svg-clr-orange" fill="#DCBF89" d="M278.6 377c0 0.1-0.1 0.2-0.1 0.2 0.2 0 0.3 0.1 0.5 0.1 0-0.1 0-0.1 0-0.2C278.9 377.1 278.7 377.1 278.6 377z"/>

    <path class="svg-clr-orange" fill="#DCBF89" d="M289 360c-0.2 0.4-0.4 0.8-0.7 1.3 1.9 0.1 3.9 0.2 5.8 0.2 0 0 0 0 0-0.1C293.9 358.8 290.4 357.4 289 360z"/>

    <path class="svg-clr-orange" fill="#DCBF89" d="M313.7 356.1c-5.2 1-10.5 1.7-15.7 2.1 -0.9 1-1.8 2.1-2.6 3.3 1.9 0 3.8 0 5.7-0.1 0.1 0 0.1 0 0.2 0 1.6-1.2 3.4-2.3 5.5-2.8 2.3-0.6 4.7-1.1 7-1.7C313.9 356.6 313.8 356.3 313.7 356.1z"/>

    <path class="svg-clr-orange" fill="#DCBF89" d="M271.2 359.5c4.5 0.7 9.1 1.2 13.6 1.5 -0.2-2-3.3-3.4-4.7-1.6 -0.1 0.2-0.3 0.4-0.4 0.6 -0.6-0.5-1.5-0.8-2.3-0.6 -0.4-0.8-1-1.5-1.6-2.2 -1.7-0.2-3.4-0.4-5.1-0.7C271.7 357.4 271.7 358.6 271.2 359.5z"/>

    <path class="svg-clr-orange" fill="#DCBF89" d="M220.7 383.4c-0.6-0.5-1.3-0.7-2-0.7 -0.8-0.8-1.7-1.4-2.7-2 -0.2-1.1-0.4-2.2-0.6-3.3 -0.2-0.8-0.6-1.3-1.2-1.6 0.1-0.1 0.1-0.1 0.2-0.2 1.5-1.9-1-4.8-3.1-4.1 -0.6 0.2-1.2 0.4-1.7 0.7 0 0 0 0 0 0 -0.1-2-2.4-3.8-4.3-2.5 -0.8 0.6-1.6 1.2-2.3 1.8 -0.9-0.4-2-0.3-2.9 0.6 -0.8 0.9-1.7 1.6-2.7 2.2 0 0-0.1 0-0.1 0.1 0.7 0.2 1.3 0.8 1.4 1.5 0.2-0.1 0.5-0.2 0.7-0.3 0.9-0.4 2 0.6 2 1.5 0 0.6-0.1 1.2-0.1 1.8 0.1 0 0.3 0 0.4-0.1 1-0.3 2.1 0.5 2.1 1.5 0.7-0.2 1.5-0.4 2.2-0.7 0.8-0.3 1.6 0.2 2.1 0.8 0.7 1 4.7 1.9 5.8 2.7 1.4 1 2.7 2 4.1 3.1 0.6 0.5 0.6 1.1 0.4 1.7 5.4 1.4 10.8 2.6 16.2 3.8 1.3 0.3 2.6 0.5 3.8 0.8 -2.3-1.2-4.6-2.5-6.9-3.9C228.2 386.4 223.7 385.8 220.7 383.4z"/>

    <path class="svg-clr-orange" fill="#DCBF89" d="M199.4 382.4c-0.8 0-1.8-0.8-1.7-1.7 0-0.1 0-0.3 0.1-0.4 -0.5 0.5-0.9 0.9-1.4 1.4 0 0-0.1 0-0.1 0.1 1.2 0.4 2.5 0.7 3.7 1.1 0-0.2-0.1-0.3-0.1-0.5C199.8 382.4 199.6 382.4 199.4 382.4z"/>

    <path class="svg-clr-orange" fill="#DCBF89" d="M208.4 385c-0.6-0.1-1.1-0.3-1.5-0.5 0.1 0.1 0.1 0.2 0.2 0.3 1.2 0.3 2.4 0.7 3.5 1C209.8 385.5 209.1 385.2 208.4 385z"/>

    <path class="svg-clr-orange" fill="#DCBF89" d="M196.1 377.6c-0.4 1.1-0.2 2.1 0.4 2.9 -0.4 0.3-0.8 0.6-1.1 1.1 0.3 0.1 0.6 0.2 0.9 0.3 0 0 0.1 0 0.1-0.1 0.5-0.4 0.9-0.9 1.4-1.4 0 0.1 0 0.3-0.1 0.4 -0.1 0.9 0.9 1.7 1.7 1.7 0.2 0 0.4 0 0.5 0 0 0.2 0 0.3 0.1 0.5 0.2 0 0.3 0.1 0.5 0.1 0.1 0 0.1 0 0.2 0 0.5 0 1-0.1 1.5-0.4 0 0 0.1 0 0.1-0.1 0.1 0 0.2-0.1 0.3-0.1 1.2 0.7 3 0.5 3.9-0.9 0 0 0-0.1 0.1-0.1 0 0.7 0 1.3 0 2 0 0.4 0.1 0.8 0.2 1.2 0.4 0.2 0.9 0.4 1.5 0.5 0.8 0.2 1.5 0.5 2.2 0.8 0 0 0 0 0.1 0 0.2-0.1 0.4-0.2 0.6-0.4 0 0.2 0.1 0.4 0.1 0.6 2.3 0.6 4.6 1.2 7 1.8 0.2-0.6 0.2-1.2-0.4-1.7 -1.3-1.1-2.6-2.1-4.1-3.1 -1.1-0.8-5.1-1.7-5.8-2.7 -0.5-0.6-1.2-1.1-2.1-0.8 -0.7 0.3-1.4 0.5-2.2 0.7 0-1-1.2-1.8-2.1-1.5 -0.1 0-0.3 0.1-0.4 0.1 0-0.6 0.1-1.2 0.1-1.8 0-1-1-1.9-2-1.5 -0.3 0.1-0.5 0.2-0.7 0.3 -0.1-0.7-0.7-1.3-1.4-1.5C196 375.1 195.7 376.5 196.1 377.6z"/>

    <path class="svg-clr-orange" fill="#DCBF89" d="M421.4 259.7c-2.3 2.4-5.8 4.9-6.6 8.3 -0.4 1.6-0.6 3.2-0.8 4.8 0.1 0.4 0.4 0.8 0.7 1.1 -0.1 0.4-0.3 0.8-0.4 1.1 0 0.1-0.1 0.1-0.1 0.2 -0.1-0.3-0.3-0.6-0.5-0.8 -0.1 0.5-0.3 1.1-0.4 1.6 -1.5 4.6-4.9 8.8-8.6 11.9 -0.7 0.6-1.4 1.1-2 1.7 0.4-0.2 0.8-0.5 1.1-0.7 1.5-0.9 2.7-1.8 3.7-2.8 0.7-0.1 1.3-0.5 1.6-1.3 0.1-0.1 0.1-0.2 0.2-0.3 0.4-0.2 0.9-0.5 1.2-1 0.6-1 1.2-1.9 1.8-2.9 0.6 0.6 1.7 0.8 2.4 0.1 1.2-1.2 2.6-2.3 3.8-3.5 0.5-0.4 0.6-1 0.4-1.4 0.1-0.2 0.2-0.4 0.3-0.6 0.1-0.3 0.2-0.6 0.2-0.9 0.4-0.7 0.8-1.4 1.2-2.1 1.1 0.8 2.9 0.5 3.8-0.7 1.2-1.6 1.8-3.4 2.2-5.3 1.5-0.3 2.7-1.7 2.2-3.4 -0.1-0.5-0.2-1-0.3-1.4 0.5-1.1 0.8-2.1 1.3-3.2 0.4-1 0.2-2.1-0.4-2.9 0-0.1 0.1-0.2 0.1-0.3 0.1-0.5 0.3-1 0.4-1.6 1.7-2.7 2.8-5.8 3.1-8.5 0.1-1-0.5-1.8-1.3-2.3 -0.4 0.7-0.8 1.3-1.2 2C427.4 249.4 425.4 255.4 421.4 259.7z"/>

    <path class="svg-clr-orange" fill="#DCBF89" d="M178 66c0 0.7-0.3 1.3-0.7 1.8 -0.1 1.4-0.6 2.7-1.5 3.6 -0.2 0.2-0.5 0.3-0.8 0.4 0.5 3.3 0.8 6.7 0.7 10.1 0 4.1-0.3 8-1.5 11.8 -1 3-2.1 6-2.4 9.1 9.5-4.1 16.6-11.8 26.1-15.8 0.8-0.3 1.6-0.7 2.4-1 3.2-1.4 6.5-2.8 9.7-4.2 -0.6-0.5-0.6-1.5 0.3-1.8 1.8-0.7 3.7-1.3 5.5-1.9 0-2.2-2.1-4.2-4.7-2.9 -1.3 0.7-2.7 1.3-4 2 -0.1 0-0.1 0.1-0.2 0.1 -3 1.3-5.9 2.7-8.5 5 -0.1 0.1-0.1 0.1-0.2 0.2 -0.8-1-2.2-1.5-3.7-0.6 -0.9 0.6-1.8 1.1-2.7 1.7 -0.4-1.9-3.1-3.4-5.2-1.8 -0.9 0.7-1.8 1.4-2.7 2.1 -0.5-0.3-1-0.4-1.6-0.3 -0.1-1.1-1.1-2-2.2-2.4 0.2-0.4 0.4-0.8 0.4-1.4 0.1-3.9 0-7.7-1.2-11.4 -0.1-0.3-0.2-0.5-0.4-0.7 -0.5-3-1.3-5.9-2.4-8.6 -0.2-0.5-0.8-0.7-1.3-0.6 0.1 0.1 0.2 0.1 0.3 0.2C177.5 60.8 178 63.4 178 66z"/>

    <path class="svg-clr-orange" fill="#DCBF89" d="M174.3 68.1c0 0 0-0.1 0.1-0.1 -0.2-2-0.3-4-0.3-5.9 -0.1 0-0.2 0.1-0.3 0.1 -0.7 0.4-1.7-0.5-1.2-1.2 0.9-1.1 0.9-1.3 2.1-2 0.1-0.1 0.3-0.1 0.4-0.2 -0.1-0.1-0.2-0.1-0.3-0.2 -0.3-0.7-0.7-1.5-1-2.2 -1.3-2.6-1.9-5-4.3-6.8 -0.6-0.5-1.3-0.4-2-0.1 1.3 2.9 2.5 5.8 3.7 8.6C172.6 61.3 173.6 64.7 174.3 68.1z"/>

    <path class="svg-clr-orange" fill="#DCBF89" d="M172.7 61c-0.5 0.7 0.5 1.6 1.2 1.2 0.1 0 0.2-0.1 0.3-0.1 0 2 0.1 3.9 0.3 5.9 0 0 0 0.1-0.1 0.1 0.3 1.2 0.5 2.4 0.7 3.7 0.3 0 0.6-0.2 0.8-0.4 0.9-0.9 1.3-2.2 1.5-3.6 0.4-0.5 0.7-1.1 0.7-1.8 0-2.6-0.4-5.2-2.5-6.9 -0.1-0.1-0.2-0.2-0.3-0.2 -0.2 0-0.3 0.1-0.4 0.2C173.6 59.7 173.5 59.9 172.7 61z"/>

    <path class="svg-clr-orange" fill="#DCBF89" d="M211.3 83.1C211.3 83.1 211.3 83.1 211.3 83.1c1.3-0.3 2.5-0.5 3.8-0.7 -0.9 0-1.8 0-2.7-0.1C212.1 82.6 211.7 82.9 211.3 83.1z"/>

    <path class="svg-clr-orange" fill="#DCBF89" d="M211.3 83.1c0.4-0.2 0.7-0.4 1.1-0.8 -0.6 0-1.2-0.1-1.8-0.2 -0.2 0-0.4-0.1-0.6-0.3 -3.2 1.4-6.4 2.8-9.7 4.2C204 84.8 207.6 83.8 211.3 83.1 211.3 83.1 211.3 83.1 211.3 83.1z"/>

    <path class="svg-clr-orange" fill="#DCBF89" d="M219.1 78.1c0.3-0.2 0.6-0.4 0.9-0.5 0.5-0.3 1.1-0.4 1.7-0.5 0.7-0.2 1.4-0.1 1.9 0.1 2.1-0.3 4.1-0.8 6.2-0.9 1.3-0.1 2.6-0.1 3.9-0.3 0.2 0 2.5-0.7 1.2-0.1 1.6-0.8 3.2 0 3.7 1.5 4.1-1.2 8.2-2.4 12.4-3.3 -0.3-0.4-0.7-0.7-1.3-0.9 -6.2-1.5-14 0.7-20.2 1.6 -4.7 0.7-9.2 1.9-13.6 3.4 0 0.5-0.1 1-0.4 1.4C216.6 79.1 217.9 78.6 219.1 78.1z"/>

    <path class="svg-clr-orange" fill="#DCBF89" d="M210 81.9c1.8-0.8 3.6-1.5 5.4-2.3 0.2-0.5 0.4-1 0.4-1.4 -1.8 0.6-3.7 1.2-5.5 1.9C209.4 80.4 209.4 81.4 210 81.9z"/>

    <path class="svg-clr-orange" fill="#DCBF89" d="M214.4 80.9c-0.6 0.5-1.2 0.9-1.9 1.4 0 0 0 0-0.1 0 0.9 0.1 1.8 0.1 2.7 0.1 3-0.5 6-1 9.1-1.5 4.9-0.8 9.6-2.1 14.3-3.5 -0.4-1.4-2.1-2.3-3.7-1.5 1.3-0.7-0.9 0.1-1.2 0.1 -1.3 0.2-2.6 0.2-3.9 0.3 -2.1 0.1-4.2 0.6-6.2 0.9 -0.5-0.2-1.2-0.3-1.9-0.1 -0.6 0.1-1.2 0.2-1.7 0.5 -0.4 0.1-0.7 0.3-0.9 0.5 -1.2 0.5-2.4 1-3.6 1.5C215.2 80.1 214.9 80.5 214.4 80.9z"/>

    <path class="svg-clr-orange" fill="#DCBF89" d="M212.4 82.3C212.5 82.3 212.5 82.3 212.4 82.3c0.7-0.5 1.3-0.9 1.9-1.4 0.5-0.4 0.8-0.8 1.1-1.3 -1.8 0.8-3.6 1.5-5.4 2.3 0.2 0.1 0.4 0.2 0.6 0.3C211.2 82.2 211.8 82.3 212.4 82.3z"/>

    <path class="svg-clr-orange" fill="#DCBF89" d="M27.7 138.6c-0.3-0.1-0.6-0.2-0.9-0.2 0-0.2 0-0.5 0-0.7 0.3 0 0.6 0 0.9 0 0.1-2.9 0.4-5.7 1.2-8.4 0.7-2.4 1.5-4.8 2.4-7.2 -1.3 0-2.5 0.1-3.9 0.7 -0.8 0.4-1.2 1-1.3 1.7 0 0 0 0 0 0 -1.9 0.4-2.3 2.1-1.6 3.5 -0.3 0.5-0.3 1.1-0.2 1.7 0 0 0 0 0 0 -1.2 0.6-2 2.1-1.4 3.4 -1 0.4-1.7 1.4-1.6 2.4 0 0.1 0 0.1 0 0.2 -1.5 0.7-2.1 2.8-0.7 4.1 0.9 0.9 1.9 1.6 2.9 2.4 0.2 0.8 0.7 1.5 1.7 1.7 0.9 0.2 1.9 0.5 2.8 0.7C27.7 142.7 27.7 140.7 27.7 138.6z"/>

    <path class="svg-clr-orange" fill="#DCBF89" d="M58.6 203.9c-6.1-1.9-12.4-4.9-17.8-8.9 -1.2 1.2-1.3 3.4 0.5 4.6 0.1 0.1 0.2 0.1 0.3 0.2 -0.2 1.3 0.3 2.6 2 3.1 1.6 0.4 3.3 0.8 4.9 1 0 0 0 0 0.1 0 0.2 0.1 0.5 0.1 0.7 0.1 2 0.3 4 0.4 6.1 0.3 0.3 0 0.7-0.1 0.9-0.2 2.2 0.8 4.4 1.5 6.6 1.1 0.5-0.1 0.9-0.4 1.1-0.8C62.1 204.4 60.2 204.4 58.6 203.9z"/>

    <path class="svg-clr-orange" fill="#DCBF89" d="M63.5 241.7c-0.6-0.9-1.2-1.8-1.8-2.8 -0.3 0.6-0.4 1.3-0.3 1.9 0.3 1.7 0.7 3.3 1.2 4.9 0.1 2.3 0.5 4.5 1.2 6.6 0.5 1.5 2.4 2.3 3.8 2 0.4 0.8 0.9 1.6 1.4 2.4 1.5 3.7 3.8 6.9 6.6 9.9 1.2 1.3 2.6 1.1 3.6 0.4 0.9 1.3 1.9 2.7 2.9 4 0 0 0 0 0 0.1l0 0c0.2 0.2 0.3 0.4 0.5 0.6 0.6 0.8 1.5 1.1 2.2 1 0.7 0.9 1.5 1.7 2.3 2.5 1.1 1.2 2.4 1.2 3.4 0.5 1.3 1.4 2.4 3 3.6 4.5 0.9 1.1 2.1 1.1 3.2 0.6 2 1.2 4.1 2.4 6.1 3.5 1.2 0.7 2.6 0.1 3.4-0.8 -4.9-3.6-9.6-7.4-14-11.2C82.2 263.2 71.4 253.3 63.5 241.7z"/>

    <path class="svg-clr-orange" fill="#DCBF89" d="M305.5 362.5c-2 1.3-3.1 3.9-4.4 6.1 2.5-2.4 5.1-4.6 8.7-5.4 4.4-1.1 8.9-2.2 13.2-3.4 -4.7 0.6-9.4 1-14.1 1.3C307.8 361.4 306.6 361.8 305.5 362.5z"/>

    <path class="svg-clr-orange" fill="#DCBF89" d="M328.1 352.9c2.4-0.5 4.8-1 7.2-1.5 -0.1-0.1-0.2-0.2-0.3-0.2 -2.4 0.6-4.8 1.2-7.2 1.8C327.8 353 328 353 328.1 352.9z"/>

    <path class="svg-clr-orange" fill="#DCBF89" d="M297.1 370.7c-0.3 1-0.6 2-0.8 3 0.3-0.4 0.6-0.9 1-1.3 0.6-0.6 1.3-1.2 1.9-1.8C298.4 370.8 297.7 370.8 297.1 370.7z"/>

    <path class="svg-clr-orange" fill="#DCBF89" d="M292.4 375.9c-0.1 0.2-0.1 0.4-0.2 0.5 0.6 0.1 1.3 0 1.9-0.3C293.5 376.2 292.9 376.1 292.4 375.9z"/>

    <path class="svg-clr-orange" fill="#DCBF89" d="M276.7 374.7c0.1-1.2 0.3-2.4 0.6-3.6 0-0.1 0-0.3 0.1-0.4 0.1-0.5 0.3-1 0.4-1.6 -0.3-0.2-0.5-0.3-0.7-0.6 -1.6 0.5-3.5-0.6-3.6-2.6 0-1-0.1-1.8-0.3-2.5 -0.4-0.8-0.9-1.6-1.4-2.3 -0.1-0.1-0.2-0.2-0.3-0.3 -0.2-0.2-0.5-0.4-0.7-0.6 0.1-0.1 0.1-0.1 0.2-0.2 -0.2-0.3-0.4-0.5-0.7-0.7 -7.5-1.2-15-2.7-22.3-4.6 -0.7-0.2-1.5-0.4-2.2-0.6 0.3 0.6 0.9 1.1 1.8 1.2 3.8 0.6 7.4 1.9 11 3.1 0.2 0.2 0.4 0.4 0.7 0.6 1.3 0.7 2.4 1.5 3.5 2.4 -0.6 0.8-0.8 1.9 0 2.9 1.8 2.3 3.5 4.4 6.1 6 0.3 0.2 0.7 0.3 1.1 0.4 0.6 1.2 1.3 2.4 2 3.6 0.4 0.7 1 1.1 1.6 1.3 0.1 0.2 0.1 0.3 0.1 0.5 0.6 2.1 3.7 2.6 4.9 1C277.4 377 276.6 376.2 276.7 374.7z"/>

    <path class="svg-clr-orange" fill="#DCBF89" d="M270.1 359.4c-0.8-0.8-1.8-1.5-2.8-1.8 -0.1 0-0.1-0.1-0.1-0.2 0-0.6 0.2-1 0.4-1.3 -7.5-1.2-14.8-2.7-22.2-4.4 -0.2 0.9-0.1 1.8 0.3 2.5 0.7 0.2 1.4 0.4 2.2 0.6C255.1 356.7 262.6 358.2 270.1 359.4z"/>

    <path class="svg-clr-orange" fill="#DCBF89" d="M335.2 351.4c-2.4 0.5-4.7 1.1-7.2 1.5 -0.1 0-0.2 0-0.4 0.1 -0.2 0-0.3 0.1-0.5 0.1 -4.4 1.4-8.9 2.6-13.4 3.8 0 0.5-0.2 1.1-0.7 1.6 -1.2 1.4-2.7 2-4.3 2.5 4.7-0.3 9.4-0.7 14.1-1.3 3.8-1.1 7.7-2.3 11.4-3.7C336.6 355.2 336.6 352.5 335.2 351.4z"/>

    <path class="svg-clr-orange" fill="#DCBF89" d="M305.5 362.5c1.1-0.7 2.3-1.1 3.4-1.5 -2.5 0.1-5 0.3-7.5 0.4 -1.6 1.2-3 2.7-4.4 4.1 -0.4 0-0.7 0.1-1 0.4 -0.5 0.4-1 0.8-1.5 1.2 -0.5 0-1 0-1.4 0.2 -0.7-1.2-2.3-1.8-3.6-1 -1.5 0.9-2.8 2.2-4.2 3.3 -0.5-0.6-1.1-1.3-1.6-1.9 -1.3-1.4-3.6-0.8-4.4 0.8 -0.2-0.3-0.4-0.6-0.6-0.9 -0.3-0.4-0.7-0.7-1.2-0.8 -0.2-0.3-0.4-0.6-0.7-0.9 -0.2-0.2-0.4-0.3-0.6-0.5 -0.4-0.8-1-1.3-1.7-1.5 -0.8-0.7-1.6-1.4-2.4-2.1 -0.1-0.2-0.3-0.5-0.5-0.7 0.5 0.8 1 1.6 1.4 2.3 0.2 0.8 0.3 1.6 0.3 2.5 0.1 2 2 3.1 3.6 2.6 0.2 0.2 0.5 0.4 0.7 0.6 -0.1 0.5-0.3 1-0.4 1.6 0.1-0.1 0.2-0.2 0.4-0.2 2.1-0.1 3.2 1.2 3.9 2.8 0.5 0.1 1.1 0.3 1.4 0.8 0.8 0.1 1.6 0.6 2 1.4 0.2 0 0.3 0 0.5 0.1 0.2-0.1 0.4-0.1 0.6-0.2 0.1-0.1 0.2-0.1 0.3-0.2 0.5-1.1 1-2.2 1.9-3.1 1.4-1.2 3.3-0.3 3.4 1.4 0.1 0.8 0 1.7-0.3 2.7 0.2 0.1 0.5 0.2 0.7 0.2 0.1-0.2 0.1-0.4 0.2-0.5 0.6 0.2 1.2 0.3 1.8 0.2 0.3-0.2 0.6-0.4 0.9-0.7 0.4-0.6 0.8-1.1 1.3-1.7 0.2-1 0.5-2 0.8-3 0.7 0.2 1.4 0.1 2-0.1 0.7-0.7 1.3-1.3 2-2C302.4 366.5 303.5 363.9 305.5 362.5z"/>

    <path class="svg-clr-orange" fill="#DCBF89" d="M270.1 359.4c0.2 0.2 0.4 0.5 0.7 0.7 0.2-0.2 0.3-0.4 0.4-0.6C270.8 359.5 270.5 359.4 270.1 359.4z"/>

    <path class="svg-clr-orange" fill="#DCBF89" d="M279 377.2c0-0.5 0-1 0-1.5 -0.2-0.9-0.3-2.1-0.8-2.9 -0.2-0.3-0.4-0.6-0.4-1 0.2-0.4 0.1-0.5-0.3-0.3 -0.1-0.1-0.2-0.2-0.2-0.4 -0.3 1.2-0.5 2.4-0.6 3.6 -0.1 1.4 0.7 2.3 1.8 2.5 0.1-0.1 0.1-0.1 0.1-0.2C278.7 377.1 278.9 377.1 279 377.2z"/>

    <path class="svg-clr-orange" fill="#DCBF89" d="M270.7 356.6c-1-0.1-2-0.3-3.1-0.5 -0.2 0.3-0.4 0.7-0.4 1.3 0 0.1 0.1 0.2 0.1 0.2 1 0.3 2 0.9 2.8 1.8 0.3 0.1 0.7 0.1 1 0.2C271.7 358.6 271.7 357.4 270.7 356.6z"/>

    <path class="svg-clr-orange" fill="#DCBF89" d="M301.4 361.4c2.5-0.1 5-0.2 7.5-0.4 1.5-0.5 3-1.1 4.3-2.5 0.5-0.5 0.7-1.1 0.7-1.6 -2.3 0.6-4.7 1.2-7 1.7C304.7 359.1 303 360.1 301.4 361.4z"/>

    <path class="svg-clr-orange" fill="#DCBF89" d="M287.4 377.9c-1.5 1.6-4.8 0.8-4.8-1.9 0-0.3 0-0.7 0-1 -0.2 0.3-0.3 0.6-0.6 0.9 -0.3 0.5-0.8 0.8-1.3 1 -0.6 0.3-1.2 0.4-1.8 0.4 0.1 1.9 0.3 3.8 0.3 5.7 0 2.3 2.4 2.9 3.8 2 1 0 2-0.5 2.4-1.5 0.7 0.1 1.4-0.1 2-0.7 1.2-1 2.3-2.6 3.1-4.3C289.6 379 288.2 378.8 287.4 377.9z"/>

    <path class="svg-clr-orange" fill="#DCBF89" d="M291.1 376.1c-1.3-0.1-2.4-1.2-2.4-2.5 -0.7 0.6-1.5 1.2-2.3 1.7 -0.1 0.2-0.2 0.4-0.3 0.6 -0.2-0.1-0.4-0.2-0.6-0.2 -0.9 0.3-2 0.1-2.7-0.6 0 0-0.1-0.1-0.1-0.1 0 0.1-0.1 0.1-0.1 0.2 0 0.3 0 0.7 0 1 0 2.7 3.2 3.5 4.8 1.9 0.8 0.8 2.2 1.1 3.2 0.6 0.4-0.8 0.6-1.5 0.8-2.3C291.4 376.2 291.2 376.1 291.1 376.1z"/>

    <path class="svg-clr-orange" fill="#DCBF89" d="M280.8 377c-0.6 0.3-1.2 0.3-1.8 0.2 0 0.1 0 0.1 0 0.2C279.6 377.4 280.2 377.3 280.8 377z"/>

    <path class="svg-clr-orange" fill="#DCBF89" d="M277.2 371.2c0-0.1 0.1-0.3 0.1-0.4C277.2 370.9 277.2 371 277.2 371.2z"/>

    <path class="svg-clr-orange" fill="#DCBF89" d="M281.8 376.1c-0.3 0.4-0.6 0.6-1 0.9 0.5-0.2 1-0.6 1.3-1 0.2-0.3 0.4-0.6 0.6-0.9 0-0.1 0-0.2 0-0.2C282.4 375.3 282.1 375.7 281.8 376.1z"/>

    <path class="svg-clr-orange" fill="#DCBF89" d="M277.5 371.5c0.4-0.2 0.5-0.1 0.3 0.3 0 0.4 0.2 0.7 0.4 1 0.5 0.8 0.6 1.9 0.8 2.9 0 0.5 0 1 0 1.5 0.6 0.2 1.2 0.1 1.8-0.2 0.4-0.2 0.7-0.5 1-0.9 0.3-0.4 0.6-0.9 0.9-1.3 0 0.1 0 0.2 0 0.2 0-0.1 0.1-0.1 0.1-0.2 0 0 0.1 0.1 0.1 0.1 0.7 0.8 1.7 0.9 2.7 0.6 -0.2 0-0.3-0.1-0.5-0.1 -0.4-0.8-1.1-1.3-2-1.4 -0.4-0.5-0.9-0.7-1.4-0.8 -0.7-1.7-1.8-2.9-3.9-2.8 -0.2 0-0.3 0.1-0.4 0.2 0 0.1-0.1 0.3-0.1 0.4C277.2 371.3 277.3 371.5 277.5 371.5z"/>

    <path class="svg-clr-orange" fill="#DCBF89" d="M291.1 376.1c0.1 0.1 0.2 0.1 0.4 0.2 0.2-0.9 0.3-1.8 0.3-2.7 -0.2-1.8-2.1-2.7-3.4-1.4 -0.9 0.8-1.5 1.9-1.9 3.1 0.9-0.5 1.6-1.1 2.3-1.7C288.7 374.8 289.8 376 291.1 376.1z"/>

    <path class="svg-clr-orange" fill="#DCBF89" d="M140.3 323.9c-1.6-0.4-3.1-0.9-4.7-1.3 -0.2 0-0.3-0.1-0.4-0.2 -0.2 0.6-0.2 1.4 0.1 2 -0.2 1.3 0.4 2.8 1.8 3.4 3.5 1.5 7 3 10.5 4.4 1.3 0.5 2.3-0.1 2.8-1.1 4.2 1.6 8.2 3.4 12.5 4.8 8.3 2.7 16.7 5.1 25.4 6.2 1.3 0.2 1.9-0.9 1.8-2 -16.1-4-32.8-7.7-48.2-13.8C140.6 325.9 140.1 324.8 140.3 323.9z"/>

    <path class="svg-clr-orange" fill="#DCBF89" d="M188.7 338.3c-8.7-2.9-17.6-5.4-26.3-8.2 -1.6-0.5-3.2-1.1-4.8-1.7 -5.8-1.4-11.6-2.8-17.3-4.4 -0.2 1 0.3 2 1.5 2.3 15.4 6.1 32.1 9.8 48.2 13.8C190 339.2 189.5 338.5 188.7 338.3z"/>

    <path class="svg-clr-red" fill="#C55836" d="M436.1 200.8c-0.6-11.5-0.3-23.2-4.3-34.2 -7.5-20.5-14.6-40.8-31-56.1 -7.5-7-16.1-12.9-25.7-16.5 -10.3-4-21.2-5.6-32.1-7.3 -12.6-2-25.2-3.6-37.7-6.2 -9.3-1.9-18.6-3.7-28-4.6 0 1.2-1.4 2.5-3 1.8 -7.5-3.3-18.2-0.7-25.9 1 -9.5 2.1-18.6 5.2-28.3 6.7 -9.2 1.4-18.3 3-26.3 8 -7.9 4.9-14.5 10.5-23.4 13.7 -1.1 0.4-2.1-0.6-2.2-1.7 -0.4-6.9 3.2-13.2 3.2-20 0.1-7.7-0.7-15.8-3.7-23 -2.5-5.9-4.9-14-9.2-18.8 -3.4-3.7-7.9-5.4-12.4-7.5 -13.3-6.2-28.3-7.5-42.8-6.1 -10.4 1-22 2.2-30.4 8.5 1.7-0.5 3.2-0.3 4.4 0.8 1 0.9-0.4 2.2-1.4 1.4 -3.9-3-17.6 16.7-19.3 18.9 -5.4 7.4-12.5 16-15.4 24.8 -2.2 6.8-1.7 13.7-2.4 20.7 -0.7 6.7-3.3 13.2-5.2 19.7 -2.5 8.4-2.5 15.9-2.1 24.6 0.3 6.3-1.3 11.5-2.2 17.6 -2.1 14.4 12.6 26.1 24.3 31.2 4.9 2.1 8.6 2.2 13.9 2.3 1.6 0 4.9-0.1 5.4 2 0.9 3.5-6.2 6.9-8.3 9 -6.2 6.2-5.7 15.5-1.5 22.6 7.1 12.3 17.7 22.9 28.3 32.2 22.5 19.7 48 35.6 77.7 41.3 0.8 0.1 1.2 0.8 1.2 1.4 3 0.6 5.9 1.9 8.8 3.1 6.5 2.8 12.5 5.4 19.5 6.9 15.3 3.3 30.8 4.8 46.3 6.6 14.9 1.7 29.8 3.9 44.8 4.8 14.7 0.9 30.7 1.6 44.8-3.2 12.9-4.4 24.1-12.1 35.8-18.8 6.3-3.6 12.5-7 18.1-11.8 4.8-4.1 9.8-8.2 14.3-12.5 5-4.8 6.1-9.4 7.5-15.8 1.2-5.4 4.8-7.7 8-11.8 4-5 6.4-11.3 9.8-16.7 3.5-5.6 4.8-10.6 5-17.2 0-1 0.9-1.5 1.7-1.5 0.1-0.8 0.3-1.7 0.4-2.5C436.2 212.8 436.4 206.9 436.1 200.8zM87.8 175.1c-6.3-2-13-4.5-18.3-8.7 -9.1-7.6-11-19.1-9.6-30.3 2.5-16.8 11.2-32.3 29.5-36.6 8.7-2 15.8-0.7 23.9 1.6 3.1 1 8.1 4.9 5.4 9.6 -2.1 4.1-6.3 3.5-10.2 4.8 -6.3 2-12.9-2.6-18-0.8 -13.2 4.6-16.8 19.6-12.9 32.3 4.1 13.5 19.1 20.6 32.3 16.2 4.9-1.6 11.7-9.1 16.2-5.8 5.3 4.3 8.4 9.9 2.8 13.8C117.2 179.9 102.3 179.6 87.8 175.1zM153.1 205.8c-1.5 4.8-10.4 4.2-15.6 4.2 -0.9 6.2 2.4 33.4 2 39.7 -0.1 1.9-1.5 3.4-3.5 3.4 -2.4 0-3.4-0.7-4.2-3.2 -2.1-5.6-1.5-34.3-4.4-39.6 -3.8 2.9-10.9 5.2-12.8-0.1 -0.5-1.4 1-3.4 2.5-4.4 3.8-1.9 9.1-1.4 11.5-4.3 1.9-2.4 1.4-6.7 1.9-10.1 0.5-3.5 1.1-6.7 1.5-10.1 0.5-4.7 6.7-4.7 10.5-2.4 0.5 0.5 1 2 0.5 3.4 -2.9 6.2-3.9 13.4-3.9 20.2C144.5 202.1 155 199.6 153.1 205.8zM186.5 233.6c-0.2 2.5-5.3 3.7-7 2 -5.3-6.5-0.4-16-4.5-23.8 -4.5 4.5-7.9 9.9-10.8 16 -0.8 1.3-3.7 2.5-5.3 2.1 -0.8-0.4-3.3-0.4-3.3-1.6 0-7.4 0.4-14.4 1.2-21.9 0.7-6.1-2.1-13.2 0.9-18.6 0.8-2 4.1-3.3 6.9-2 1.3 0.8 1.3 2.5 1.3 4.1 -0.8 7.4-2.1 14.8 0 22.3 3.3-5.7 9.1-12.8 16.4-9.5C184.9 213 187.5 223.3 186.5 233.6zM187.6 174.9c-0.3 4.1-8.9 6.1-11.7 3.3 -8.9-10.9-0.7-26.7-7.4-39.7 -7.6 7.6-13.2 16.5-18 26.7 -1.3 2.1-6.1 4.1-8.9 3.5 -1.3-0.7-5.4-0.7-5.4-2.6 0-12.4 0.7-24.1 2-36.4 1.2-10.2-3.5-21.9 1.5-31 1.3-3.3 6.8-5.4 11.5-3.3 2.1 1.3 2.1 4.1 2.1 6.8 -1.3 12.4-3.5 24.7 0 37.1 5.4-9.6 15.2-21.3 27.4-15.8C184.8 140.5 189.2 157.8 187.6 174.9zM202.3 223.5c3.5 6 9.8 3.4 15.3 0.5 3.6 2.6 1.7 8.5-2.4 9.1 -4.5 0.7-9.3 1.9-14-0.2 -9.9-4.5-12.1-15.6-12.3-25.1 -0.2-9.8 7-16.9 16.7-15.5 7.7 1.1 14.7 8.5 14.6 16.8 -1.6 4.7-12.7 8.8-16.4 12.4C203.4 221.6 201.7 222.5 202.3 223.5zM212 173.8c-16.5-7.4-20.1-26-20.4-41.9 -0.3-16.3 11.7-28.2 27.9-25.9 12.9 1.8 24.6 14.2 24.4 28 -2.6 7.9-21.1 14.7-27.4 20.6 -0.7 0.2-3.6 1.8-2.6 3.5 5.8 10.1 16.3 5.6 25.6 0.8 5.9 4.3 2.8 14.2-4 15.2C228 175.3 219.9 177.3 212 173.8zM264 240.8c-2.4 7.1 5.4 14.6 8.1 21.9 3.2 6.6-5.9 10.7-9.9 7.9 -8.3-6.7-6.5-19.4-14.1-26.8 -0.8-1.3-3.8 0.9-6.3 0.7 -2.5-0.4-5.4-2.6-3.7-5.4 1.6-2.7 6.4-4.4 6.8-6.9 0.7-5.2-2.3-9.8-4-14.7 -3.1-8.4-5.5-16.4-5.8-24.6 -0.1-1.2 0.8-3.8 2.1-3.9 11.9-5.7 26.5-6.1 38.9-1 4.7 1.8 0.7 6.1-2.1 8.4 -7.8 4.7-15.5-3.3-23.6-1.2 -0.5 12 5.1 23.3 8.7 34.3 6.9-0.2 21.9-7 22.4 2.4C282 238.8 265.9 235.5 264 240.8zM280.7 175.3c-6.6 3.8-17.1 4.9-21.6-0.8 -14.2-18.6-13.2-42.2-11.2-64.6 0.8-7.4 10.6-8.9 14.3-4.1 7.4 9.2 0.3 22.6 3.3 35 1.6 6.4 1.6 13.5 5.8 18.8 2.5 3.1 4.9-0.8 5.6-1.8 4.9-7.4 6.1-15.5 12.2-21.6 4.3-4.1 7.4-4.8 11.9-0.7 7.7 7.1 8.6 19.6 17.1 25.1 1.6 1 3.6-2 4.6-3.8 8.2-14.2 1.8-28.5 5.6-40.7 1.8-5.6 14-4.9 15 4.3 2.1 19.3 1.8 40.2-15 51.4 -5.6 3.6-13 5.4-20.6 1.8 -6.4-3-10.4-14.5-13-15C292.3 158.1 287.3 171.7 280.7 175.3zM328.6 246.1c0.3 8.4 1.4 26.6-6.6 22.3 -2.5-1.3-3-4.6-4.9-4.4 -9.9-0.7-20.7 1-27.1-7.6 -4.2-4.5-3.7-14.4-0.8-19.2 9.5-16 29.2-13.4 29.4-13.9 1-2 1.2-8.3-1.9-8.5 -8.2-0.9-12.9 3.3-19.8 6.5 -5.2 2.5-7.6-8.4-6.5-9.8 9.1-7.7 29-13.7 36.5-1.5C333.6 221.1 328.3 233.4 328.6 246.1zM384.3 217.4c-1.3 6.9-13.7 7.2-20.9 8 -0.3 8.7 8.1 45.7 8.5 54.4 0.1 2.6-1.6 4.8-4.3 5.1 -3.3 0.3-4.7-0.5-6.2-3.8 -3.7-7.5-7.1-47.1-11.8-53.9 -4.8 4.5-14.2 8.8-17.6 1.7 -0.9-1.8 0.9-4.8 2.8-6.4 4.9-3.1 12.3-3.2 15.2-7.5 2.2-3.5 0.9-9.5 1.1-14.2 0.2-4.8 0.5-9.4 0.6-14.1 0-6.6 8.6-7.5 14.1-4.8 0.8 0.6 1.7 2.6 1.2 4.6 -3 9-3.4 19.1-2.4 28.4C371.9 213.4 386 208.5 384.3 217.4z"/>

    <path class="svg-clr-red-2" fill="#821E17" d="M368.4 87.8c-2.8 0.6-4.9 3.2-7.1 4.9 -2.7 2-5.4 3.8-8.3 5.4 -0.6 0.3-0.2 1.1 0.4 1 3-0.7 5.6-2.4 8.1-4 2.6-1.6 6.1-2.9 8.2-5.1C370.6 89 369.7 87.5 368.4 87.8z"/>

    <path class="svg-clr-red-2" fill="#821E17" d="M382.2 92.6c-2.1 0.1-17.5 4.6-15.7 7.6 0.1 0.2 0.3 0.2 0.4 0.1 2.1-1.8 5.2-2.3 7.8-3 2.6-0.7 6.3-0.9 8.2-3C383.5 93.7 383.1 92.5 382.2 92.6z"/>

    <path class="svg-clr-red-2" fill="#821E17" d="M356.3 87.3c-3.2 1.6-6.2 4.1-8.9 6.5 -0.4 0.4 0.1 0.9 0.5 0.7 3.3-1.5 6.6-3.4 9.4-5.8C358.2 88 357.2 86.8 356.3 87.3z"/>

    <path class="svg-clr-red-2" fill="#821E17" d="M299.8 322.5c-1.1 0.4-2.2 2.1-2.9 2.2 -1.3 0.3-2.8 2.2-3.9 3.1 -1.6 1.2-3.3 2-4.9 3.1 -1 0.7-0.8 2.8 0.7 2.6 1.8-0.2 3.2-0.9 4.7-1.9 0.7-0.5 1.4-1.1 2.1-1.7 0.4-0.3 0.8-0.7 1.1-1 0.1-0.1 1.1-1.4 1-1.4 1.2-0.5 3-2.5 3.2-3.8C301 323 300.5 322.2 299.8 322.5z"/>

    <path class="svg-clr-red-2" fill="#821E17" d="M304.5 326.8c-0.8-0.9-2-0.6-2.7 0.2 -1 1-1.9 2.4-2.4 3.8 -0.4 1 1 1.6 1.6 1 0.8-0.8 1.1-1.9 1.5-2.8 0.2-0.5 0.5-0.9 0.8-1.3 0.2-0.3 0.4-0.6 0.7-0.3C304.3 327.6 304.8 327.2 304.5 326.8z"/>

    <path class="svg-clr-red-2" fill="#821E17" d="M307.8 329.6c-0.1-0.4-0.2-1-0.1-1.4 0.1-0.4-0.3-0.7-0.7-0.5 -0.6 0.3-0.9 0.8-1.1 1.4 -0.4 1-0.6 2.1 0.4 2.8 0.2 0.2 0.7 0.2 1 0C308.1 331.3 308 330.5 307.8 329.6z"/>

    <path class="svg-clr-red-2" fill="#821E17" d="M286.1 324.7c-3.3 1.2-7.4 3.4-8.4 7.1 -0.3 0.9 1 1.8 1.7 1 1-1.2 1.8-2.6 2.8-3.7 1.2-1.4 2.6-2.6 4.1-3.7C286.7 325.2 286.5 324.6 286.1 324.7z"/>

    <path class="svg-clr-red-2" fill="#821E17" d="M383.3 299.2c-1-2-1.9-4-2.6-6.2 -0.1-0.5-1-0.4-1 0.1 0.2 3.6 0.7 8.5 3.2 11.3 0.6 0.7 2 0.2 1.9-0.8C384.7 301.9 384 300.6 383.3 299.2z"/>

    <path class="svg-clr-red-2" fill="#821E17" d="M386.1 293.8c-0.2-0.9-1.6-0.9-1.8 0 -0.4 1.9-0.6 3.6 0.4 5.3 0.5 1 2.3 0.6 2.2-0.6C386.7 297 386.5 295.4 386.1 293.8z"/>

    <path class="svg-clr-red-2" fill="#821E17" d="M431.4 158.9c-2.2-2.2-7-2.6-10-2.6 -2 0-4.1-0.2-6.1-0.1 -1 0.1-1.5 1.2-0.8 2 1.3 1.4 4.1 1.3 5.8 1.5 3.4 0.4 6.9 2.5 10.3 2C432 161.5 432.3 159.7 431.4 158.9z"/>

    <path class="svg-clr-red-2" fill="#821E17" d="M431.4 170c-2.8-2.1-6.4-4.2-10-4.8 -0.9-0.1-1.6 1.1-0.7 1.6 2.9 1.5 5.6 2.9 8.1 5 2.1 1.8 3.7 5.2 6.2 6.4 0.9 0.4 2.1-0.1 2-1.2C437 174 433.7 171.7 431.4 170z"/>

    <path class="svg-clr-red-2" fill="#821E17" d="M436.9 188.3c-0.7-2.7-3.3-4.8-5.4-6.6 -2.6-2.3-5.4-4.5-7.8-7 -0.4-0.4-1.2 0.1-0.8 0.6 1.7 2.5 3.7 4.6 5.8 6.8 2.2 2.3 3.9 5.3 6.3 7.3C435.8 190.1 437.2 189.5 436.9 188.3z"/>

    <path class="svg-clr-red-2" fill="#821E17" d="M142.6 31.4c-7.2-1.4-16.8 0.7-23.5 3.3 -1 0.4-0.6 1.8 0.5 1.6 0.2 0 0.4 0.1 0.7 0.1 0.2 0 0.5-0.1 0.5-0.3 3.6-0.6 7.1-1.2 10.7-1.6 3.7-0.4 7.5-0.1 11.2-0.9C143.7 33.5 143.7 31.6 142.6 31.4z"/>

    <path class="svg-clr-red-2" fill="#821E17" d="M150.2 36c-2.9-0.2-5.7 0.4-8.5 1 -1.5 0.3-5.1 1-4.9 3.1 0 0.2 0.2 0.4 0.4 0.4 2-0.2 4-1 6.1-1.3 2.4-0.3 4.9-0.2 7.2-1.1C151.7 37.7 151.5 36.1 150.2 36z"/>

    <path class="svg-clr-red-2" fill="#821E17" d="M38 182.9c-0.4-3.4-0.2-7 0.6-10.3 0.1-0.4-0.4-0.6-0.6-0.3 -2.5 4.8-5.3 15.3-0.7 19.7 0.9 0.8 2.5 0.3 2.5-1C39.6 188.3 38.3 185.7 38 182.9z"/>

    <path class="svg-clr-red-2" fill="#821E17" d="M35.6 159.6c-6.8 1.2-8.8 12.4-9.1 17.9 -0.1 1.4 1.9 1.5 2.3 0.3 2-5.8 1.7-13.4 7.1-17.4C36.4 160.2 36.1 159.5 35.6 159.6z"/>

    <path class="svg-clr-red-2" fill="#821E17" d="M107.2 280.3c-1.7-5.6-9.9-17.6-3.2-22.3 0.5-0.3 0.1-1-0.5-0.8 -8 4-1.9 18.7 1.9 23.9C106 281.9 107.5 281.4 107.2 280.3z"/>

    <path class="svg-clr-red-2" fill="#821E17" d="M96 269.7c-0.9-2.6-2-5.1-2.9-7.6 -0.5-1.5-0.8-2.9-0.8-4.5 0.1-0.7 0.1-1.3 0.2-2 0.1-0.6 0.2-0.8 0.1-0.7 0.1-0.3 0-0.5-0.1-0.8 0 0 0 0 0-0.1 -0.3-0.6-1.2-0.6-1.6-0.2 -1.7 1.5-1.7 5.1-1.3 7.2 0.6 3.6 2.3 6.6 4.1 9.7C94.3 272 96.5 271.1 96 269.7z"/>

    <path class="svg-clr-red-2" fill="#821E17" d="M201.2 304.4c-3 1.1-5.6 2.7-8.1 4.6 -3.4 2.5-6.5 3.7-10.6 4.6 -1.3 0.3-0.8 2 0.3 2.1 8.2 1.1 12.4-7.5 18.6-10.9C201.5 304.6 201.4 304.3 201.2 304.4z"/>

    <path class="svg-clr-red-2" fill="#821E17" d="M214.1 307.7c-3 0.9-4.8 3.4-7.5 4.9 -3.6 2-7.6 2.8-11 5.1 -0.9 0.6-0.4 2.4 0.8 1.9 3.4-1.4 7-2.7 10.3-4.4 3.2-1.7 4.6-5 7.7-6.8C214.8 308.2 214.6 307.6 214.1 307.7z"/>

    <path class="svg-clr-red-2" fill="#821E17" d="M212.2 315.7c-1.3 0-2.5 0-3.4 1 -1.1 1.1-2.2 2.2-3.5 3.1 -0.9 0.6-0.3 1.9 0.7 1.7 1.4-0.2 2.4-1.1 3.3-2.2 0.7-0.9 1.7-2.7 3-2.8C212.7 316.4 212.7 315.7 212.2 315.7z"/>

    <path class="svg-clr-red-2" fill="#821E17" d="M263 77.2c-3.3 0.9-6.8 2-9.7 3.8 -3.6 2.1-6.4 5.4-10.2 7.3 -0.3 0.2-0.1 0.7 0.3 0.6 3.2-1.2 5.8-3.3 8.6-5.2 3.6-2.5 7.9-3 11.8-4.8C264.6 78.4 263.9 77 263 77.2z"/>

    <path class="svg-clr-red-2" fill="#821E17" d="M273 75.8c-1.5 0.3-2.9 1.5-4.3 2.1 -1.7 0.8-3.5 1.5-5.2 2.4 -2.7 1.4-5 3.7-5.6 6.7 -0.1 0.4 0.5 0.6 0.6 0.2 1.3-3.7 4.9-5.1 8.3-6.4 2.2-0.8 5.9-1.6 7.1-3.8C274.3 76.3 273.7 75.6 273 75.8z"/>

    <path class="svg-clr-red" fill="#C55836" d="M227.3 129.9c3.6-8.2-10.1-12.5-16.7-9.1 -7.3 3.8-5.1 19.1-1.2 19.5C217.2 140 224.8 137.9 227.3 129.9z"/>

    <path class="svg-clr-red" fill="#C55836" d="M297 248c0.5 6 20 7 20.8 4.3 0.5-7.1 3.5-12.1-0.2-19C310.1 237.1 296 236.2 297 248z"/>

    <path class="svg-clr-red" fill="#C55836" d="M210.4 206.6c2.2-4.9-6-7.5-10-5.4 -4.4 2.3-3.1 11.5-0.7 11.7C204.3 212.7 208.9 211.4 210.4 206.6z"/>

    <path class="svg-clr-red" fill="none" d="M343.5 121.5c0.1 1.3 0.3 2.5 0.4 3.8C344.7 123.6 344.9 121.9 343.5 121.5z"/>

    <path class="svg-clr-red" fill="none" d="M365.8 182c0.8 0.6 1.7 2.6 1.2 4.6 -3 9-3.4 19.1-2.4 28.4 7.3-1.5 21.4-6.4 19.7 2.5 -1.3 6.9-13.7 7.2-20.9 8 -0.3 8.4 7.5 43.1 8.4 53.3 4.9-3.2 10.1-6.6 13.8-11.2 3-3.7 6-10.8 5.9-16.4 -3.9 3.7-8.2 7.1-13.6 8 -1.3 0.2-2.5-0.8-2.2-2.2 1-4.1 4.3-7.3 7.2-10.1 3.6-3.5 7.1-7.1 10.3-11.1 5.1-6.4 6.9-12.4 7.5-20.5 0.3-4.4 1.2-8.2 3.4-11.8 -2.3-1-4.6-2-6.8-3.4 -1.6-1-4.3-2.9-6.2-2.3 -1.6 0.5-2.8-0.5-3-2.1 -0.3-1.7-0.4-2.6 0.2-4.3 0.3-0.8 2.9-5.1 1.4-5.4 -4.3-0.8-8.5 1.4-12.6 2 -5 0.7-9.3-2.7-7.5-7.8 1-2.7 2.7-4.9 4.5-7.1 -4.7 3.1-9.5 6-15 7.3C361.3 180.5 363.8 181 365.8 182z"/>

    <path class="svg-clr-red" fill="none" d="M210.6 120.9c-7.3 3.8-5.1 19.1-1.2 19.5 7.7-0.3 15.3-2.5 17.8-10.4C230.9 121.7 217.2 117.4 210.6 120.9z"/>

    <path class="svg-clr-red-3" fill="#B23324" d="M436.1 200.8c-0.6-11.5-0.3-23.2-4.3-34.2 -7.5-20.5-14.6-40.8-31-56.1 -7.5-7-16.1-12.9-25.7-16.5 -10.3-4-21.2-5.6-32.1-7.3 -12.6-2-25.2-3.6-37.7-6.2 -9.3-1.9-18.6-3.7-28-4.6 0 1.2-1.4 2.5-3 1.8 -7.5-3.3-18.2-0.7-25.9 1 -9.5 2.1-18.6 5.2-28.3 6.7 -9.2 1.4-18.3 3-26.3 8 -1 0.6-2 1.3-3 1.9 -0.9 0.6-1.9 1.2-2.8 1.9 2.1 1.9 4.7 3.4 7 4.9 2.2 1.4 3.9 3.3 5.9 5 0.7 0.6 1 1.5 1.2 2.7 4.7-3.2 10.6-4.6 17.3-3.7 0.8 0.1 1.7 0.3 2.5 0.5 1.6-1.3 3.2-2.6 5.1-3.6 4.4-2.4 6 0.5 7.2 4.3 0.3 1.1 1.4 1.7 2.5 1.4 7.7-1.9 14.2-6.4 21.2-9.9 9.1-4.4 21.4-3.5 27 6 2.7 4.5-5.4 13 2.8 14.7 2.3 0.5 4.6-0.7 6.6-1.5 1.6-0.7 3.2-1.5 4.9-2 2.6-0.8 2.1 2.9 2.1 4.4 0.1 5.6 0.6 11 6.5 13.5 5.2 2.2 12-1.1 16.4-3.7 1-0.6 1.9-1.2 2.9-1.8 -0.1-4.3 0.1-8.5 1.3-12.4 1.8-5.6 14-4.9 15 4.3 0 0.4 0.1 0.9 0.1 1.3 1.4 0.4 1.1 2.1 0.4 3.8 0.3 3.7 0.5 7.3 0.4 11 5.1-2 10.3-3.9 15.8-4.2 -0.1 1.3-0.1 2.7-0.2 4 0 0.8 0.7 1.5 1.5 1.5 5 0 10-1.5 15-1.9 2.9-0.2 7.3-0.3 8.7 2.9 1.3 3.1-2.2 8.4-3.7 10.9 -3.5 6.1-7.7 11.6-12.9 16.3 -3.2 2.9-6.6 5.2-10.2 7.6 -2.2 1.4-3.8 3.1-4.6 5.6 -0.4 1 0.6 2.4 1.7 2.3 0.1 0 0.2 0 0.3 0 1-0.4 2.1-0.6 3.3-0.6 5.4-1.4 10.3-4.2 15-7.3 -1.8 2.2-3.6 4.4-4.5 7.1 -1.8 5.1 2.6 8.5 7.5 7.8 4.2-0.6 8.4-2.8 12.6-2 1.5 0.3-1.1 4.6-1.4 5.4 -0.6 1.7-0.5 2.6-0.2 4.3 0.3 1.6 1.4 2.6 3 2.1 1.9-0.6 4.6 1.3 6.2 2.3 2.2 1.4 4.5 2.4 6.8 3.4 -2.2 3.6-3.1 7.4-3.4 11.8 -0.6 8.1-2.4 14.1-7.5 20.5 -3.1 4-6.7 7.5-10.3 11.1 -2.9 2.8-6.3 6.1-7.2 10.1 -0.3 1.4 0.8 2.4 2.2 2.2 5.5-0.9 9.7-4.3 13.6-8 0.1 5.6-2.9 12.7-5.9 16.4 -3.7 4.5-8.8 7.9-13.8 11.2 0 0.4 0.1 0.7 0.1 1.1 0.1 2.6-1.6 4.8-4.3 5.1 -1.9 0.2-3.2 0-4.2-0.8 -11.4 6.9-23.5 12.1-37 13 -6.7 0.5-13.3 0-19.6 2.6 -6 2.4-11.3 6.2-17.5 8.1 -6.5 1.9-15.2 2.1-16.3-6.3 -0.7-5.5 5.3-10 3.2-15.8 -0.2-0.6-0.8-1.3-1.6-1.2 -10.6 1.2-19.9 6.1-29.8 9.6 -6.2 2.2-24.4 7.9-25.5-2.6 -0.1-1.1-0.8-1.9-1.9-1.9 -6.5-0.4-14 1.6-20.4-0.4 2-3.2 3.9-6.4 4.3-10.4 0.1-1.3-1.3-2.1-2.4-1.9 -18.8 4.6-33.9 18.1-52 24.4 0.7 0.3 1.5 0.6 2.2 0.8 6.5 2.3 13.1 4.2 20 5.6 0.8 0.1 1.2 0.8 1.2 1.4 3 0.6 5.9 1.9 8.8 3.1 6.5 2.8 12.5 5.4 19.5 6.9 15.3 3.3 30.8 4.8 46.3 6.6 14.9 1.7 29.8 3.9 44.8 4.8 14.7 0.9 30.7 1.6 44.8-3.2 12.9-4.4 24.1-12.1 35.8-18.8 6.3-3.6 12.5-7 18.1-11.8 4.8-4.1 9.8-8.2 14.3-12.5 5-4.8 6.1-9.4 7.5-15.8 1.2-5.4 4.8-7.7 8-11.8 4-5 6.4-11.3 9.8-16.7 3.5-5.6 4.8-10.6 5-17.2 0-1 0.9-1.5 1.7-1.5 0.1-0.8 0.3-1.7 0.4-2.5C436.2 212.8 436.4 206.9 436.1 200.8z"/>

    <path class="svg-clr-red-3" fill="#B23324" d="M128.5 277.7c-0.2-3.5-0.7-6.9-2.1-10.2 -0.2-0.3-0.7-0.7-1-0.8 -2-0.5-2.4-1.3-2.9-3.3 -1.2-4.9 0-11.4-3.7-15.4 -1.6-1.7-4.1-1.1-6.1-0.8 -2.9 0.6-5.3 1.4-8.3 0.8 -2.2-0.5-4.4-1.5-6.6-2.3 1.7-4.4 6.7-6.8 8.9-11 0.5-0.9-0.1-2.4-1.3-2.3 -3.8 0.4-7.4 1.9-11 3 -2.3 0.7-11.7 4.2-11.6 0.1 0.1-4.5 3.5-9.4 5.8-13.2 2.2-3.7 4.8-7.6 8-10.6 1.5-1.4-0.4-3.5-2.1-2.7 -6.9 3.3-12.8 8.2-19.6 11.6 -4.7 2.4-9.5 4.6-14.3 6.4 0.2 0.8 0.4 1.6 0.6 2.3 0.5 1.6 1.2 3.1 2 4.5 7.1 12.3 17.7 22.9 28.3 32.2 10.9 9.6 22.6 18.2 35.1 25.3 1 0.6 2 1.1 3 1.6 0-0.2-0.1-0.3-0.1-0.5C128.4 287.8 128.8 282.7 128.5 277.7z"/>

    <path class="svg-clr-red-3" fill="#B23324" d="M68 177.8c0.2-0.4 0-1-0.4-1.1 -6.6-1.1-12.5 1.6-18.8 2.8 1.3-3.5 4-6.4 5.5-9.9 0.4-0.9-0.9-1.4-1.5-0.9 -2.8 2.6-3.5 1.5-3-1.7 0.3-2.4 1-4.7 1.5-7 0.5-2.4 2.6-7 1.6-9.5 -0.2-0.4-0.6-0.7-1-0.6 -3.7 0.8-6.8 2.4-10 4.3 0.7-7.8 7.2-13.7 11-20.4 0.3-0.6-0.2-1.5-0.9-1.2 -0.9 0.3-1.7 0.7-2.6 1 -1.1 0.5-9.4 3.3-7-1.3 1.4-2.8 3.5-5.2 5.3-7.8 2-2.9 3.1-6.5 4.5-9.7 2-4.7 4.5-9 8-12.7 0.6-0.7 0-1.8-0.9-1.6 -4.7 1.3-9.2 2.8-14.1 3.1 2.4-4.4 6.9-9.8 1.5-12.7 1.7-3.6 4-6.8 5.7-10.4 0.4-0.7-0.1-1.5-0.9-1.6 -0.2 0-0.4 0-0.6 0 10.3-11.7 18.4-25.1 33.3-31.8 1.4-0.6 0.4-2.9-1-2.4 -7 2.5-13.9 5-20.8 7.6 -0.5 0.6-1 1.2-1.4 1.8 -2 2.7-3.6 4.9-4.1 5.5 -5.4 7.4-12.5 16-15.4 24.8 -2.2 6.8-1.7 13.7-2.4 20.7 -0.7 6.7-3.3 13.2-5.2 19.7 -2.5 8.4-2.5 15.9-2.1 24.6 0.3 6.3-1.3 11.5-2.2 17.6 -1.7 11.5 7.4 21.4 17.1 27.5 0.9 0.6 1.9 1.1 2.8 1.7C55.9 190.4 63.4 185.4 68 177.8z"/>

    <path class="svg-clr-red-3" fill="#B23324" d="M153 98.1c3.7-1.6 7.3-5.9 9.7-8.4 2.6-2.7 5.7-4.9 8.8-7 0-0.9 0-1.7-0.1-2.6 -0.3-6-1.3-12.2-3.6-17.7 -2.5-5.9-4.9-14-9.2-18.8 -3.4-3.7-7.9-5.4-12.4-7.5 -13.1-6.1-28.1-7.5-42.4-6.1 -0.1 0-0.3 0-0.4 0 -0.9 0.1-1.7 0.2-2.6 0.3 -0.5 1.8-0.9 3.2-1 3.3 -1.6 3.7-3.2 7.1-3.5 11.2 -0.1 0.8 0.5 1.4 1.2 1.6 7.2 2.4 13.9-2.5 21-3.2 -0.4 1.5-0.8 3.1-1.1 4.6 -0.1 0.6 0.2 1.5 0.9 1.6 3 0.4 5.8 0.4 8.9 0 1.6-0.2 3.2-0.7 4.8-1 1.1-0.3 7.2-2.4 6.6-0.1 -1.7 6.5-7.4 11.3-9.7 17.6 -0.2 0.5 0.2 1.2 0.7 1.3 4.2 0.6 7.5 3 11.4 4.7 1.6 0.7-8.9 9.3-9.9 10.2 -0.9 0.8 0.1 2.1 1.1 1.9 3.7-0.8 7-2.8 10.5-4.3 2.7-1.1 5.3-1.6 7.8 0.6 3.5 3 0.4 7.1-1.3 9.8 -0.6 1-1.4 2.8-1.6 4.5 1.1 0.1 2.3 0.3 3.4 0.8C152.2 96 152.7 97 153 98.1z"/>

    <path class="svg-clr-yellow-2" fill="#EDE5D1" d="M355.7 181.2c1.1-0.1 2.2-0.4 3.3-0.6C357.9 180.6 356.7 180.8 355.7 181.2z"/>

    <g id="XMLID_2_">
      <path class="svg-clr-black" d="M461.9 163.5c1 7.4 0.8 14.8-0.1 22.3 -0.9 7.6-3 14.8-4.8 22.3 -0.4 1.6-0.6 3.3-0.6 4.9 -0.9-1.9-4.2-1.2-4.3 1.1 0 4 0.1 7.9 0.3 11.9 -1-5.4-2-10.8-1.2-16.2 1.1-8.1 4.1-15.8 5.1-24 0.9-7.7 1.1-15.7-0.5-23.3 -1.5-7.4-5.8-14.2-8.5-21.3 -2.6-6.9-5.7-13.6-10.7-19.2 -4.6-5.1-9.7-9.6-14.9-14.1 -5.3-4.6-10.3-9.5-15.8-13.8 -12.5-9.9-26.1-17.9-41.3-22.7C335 62.3 303.7 60.8 273.2 57c-15-1.9-29.8-5-44.2-9.7 -0.9-0.3-1.7-0.6-2.5-0.8 1.9 0 2.9-2.5 1.1-3.7 -2.7-1.8-5.7-3-8.8-4.2 2.1 0.8 4.2 1.5 6.4 2.2 15 4.8 30.4 8.5 46.1 10.2 15.5 1.7 31 3 46.4 5.2 29.5 4.1 58.2 8.9 83.1 26.4 11.5 8.1 22.2 17.6 32.5 27.2 4.8 4.5 9.6 9.2 13 14.9 3.5 5.8 5.8 12.1 8 18.4C456.9 150 460.9 155.8 461.9 163.5z"/>

      <path class="svg-clr-black" d="M458.3 247.6c-0.1 11.1 0.7 22.4-0.1 33.4 -0.9 11.5-2.6 23-4 34.5 -1 8.5-2.1 16.9-7 24.1 -10.9 16-29.6 24.3-44.7 35.6 -13 9.8-28.3 20.8-45 22.7 1.2-0.5 2.4-1.1 3.5-1.9 1.7-1.2 0.9-3.3-0.8-3.6 15.3-3.3 29.3-13.7 41.4-22.5 14.4-10.5 34.3-19 43.1-35.4 4.6-8.6 4.7-18.9 5.9-28.4 1.3-10.3 2.7-20.6 3-30.9 0.1-5.3 0-10.6 0-15.9 1.5-6.4 1.4-13.2 1.9-19.7 0.4-5.2 2.8-11.6 2.6-17.2C458.7 230.8 458.4 239.5 458.3 247.6z"/>

      <path class="svg-clr-black" d="M457.9 222.4c0.2 5.6-2.2 12-2.6 17.2 -0.5 6.5-0.4 13.3-1.9 19.7 -0.1-5.2-0.2-10.4-0.3-15.7 0-5.3-0.3-10.5-0.6-15.8v0c0-0.1 0-0.2 0-0.2 0-0.2 0.1-0.3 0.1-0.5 0.2 1 0.4 2 0.5 3 0.3 2.2 3.4 1.4 3.6-0.5 0.5-4.1 0-8.2-0.2-12.2 0.3 0.2 0.6 0.5 0.7 0.9 0.2 0.6 0.4 1.3 0.5 1.9 0 0 0 0 0 0C457.8 220.9 457.8 221.7 457.9 222.4 457.9 222.4 457.9 222.4 457.9 222.4z"/>

      <path class="svg-clr-black" d="M457.9 222.4c-0.1-0.7-0.1-1.4-0.2-2.2C457.8 220.9 457.9 221.7 457.9 222.4z"/>

      <path class="svg-clr-black" d="M457.7 220.2c-0.1-0.7-0.3-1.3-0.5-1.9 -0.1-0.4-0.4-0.7-0.7-0.9 -0.1-1.5-0.1-2.9-0.1-4.4 0.1 0.2 0.1 0.3 0.2 0.5C457.1 215.7 457.4 217.9 457.7 220.2z"/>

      <path class="svg-clr-black" d="M456.5 217.4c0.2 4.1 0.7 8.2 0.2 12.2 -0.2 1.9-3.2 2.7-3.6 0.5 -0.2-1-0.3-2-0.5-3 0.4-2.9 0.4-5.9 1-8.8C453.9 216.8 455.5 216.7 456.5 217.4z"/>

      <path class="svg-clr-black" d="M456.4 213c-0.1 1.5 0 2.9 0.1 4.4 -1-0.7-2.6-0.6-2.8 0.9 -0.6 2.9-0.6 5.9-1 8.8 -0.1-0.3-0.1-0.7-0.2-1.1 0 0 0 0 0 0 -0.2-4-0.3-7.9-0.3-11.9C452.2 211.8 455.5 211 456.4 213z"/>

      <path class="svg-clr-black" d="M453.4 259.4c-0.1 0.6-0.3 1.1-0.5 1.7 -3.7 12.8-10.3 23.6-19.8 32.9 -10.9 10.7-19.3 23.6-31.4 33.2 -5.7 4.5-11.5 8.3-18.1 11.2 -5.1 2.2-11.3 3-16.1 6 -0.4 0.3-0.8-0.3-0.5-0.7 3.5-3.6 9.7-4.4 14.1-6.4 6.8-3.2 12.9-7.2 18.5-12.2 5.3-4.8 10.4-9.8 15.1-15.2 4.7-5.4 8.7-11.3 13.7-16.3 9.9-10 18.1-20.9 20.8-35.1 1.4-7.3 1.1-15 1.8-22.4 0.2-2.8 0.9-5.5 1.4-8.2 0.3 5.3 0.6 10.6 0.6 15.8C453.2 248.9 453.3 254.1 453.4 259.4z"/>

      <path class="svg-clr-black" d="M452.6 227.1c0 0.2 0 0.4-0.1 0.5 0 0.1 0 0.2 0 0.2 0-0.6-0.1-1.2-0.1-1.8C452.5 226.4 452.6 226.7 452.6 227.1z"/>

      <path class="svg-clr-black" d="M440 200.8c0.5 11.7-1.3 23.5-3.2 35.1 -0.2 1.2-1.3 1.3-2.1 0.8 0.9-2 1.5-4 1.8-6.2 0.4-2.9 0.2-5.3-0.4-8.1 -0.1-0.7-0.7-1.1-1.3-1.1 0.1-0.8 0.3-1.7 0.4-2.5 0.9-6 1.1-11.9 0.8-18 -0.6-11.5-0.3-23.2-4.3-34.2 -7.5-20.5-14.6-40.8-31-56.1 -7.5-7-16.1-12.9-25.7-16.6 -10.3-4-21.2-5.6-32.1-7.3 -12.6-2-25.2-3.6-37.7-6.2 -9.3-1.9-18.6-3.7-28-4.6 0-0.6-0.3-1.1-1-1.5 -1.6-0.9-3.3-1.4-5-1.8 12.4-0.5 24.7 2.3 36.8 4.6 13.2 2.5 26.5 4.1 39.8 6.2 11.2 1.8 22.4 3.6 32.8 8.5 8.9 4.1 17.1 9.7 24.1 16.6 7.6 7.5 14.4 16.3 19 25.9 4.9 10.3 9.3 21.6 12.6 32.6C439.8 178 439.5 189.4 440 200.8z"/>

      <path class="svg-clr-black" d="M436.2 222.3c0.6 2.8 0.7 5.2 0.4 8.1 -0.3 2.2-0.9 4.2-1.8 6.2 -0.4-0.3-0.8-0.7-0.8-1.2 -0.6-4.7 0.3-9.4 1-14.1C435.5 221.3 436 221.6 436.2 222.3z"/>

      <path class="svg-clr-black" d="M433.2 222.7c0-1 0.9-1.5 1.7-1.5 -0.8 4.7-1.6 9.4-1 14.1 0.1 0.5 0.4 1 0.8 1.2 -1.2 2.7-2.8 5.3-4.3 7.8 -3 4.9-5 11-9 15.2 -2.3 2.4-5.8 4.9-6.6 8.3 -0.6 2.6-0.7 5.5-1.6 8 -1.5 4.6-4.9 8.8-8.6 11.9 -5.4 4.4-10.4 9.4-15.9 13.7 -5.1 4-10.7 7-16.4 10.2 -11.4 6.6-22.6 14.2-35.2 18.5 -13.9 4.7-29 4.9-43.5 4 -15.6-0.9-31.1-3.1-46.7-4.9 -15.2-1.7-30.4-3.1-45.4-6.2 -6.8-1.4-13.4-3-19.6-6 -4.6-2.2-9.2-4.3-14-6.1 0.3 0 0.5 0.1 0.8 0.1 1.2 0.1 1.8-1 1.7-2.1 3 0.6 5.9 1.9 8.8 3.1 6.5 2.8 12.5 5.4 19.4 6.9 15.3 3.3 30.8 4.8 46.3 6.6 14.9 1.7 29.8 3.9 44.8 4.8 14.7 0.9 30.7 1.6 44.8-3.2 12.9-4.4 24.1-12.1 35.8-18.8 6.3-3.6 12.5-7 18.1-11.8 4.8-4.1 9.8-8.2 14.4-12.5 5-4.8 6.1-9.4 7.5-15.8 1.2-5.4 4.8-7.6 8-11.8 4-5 6.4-11.3 9.8-16.7C431.7 234.3 433 229.4 433.2 222.7z"/>

      <path class="svg-clr-black" d="M360.1 392.5c1.7 0.3 2.5 2.4 0.8 3.6 -1.1 0.7-2.2 1.4-3.5 1.9 -2.5 0.3-5.1 0.4-7.7 0.2 -1.8-0.1-3-2.4-2-3.7 2-0.4 4.1-0.7 6.1-1.1C356 393.3 358 392.9 360.1 392.5z"/>

      <path class="svg-clr-black" d="M359.4 392.5c0.3 0 0.5 0 0.7 0 -2.1 0.4-4.1 0.8-6.2 0.9C355.7 393.1 357.5 392.8 359.4 392.5z"/>

      <path class="svg-clr-black" d="M349.7 398.2c2.6 0.2 5.2 0.1 7.7-0.2 -6.8 2.9-15.9 3-22.8 3.4 -11.7 0.9-23.4 1.6-35.2 1.6 -21.7 0.1-43.2-2.1-64.4-6.6 -21.2-4.5-42.1-10.8-62.8-17.5 -18.7-6.1-38.1-12.4-55.3-22.1 2.8 1.2 5.6 2.3 8.3 3.3 1.5 0.6 3-1.8 1.7-2.8 0 0-0.1 0-0.1-0.1 15.4 6.1 30.7 12.3 46.6 17.4 20.1 6.5 40.3 12.7 61 17 21.4 4.4 43.1 6.8 65 6.5 11.1-0.2 22.2-0.8 33.2-1.6 5.1-0.4 10.1-1.2 15-2.1C346.7 395.8 348 398.1 349.7 398.2z"/>

      <path class="svg-clr-black" d="M351.8 393.5c0.7 0 1.4-0.1 2-0.1 -2 0.4-4.1 0.7-6.1 1.1 0.2-0.2 0.4-0.5 0.8-0.6 0.3-0.1 0.6-0.3 1-0.5C350.4 393 351.2 393.1 351.8 393.5z"/>

      <path class="svg-clr-black" d="M336.2 346.9c2.4-0.5 3.4 3.1 1 3.7 -16.6 4.3-34.6 8.9-51.9 7.6 -16.9-1.2-33-4.8-49.5-8.7 -17.2-4.2-34.2-8.1-51-13.8 -16.2-5.4-32.9-8.3-49.2-13.2 -2.3-0.7-1.3-4 1-3.5 16.7 3.1 32.4 10.2 48.9 14.6 16.5 4.4 33.1 7.7 49.8 11.4 16.6 3.6 33.2 8.6 50.2 9.2C302.8 354.8 319.3 350.1 336.2 346.9z"/>

      <path class="svg-clr-black" d="M276.4 74.4c0.7 0.4 1 0.9 1 1.5 -2.9-0.3-5.7-0.5-8.6-0.5 -1.7 0-1.6-2.5 0-2.6 0.9-0.1 1.8-0.1 2.7-0.2C273.1 73 274.8 73.6 276.4 74.4z"/>

      <path class="svg-clr-black" d="M277.4 75.9c0 1.2-1.4 2.5-3 1.8 -7.5-3.3-18.2-0.7-25.9 0.9 -9.5 2.1-18.6 5.2-28.3 6.7 -9.2 1.4-18.3 3-26.4 8 -7.9 4.9-14.5 10.5-23.4 13.7 -1.1 0.4-2.1-0.6-2.2-1.7 -0.4-6.9 3.2-13.2 3.2-20.1 0.1-7.7-0.7-15.8-3.7-23 -2.5-5.9-4.9-14-9.2-18.8 -3.4-3.7-7.9-5.4-12.4-7.5 -13.3-6.2-28.3-7.5-42.8-6.1 -10.4 1-22 2.2-30.4 8.5 -1.9 0.6-4 2-6.1 3.9 -0.7-0.3-0.9-1.2-0.3-1.8 0.3-0.3 0.7-0.7 1-1 0.1-0.1 0.2-0.1 0.3-0.2 0.9-1.3 2.4-3.7 3.2-4.3 2.3-1.8 4.8-3.3 7.6-4.3 6.3-2.3 13.2-3.7 19.8-4.6 15.6-2 32.4-1.7 47.1 4.5 5.6 2.4 12.4 4.6 16.4 9.5 4.3 5.2 6.7 11.8 9.2 17.9 3.2 7.5 4.5 15.7 4.5 23.8 0 4-0.3 7.9-1.5 11.8 -1 3.1-2.1 6-2.4 9.1 9.5-4.1 16.6-11.8 26.1-15.8 8.5-3.6 17.3-4.7 26.3-6.2 10.3-1.7 20-5.7 30.3-7.6 5.5-1 11.4-1.9 16.9-0.7 -0.9 0-1.8 0.1-2.7 0.2 -1.6 0.1-1.7 2.6 0 2.6C271.6 75.5 274.5 75.6 277.4 75.9z"/>

      <path class="svg-clr-black" d="M227.6 42.7c1.8 1.2 0.8 3.8-1.1 3.7 -6.2-2.1-12.3-4.5-18.3-7.2 -1.6-0.7-3.2-1.4-4.9-2.2 -4.4-2.7-8.5-5.7-13.1-8 0-0.9 1-1.9 1.9-1.4 5.5 1.7 10.6 4.7 16 6.8 3.5 1.4 7 2.7 10.6 4 0 0 0 0 0 0C221.9 39.7 224.9 40.9 227.6 42.7z"/>

      <path class="svg-clr-black" d="M226.5 46.4c-0.1 0-0.3 0-0.4 0 -6.1-1.3-13.2-4.1-18.7-7 -1.4-0.7-2.7-1.5-4-2.3 1.6 0.7 3.3 1.4 4.9 2.2C214.2 42 220.3 44.3 226.5 46.4z"/>

      <path class="svg-clr-black" d="M208.4 34.1c3.3 1.8 6.9 3 10.5 4.4 -3.6-1.2-7.1-2.6-10.6-4 -5.4-2.1-10.5-5.1-16-6.8 -0.9-0.5-2 0.4-1.9 1.4 -0.4-0.2-0.8-0.4-1.2-0.6 -12-5.9-25.5-9.3-38.3-12.9 -7.2-2-14.1-4.6-21.3-6.3 -8-1.8-16-3-24.2-3.5 -12.7-0.7-23.6-0.2-34.2 7.6 -9.2 6.8-16.5 15.9-23.6 24.9 -4 5.1-8.5 10-12 15.4 -2.2 3.4-4 6.9-4.3 11 -0.2 2.4-0.1 5.1-0.7 7.4 -0.8 3.3-1.9 6.5-3.2 9.7 -0.7-1.1-2.8-0.9-3 0.5 -1 5.6-4.1 9.9-7.5 14 0.8-1.7 1.5-3.4 1.8-4.3 1.9-4.1 3.4-8.3 4.8-12.5 0.9-2.8 2-5.7 2.6-8.7 1.2-6 0-11.4 3.3-17 5.9-9.8 14-19.1 21.3-27.8 6.9-8.2 14.8-16.7 24.6-21.5C86.6-1 98.8-0.4 111 0.8c14.8 1.5 28.6 5.5 42.7 10 12.2 4 25.1 6.5 36.6 12.2C196.7 26.2 202.1 30.8 208.4 34.1z"/>

      <path class="svg-clr-black" d="M203.4 37.1c-4.4-2-8.9-4.2-12.6-7.2 -0.3-0.2-0.4-0.5-0.4-0.8C194.9 31.4 199 34.5 203.4 37.1z"/>

      <path class="svg-clr-black" d="M170.5 309.1c0.1 1-0.5 2.2-1.7 2.1 -0.3 0-0.5-0.1-0.8-0.1 -1.3-0.5-2.6-1-3.9-1.4 -0.2-0.1-0.3-0.4 0-0.5C166.2 308.6 168.4 308.7 170.5 309.1z"/>

      <path class="svg-clr-black" d="M169.2 307.7c0.8 0.1 1.2 0.8 1.2 1.4 -2.1-0.4-4.2-0.5-6.5 0.1 -0.3 0.1-0.2 0.4 0 0.5 1.3 0.4 2.6 0.9 3.9 1.4 -28.1-3.8-54.1-20.7-75.2-38.8 -10.6-9.1-21.4-19-29.2-30.6 -6.1-9-11.6-22.6-2.4-31.8 2.1-2.1 4.6-3.7 6.8-5.7 -3 0-6.6 0.6-9.4-0.3 -10.2-3.2-21-9.4-27.2-18.4 -3.1-4.5-6.2-10.4-5.7-16.1 0.5-6.1 2.8-11.8 2.5-18.1 -0.4-7.2-1.4-15 0.6-22.1 1.9-6.8 5.2-14 6.2-21 1.4-9.9-0.1-20 4.8-29.1 3.7-6.8 8.1-13.3 12.7-19.5C54.3 57.4 60.7 48 67 42.4c0.1 0 0.1 0 0.2 0.1l0.6 0.2c0.4 0.1 1 0 1.3-0.3 1.2-1.4 2.6-2.7 4.1-3.8 1.7-0.5 3.2-0.3 4.4 0.8 1 0.9-0.4 2.2-1.4 1.4 -3.9-3-17.6 16.7-19.3 18.9 -5.4 7.4-12.5 16-15.4 24.8 -2.2 6.8-1.7 13.7-2.4 20.7 -0.7 6.7-3.3 13.2-5.2 19.7 -2.5 8.4-2.5 15.9-2.1 24.6 0.3 6.3-1.3 11.5-2.2 17.6 -2.1 14.4 12.5 26.1 24.3 31.2 4.9 2.1 8.7 2.2 13.9 2.3 1.6 0 4.9-0.1 5.4 2 0.9 3.6-6.2 6.9-8.3 9 -6.2 6.2-5.7 15.5-1.5 22.6 7.1 12.3 17.7 22.9 28.3 32.2C114 286.1 139.5 302 169.2 307.7z"/>

      <path class="svg-clr-black" d="M127 357.3c1.3 1-0.1 3.4-1.7 2.8 -2.8-1-5.5-2.1-8.3-3.3 -1.2-0.7-2.4-1.4-3.5-2 -1.1-0.6-0.7-2.6 0.7-2.5 0.3 0 0.6 0.1 1 0.1 0.5 0 0.8 0.3 1 0.6C119.7 354.4 123.3 355.9 127 357.3 126.9 357.3 127 357.3 127 357.3z"/>

      <path class="svg-clr-black" d="M126.9 357.3c-3.6-1.4-7.2-2.8-10.8-4.2 -0.2-0.3-0.5-0.5-1-0.6 -0.3 0-0.6-0.1-1-0.1 -1.4-0.1-1.7 1.8-0.7 2.5 1.2 0.7 2.4 1.4 3.5 2 -10-4.3-20.1-9.7-28.7-15.8 -10.5-7.3-18.4-17.6-28.7-25.2 -5.1-3.8-10.5-7.4-15.1-11.8 -4.4-4.3-8.5-9.1-12.5-13.9 -8-9.8-13.1-20.9-16.1-33.1 -6.1-24.5-2-50.3-8.2-74.8 -1.9-7.3-4.2-14.6-5.4-22 -0.2-1.5-1.1-5.1-0.8-7.8 1.6 7.1 4.4 14.1 6.7 20.9 0.1 0.4 0.7 0.4 0.8 0 0.2-1 0.4-2 0.4-3 1.3 5 2.9 10 3.8 15.1 2.1 12.3 3.1 25.3 3.3 37.8 0 0.1 0 0.2 0 0.4 -0.8-0.1-1.7 0.2-2 1.2 -1 3.6 0.1 6.9 1.5 10.1 0.5 3.7 1 7.3 1.2 11.1 0 0.4 0.7 0.4 0.7 0 0-0.3 0-0.7 0-1 0.8 5.4 1.9 10.7 3.5 15.9 2 6.4 4.3 12.9 8 18.6 3.3 5.1 7.2 9.6 11.2 14.1 8.1 9.1 17.6 15.7 27.1 23.2 9.5 7.4 16.8 17 27.4 23.3C105.4 346.2 117.4 349.9 126.9 357.3z"/>

      <path class="svg-clr-black" d="M122.4 309.5c0.8 0.4 0.1 1.6-0.7 1.2 -22.1-9.3-42.2-22.7-61.3-37.1 -13.7-10.4-28-20.1-38-34.1 -0.8 0.5-2 0.4-2.5-0.5 -0.1-0.1-0.1-0.3-0.2-0.4 -0.5 0.5-1.2 0.7-1.8 0.4 0 2-0.1 4.1-0.1 6.1 -1-7-1.3-14.2-1.4-21.3 0.2 0 0.5 0.1 0.7 0.3 0.8-0.3 1.7 0 1.9 1 0.3 1.6 0.6 3.2 1.1 4.8 0.3 0.1 0.6 0.3 0.9 0.7 10 18.2 29.2 31.5 45.5 43.6C84.2 287.3 102.4 299.9 122.4 309.5z"/>

      <path class="svg-clr-black" d="M73 38.5c-1.5 1.1-2.8 2.4-4.1 3.8 -0.3 0.3-0.8 0.5-1.3 0.3l-0.6-0.2c-0.1 0-0.1 0-0.2-0.1C69.1 40.5 71.2 39.1 73 38.5z"/>

      <path class="svg-clr-black" d="M27.5 82.3c1.2 6.8-3.5 12.4-7.7 17.3 -6.2 7.2-10.3 14.6-12.4 24 -1.8 8-3.7 17.3-2.5 25.7 -0.3-0.2-0.8-0.4-1.2-0.2 -1.5 0.4-2.1 1.8-2.3 3.5 -0.3-1.2-0.5-2.5-0.7-3.7 -1.1-8 0.4-16.9 2.1-24.7 1.7-7.6 4.1-15.6 9-21.8 0.1 0.4 0.4 0.8 1 0.9 4.8 0.3 8.3-7.8 9.9-11.2 1.6-3.3 3.2-6.8 4.6-10.3C27.4 81.9 27.5 82.1 27.5 82.3z"/>

      <path class="svg-clr-black" d="M27.3 81.8c-1.4 3.5-2.9 7-4.6 10.3 -1.6 3.3-5.1 11.5-9.9 11.2 -0.6 0-1-0.4-1-0.9 0.2-0.2 0.4-0.5 0.5-0.7 0.2-0.2 0.3-0.4 0.5-0.6h0c1.5-0.2 2.9-2.4 3.9-4.7 3.4-4.2 6.5-8.5 7.5-14C24.6 80.9 26.6 80.7 27.3 81.8z"/>

      <path class="svg-clr-black" d="M17.8 245c0 0.3 0 0.7 0 1 0 0.4-0.7 0.4-0.7 0 -0.2-3.7-0.7-7.4-1.2-11.1 -1.4-3.2-2.5-6.5-1.5-10.1 0.3-1 1.2-1.4 2-1.2C16.5 230.9 16.8 238 17.8 245z"/>

      <path class="svg-clr-black" d="M16.8 96.3c-1.1 2.3-2.5 4.5-3.9 4.7C14.2 99.5 15.5 97.9 16.8 96.3z"/>

      <path class="svg-clr-black" d="M12.9 101c-0.2 0.2-0.3 0.4-0.5 0.6 -0.2 0.2-0.4 0.5-0.5 0.7C11.7 101.8 12.1 101.1 12.9 101z"/>

      <path class="svg-clr-black" d="M5.6 152.7c1.4 5.7 4 11.8 3.7 17.8 -0.1-0.5-0.3-1-0.4-1.5 -0.9-3.6-1.7-7.2-2.6-10.8C6 157 5.2 152 4.9 152c0.2-0.1 0.3-0.2 0.4-0.3C5.4 152 5.5 152.4 5.6 152.7z"/>

      <path class="svg-clr-black" d="M4.9 152c0.2 0 1.1 5.1 1.4 6.3 0.8 3.6 1.7 7.2 2.6 10.8 0.1 0.5 0.2 1 0.4 1.5 -0.1 1-0.2 2-0.4 3 -0.1 0.4-0.6 0.4-0.8 0 -2.2-6.9-5.1-13.8-6.7-20.9 0 0 0 0 0 0 0.2-1.7 0.8-3.1 2.3-3.5 0.5-0.1 0.9 0 1.2 0.2 0.1 0.8 0.2 1.6 0.4 2.4C5.3 151.8 5.1 151.9 4.9 152z"/>

      <path class="svg-clr-black" d="M4.9 149.3c0.8 0.5 1.1 1.7 0.4 2.4C5.2 150.9 5.1 150.1 4.9 149.3z"/>
    </g>

    <path class="svg-clr-black" d="M19.3 250.5c-0.2-5.2 0.5-10.3 0.7-15.5 0-1.1-1.8-1.4-2-0.3 -3.5 9.6-2 21.6 2.3 30.7 0.4 0.9 1.8 0.4 1.8-0.5C22.1 259.9 19.5 255.5 19.3 250.5z"/>

    <path class="svg-clr-black" d="M37.8 252.3c-3.1-4.5-7.7-8-11.7-11.7 -2.2-2.1-3.9-4.7-5.5-7.3 -0.4-0.7-0.9-2.1-1.7-2.6 -0.1-0.1-0.3-0.2-0.5-0.2 -0.2 0-0.4 0.1-0.5 0.2 0 0 0 0-0.1 0.1 0 0-0.1 0.1-0.1 0.1 -0.2 0.2-0.3 0.5-0.2 0.8 0.8 4.2 3.5 8 6.4 11.1 3.6 3.7 7.9 8.4 12.3 11.1C37.1 254.4 38.5 253.3 37.8 252.3z"/>

    <path class="svg-clr-black" d="M36.5 251c-2.9-4.1-7.7-7.2-11.5-10.6 -3.2-2.8-3.8-7.1-6.7-9.9 -0.5-0.5-1.3 0-1.1 0.7 1.1 4 2.1 7.2 5 10.4 1.9 2.2 4.5 4 6.7 5.8 2 1.7 3.9 3.7 6.3 5C35.9 252.9 37.1 251.9 36.5 251z"/>

    <path class="svg-clr-black" d="M6.5 153.7c-0.8-4.6-1.8-9.2-1.9-13.9 -0.1-2.5 0.7-5.5 0.1-7.8 -0.1-0.5-0.8-0.5-1-0.1 -1.5 2.6-1.9 3.2-1.7 6.5 0.3 4.2 0.6 8.4 1.3 12.5 0.8 4.3 1.7 8.5 2.6 12.7 1 4.9 1.4 10.4 3.2 15.1 0.4 1 1.7 0.8 1.8-0.2C11.8 170.4 7.9 161.5 6.5 153.7z"/>

    <path class="svg-clr-black" d="M2.6 149.1c-0.3-3-0.5-6.5-0.1-9.6 0.2-1.5 0.9-2.7 1-4.2 0-0.5-0.6-0.6-0.9-0.4 -3.4 2.9-2.5 8.3-2.4 12.3 0.1 4.5 0.8 10.4 3.5 14.1 0.5 0.7 1.9 0.6 1.8-0.5C5 156.9 3 153.1 2.6 149.1z"/>

    <path class="svg-clr-black" d="M21.6 90.8C19 93.2 15.9 96 14 98.9c-0.9 1.3-2.7 3.2-3.2 4.9 -0.5 2-0.6 3.8-1.7 5.6 -0.2 0.4-0.1 0.8 0.1 1.1 -0.8 1.4-1.8 2.8-2.4 4.3 -0.4 0.8 0.6 1.4 1.2 0.7 1.3-1.8 2.7-3.2 3.7-5.2 0.2-0.4 0.1-0.9-0.2-1.2 1.3-2.6 2.3-5.1 3.9-7.6 2.3-3.4 5.8-5.8 8-9.3C24.1 91.1 22.5 89.9 21.6 90.8z"/>

    <path class="svg-clr-black" d="M28.6 68.2c-1.4 1.1-1.9 4.1-2 5.8 -0.1 2.5-0.2 4.8-0.9 7.2 -0.9 2.8-2.9 5.2-4.3 7.8 -0.5 0.9 0.6 1.7 1.4 1.1 6.4-5.2 6.1-13.6 7.2-21C30.2 68.1 29.3 67.6 28.6 68.2z"/>

    <path class="svg-clr-black" d="M30.3 70.7c-0.1-0.6-0.9-0.7-1.3-0.4 -1.9 1.7-1.9 5.1-2.5 7.4 -0.6 2.3-0.9 4.4-2.1 6.5 -0.7 1.2-1.4 2.4-1.7 3.8 -0.2 0.9 0.8 1.7 1.6 1.2 2.7-1.5 3.9-5.6 4.7-8.4C29.8 77.6 31 74.1 30.3 70.7z"/>

    <path class="svg-clr-black" d="M28.7 61.4c-1.7 4.2 0.6 9.5-0.5 14.1 -0.6 2.6-0.8 5.3-1.7 7.9 -0.8 2.5-3.2 4.3-3.6 6.9 0 0.1 0 0.3 0.2 0.3 3.7 1.1 5.8-5.4 6.6-8 0.9-2.9 1.5-6.5 1.7-9.6 0.2-3.5-0.7-7.4 0.2-10.7C32.2 60.2 29.4 59.6 28.7 61.4z"/>

    <path class="svg-clr-black" d="M26.4 79.2c-0.2-0.3-0.6-0.3-0.8 0 -3.2 5-5.7 10.3-9.2 15.2 -4.6 6.5-8.3 12.5-9.9 20.4 -0.3 1.4 1.8 2.5 2.5 1 1.7-3.5 2.4-7.4 4.1-11 1.9-4.1 5.1-7.5 7.6-11.3C22.6 90.5 28.6 82.9 26.4 79.2z"/>

    <path class="svg-clr-black" d="M30 78.8c-0.2-0.5-0.9-0.8-1.3-0.3 0 0 0 0 0 0 -0.3 0.3-0.3 0.7 0 1 -0.8-0.9-1.6 3-1.7 3.4 -0.6 2-1.5 3.8-2.6 5.5 -1.8 2.7-5 4.5-6.1 7.6 -0.2 0.7 0.5 1.5 1.2 1.2C24.9 94.9 31.6 85 30 78.8z"/>

    <path class="svg-clr-black" d="M35 51.3c0-0.1-0.1-0.1-0.2-0.1 -6.6 0.5-6.8 17.2-7 21.6 0 1.1 1.5 1.4 2 0.5 2.3-3.6 1.9-8.9 2.6-13C32.8 58 36.1 53.5 35 51.3z"/>

    <path class="svg-clr-black" d="M74.5 34.1c-5.3 1-8.1 5.7-11.4 9.4 -3.9 4.5-6.4 10.2-9.6 15.2 -0.8 1.2 0.9 2.4 1.9 1.5 4.3-3.9 5.8-10.2 9.7-14.6 2.4-2.8 4.3-5.6 7.3-7.8 1.3-0.9 2.4-1.4 2.7-2.9C75.3 34.4 74.9 34.1 74.5 34.1z"/>

    <path class="svg-clr-black" d="M97.7 28.3c-6.4 0.6-12.3 3.5-17.7 6.8 -2.7 1.7-5.5 3.3-8 5.3 -2.1 1.7-4.9 3.2-6.4 5.6 -0.1 0.1 0 0.2 0.2 0.2 5.2-1.3 9.4-5.7 14-8.4 3.2-1.9 6.2-3.7 9.7-5.1 2.9-1.1 5.9-1.5 8.6-2.9C98.9 29.5 98.5 28.2 97.7 28.3z"/>

    <path class="svg-clr-black" d="M86.1 31.7c-3.2 0.6-6.1 2.4-9 3.8 -3 1.5-6.4 3.2-8.2 6.2 -0.6 1 0.6 2.1 1.6 1.6 2.8-1.5 5.2-3.9 7.9-5.5 2.7-1.7 5.4-3.5 8.1-5.2C86.9 32.2 86.6 31.6 86.1 31.7z"/>

    <path class="svg-clr-black" d="M104.9 27c-9.1 0.9-17.3 5.3-25.3 9.4 -7.4 3.8-13.8 9-18.9 15.4 -0.2 0.2 0 0.5 0.3 0.4 5.6-3.8 10.5-8.8 16.3-12.3 4.5-2.7 10-5.1 14.8-7 4.2-1.7 8.8-2.4 12.9-4C106 28.5 106 26.9 104.9 27z"/>

    <path class="svg-clr-black" d="M105.8 27.8c-3.3-0.4-6.8 1.2-9.8 2.1 -4.9 1.4-9.1 3.7-13.6 5.9 -4.9 2.3-8.7 5.3-13.2 8.4 -3.8 2.7-8.1 5.3-10.9 9 -0.5 0.6 0.4 1.4 1.1 1.1 7.9-4.6 14.2-12 22.6-15.9 4.4-2 8.5-4.3 13.1-5.9 2-0.7 3.9-1.3 5.9-2 1.5-0.5 3.4-2.1 4.8-2.3C106.1 28.2 106.1 27.8 105.8 27.8z"/>

    <path class="svg-clr-black" d="M83.3 35c-6.5 2.3-11.2 7.1-16.3 11.4 -5.7 4.7-12.2 10.1-15.4 16.9 -0.3 0.7 0.4 1.9 1.3 1.3 5.1-3.9 9-9.7 13.6-14.2 5.4-5.3 11.2-10.3 17-15.1C83.6 35.2 83.5 35 83.3 35z"/>

    <path class="svg-clr-black" d="M28.3 244.2c-0.9-4.5-3.8-8.4-6-12.3 -3.1-5.7-4.5-11.5-6.1-17.8 -0.2-0.7-1.4-0.8-1.6 0 -0.9 5.1 0.7 10.4 2.7 15 1.3 2.9 2.9 5.8 4.5 8.5 1.5 2.6 2.7 5.4 4.7 7.6C27.4 245.9 28.5 245.1 28.3 244.2z"/>

    <path class="svg-clr-black" d="M17.4 220.6c-0.5-2.8-1.3-5.4-1.6-8.3 -0.4-2.8-0.1-6.1-1.3-8.7 -0.2-0.4-0.9-0.3-1 0.1 -0.6 3.5-0.8 6.3-0.4 9.8 0.3 2.7 1.1 5.1 1.6 7.8C15 223.1 17.8 222.4 17.4 220.6z"/>

    <path class="svg-clr-black" d="M15.8 212.5c-0.2-2.6 0.4-5.1-1.6-7.1 -0.2-0.2-0.5 0-0.5 0.3 0.4 2.6-0.3 5.3-0.3 7.9 0 2.3 1 5.6 1.8 7.7 0.3 0.8 1.2 0.9 1.7 0.2C18.6 219.4 16 215 15.8 212.5z"/>

    <path class="svg-clr-black" d="M17.8 220.6c-0.7-1.9-0.8-4-1-6 -0.2-2.3-1.2-4.3-2.1-6.4 -0.2-0.5-0.9-0.6-1.1 0 -0.5 2.1 0.6 4.3 0.7 6.4 0.1 3.8 0.9 7.2 2.6 10.7 0.4 0.8 1.5 0.3 1.5-0.4C18.7 223.3 18.3 222 17.8 220.6z"/>

    <path class="svg-clr-black" d="M461.5 180.6c-0.1-0.5-0.8-0.5-1-0.1 -1.2 2.6-1.6 5.3-2.1 8.1 -0.9 4.8-2.2 9.6-2.6 14.5 -0.8 9.8-0.5 19.8-1.2 29.6 -0.1 1.1 1.6 1.6 2.1 0.6 1.5-3.4 1.5-7 1.6-10.6 0.1-5.3 0.2-10.6 0.3-15.9C458.6 198.1 462.9 189.3 461.5 180.6z"/>

    <path class="svg-clr-black" d="M438.5 200c0.1-0.2 0-0.5-0.2-0.7 0 0-0.1-0.1-0.1-0.1 -0.4-0.4-1.3-0.3-1.4 0.4 -1.4 7.1-2.6 14.2-3.8 21.3 -1.4 8.3-4.4 16-6.6 24.1 -0.3 1.2 1 1.7 1.9 1.1 2.3-1.8 2.8-6 3.6-8.6 1.2-4.1 2.9-8.4 3.5-12.7 0.6-4.5 1.8-8.9 2.3-13.4C438 207.5 439.5 203.7 438.5 200z"/>

    <path class="svg-clr-black" d="M436.9 189.7c-0.1-0.3-0.6-0.2-0.6 0.1 -1.8 8.2-1 16.8-1.7 25.1 -0.1 0.8 1.1 0.9 1.3 0.2 1.4-4.5 1.1-9 1.2-13.7C437.2 197.4 438.6 193.3 436.9 189.7z"/>

    <path class="svg-clr-black" d="M438.1 220.6c0-0.1-0.2-0.2-0.3-0.1 -3.7 1.7-2.8 10.5-3.5 13.8 -1.5 7-7.9 12.5-11.5 18.4 -0.5 0.8 0.5 1.9 1.4 1.4 2.2-1.4 3.8-3.6 5.2-5.8 2.2-3.3 4.4-6.4 6.2-10 1.6-3.3 1.7-6.5 2.2-10C438.2 225.7 438.9 223 438.1 220.6z"/>

    <path class="svg-clr-black" d="M437.7 222.1c-0.2-0.5-0.9-0.4-1 0.1 -0.4 3.4-0.5 6.9-1.1 10.3 -0.7 4.1-3.2 8.2-5.2 11.8 -2 3.5-4.4 6.6-7.1 9.5 -2.1 2.3-5.1 4.2-6.6 6.9 -0.5 0.8 0.5 1.8 1.3 1.3 6.6-3.7 11.7-11.4 15.3-17.9C436.9 237.9 440.5 229.4 437.7 222.1z"/>

    <path class="svg-clr-black" d="M439.1 205.4c-0.1-0.2-0.4-0.3-0.5-0.1 -1.6 1.2-1 5.7-1 7.4 0 4.2 0.5 8.1-0.7 12.2 -1 3.6-2.5 7-3.4 10.6 -0.2 0.8 0.9 1.3 1.3 0.6 3.5-5.6 5.2-12.3 5.3-18.9C440.3 214 440.7 208.3 439.1 205.4z"/>

    <path class="svg-clr-black" d="M382.8 384.4c-6.1 1.9-11.7 4.4-17.9 6 -6.8 1.7-13.5 2.5-20.4 3.3 -12.6 1.5-25.4 2.9-37.8 5.8 -0.6 0.1-0.5 1.2 0.2 1.1 5.5-0.6 11-0.6 16.5-1.4 8.2-1.2 16.5-2.2 24.8-3.1 5.9-0.7 11.7-1.5 17.5-2.9 6.1-1.5 12.8-2.9 18.1-6.5C384.9 385.9 384.2 383.9 382.8 384.4z"/>

    <path class="svg-clr-black" d="M352.9 395.4c-2.7 0.7-5.7 0.7-8.4 1.1 -3.3 0.4-6.3 1.6-9.5 2.1 -0.4 0.1-0.3 0.6 0 0.7 3.1 0.9 6.4 0.2 9.5-0.1 3-0.3 6.2-0.3 9.2-1C355.4 397.7 354.7 394.9 352.9 395.4z"/>

    <path class="svg-clr-black" d="M377.3 388.4c-3.3 0.5-6.3 2.2-9.3 3.7 -3.7 1.9-7.7 2.7-11.7 3.4 -7.7 1.4-15.7 0.9-23.3 3 -0.7 0.2-0.7 1.2 0 1.4 6.8 1.7 15.5 0.1 22.4-0.8 7.6-1.1 17.1-3.4 23-8.7C379.5 389.5 378.4 388.3 377.3 388.4z"/>

    <path class="svg-clr-black" d="M288.5 74.6c-6.6-2.7-14.1-1.5-21.1-1.2 -7.9 0.2-15.4 2.1-23.2 3.6 -1.2 0.2-1 1.9 0 2.1 2.4 0.7 4.5 0.1 6.9-0.5 4.7-1.1 9.6-1.9 14.4-2 3.7-0.1 7.4-0.1 11-0.2 3.9-0.1 7.6 1.2 11.5 1.1C289.9 77.5 290 75.2 288.5 74.6z"/>

    <path class="svg-clr-black" d="M307.2 78.1c-5.3-2.4-11.7-2.4-17.4-2.7 -7.3-0.4-14.5-0.4-21.8-0.2 -13.1 0.3-27.9 2-40.3 6.5 -0.6 0.2-0.5 1.1 0.2 1.2 5.8 0.3 11.6-1.5 17.3-2.6 6.8-1.3 14-2.1 21-2.2 6.7-0.1 13.4 0 20.1 0.3 6.7 0.3 13.8 1.9 20.4 1.5C307.6 79.9 308.2 78.6 307.2 78.1z"/>

    <path class="svg-clr-black" d="M310.5 78.4c-10.3-4.2-20.9-6-31.9-7.1 -9.7-1-18.3 1.6-27.7 3.6 -0.4 0.1-0.6 0.4-0.6 0.8 0 0.3 0.1 0.7 0.6 0.8 2.7 0.6 6.3-1.1 9-1.5 5.6-0.9 11.1-1.9 16.8-1.2 11.3 1.3 22.1 4.7 33.2 6.5C311.1 80.4 311.6 78.8 310.5 78.4z"/>

    <path class="svg-clr-black" d="M25 248.5c-0.2-2.9 0-6-0.8-8.8 -0.1-0.5-1-0.4-0.9 0.1 0 0.1 0 0.2 0.1 0.2 -0.3-0.4-0.5 2.6-0.5 2.1 -0.1 1.6-0.1 3.3-0.1 4.9 0 3.5 0.2 7.2 1.2 10.6 0.3 0.9 1.6 0.7 1.7-0.2C25.8 254.6 25.3 251.5 25 248.5z"/>

    <path class="svg-clr-black" d="M27 266.5c0-0.2-0.5-0.3-0.5 0 -0.8 5 0.2 10.6 1.3 15.4 0.2 0.8 1.4 0.6 1.4-0.2C28.8 276.7 27.9 271.5 27 266.5z"/>

    <path class="svg-clr-black" d="M33 279.1c-0.1-2.8-0.1-5.9-1-8.6 -0.1-0.3-0.5-0.2-0.5 0.1 0.1 5.5-0.4 11.4 0.3 16.8 0.1 0.8 1.1 0.8 1.2 0C33.4 284.7 33.1 281.8 33 279.1z"/>

    <path class="svg-clr-black" d="M37.6 282.1c0.1-2.3 0.4-4.5-0.2-6.8 -0.1-0.4-0.7-0.3-0.7 0.1 -0.4 4.9-1.7 10.5-0.1 15.3 0.2 0.7 1.3 0.6 1.4-0.2C38 287.7 37.5 284.9 37.6 282.1z"/>

    <path class="svg-clr-black" d="M29.2 247c-0.1-0.4-0.7-0.3-0.7 0.1 -0.3 2.9 0 6.1 1.2 8.8 0.3 0.6 1.2 0.2 1.1-0.5C30.2 252.6 29.8 249.8 29.2 247z"/>

    <path class="svg-clr-black" d="M36.1 253.5c0-1-1.5-0.9-1.5 0 0 0 0 0 0 0 0 1.1-0.1 2.1 0 3.2 0 0.7 1.1 0.9 1.3 0.2C36.1 255.7 36.1 254.6 36.1 253.5z"/>

    <path class="svg-clr-black" d="M450.5 266.6c-0.1-0.7-1-0.7-1 0 -0.5 5.9-2.4 11.8-3.1 17.7 -0.8 6.6-1.6 12.7-3.8 19 -0.4 1.1 1.1 1.5 1.7 0.7 3.4-4.7 3.6-11.1 4.1-16.7C449 280.6 451.2 273.3 450.5 266.6z"/>

    <path class="svg-clr-black" d="M443 321.6c-1.4 3.9-1.5 8.3-2.4 12.4 -0.8 3.8-2.6 7.2-3.5 11 -0.1 0.5 0.4 0.9 0.8 0.6 0.1 0 0.1-0.1 0.2-0.1 0.1 0 0.1-0.1 0.1-0.2 0-0.3 1.3-2.9 1.3-2.9 0.8-2 1.6-4 2.3-6.1 1.5-4.5 2.4-9.7 2.6-14.5C444.5 320.9 443.3 320.9 443 321.6z"/>

    <path class="svg-clr-black" d="M439.5 327.1c0-0.6-0.8-0.7-1-0.1 -3 9.8-5.9 19.2-12.6 27.3 -0.4 0.4 0.2 1 0.6 0.6 4-3.8 6.4-8.5 8.9-13.4C437.5 337.4 439.7 331.7 439.5 327.1z"/>

    <path class="svg-clr-black" d="M431.5 332c-3.4 5.8-5.7 12.2-9.2 18 -1.8 3-2.6 6.5-5 9.2 -1.3 1.5-3 2.7-3.6 4.6 -0.1 0.3 0.3 0.5 0.5 0.3 1.5-1.7 3.2-3.1 4.7-4.8 2.1-2.2 3.2-5.9 4.6-8.5 3.3-6 6.7-11.9 9-18.3C432.8 331.8 431.8 331.4 431.5 332z"/>

    <path class="svg-clr-black" d="M430.9 293.1c-3.1 6.1-3.2 13.3-5.5 19.8 -0.2 0.6 0.7 1 1 0.4 3.3-6.1 3.1-13.4 5.1-19.9C431.7 293 431.1 292.8 430.9 293.1z"/>

    <path class="svg-clr-black" d="M440.7 282.1c-1.3 0-1.3 2 0 2S442 282.1 440.7 282.1z"/>

    <path class="svg-clr-black" d="M441.9 281.1c0-0.2-0.3-0.2-0.3 0 -0.1 6.5-2.4 12.4-3 18.8 -0.1 0.7 1 0.8 1.2 0.2C441.9 294.3 442.2 287.1 441.9 281.1z"/>

    <path class="svg-clr-black" d="M434.9 292c-0.1-0.5-0.9-0.4-0.9 0.1 0.1 3.9-0.7 7.3-1.5 11.1 -0.2 0.7 0.9 1.3 1.3 0.5C435.4 300.1 435.7 295.7 434.9 292z"/>

    <path class="svg-clr-black" d="M401.6 326c-2.4 2.5-5 4.7-7.6 7 -3.3 3-6.4 6.8-10.1 9.4 -0.1 0 0 0.1 0.1 0.1 3.8-1.9 6.6-5.2 9.7-7.9 2.9-2.6 6.2-4.9 8.3-8.2C402.1 326 401.8 325.8 401.6 326z"/>

    <path class="svg-clr-black" d="M329.7 356c-5.5-0.1-11.1-0.1-16.6 0.1 -6.3 0.2-12.3 1.6-18.6 0.9 -0.3 0-0.3 0.4-0.1 0.5 5.6 1.5 11.1 0.5 16.8 0.1 6.1-0.4 12.3 0.1 18.5-0.4C330.5 357.1 330.5 356 329.7 356z"/>

    <path class="svg-clr-black" d="M233.7 358.2c-0.1 0-0.1 0.1 0 0.1S233.8 358.2 233.7 358.2z"/>

    <path class="svg-clr-black" d="M291.7 363.6c-0.1-2.1 0-4.2-0.3-6.3 0 0 0.1-0.1 0-0.2 0-0.1-0.1-0.3-0.1-0.4 -0.1-0.4-0.8-0.4-0.8 0 -0.3 1.9-0.2 3.9-0.2 5.9 0 2.2-0.1 4.5 0.2 6.7 0.1 0.6 1 0.6 1.1 0C291.9 367.5 291.8 365.5 291.7 363.6z"/>

    <path class="svg-clr-black" d="M297.4 360.6c-0.1-1.1 0-2.1 0-3.2 0-0.4-0.6-0.5-0.7-0.2 -0.4 0.8-0.5 1.7-0.5 2.7 0 1-0.2 2.2 0.3 3.1 0.2 0.3 0.6 0.3 0.8 0C297.7 362.2 297.5 361.4 297.4 360.6z"/>

    <path class="svg-clr-black" d="M304.3 357.1c0-0.5-0.7-0.5-0.7 0 -0.1 0.7-0.2 1.4 0 2.1 0.1 0.4 0.7 0.4 0.8 0C304.5 358.5 304.3 357.8 304.3 357.1z"/>

    <path class="svg-clr-black" d="M281.4 357.1c-0.2-0.4-0.8-0.4-1 0 -0.5 1-0.5 2.2-0.6 3.3 -0.2 1.3-0.4 2.5-0.2 3.7 0.2 0.8 1.2 0.6 1.5 0 0.5-1.2 0.4-2.5 0.5-3.7C281.7 359.3 281.8 358.2 281.4 357.1z"/>

    <path class="svg-clr-black" d="M271.4 355.9c-0.2 1.3-0.8 2.6-0.8 3.9 0 0.3 0.5 0.5 0.7 0.2 0.5-1.2 0.5-2.7 0.6-4C271.8 355.7 271.4 355.6 271.4 355.9z"/>

    <path class="svg-clr-black" d="M290.9 360.5c0.2-1.1 0-2.4-0.3-3.5 -0.1-0.2-0.4-0.3-0.5-0.1 -0.9 0.9-0.9 2.4-0.6 3.6 0.3 1.6 0.4 3 1.1 4.5 0.1 0.2 0.4 0.1 0.4-0.1C290.8 363.6 290.6 361.9 290.9 360.5z"/>

    <path class="svg-clr-black" d="M285.3 357.1c-0.6 1.4-0.9 2.7-1 4.2 -0.2 1.6-0.4 3.5 0.2 5 0.3 0.6 1 0.3 1.2-0.2 0.5-1.1 0.2-2.5 0.1-3.6 -0.1-1.7 0-3.4 0.4-5C286.3 356.9 285.5 356.5 285.3 357.1z"/>

    <path class="svg-clr-black" d="M207.3 377.3c-1.1 1.4-1.5 3-2 4.8 -0.3 1.1-1.1 2.7-1 3.9 0 0.1 0.1 0.3 0.2 0.4 0.2 0.1 0.3 0.1 0.4 0 0.1 0 0.2 0 0.4-0.3 0.3-0.5 0.6-1 0.8-1.5 0.9-2.1 1.6-4.4 2.4-6.6C208.5 377.4 207.7 376.9 207.3 377.3z"/>

    <path class="svg-clr-black" d="M209 382.5c-0.6 0.5-0.7 1-0.9 1.7 -0.1 0.6-0.3 1.3-0.2 1.9 0.1 0.3 0.4 0.3 0.5 0.1v0c0.4-0.4 0.6-1 0.9-1.5 0.3-0.6 0.6-1 0.7-1.6C210.1 382.5 209.5 382.1 209 382.5z"/>

    <path class="svg-clr-black" d="M204.6 371.8c-1.4 1.4-2 3.4-2.5 5.3 -0.7 2.5-1.4 5.1-1.8 7.7 0 0.2 0.2 0.6 0.5 0.5 0.3-0.1 0.3-0.1 0.4-0.4 0.1-0.2-0.2-0.4-0.3-0.3 0.6-0.5 0.7-0.7 1.1-1.7 0.5-1.2 0.8-2.5 1.2-3.8 0.7-2.3 1.9-4.3 2.7-6.5C206.1 371.8 205.1 371.3 204.6 371.8z"/>

    <path class="svg-clr-black" d="M195.7 378.9c-0.3 0.6-0.4 1.3-0.5 1.9 -0.1 0.7-0.2 1.3-0.1 2 0 0.3 0.5 0.3 0.6 0 0.1-0.6 0.2-1.2 0.4-1.8 0.2-0.6 0.5-1.2 0.4-1.9C196.5 378.8 195.9 378.5 195.7 378.9z"/>

    <path class="svg-clr-black" d="M72.8 256.5c-2.5-10.8-11.5-18.9-13.2-30.2 -0.1-0.5-0.9-0.4-0.9 0.1 0.3 4.3 1.7 8.8 3.4 12.7 1.2 2.7 2.8 5.3 4.3 7.9 1.8 3.3 3.1 6.8 4.9 10C71.7 257.9 73 257.4 72.8 256.5z"/>

    <path class="svg-clr-black" d="M89.1 272.3c-1.2-2.3-2.5-4.6-3.9-6.8 -1.5-2.5-3.6-4.5-4.6-7.3 -0.1-0.3-0.5-0.2-0.5 0.1 0.4 2.6 2.1 4.7 3.5 6.9 1.6 2.5 2.8 5.2 4.5 7.6C88.6 273.4 89.4 272.9 89.1 272.3z"/>

    <path class="svg-clr-black" d="M418 270.8c-0.6-0.6-1.4-0.7-2.2-1 -0.9-0.3-1.8-0.7-2.8-1 -0.5-0.1-0.7 0.4-0.5 0.8 0.6 0.7 1.5 1.1 2.4 1.5 0.8 0.4 1.7 0.8 2.6 0.9C418.1 272 418.4 271.2 418 270.8z"/>

    <path class="svg-clr-black" d="M422.6 267.2c-1.8-1.8-5.1-1.8-7.4-2.7 -0.4-0.2-0.7 0.4-0.4 0.7 0.7 0.7 1.7 1 2.7 1.4 1.5 0.6 3.1 1.5 4.7 1.6C422.7 268.3 423 267.6 422.6 267.2z"/>

    <path class="svg-clr-black" d="M425.9 259.6c-1.2-0.7-2.9-0.7-4.2-0.8 -0.4 0-0.4 0.5-0.1 0.6 1.3 0.5 2.7 1.2 4 1.2C426.2 260.6 426.4 259.8 425.9 259.6z"/>

    <path class="svg-clr-black" d="M425.7 260c-1.7-1.1-3.8-1.4-5.8-1.9 -0.5-0.1-0.8 0.6-0.4 0.8 1.7 1.1 3.7 2 5.6 2.2C425.9 261.3 426.3 260.5 425.7 260z"/>

    <path class="svg-clr-black" d="M210.5 38.5c-0.3-0.3-0.9-0.3-1.2 0 -0.7 0.9-1 2.2-1.5 3.2 -0.9 1.9-2 3.8-3.1 5.6 -1.8 3.1-3.4 6.2-5.2 9.3 -0.6 1.1 1 2 1.7 1 2.5-3.2 4.6-6.7 6.5-10.3C208.7 45.5 212.1 40.5 210.5 38.5z"/>

    <path class="svg-clr-black" d="M204.6 37.6c-1.8 1.5-3.3 3.4-4.5 5.4 -0.3 0.6 0.5 1.4 1 0.8 1.4-1.8 2.9-3.6 4.3-5.4C206 37.9 205.3 37.1 204.6 37.6z"/>

    <path class="svg-clr-black" d="M216.1 42.4c-0.1-0.6-0.5-0.6-0.9-0.9 -0.2-0.1-0.5 0.2-0.3 0.4 0.1 0.1 0 1-0.1 1.1 -0.1 0.6-0.3 1.2-0.5 1.8 -0.3 1.1-0.7 2.1-0.8 3.2 -0.1 0.5 0.8 0.8 1 0.3 0.6-1.3 1.2-2.5 1.5-3.9C216.1 43.8 216.3 43 216.1 42.4z"/>

    <path class="svg-clr-black" d="M199.3 34.7c-0.9 0.2-1.7 0.8-2.6 1.2 -0.9 0.5-1.8 1-2.6 1.7 -0.6 0.4-0.1 1.3 0.6 1 1-0.5 1.8-0.9 2.7-1.5 0.8-0.5 1.7-1 2.3-1.7C199.9 35 199.7 34.7 199.3 34.7z"/>

    <path class="svg-clr-black" d="M224 44.9c-0.3 0.1-0.2 0.5 0.1 0.4 0.5-0.1 0.2 1.1 0.2 1.4 -0.1 0.6-0.1 1.2 0 1.9 0.1 0.5 0.8 0.4 0.9 0C225.4 47.5 226 44.4 224 44.9z"/>

    <path class="svg-clr-black" d="M22.7 219.4c-0.9 0.3-1.9 0.6-2.8 0.8 -1 0.3-2 0.1-3 0.3 -0.4 0.1-0.9 0.7-0.4 1 0.9 0.7 2.2 0.5 3.2 0.4 1.2-0.2 2.5-0.4 3.6-1.2C23.9 220.2 23.5 219.2 22.7 219.4z"/>

    <path class="svg-clr-black" d="M17.6 214.8c-0.2 0-0.4 0.1-0.6 0.2 -0.1 0-0.2 0.1-0.3 0.1 0 0 0 0 0 0 -0.3-0.3-1-0.2-0.9 0.4 0 0.5 0.3 1 0.9 1 0.5 0 1-0.2 1.4-0.5C18.7 215.6 18.2 214.7 17.6 214.8z"/>

    <path class="svg-clr-black" d="M28.4 225.9c-3.1 1.2-6 2.2-9.3 2.4 -0.4 0-0.5 0.6-0.1 0.7 3.3 0.7 6.9-0.5 9.9-2C29.4 226.6 29 225.6 28.4 225.9z"/>

    <path class="svg-clr-black" d="M21.9 224.3c-1.3 0.3-2.6 0.7-3.9 0.5 -0.5-0.1-0.6 0.8-0.1 0.9 1.5 0.5 3 0.2 4.4-0.5C22.8 224.9 22.5 224.1 21.9 224.3z"/>

    <path class="svg-clr-black" d="M28.7 133.1c-1.7-0.6-3.9-0.4-5.7-0.2 -0.3 0-0.3 0.6 0 0.7 0.9 0.1 1.8 0.2 2.6 0.2 1 0.1 2 0.3 3 0.3C29.2 134.1 29.2 133.3 28.7 133.1z"/>

    <path class="svg-clr-black" d="M28.7 129.8c-1-0.4-2-0.3-3-0.1 -0.9 0.2-0.5 1.4 0.4 1.3 0.8-0.1 1.7 0 2.5 0C29.3 131 29.4 130.1 28.7 129.8z"/>

    <path class="svg-clr-black" d="M421.2 105.2c-0.5-0.5-1.3 0.1-0.9 0.7 3.6 5.2 8.1 9.7 11.6 15.1 4.2 6.4 7.7 13.1 9.6 20.5 0.1 0.4 0.7 0.2 0.6-0.2C439.8 126.4 431.5 115.6 421.2 105.2z"/>

    <path class="svg-clr-black" d="M38.9 53.7c-6.5 5.4-8.7 13.6-10.1 21.5 0 0.2 0.1 0.3 0.3 0.3 0.1 0 0.2 0 0.3 0 0.2 0 0.3-0.1 0.4-0.2 1.5-3 2.4-5.7 3.1-9 1-4.5 4-8.3 6.9-11.8C40.3 54 39.5 53.2 38.9 53.7z"/>

    <path class="svg-clr-black" d="M178.3 75.8c-1.3 5.5-2.5 12-5.5 16.9 -0.1 0.2 0.2 0.5 0.4 0.3 1.6-1.9 2.4-4.2 3.3-6.5 1.3-3.4 2.4-6.8 2.9-10.4C179.5 75.4 178.5 75.1 178.3 75.8z"/>

    <path class="svg-clr-black" d="M185.1 90.8c-1.6 1.8-3.2 3.6-4.9 5.4 -1.6 1.8-2.9 4-4.7 5.6 -0.1 0.1 0 0.4 0.2 0.3 1.8-1.3 3.1-3 4.6-4.6 1.9-2 3.7-3.9 5.4-6.1C186.1 91 185.5 90.4 185.1 90.8z"/>

    <path class="svg-clr-black" d="M66.5 207.2c-1.5-0.1-2.8-0.3-4.2 0.1 -1.5 0.4-2.8 1.4-4.1 2.3 -0.5 0.3-0.1 1.1 0.5 0.8 1.3-0.7 2.6-1.4 4-1.9 1.3-0.5 2.6-0.5 4-0.9C66.8 207.6 66.8 207.3 66.5 207.2z"/>

    <path class="svg-clr-black" d="M56.9 200.8c-1.3 0.6-3 0.5-4.4 0.5 -1.6 0-3.2 0-4.8-0.1 -0.6 0-0.6 0.9 0 1 2.1 0.3 4.2 0.6 6.3 0.2 0.9-0.2 2.7-0.2 3.2-1.2C57.4 201 57.1 200.7 56.9 200.8z"/>

    <path class="svg-clr-black" d="M88 8.6c-0.2-0.6-0.5-1.2-0.7-1.8 -0.2-0.7-0.3-1.4-0.7-2 -0.3-0.5-1.3-0.7-1.6 0 -1.3 3 3 4.8 3.2 7.5 0 0.2 0.3 0.2 0.3 0C88.7 11 88.5 10 88 8.6z"/>

    <path class="svg-clr-black" d="M91.9 5.6c-0.1-1.2 0-2.4-0.3-3.5 -0.2-0.6-1.2-0.7-1.3 0 -0.3 1.1 0.1 2.2 0.3 3.2 0.3 1.2 0.6 2.4 0.8 3.7 0 0.1 0.2 0.1 0.2 0C92 7.8 92 6.8 91.9 5.6z"/>

    <path class="svg-clr-black" d="M81.2 8.9c-0.3-0.5-0.5-0.9-0.7-1.4 -0.2-0.5-0.3-1-0.6-1.4 -0.5-0.6-1.7-0.8-1.9 0.3 -0.5 2.7 3.2 3.5 4.2 5.4 0.1 0.1 0.3 0 0.3-0.1C82.1 10.6 81.7 9.7 81.2 8.9z"/>

    <path class="svg-clr-black" d="M190.5 86.7c-2.9 2-5.4 4.4-7.8 7 -0.4 0.5-6.9 7.9-6.5 8 -0.1-0.1-0.3 0-0.3 0.1 0 0.1 0 0.2 0 0.3 -0.1 0.4 0.3 0.7 0.6 0.5 1-0.5 1.6-1.4 2.3-2.2 1.4-1.6 3-3 4.5-4.6 2.6-2.7 5.5-5.2 8.2-7.9C192.1 87.3 191.3 86.2 190.5 86.7z"/>

    <path class="svg-clr-black" d="M178.3 75c-0.1-0.8-1.3-1-1.4-0.2 -0.4 2.6-0.7 5.2-1.1 7.7 -0.3 1.7-0.5 5-1.7 6.3 -0.2 0.2-0.1 0.7 0.3 0.6 1.4-0.1 1.8-2.2 2.1-3.3C177.6 82.6 178.7 78.8 178.3 75z"/>
  </g>
</svg>
