<svg xmlns="http://www.w3.org/2000/svg" viewBox="0 0 1918.23 755.93"><defs><style>.cls-1,.cls-16{fill:#fff;}.cls-2{fill:#ffd797;}.cls-3{fill:#1dace2;}.cls-4{fill:#454849;}.cls-5{fill:#0a76bd;}.cls-6{fill:#e0b376;}.cls-7{fill:#85c556;}.cls-8{fill:#e0ad68;}.cls-11,.cls-9{fill:#fcb553;}.cls-9{opacity:0.3;}.cls-10,.cls-16{opacity:0.5;}.cls-12{fill:#f9af97;}.cls-13{fill:#c7c9c9;}.cls-14{fill:#d2edf5;}.cls-15{fill:#f5c134;}.cls-17{fill:#3c2415;}.cls-18{fill:#6b4e2f;}.cls-19{fill:#f489a2;}.cls-20{fill:#e4c196;}.cls-21{opacity:0.1;}</style></defs><title>Artboard 1</title><g id="Layer_2" data-name="Layer 2"><path class="cls-1" d="M1853,460.39h-7.95q-3,0-5.88.26-2.91-.26-5.88-.26h-7.95c-.49,0-1,0-1.47,0s-1,0-1.47,0h-21a64.92,64.92,0,0,0-42.4,15.69h-11.34A65.13,65.13,0,0,0,1693.48,505h-12.43a65.08,65.08,0,0,0-21.68,3.69,65.09,65.09,0,0,0-21.68-3.69h-30.63a64.87,64.87,0,0,0-33.09,9,130.5,130.5,0,0,0-44.56-7.55,128.57,128.57,0,0,0-47.8,8.82q-3.09,1.23-6.08,2.61A105.8,105.8,0,0,0,1456,507.16c-1.82-.76-3.65-1.46-5.49-2.12a65,65,0,0,0,4.67-24.24V407.46a134.52,134.52,0,0,0-3.73-32.11,96.09,96.09,0,0,0-19.76-39.18,94.91,94.91,0,0,0-37-26.75c-12.78-5.26-27.3-7.93-43.15-7.93a114.67,114.67,0,0,0-27.39,3.24,65.72,65.72,0,0,0-9.27-.65h-17.26a64.93,64.93,0,0,0-28.35,6.47,127.69,127.69,0,0,0-97.24,1.13q-4.28,1.91-8.33,4.11a110.72,110.72,0,0,0-24.18-9.75A135.21,135.21,0,0,0,1090,302.3a65.21,65.21,0,0,0-60.43-40.72h-18.34a65.33,65.33,0,0,0-14.77,1.7,65.33,65.33,0,0,0-14.77-1.7H963.34a65.33,65.33,0,0,0-14.77,1.7,65.33,65.33,0,0,0-14.77-1.7H915.45A64.89,64.89,0,0,0,885.3,269a119.77,119.77,0,0,0-16.56-5.91,147.93,147.93,0,0,0-39.35-5.16,144.62,144.62,0,0,0-37.54,4.94,121.92,121.92,0,0,0-38.3,17.7,106.23,106.23,0,0,0-21.17,19.52l-7.49-1.2q.15-2.8.15-5.63V276.84a103.64,103.64,0,0,0-29.24-72.22,107.68,107.68,0,0,0-3.53-16.24q1-2.92,1.87-5.72c9.57-31.61,7.61-67.46-5.67-103.67a214.11,214.11,0,0,0-21.6-43.4,66.22,66.22,0,0,0-30-24.37,65.17,65.17,0,0,0-55.8-8.33A65.16,65.16,0,0,0,511.24,31a300.39,300.39,0,0,1-19.66,26.31,41.71,41.71,0,0,1-10.16,3.53,76,76,0,0,1-17.86,1.84c-1.54,0-3,0-4.5,0-1.85,0-3.66,0-5.45,0-19.36,0-41.38,2.21-71.14,18.23a114.88,114.88,0,0,0-40.24,36.3q-4.82-.9-9.68-1.41c-21.3-13.86-46.65-21.38-73.82-21.38-48.2,0-98.08,23-130.17,60.07A136.47,136.47,0,0,0,104,194.85a114.71,114.71,0,0,0-29.09,15.33c-15.3,11.48-24.79,27.54-34.52,47.21a65.18,65.18,0,0,0-29.08,79.75,65.18,65.18,0,0,0-8.34,49.18l2.69,11.76a102.19,102.19,0,0,0-3.58,54c4.23,21.59,14.35,40.07,28.22,53.53a65.12,65.12,0,0,0,73.46,48.12l17.64-2.83a64.92,64.92,0,0,0,20.55,0l.6-.1a80.15,80.15,0,0,0,4.48,18,65.08,65.08,0,0,0,17.2,25.07q.82,1.42,1.7,2.81c-1.76,1.32-3.5,2.68-5.18,4.12-20.39,17.45-32.6,41.77-34.14,67.54a65.92,65.92,0,0,0-.24,6.85l.15,8.54a65.2,65.2,0,0,0,65.19,64.05h1.15l83.52-1.47A65.42,65.42,0,0,0,290,744.67a65.42,65.42,0,0,0,13.64,1.69l65.89,1.16a65.22,65.22,0,0,0,14.7,1.68h.86l65.82-.86h.57l18.38-.24H470l2.87,0a65.29,65.29,0,0,0,14.6-1.86,65.29,65.29,0,0,0,14.6,1.86l2.88,0h.16l18.23.24h.72l65.82.86h.86a65,65,0,0,0,41.62-15,64.93,64.93,0,0,0,41.62,15h66.44a142.78,142.78,0,0,0,48.17-7.92,64.89,64.89,0,0,0,39.75,13.53H859a64.92,64.92,0,0,0,41.26-14.72,65.21,65.21,0,0,0,17.38,2.36h15.11a64.89,64.89,0,0,0,39.68,13.48H1003a65.08,65.08,0,0,0,21.68-3.69,65.09,65.09,0,0,0,21.68,3.69H1077a64.9,64.9,0,0,0,39.68-13.48h12.56a65.1,65.1,0,0,0,21.27-3.55,65.15,65.15,0,0,0,21.22,3.55H1209a102.17,102.17,0,0,0,15.83,5.92,120.14,120.14,0,0,0,32.54,4.38,134.7,134.7,0,0,0,30.39-3.47,65.45,65.45,0,0,0,9.3.66h31.06a65.12,65.12,0,0,0,28.08-6.36h20.89a66,66,0,0,0,7.77-.46,129.65,129.65,0,0,0,29.34,3.27,107.51,107.51,0,0,0,41.86-8.54q2.77-1.16,5.45-2.48a118.68,118.68,0,0,0,20.63,10.38,136,136,0,0,0,94.46.08,119.67,119.67,0,0,0,17.44-8.34q4.26,2.25,8.83,4.13c13.32,5.48,28,8.14,45,8.14a108.37,108.37,0,0,0,26.61-3.31,66,66,0,0,0,8.11.5h29.12a65.06,65.06,0,0,0,21.89-3.78,98.35,98.35,0,0,0,26,7.64,155.27,155.27,0,0,0,23.29,1.71c4,0,8.18-.1,12.25-.28a136.05,136.05,0,0,0,16.46-1.7,65.2,65.2,0,0,0,54.39-64.29V662.51a65.19,65.19,0,0,0-9.35-33.64,64.91,64.91,0,0,0,6-13.12,65.21,65.21,0,0,0,55.61-64.49V525.58A65.2,65.2,0,0,0,1853,460.39Z"/></g><g id="Layer_1" data-name="Layer 1"><rect class="cls-2" x="321.63" y="408.08" width="110.96" height="35.41"/><rect class="cls-3" x="395.44" y="404.37" width="44.48" height="42"/><path class="cls-4" d="M854.73,347.82q-10.25-7.44-26.21-7.44a62.66,62.66,0,0,0-12.73,1.29A33.77,33.77,0,0,0,804.68,346a22.69,22.69,0,0,0-7.77,8.09A25,25,0,0,0,794,366.69q0,7.12,4.21,11.54a31.13,31.13,0,0,0,11.22,7.23,94.12,94.12,0,0,0,15.85,4.64q8.84,1.84,18,4t18,5.07A59.35,59.35,0,0,1,877.16,407a37.54,37.54,0,0,1,11.22,12.51q4.21,7.56,4.21,19,0,12.3-5.5,21A45.32,45.32,0,0,1,873,473.79a61.37,61.37,0,0,1-19.31,8,93.62,93.62,0,0,1-21.25,2.48A90.23,90.23,0,0,1,807.92,481a60.36,60.36,0,0,1-20.28-9.81,46.48,46.48,0,0,1-13.81-16.83q-5.07-10.24-5.07-24.27h19.42A34.76,34.76,0,0,0,792,446.83a34.25,34.25,0,0,0,9.92,11.54,41.9,41.9,0,0,0,14.34,6.69,65.77,65.77,0,0,0,16.83,2.15A76.75,76.75,0,0,0,847,465.92a40.87,40.87,0,0,0,12.62-4.42,25.09,25.09,0,0,0,9.06-8.52q3.45-5.39,3.45-13.81,0-8-4.21-12.94a30.91,30.91,0,0,0-11.22-8.09,81.93,81.93,0,0,0-15.85-5.07q-8.85-1.94-18-4t-18-4.74a65,65,0,0,1-15.85-7.12,34,34,0,0,1-11.22-11.43q-4.21-7-4.21-17.58,0-11.65,4.75-20.17a41.43,41.43,0,0,1,12.62-14,56.68,56.68,0,0,1,17.91-8.2,79,79,0,0,1,20.6-2.7,82.42,82.42,0,0,1,22,2.8,49.89,49.89,0,0,1,17.8,8.84A42.74,42.74,0,0,1,881.26,350q4.42,9.17,4.85,21.89H866.7Q865,355.26,854.73,347.82Z"/><path class="cls-4" d="M915.45,349.22V326.78h18.34v22.44Zm18.34,20.06V480.81H915.45V369.28Z"/><path class="cls-4" d="M981.67,326.78v154H963.34v-154Z"/><path class="cls-4" d="M1011.22,349.22V326.78h18.34v22.44Zm18.34,20.06V480.81h-18.34V369.28Z"/><path class="cls-4" d="M1124.68,388.7q-6.91-5.83-18.55-5.83-9.92,0-16.61,3.67a29.65,29.65,0,0,0-10.68,9.71,40.77,40.77,0,0,0-5.72,13.91,75.65,75.65,0,0,0-1.73,16.29,61.92,61.92,0,0,0,1.83,15.1A40.4,40.4,0,0,0,1079,454.6a29,29,0,0,0,10.14,9.16,30.32,30.32,0,0,0,14.88,3.45q13.59,0,21.25-7.12t9.38-20.06h18.77q-3,20.71-15.43,31.92t-33.76,11.22a58.12,58.12,0,0,1-22.54-4.1,43.6,43.6,0,0,1-16.39-11.65,50.25,50.25,0,0,1-9.92-18,75.06,75.06,0,0,1-3.34-23,81.78,81.78,0,0,1,3.24-23.41,54.12,54.12,0,0,1,9.81-19,46.06,46.06,0,0,1,16.5-12.73q9.92-4.64,23.08-4.64a67.41,67.41,0,0,1,17.8,2.26,43.46,43.46,0,0,1,14.67,7,38.36,38.36,0,0,1,10.46,12,44.13,44.13,0,0,1,5.17,17.15h-19Q1131.59,394.52,1124.68,388.7Z"/><path class="cls-4" d="M1171.28,402.18a52,52,0,0,1,10.35-18.55,48.71,48.71,0,0,1,17-12.4,56.55,56.55,0,0,1,23.3-4.53q13.38,0,23.41,4.53a49,49,0,0,1,16.94,12.4,52.09,52.09,0,0,1,10.35,18.55,74.29,74.29,0,0,1,3.45,23,73.26,73.26,0,0,1-3.45,22.87,52.21,52.21,0,0,1-10.35,18.45,47.72,47.72,0,0,1-16.94,12.29q-10,4.42-23.41,4.42a57.76,57.76,0,0,1-23.3-4.42,47.43,47.43,0,0,1-17-12.29A52.07,52.07,0,0,1,1171.28,448a73.13,73.13,0,0,1-3.45-22.87A74.16,74.16,0,0,1,1171.28,402.18Zm18.66,41a37.63,37.63,0,0,0,7.44,13.16,32.18,32.18,0,0,0,11.11,8.09,33.81,33.81,0,0,0,27,0,32.24,32.24,0,0,0,11.11-8.09,37.69,37.69,0,0,0,7.44-13.16,61.45,61.45,0,0,0,0-36,39,39,0,0,0-7.44-13.27,31.7,31.7,0,0,0-11.11-8.19,33.79,33.79,0,0,0-27,0,31.64,31.64,0,0,0-11.11,8.19,38.89,38.89,0,0,0-7.44,13.27,61.54,61.54,0,0,0,0,36Z"/><path class="cls-4" d="M1314.94,369.28V387h.43q11.43-20.27,36.24-20.28,11,0,18.34,3a30.22,30.22,0,0,1,11.87,8.41,31.29,31.29,0,0,1,6.36,12.84,69.12,69.12,0,0,1,1.83,16.5v73.34h-18.34V405.3q0-10.35-6-16.4t-16.61-6a37.35,37.35,0,0,0-14.56,2.59,27.29,27.29,0,0,0-10.25,7.34,31.5,31.5,0,0,0-6.15,11.11,45.21,45.21,0,0,0-2,13.91v63h-18.34V369.28Z"/><path class="cls-3" d="M740.43,530a79.31,79.31,0,0,1,27.72,4.75A60.14,60.14,0,0,1,790.36,549,65.78,65.78,0,0,1,805,572.68q5.28,14.24,5.28,33.43A106.75,106.75,0,0,1,806,637.18a68.4,68.4,0,0,1-13,24.59,61.23,61.23,0,0,1-21.79,16.29Q758.11,684,740.43,684H674V530Zm-2.37,125.54a43.56,43.56,0,0,0,14.24-2.37,31.31,31.31,0,0,0,12.3-7.87,39.62,39.62,0,0,0,8.63-14.35q3.24-8.84,3.23-21.57a89.77,89.77,0,0,0-2.26-21,41.94,41.94,0,0,0-7.44-16.07A33,33,0,0,0,753,562q-8.52-3.56-21-3.56H707.85v97.07Z"/><path class="cls-5" d="M857.47,578.08v20.71h.43a37.54,37.54,0,0,1,5.82-9.6,38.32,38.32,0,0,1,8.41-7.55,41.23,41.23,0,0,1,10.14-4.85,36.59,36.59,0,0,1,11.22-1.72,24,24,0,0,1,6.69,1.07v28.47q-2.16-.42-5.18-.76a55.94,55.94,0,0,0-5.82-.32,32.64,32.64,0,0,0-14.24,2.8,24.71,24.71,0,0,0-9.38,7.65,30.69,30.69,0,0,0-5.07,11.33,61.52,61.52,0,0,0-1.51,14V689.6H828.35V578.08Z"/><path class="cls-3" d="M917.62,548.47V523.23h30.63v25.24Zm30.63,17.26V677.25H917.62V565.72Z"/><path class="cls-5" d="M1001.52,579.21v15.53h.65a35.18,35.18,0,0,1,15.1-14.13,43.71,43.71,0,0,1,19-4.42q12.3,0,20.17,3.34a30,30,0,0,1,12.4,9.28,35.92,35.92,0,0,1,6.36,14.46,90,90,0,0,1,1.83,18.87v68.6h-30.63v-63q0-13.8-4.31-20.6t-15.32-6.79q-12.52,0-18.13,7.44t-5.6,24.48v58.46H972.4V579.21Z"/><path class="cls-3" d="M1129.27,523.23v82.62l38.61-40.12h36.24l-42.06,41,46.81,70.54h-37.1l-30.63-49.83-11.86,11.44v38.39h-30.63v-154Z"/><path class="cls-5" d="M1228.24,589.6a36.73,36.73,0,0,1,12.08-11.43,52.67,52.67,0,0,1,16.5-6.15,94,94,0,0,1,18.45-1.83,125.76,125.76,0,0,1,17,1.19,52.27,52.27,0,0,1,15.75,4.64,31.05,31.05,0,0,1,11.65,9.6q4.53,6.15,4.53,16.29v58a115.65,115.65,0,0,0,.86,14.45q.86,6.91,3,10.35h-31.06a43.76,43.76,0,0,1-1.4-5.28,46.11,46.11,0,0,1-.76-5.5,39.92,39.92,0,0,1-17.26,10.57,69.35,69.35,0,0,1-20.28,3,54.8,54.8,0,0,1-14.89-1.94,34.06,34.06,0,0,1-12.08-6,28.14,28.14,0,0,1-8.09-10.35,35,35,0,0,1-2.91-14.89q0-9.49,3.34-15.64a27.94,27.94,0,0,1,8.63-9.81,38.77,38.77,0,0,1,12.08-5.5,129.59,129.59,0,0,1,13.7-2.91q6.91-1.07,13.59-1.72a82,82,0,0,0,11.86-1.94,20.7,20.7,0,0,0,8.19-3.77q3-2.48,2.81-7.23a16.24,16.24,0,0,0-1.62-7.87,11.86,11.86,0,0,0-4.31-4.53,17.12,17.12,0,0,0-6.26-2.15,51.67,51.67,0,0,0-7.65-.54q-9.06,0-14.24,3.88t-6,12.94h-30.63Q1223.49,596.73,1228.24,589.6Zm60.51,43.26a49.62,49.62,0,0,1-6.26,1.62q-3.34.65-7,1.08c-2.44.29-4.89.65-7.33,1.08a54.57,54.57,0,0,0-6.79,1.72,20.07,20.07,0,0,0-5.83,2.91,13.87,13.87,0,0,0-4,4.64A15,15,0,0,0,1250,653a14.42,14.42,0,0,0,1.51,6.9,11.59,11.59,0,0,0,4.1,4.42,17.22,17.22,0,0,0,6,2.26,38.66,38.66,0,0,0,7.12.64q9.07,0,14-3a20.18,20.18,0,0,0,7.33-7.23,23.1,23.1,0,0,0,2.91-8.52,59.35,59.35,0,0,0,.54-6.9V630.16A13.78,13.78,0,0,1,1288.75,632.86Z"/><path class="cls-3" d="M1378.59,524.35v56.09h.43a32.73,32.73,0,0,1,15.21-12.62,51.5,51.5,0,0,1,20-4,42.49,42.49,0,0,1,31.38,14,54,54,0,0,1,10.68,18.23q4.1,11.11,4.09,26.42t-4.09,26.43a53.94,53.94,0,0,1-10.68,18.22,42.52,42.52,0,0,1-31.38,14,58.8,58.8,0,0,1-22-3.89,27.88,27.88,0,0,1-14.67-13.16h-.43v14.24H1348v-154Zm49.61,84.77a35.56,35.56,0,0,0-4.75-11.43,24.81,24.81,0,0,0-8.09-7.87,25,25,0,0,0-23.41,0,24.47,24.47,0,0,0-8.2,7.87,35.54,35.54,0,0,0-4.74,11.43,59.78,59.78,0,0,0-1.51,13.6,58.68,58.68,0,0,0,1.51,13.37,35.51,35.51,0,0,0,4.74,11.44,24.48,24.48,0,0,0,8.2,7.87,25,25,0,0,0,23.41,0,24.82,24.82,0,0,0,8.09-7.87,35.52,35.52,0,0,0,4.75-11.44,58.7,58.7,0,0,0,1.51-13.37A59.8,59.8,0,0,0,1428.2,609.12Z"/><path class="cls-5" d="M1475.91,606.32a51,51,0,0,1,29.77-30.41,63.58,63.58,0,0,1,23.73-4.21,64.46,64.46,0,0,1,23.84,4.21,50.75,50.75,0,0,1,29.87,30.41,68.51,68.51,0,0,1,4.1,24.27,67.6,67.6,0,0,1-4.1,24.16,52.4,52.4,0,0,1-11.65,18.45,50.75,50.75,0,0,1-18.23,11.76,66.13,66.13,0,0,1-23.84,4.1,65.22,65.22,0,0,1-23.73-4.1,50.9,50.9,0,0,1-18.12-11.76,52.28,52.28,0,0,1-11.65-18.45,67.5,67.5,0,0,1-4.1-24.16A68.41,68.41,0,0,1,1475.91,606.32Zm27.82,37.32a34.71,34.71,0,0,0,4.42,11.43,23.57,23.57,0,0,0,8.3,8.09q5.18,3,12.94,3a26,26,0,0,0,13.05-3,23.28,23.28,0,0,0,8.41-8.09,34.8,34.8,0,0,0,4.42-11.43,65.46,65.46,0,0,0,1.29-13,67.16,67.16,0,0,0-1.29-13.16,33.63,33.63,0,0,0-4.42-11.43,24.5,24.5,0,0,0-8.41-8.09,25.25,25.25,0,0,0-13.05-3.13q-7.76,0-12.94,3.13a24.83,24.83,0,0,0-8.3,8.09,33.55,33.55,0,0,0-4.42,11.43,67.16,67.16,0,0,0-1.29,13.16A65.46,65.46,0,0,0,1503.74,643.63Z"/><path class="cls-3" d="M1682.56,681.74V666.21h-.64a34.44,34.44,0,0,1-15.1,14,44.53,44.53,0,0,1-19,4.32q-12.3,0-20.17-3.24a29.08,29.08,0,0,1-12.4-9.17,35.84,35.84,0,0,1-6.36-14.45,89.74,89.74,0,0,1-1.83-18.87v-68.6h30.63v63q0,13.8,4.31,20.6t15.32,6.79q12.51,0,18.12-7.44t5.61-24.48V570.22h30.63V681.74Z"/><path class="cls-5" d="M1800.74,574.71V595.2h-22.43v55.23q0,7.76,2.58,10.35t10.36,2.59q2.59,0,5-.22a41.65,41.65,0,0,0,4.53-.64v23.73a72.4,72.4,0,0,1-8.63.86q-4.75.22-9.27.21a89.61,89.61,0,0,1-13.48-1,31.74,31.74,0,0,1-11.22-3.77,20,20,0,0,1-7.66-8q-2.8-5.17-2.8-13.59V595.2h-18.55V574.71h18.55V541.27h30.63v33.44Z"/><path class="cls-5" d="M1801.41,530.33v-4.74h21v4.74h-7.69v20.93h-5.64V530.33Z"/><path class="cls-5" d="M1833.34,525.59l6,17.65h.07l5.68-17.65H1853v25.67h-5.28V533.06h-.07l-6.29,18.19H1837l-6.29-18h-.07v18h-5.28V525.59Z"/><path class="cls-6" d="M406.44,506c2.17-5.3,20.45-52.58-5.59-78.91-29.53-29.86-75.94-18.68-77.91-18.19l7.82,31.58c.31-.07,30.54-7.1,47,9.48,8.63,8.73,2.65,33.7-1.41,43.75Z"/><path class="cls-6" d="M184.07,471.61c1.14,0,2.29,0,3.43-.08,29.78-1.24,89.69-34.68,101.39-41.37l-16.14-28.25c-24.46,14-69.61,36.4-86.61,37.12-30.69,1.25-65.11-24.94-65.46-25.21l-19.93,25.72C102.48,440.89,142.56,471.61,184.07,471.61Z"/><path d="M216.5,546.2c0,19.11,17.87,33.51,40.21,33.51h68.77c22.34,0,40.5-14.39,40.5-33.51v-3.46c0-19.11-18.16-35.63-40.5-35.63H256.72c-22.34,0-40.21,16.53-40.21,35.63Z"/><path class="cls-7" d="M384.74,412.3l-13.39,34.11c-16.07-7.47-35-4.91-35.27-4.87l-4.73-36.4C332.91,404.9,359.41,401.1,384.74,412.3Z"/><path class="cls-7" d="M191.17,438.69c13.44-5.9,26.46-12.14,36.4-17.25l17.93,28.25c-5.82,3-22.38,11.35-41.86,19.78Z"/><path class="cls-3" d="M207.89,545.54c-4.91-12.81-1.39-153,81.17-153s86.07,140.18,81.17,153Z"/><polygon class="cls-6" points="254.25 674.58 275.12 674.31 283.9 562.48 246.44 562.65 254.25 674.58"/><path class="cls-6" d="M191.7,675.4c0-.36-.08-.72-.08-1.08-.25-18.57,17.62-33.86,39.9-34.15s40.54,14.53,40.79,33.1c0,.36,0,.72-.05,1.08Z"/><polygon class="cls-6" points="325.38 674.58 304.51 674.31 295.73 562.48 333.19 562.65 325.38 674.58"/><path class="cls-6" d="M387.93,675.4c0-.36.08-.72.08-1.08.25-18.57-17.62-33.86-39.9-34.15s-40.54,14.53-40.79,33.1c0,.36,0,.72.05,1.08Z"/><ellipse class="cls-8" cx="276.2" cy="318.04" rx="114.68" ry="120.13"/><path class="cls-9" d="M259.93,431.66c63.34,0,114.68-53.78,114.68-120.13,0-48-26.87-89.39-65.71-108.63,47.4,14.75,82,60.71,82,115.14,0,66.34-51.35,120.13-114.68,120.13a110,110,0,0,1-49-11.49A110,110,0,0,0,259.93,431.66Z"/><path class="cls-9" d="M182.33,251.9c4.27-11.59,14.61-22.4,25.2-30.94H344.86c.53,0-.23,1.71-.23,2.13v44.85H182.33Z"/><g class="cls-10"><path class="cls-11" d="M391.61,315.57c8.54.2,12.58,5.91,12.58,12.93s-4,12.74-12.58,12.94Z"/><circle class="cls-2" cx="392.9" cy="336.39" r="7.98"/></g><path d="M315.32,353.36c-.93,25.62-24.47,45.15-53.45,45.15S209.35,379,208.42,353.36Z"/><circle class="cls-12" cx="336.65" cy="361.72" r="16.27"/><circle class="cls-12" cx="186.98" cy="361.72" r="16.27"/><path class="cls-13" d="M289.47,353.36c-.84,8.54-7.78,15.57-16.23,15.57a15.91,15.91,0,0,1-15.23-10c-2.34,6.13-8.27,9.8-15.23,9.8-8.44,0-15.39-6.79-16.22-15.34Z"/><path class="cls-1" d="M284.79,353.36c-.84,8.54-7.78,15.57-16.22,15.57a15.91,15.91,0,0,1-15.23-10c-2.34,6.13-8.27,9.8-15.23,9.8-8.44,0-15.39-6.79-16.22-15.34Z"/><polygon class="cls-14" points="93.4 489.39 158.6 478.92 147.34 358.8 66.49 371.78 93.4 489.39"/><polygon class="cls-15" points="149.78 384.77 158.6 478.92 93.4 489.39 72.31 397.21 149.78 384.77"/><polygon class="cls-16" points="118.94 366.65 138.22 363.56 149.48 483.68 131.6 486.55 118.94 366.65"/><path class="cls-6" d="M66,439.58c3,15.29,13.38,26.11,23.2,24.19s15.34-15.88,12.35-31.16S88.2,406.5,78.38,408.43,63,424.3,66,439.58Z"/><circle class="cls-6" cx="385.45" cy="514.65" r="28.2"/><polygon class="cls-1" points="150.08 388.02 73.04 400.39 71.58 394.03 149.47 381.52 150.08 388.02"/><polygon points="251.87 640.42 277.8 640.14 283.9 562.48 246.44 562.65 251.87 640.42"/><polygon points="327.76 640.42 301.83 640.14 295.73 562.48 333.19 562.65 327.76 640.42"/><path class="cls-17" d="M388.38,676.4s0-.46,0-1.21c0-.37,0-.82-.12-1.29l-.1-.77c0-.27-.35-.28-.47-.5l-4.91-5-4.91-5c-.22-.12-.21-.44-.51-.46l-.77-.11c-.48-.08-.92-.11-1.29-.15-.74-.06-1.19-.06-1.19-.06s0,.45,0,1.19c0,.37.05.81.12,1.29l.1.77c0,.29.34.3.45.52l4.91,5,4.91,5c.21.13.22.44.49.48l.77.11c.47.08.92.11,1.29.14C387.91,676.41,388.38,676.4,388.38,676.4Z"/><path class="cls-17" d="M373.5,661.85s.22-.38.51-1c.14-.31.31-.69.46-1.11l.25-.67c.08-.23-.19-.34-.2-.56l-2.16-5.69-2.16-5.69c-.14-.17,0-.44-.25-.54l-.63-.33c-.39-.21-.77-.38-1.07-.53-.62-.28-1-.42-1-.42s-.2.37-.49,1c-.14.31-.31.69-.45,1.11l-.25.67c-.12.25.17.35.18.57l2.16,5.69,2.16,5.69c.13.17,0,.43.22.55l.63.33c.38.21.77.38,1.08.52C373.09,661.71,373.5,661.85,373.5,661.85Z"/><path class="cls-17" d="M374.1,661.85s-.46-.11-1.23-.21c-.38,0-.84-.11-1.34-.13l-.8-.05c-.28,0-.37.3-.62.38l-6.26,3.95-6.26,3.95c-.18.19-.5.13-.59.42l-.3.75c-.19.46-.34.9-.46,1.26-.24.72-.35,1.18-.35,1.18s.46.09,1.21.19c.38,0,.84.1,1.33.12l.8.05c.3,0,.38-.28.63-.36l6.26-3.95,6.26-3.95c.18-.19.5-.14.61-.39l.3-.75c.2-.46.34-.9.46-1.26C374,662.31,374.1,661.85,374.1,661.85Z"/><rect class="cls-17" x="342.35" y="635.87" width="8.54" height="83.53" transform="translate(-337.01 1012.29) rotate(-88.99)"/><rect class="cls-17" x="191.61" y="673.37" width="83.53" height="8.54" transform="translate(-11.91 4.22) rotate(-1.01)"/><path class="cls-17" d="M192.14,674.58s.46,0,1.21,0c.37,0,.82,0,1.3-.08l.78-.08c.27,0,.29-.34.51-.46l5.13-4.78,5.13-4.78c.13-.21.45-.2.48-.5l.13-.77c.09-.47.14-.92.18-1.28.08-.73.09-1.19.09-1.19s-.45,0-1.19,0c-.37,0-.81,0-1.29.09l-.78.08c-.29,0-.3.33-.53.44l-5.13,4.78L193,670.85c-.13.21-.44.21-.5.47l-.13.77c-.09.47-.14.92-.17,1.29C192.14,674.12,192.14,674.58,192.14,674.58Z"/><path class="cls-17" d="M207.65,660.7s.42-.12,1.06-.37c.32-.13.71-.28,1.1-.48l.65-.31c.22-.11.11-.38.24-.54l2.41-5.59,2.41-5.59c0-.22.31-.31.2-.56l-.22-.68c-.13-.42-.28-.81-.41-1.13-.25-.64-.44-1-.44-1s-.41.13-1,.38c-.31.13-.7.28-1.1.48l-.65.31c-.25.1-.12.37-.27.53l-2.41,5.59-2.41,5.59c0,.21-.3.31-.23.55l.22.68c.13.42.28.81.41,1.13C207.44,660.31,207.65,660.7,207.65,660.7Z"/><path class="cls-17" d="M207.05,660.67s.08.47.29,1.21c.1.37.23.82.4,1.28l.27.76c.1.26.42.23.59.42l6.08,4.22,6.08,4.22c.25.09.32.41.62.38l.81,0c.5,0,1,0,1.34-.07.76-.06,1.22-.14,1.22-.14s-.09-.46-.3-1.19c-.11-.36-.23-.81-.41-1.28l-.27-.76c-.08-.29-.41-.24-.57-.44l-6.08-4.22L211,660.84c-.24-.09-.32-.4-.6-.41l-.81,0c-.5,0-1,0-1.34.07C207.52,660.59,207.05,660.67,207.05,660.67Z"/><path class="cls-18" d="M72.31,314.22c9.58-.89,13.31-4.39,17.08-9.39s15.89-35.94,24.62-42.51,34-14.6,42.72-7.69,16.64,14,17.4,18.82,10.45,46.33-19.54,63.7S78.47,325.45,72.31,314.22Z"/><path class="cls-19" d="M166.07,231.82c-5.18-.82-11.2,16.4-10.59,21.72s14.17,19.69,18.28,18.59,12.14-14.52,10.53-20.21S174.35,233.14,166.07,231.82Z"/><path class="cls-18" d="M315.32,188.42c6.68,9.79-16.14,64.71-81.3,69.17,8.07-6.69,11-7.43,17.87-15.62-23.43,15.62-55.07,25.52-89.95-.56C153.58,183.4,269.91,121.9,315.32,188.42Z"/><path class="cls-18" d="M286.78,190.93c-7.53,5.07-6.3,60.63,43,64-6.11-5.07-7.39-10.47-12.61-16.67,17.74,11.83,12,31.73,71,27.13C400.94,219.17,340.83,154.54,286.78,190.93Z"/><rect class="cls-1" x="141.76" y="261.53" width="102.5" height="68.33" rx="27.11" ry="27.11"/><path class="cls-20" d="M139.63,302.75V288.65a29.28,29.28,0,0,1,29.25-29.25h48.27a29.28,29.28,0,0,1,29.25,29.25v14.11A29.28,29.28,0,0,1,217.15,332H168.88A29.28,29.28,0,0,1,139.63,302.75Zm29.25-39.08a25,25,0,0,0-25,25v14.11a25,25,0,0,0,25,25h48.27a25,25,0,0,0,25-25V288.65a25,25,0,0,0-25-25Z"/><rect class="cls-1" x="248.53" y="261.53" width="102.5" height="68.33" rx="27.11" ry="27.11"/><path class="cls-20" d="M246.4,302.75V288.65a29.28,29.28,0,0,1,29.25-29.25h48.28a29.28,29.28,0,0,1,29.25,29.25v14.11A29.28,29.28,0,0,1,323.92,332H275.64A29.28,29.28,0,0,1,246.4,302.75Zm29.25-39.08a25,25,0,0,0-25,25v14.11a25,25,0,0,0,25,25h48.28a25,25,0,0,0,25-25V288.65a25,25,0,0,0-25-25Z"/><path d="M208.59,274.3a14.81,14.81,0,0,1,3,.34l-1.32,18.08,10.26-12.65a20.73,20.73,0,0,1,4.81,13.49c0,10.64-7.49,19.25-16.75,19.25s-16.74-8.62-16.74-19.25S199.35,274.3,208.59,274.3Z"/><path d="M299.9,274.3a15.08,15.08,0,0,1,3,.34l-1.32,18.08,10.26-12.65a20.73,20.73,0,0,1,4.81,13.49c0,10.63-7.5,19.25-16.75,19.25s-16.74-8.62-16.74-19.25S290.65,274.3,299.9,274.3Z"/><path class="cls-18" d="M472.12,314.22c-9.58-.89-13.31-4.39-17.08-9.39s-15.89-35.94-24.62-42.51-34-14.6-42.72-7.69-16.64,14-17.4,18.82-10.45,46.33,19.54,63.7S466,325.45,472.12,314.22Z"/><path class="cls-19" d="M378.36,231.82c5.18-.82,11.2,16.4,10.59,21.72s-14.17,19.69-18.28,18.59-12.14-14.52-10.53-20.21S370.07,233.14,378.36,231.82Z"/><path class="cls-2" d="M598.77,469.57c-1.2,0-2.4,0-3.61-.08C563.83,468.19,500.78,433,488.47,426l17-29.73c25.74,14.7,73.25,38.31,91.14,39.06,32.3,1.32,68.51-26.24,68.88-26.53l21,27.06C684.61,437.24,642.44,469.57,598.77,469.57Z"/><path class="cls-3" d="M591.29,434.93c-14.14-6.21-27.84-12.77-38.31-18.15L534.12,446.5c6.12,3.15,23.55,11.94,44,20.82Z"/><path d="M564.85,548.06c0,20.11-19,35-42.53,35H450c-23.51,0-42.11-14.87-42.11-35v-3.64c0-20.11,18.6-38.38,42.11-38.38h72.36c23.51,0,42.53,18.27,42.53,38.38Z"/><path class="cls-7" d="M573.69,547c5.16-13,1.46-161-85.41-161s-90.57,148-85.41,161Z"/><polygon points="524.91 683.15 502.95 682.86 493.71 565.18 533.13 565.37 524.91 683.15"/><path d="M590.74,684c0-.38.09-.76.09-1.14.26-19.54-18.54-35.63-42-35.93s-42.66,15.29-42.92,34.83c0,.38,0,.75.06,1.14Z"/><polygon points="450.06 683.15 472.03 682.86 481.26 565.18 441.85 565.37 450.06 683.15"/><path d="M384.24,684c0-.38-.08-.76-.08-1.14-.26-19.54,18.54-35.63,42-35.93s42.66,15.29,42.92,34.83c0,.38,0,.75-.06,1.14Z"/><ellipse cx="600.84" cy="219.56" rx="30.81" ry="36.81"/><ellipse class="cls-2" cx="501.82" cy="307.97" rx="120.67" ry="126.41"/><path class="cls-9" d="M518.94,427.53c-66.65,0-120.67-56.59-120.67-126.41,0-50.5,28.28-94.06,69.14-114.31-49.88,15.52-86.26,63.88-86.26,121.16,0,69.81,54,126.41,120.67,126.41a115.72,115.72,0,0,0,51.53-12.09A115.8,115.8,0,0,1,518.94,427.53Z"/><path class="cls-9" d="M600.85,238.38c-5-12.19-15.63-23.34-26.78-33.34H429.57c-.56,0,.28,2.58.28,3v47h171Z"/><circle class="cls-2" cx="614.96" cy="319.27" r="28.67"/><circle class="cls-9" cx="614.96" cy="319.27" r="28.67"/><circle class="cls-2" cx="378.72" cy="315.85" r="28.67"/><g class="cls-10"><path class="cls-11" d="M379.85,305.38a13.62,13.62,0,0,0,0,27.22Z"/><circle class="cls-2" cx="379.02" cy="327.28" r="8.4"/></g><path d="M460.65,345c1,28,25.75,47.51,56.24,47.51S572.16,373,573.14,345Z"/><circle class="cls-12" cx="438.21" cy="353.94" r="17.12"/><circle class="cls-12" cx="595.7" cy="353.94" r="17.12"/><path d="M576.87,217c104.66-43,36-144.94,36-144.94s-2,37-17.12,49.07c-5.71,4.56,4.57-55.92,4.57-55.92l-32,41.08L566,66.34a356.58,356.58,0,0,1-26.37,35.06c-12.09,14-32.6,20.58-44.38,23.14-39.38,8.56-48.23-4.43-81.89,13.7-33.38,18-30,65.05-30,65.05s-47.93,20.54-14.63,82.54c3.11,5.79,23.18,18.46,23.18,18.46l-3.42,27.39,41.09,3.42S406.77,233.6,463.88,218.7C503.26,208.43,535.21,234.11,576.87,217Z"/><rect class="cls-1" x="545.85" y="246.04" width="108" height="72" rx="28.53" ry="28.53"/><path class="cls-1" d="M528.85,289.64A28.56,28.56,0,0,1,500.15,318h-50.8a28.4,28.4,0,0,1-28.51-28.4V274.8A28.7,28.7,0,0,1,449.35,246h50.8a28.86,28.86,0,0,1,28.69,28.76Z"/><path d="M581.94,261.95a15.58,15.58,0,0,0-3.15.36l1.38,19L569.39,268a21.82,21.82,0,0,0-5.06,14.19c0,11.19,7.89,20.26,17.62,20.26s17.61-9.07,17.61-20.26S591.67,261.95,581.94,261.95Z"/><path d="M472.38,261.95a15.87,15.87,0,0,0-3.15.36l1.38,19L459.83,268a21.82,21.82,0,0,0-5.07,14.19c0,11.19,7.89,20.26,17.63,20.26S490,293.4,490,282.21,482.11,261.95,472.38,261.95Z"/><path class="cls-13" d="M487.85,345c.88,9,8.19,16.43,17.07,16.43,7.32,0,13.55-4.09,16-10.54,2.46,6.45,8.7,10.28,16,10.28,8.88,0,16.19-7.17,17.07-16.17Z"/><path class="cls-1" d="M492.78,345c.88,9,8.19,16.43,17.07,16.43,7.32,0,13.56-4.09,16-10.54,2.46,6.45,8.7,10.28,16,10.28,8.89,0,16.19-7.17,17.07-16.17Z"/><polygon class="cls-14" points="694.17 488.28 625.56 477.26 637.41 350.86 722.49 364.52 694.17 488.28"/><polygon class="cls-15" points="634.85 378.19 625.56 477.26 694.17 488.28 716.36 391.28 634.85 378.19"/><polygon class="cls-16" points="667.29 359.12 647.01 355.86 635.16 482.27 653.97 485.28 667.29 359.12"/><path class="cls-2" d="M723,435.87c-3.15,16.08-14.08,27.48-24.41,25.45s-16.14-16.71-13-32.78,14.08-27.48,24.41-25.45S726.12,419.79,723,435.87Z"/><rect class="cls-21" x="443.85" y="246.04" width="85" height="28"/><rect class="cls-21" x="555.85" y="246.04" width="86" height="28"/><path d="M655.85,292.93A39.37,39.37,0,0,1,616.69,332h-49a39.14,39.14,0,0,1-38.89-39.11V276.47A38.56,38.56,0,0,1,567.73,238h49c21.43,0,39.15,17,39.15,38.43Zm-24-14.63A18.26,18.26,0,0,0,613.59,260H564.11a18.26,18.26,0,0,0-18.26,18.26v13.48A18.26,18.26,0,0,0,564.11,310h49.48a18.26,18.26,0,0,0,18.26-18.26Z"/><path class="cls-4" d="M659.85,293.24A38.8,38.8,0,0,1,621,332H571.65a38.8,38.8,0,0,1-38.8-38.8V276.84a38.8,38.8,0,0,1,38.8-38.8H621a38.8,38.8,0,0,1,38.8,38.8Zm-18-15.23c0-10.09-9-18-19.07-18H573.9a17.84,17.84,0,0,0-18.06,18v12.92A18,18,0,0,0,573.9,309h48.87c10.08,0,19.07-8,19.07-18.12Z"/><path d="M542.85,292.93a39.26,39.26,0,0,1-39,39.11h-49a39.24,39.24,0,0,1-39-39.11V276.47c0-21.43,17.58-38.43,39-38.43h49c21.43,0,39,17,39,38.43Zm-22-14.63A18.26,18.26,0,0,0,502.59,260H453.11a18.26,18.26,0,0,0-18.26,18.26v13.48A18.26,18.26,0,0,0,453.11,310h49.48a18.26,18.26,0,0,0,18.26-18.26Z"/><path class="cls-4" d="M547.85,293.24A38.8,38.8,0,0,1,509,332H459.65a38.8,38.8,0,0,1-38.8-38.8V276.84a38.8,38.8,0,0,1,38.8-38.8H509a38.8,38.8,0,0,1,38.8,38.8Zm-18-14.94A18.26,18.26,0,0,0,511.59,260H462.11a18.26,18.26,0,0,0-18.26,18.26v13.48A18.26,18.26,0,0,0,462.11,310h49.48a18.26,18.26,0,0,0,18.26-18.26Z"/><polygon class="cls-1" points="634.53 381.6 715.6 394.62 717.13 387.93 635.17 374.77 634.53 381.6"/></g></svg>