<svg class="svg-logo-ds" xmlns="http://www.w3.org/2000/svg" xmlns:xlink="http://www.w3.org/1999/xlink" version="1.1" id="Layer_1" x="0" y="0" viewBox="0.1 829.9 595.3 427" enable-background="new 0.1 829.9 595.3 427" xml:space="preserve">
  <g id="Layer_4">
    <path class="svg-clr-white" fill="#FFFFFF" d="M196.5 922.6c0.4 0.6 0.9 1.4 1.2 1.7 0.6-0.5 2.9-3.3 3.9-5.8 2.2-5.1 2.4-11 0.8-17.3 -0.6-2.3-1.5-4.7-2.8-7.2 -1.3-2.5-2.9-4.5-4.6-5.9 -1.7-1.4-3.6-2.3-5.4-2.7 -0.8-0.2-1.7-0.3-2.5-0.3 -2.8 0-5.6 0.9-8.4 2.6 -2.1 1.3-3.4 2.3-3.6 2.6 0 0.4 1.6 2.8 2.8 4.5 0.5 0.7 1 1.5 1.5 2.2 2.4 3.6 4.2 6.4 5.5 8.3s2.5 3.8 3.8 5.6l3.5 5.2c1.1 1.7 2.1 3.2 3.1 4.5C195.7 921.4 196.2 922 196.5 922.6z"/>

    <path class="svg-clr-white" fill="#FFFFFF" d="M363.6 892.4c0.8 0.3 1.8 0.7 2.3 0.8 0.1-0.6 0.2-1.8 0.2-2.7 0-0.8 0.1-1.6 0.2-2.3 0.3-3 0.6-5.9 0.8-8.7 0.2-3 0.5-7.3 0.7-9.9 -0.8 1.2-4 6-4 6 -3 4.5-5.2 8-6.5 10.2 -0.3 0.5-0.7 1-1 1.6 -0.4 0.6-1 1.5-1.2 2 0.6 0.2 1.8 0.6 2.8 0.9 1 0.3 2.2 0.7 3.2 1C361.9 891.7 362.8 892 363.6 892.4z"/>

    <path class="svg-clr-white" fill="#FFFFFF" d="M592.6 994.8c5.3-7.1-1.6-27.6-7-33.4 -5.1-5.5-19.6-8.9-21.6-12.6 -2.9-5.6-0.7-14.3-4.7-20.3 -2.8-4.2-20.9-21.5-21.2-2.7 -0.2 15.8-5.6 23.5-7.2 25.6 -13.6-20-32.5-34.3-54-34.3 -6.3 0-12.7 1.3-18.8 3.9 -0.7 0.3-1.4 0.6-2.1 0.9 -8.2-9.6-16.5-19.1-24.8-28.6 -5.6-8.1-11.7-15.4-18.9-22 -14.1-16.7-30.7-30.8-52-36.9 -11.2-3.2-23.6-3.3-35.1-3.9 -13.2-0.7-26.5-0.5-39.7 0.3 -25.7 1.4-51.4 5.7-76.3 12.5 -33.1 9.1-74.7 25.5-84.2 60.8 -4.9 5.2-9.3 10.9-13.4 16.8 -27 5-51.1 27.2-64 57.1 -1.7-3.3-3.9-7.9-7.4-14.2 -6.2-11-14-21.4-18.9-18.5 -11 6.6-2.9 21.2-11.4 25.9 -8.6 4.7-11.3 27.7-8.6 35.6 2.5 7.5 15.4 17 15.5 21.5 0.2 6.7-5.9 14.2-4.8 21.8 0.8 5.2 10.7 29.8 19.7 11.6 2.8-5.6 5.8-9.9 8.5-13.1 6.5 29.9 26.1 54.5 56.5 70.8 4.4 7.1 9 14.1 13.6 21 4.3 6.5 8.8 12.9 13.4 19.2 8 12.3 17 23.8 27.8 33.8 2.9 3.1 5.8 6.2 8.7 9.1 18.1 18.1 38 36.1 61.8 46 23.9 10 51.9 9.7 77.2 6.2 23.9-3.3 48.2-8.4 71.7-13.9 46.3-10.8 84.8-36.1 109.7-76.9 12.4-20.3 20.4-43.2 24.5-66.8 2.4-1.3 4.7-2.5 7-3.8 31.6-17.1 46.1-51.9 38.8-93.2 -0.1-0.3-0.1-0.7-0.2-1 4.5-0.3 7.6 4.2 19.7 13.1 9.6 7.1 20.3 13.2 23.2 8.9C600 1011.4 587.3 1001.8 592.6 994.8zM184 912.1l-4-5.6c-1.3-1.9-2.6-3.7-3.8-5.4 -2.4-3.3-4.6-6.1-6.2-8.2 -0.5-0.6-0.7-1.2-0.6-1.8 0.1-0.8 0.6-1.5 1.5-2.3 2.1-1.7 3.8-3 5.2-3.8 4.5-2.8 8.9-4.3 12.8-4.3 4 0 7.5 1.5 10.5 4.4 1.8 1.8 3.4 4 4.7 6.6s2.2 5.1 2.9 7.7c0.6 2.4 0.9 4.9 1 7.3 0.1 2.3-0.1 4.6-0.5 6.8 -0.4 2.2-1 4.2-1.9 6.1 -1.8 3.9-4.2 6.9-7.6 9.2 -0.4 0.3-0.8 0.4-1.2 0.4 -0.3 0-0.5-0.1-0.7-0.2 -0.4-0.2-0.8-0.6-1.2-1.1l-1.4-2.1c-0.7-1-5.7-8.4-5.7-8.4C186.5 915.7 185.3 913.9 184 912.1zM227.9 1179.6c-0.1 0.1-0.1 0.2-0.2 0.3 -0.1 0.2-0.3 0.5-0.5 1 -0.3 0.5-0.9 0.9-1.6 1.1 -0.3 0.1-0.5 0.1-0.8 0.1 -0.4 0-0.8-0.1-1.1-0.3 -0.6-0.3-1-0.8-1.2-1.5 -0.1-0.5-0.1-1.2 0.5-2 0.9-1.2 1.5-2 1.8-2.6 0.3-0.6 0.5-1.2 0.5-1.8s0-1.3-0.3-1.9c-0.5-1.3-1.4-2.4-2.9-3.2 -1.2-0.7-2.3-1-3.5-1 -0.4 0-0.9 0-1.3 0.1 -1.8 0.4-3.2 1.4-4.2 2.9 -1.1 1.7-1.7 3.1-1.9 4.4 -0.2 1.3-0.2 2.6 0 3.8 0.2 1.3 0.6 2.6 1.2 3.8 0.6 1.3 1.2 2.6 1.8 3.9 0.7 1.3 1.3 2.6 1.9 3.9 0.7 1.4 1.2 2.8 1.5 4.1 0.8 3.2 0.5 6.3-0.9 9.2 -1.7 3.5-4.3 5.6-7.7 6.4 -0.9 0.2-1.7 0.3-2.6 0.3 -2.7 0-5.6-0.9-8.6-2.6 -3.7-2.1-6.1-5-7.1-8.5 -0.9-3.2-0.6-6 1-8.4 1.2-1.7 2.3-2.6 3.5-2.6 0.5 0 1 0.2 1.4 0.5 1 0.7 1.4 1.4 1.3 2.2 -0.1 0.7-0.5 1.5-1.2 2.6 -0.6 1-1 2-1.2 3 -0.2 1-0.1 2 0.2 3 0.6 2 2.1 3.7 4.6 5.1 1.8 1 3.5 1.5 5.1 1.5 0.6 0 1.2-0.1 1.7-0.2 2.1-0.5 3.7-1.9 4.9-4.4 1.6-3.2 1.4-6.9-0.8-11.6 -0.6-1.2-1.9-4-1.9-4 -0.6-1.3-1.2-2.7-1.8-4.1 -0.5-1.4-0.9-2.9-1.1-4.3 -0.4-3.1 0.3-6.1 2.1-8.8s4.2-4.3 7.2-4.9c0.7-0.1 1.5-0.2 2.2-0.2 2.1 0 4.1 0.6 6.1 1.7 2.4 1.4 4 3.2 4.7 5.5C229.9 1173.8 229.5 1176.9 227.9 1179.6zM232.1 910.4c-0.6-0.2-1.1-0.9-1.5-2.1 -0.3-1-0.8-2.3-1.4-4l-1.9-5.4c-1.4-3.8-2.6-7.3-3.9-10.5 -1.2-3.2-2.2-5.8-2.9-7.6 -0.7-1.8-1.4-3.5-2-5 -1.3-3-2.5-5.9-3.5-7.9 -0.5-0.9-0.3-1.6-0.1-2.1 0.3-0.5 0.8-0.9 1.5-1.2 0.5-0.2 0.9-0.3 1.4-0.3 0.2 0 0.5 0 0.7 0.1 0.6 0.1 1.3 0.5 1.7 1.6l1.3 4.2c0.2 0.8 0.5 1.7 0.9 2.6 0.4 1 1.8 5 4.4 12 2.5 7 5.4 14.4 8.4 22 0.4 1 0.2 1.7-0.1 2.1 -0.3 0.6-0.8 1-1.3 1.2 -0.3 0.1-0.6 0.2-0.9 0.2C232.7 910.5 232.4 910.5 232.1 910.4zM252.1 1181.1l-1.5 4.1c-0.3 0.8-0.6 1.6-0.9 2.6 -0.3 1-1.7 5.1-3.9 12.2 -2.6 8-4.8 15.4-6.8 22.5 -0.2 0.8-0.8 1.4-1.6 1.6 -0.3 0.1-0.6 0.1-1 0.1s-0.8-0.1-1.1-0.2c-0.7-0.2-1.2-0.6-1.6-1.1 -0.5-0.6-0.5-1.5 0-2.7 0.4-0.9 0.9-2.2 1.5-3.9 0.6-1.7 1.3-3.4 2-5.3 1.4-3.6 2.6-7.2 3.8-10.5 1.1-3.3 2-5.8 2.6-7.7 0.6-1.8 1.2-3.5 1.7-5.1 1.1-3.3 2-6.2 2.5-8.3 0.2-0.8 0.6-1.3 1.1-1.6 0.3-0.1 0.6-0.2 0.9-0.2s0.5 0 0.8 0.1c0.6 0.2 1.1 0.6 1.4 1.1C252.3 1179.3 252.6 1180 252.1 1181.1zM253.1 898.5c-3-3.7-5.7-9.8-7.8-18.2 -2.2-8.7-2-15.5 0.8-20.1 1.9-3.2 5.1-5.3 9.4-6.2 1.3-0.3 2.5-0.4 3.6-0.4 4.3 0 9.7 2.2 11.2 12.5 0.1 0.9 0 1.5-0.4 2 -0.3 0.4-0.9 0.7-1.5 0.8 -0.1 0-0.3 0-0.4 0 -0.5 0-0.9-0.1-1.3-0.3 -0.4-0.2-0.9-0.7-1.1-1.6 -0.8-5.8-2.9-8.9-6.1-9.2 -0.3 0-0.5 0-0.8 0 -0.9 0-2 0.2-3.2 0.4 -1.6 0.4-2.9 1.2-4 2.5 -1.1 1.3-1.9 2.9-2.4 4.8 -0.9 3.6-0.6 8.3 0.9 14.3 2.9 12.1 6.7 18.6 11.1 19 0.2 0 0.4 0 0.6 0 0.5 0 1.1-0.1 1.6-0.2 3.6-0.7 5.4-4.3 5.3-11.1 0-1 0-3.6-0.2-4.4 -1.2 0.1-3.5 0.7-4.3 0.9 -1.4 0.4-2.4 0.7-3 0.8 -0.2 0-0.4 0-0.5 0 -0.5 0-0.9-0.1-1.3-0.4 -0.5-0.4-0.8-0.8-1-1.4 -0.1-0.6 0-1.1 0.4-1.6 0.4-0.5 1.1-0.8 2-0.9 0.7 0 1.4-0.1 2.1-0.2l2-0.3c1.2-0.2 2-0.4 2.6-0.5 1-0.3 1.9-0.5 2.4-0.5 0.2 0 0.3 0 0.5 0 1.2 0 2 0.8 2.2 2.1 0.8 6 0.4 11.1-1.2 15 -1.6 4-4 6.2-7.5 6.9 -0.7 0.1-1.5 0.2-2.2 0.2C258.3 903 255.6 901.5 253.1 898.5zM264.6 1227.5c5.7 1 11.2 1.5 16.3 1.7 1.1 0 1.9 0.3 2.4 0.8 0.6 0.5 0.9 1.1 0.8 1.7 0 0.6-0.4 1.1-1 1.6 -0.5 0.3-1 0.5-1.7 0.5 -0.2 0-0.5 0-0.8-0.1 -1.5-0.2-3.3-0.4-5.2-0.6 -1.9-0.2-3.5-0.4-4.8-0.6l-0.3-0.1c-1.2-0.2-2.4-0.4-3.5-0.6 -1.2-0.2-2.2-0.4-3-0.5 -1.2-0.2-2-0.3-2.3-0.4 -0.7 0-1.2-0.2-1.6-0.3 -0.4-0.2-0.7-0.4-1-0.6 -0.7-0.7-1-1.5-0.6-2.3 0.2-0.6 0.8-1.4 1.6-2.5 0.8-1 1.8-2.3 3-3.8 1.2-1.5 2.5-3.1 3.9-5 1.4-1.8 2.9-3.8 4.3-5.8 1.4-2 2.8-4 4.2-6.2 1.3-2 2.5-4.1 3.7-6.2 1.9-3.4 3.8-7.6 4.3-9 -0.4-0.1-1.1-0.1-1.7-0.2 -0.8-0.1-1.6-0.1-2.3-0.2 -2.4-0.3-4.4-0.6-5.8-0.8 -0.8-0.1-1.4-0.2-1.9-0.3 -1.6-0.2-2.6-0.6-3.1-1.3 -0.3-0.4-0.4-0.9-0.3-1.4 0.1-0.4 0.4-1 1.2-1.5 0.4-0.2 0.8-0.3 1.4-0.3 0.3 0 0.5 0 0.8 0.1 2.4 0.5 3.6 0.8 5.9 1.2 1.7 0.2 3 0.4 3.9 0.4l2.3 0.1c0.2 0 0.5 0 0.7 0 0.3 0 0.6 0 0.9 0 0.1 0 0.2 0 0.3 0 0.6 0 1.2 0.2 1.7 0.5 0.5 0.3 1.1 0.9 1 2.3 -0.1 1.1-1.8 4.8-4.4 9.4 -3.1 5.5-5.5 9.2-6.3 10.6 -1.2 1.8-2.4 3.7-3.6 5.5 -1.2 1.8-2.4 3.5-3.6 5.1 -0.6 0.9-3.2 4.5-3.2 4.5 -1.4 2-2.4 3.4-3.1 4.4L264.6 1227.5zM295.2 898.5c-0.5 0.4-1.1 0.6-1.7 0.7l0 0c-0.6 0-1.1-0.2-1.5-0.6 -0.5-0.4-0.7-1.2-0.7-2.4 0-1 0-2.4 0-4.2v-5.7c0-4 0-7.7-0.1-11.2s-0.1-6.2-0.2-8.1c-0.1-1.9-0.1-3.7-0.2-5.3 -0.2-3.4-0.3-6.5-0.6-8.6 -0.1-1.1 0.3-1.7 0.6-2 0.5-0.4 1.1-0.6 1.8-0.6l0 0c0.7 0 1.4 0.2 2 0.5 0.5 0.3 1.1 0.9 1 2.1l-0.2 4.4c0 0.8 0 1.7-0.1 2.8 0 1.1 0 5.3 0.1 12.8 0 7.4 0.2 15.3 0.5 23.5C296 897.6 295.6 898.2 295.2 898.5zM380.9 918.3c2.3-3.6 5.2-8.7 8.8-15.5 3.5-6.4 5.6-10.4 6.5-12 0.8-1.5 1.5-2.9 2.2-4.2 1.2-2.3 2.2-4.7 3.1-7.1 0.3-0.8 0.9-1.3 1.7-1.4 0.1 0 0.2 0 0.3 0 0.6 0 1.2 0.2 1.7 0.5 0.8 0.5 1.4 1.1 1.6 1.8 0.2 0.7 0.1 1.6-0.4 2.5 -1.1 2-2.3 4.1-3.6 6.3 -1.1 1.9-2.1 3.7-3.1 5.3l-4 6.9c-0.9 1.5-2.3 3.7-3.7 5.9 -2.6 4-6.9 10.7-6.6 11.8 0.3 0.7 4.5 2.7 7 4 1.3 0.6 2.5 1.2 3.4 1.7 0.8 0.5 1.4 1 1.6 1.8 0.2 0.7 0.1 1.4-0.2 1.9 -0.2 0.3-0.7 0.8-1.6 0.8h-0.1c-0.6 0-1.3-0.3-1.9-0.7 -2.1-1.6-4.3-3-6.5-4.2 -2.6-1.4-4-2.1-4.4-2.3 -0.6-0.2-1-0.4-1.3-0.7 -0.3-0.2-0.5-0.5-0.6-0.8C380.4 919.8 380.5 919 380.9 918.3zM344.3 899.7c0.7-1.1 1.4-2.4 2.2-3.7l3.1-5.4c1.1-1.8 2.2-3.7 3.3-5.6 1.1-1.9 2.3-3.8 3.5-5.8 1.2-1.9 2.4-3.8 3.5-5.6s2.2-3.4 3.2-5c0.7-1.1 1.3-2 1.8-2.7l0.6-1c0.9-1.4 2-2.1 3.3-2.1 0.4 0 0.8 0.1 1.3 0.2 0.7 0.3 1.3 0.7 1.8 1.4 0.5 0.7 0.6 1.7 0.4 3.1 -0.1 1.3-0.3 3.1-0.6 5.4l-0.7 7.6c-0.3 2.7-0.5 5.5-0.8 8.3 0 0-2.1 19.3-2.4 22.2 -0.1 1.2-0.7 1.7-1.1 2 -0.4 0.2-0.8 0.3-1.1 0.3 -0.2 0-0.4 0-0.7-0.1 -0.5-0.2-0.9-0.5-1.2-0.9 -0.3-0.5-0.4-1.3-0.2-2.5 0.2-1.1 0.4-2.8 0.8-5.2 0.2-1.4 0.4-2.9 0.6-4.4l0.4-3.4c-0.5-0.3-2.2-0.8-3.5-1.2 -0.7-0.2-1.4-0.5-2.1-0.7l-2-0.7c-1.8-0.6-3.8-1.4-4.6-1.5 -1.2 2.3-2.4 4.3-3.4 6.2 -1.3 2.2-2.3 4.2-3.1 5.7 -0.6 1.1-1.4 1.4-2 1.4 -0.2 0-0.5 0-0.7-0.1 -1.2-0.3-1.8-1.1-1.8-2.3 0-0.4 0.2-0.9 0.6-1.4C343.1 901.7 343.6 900.8 344.3 899.7zM326.5 1231.8c-0.5 0.6-1.3 0.9-2.3 1 -1.5 0.1-3.3 0.3-5.2 0.5 -1.9 0.2-3.5 0.3-4.9 0.4l-0.9 0.1c-1 0.1-2 0.1-3 0.2l-2.9 0.1c-1.3 0.1-2.1 0.1-2.5 0.1 -0.4 0.1-0.7 0.1-1 0.1 -0.2 0-0.4 0-0.6 0 -0.4-0.1-0.8-0.2-1.1-0.4 -0.9-0.5-1.3-1.3-1.1-2.1 0.1-0.6 0.4-1.5 1-2.8 0.5-1.2 1.3-2.6 2.1-4.3 0.8-1.7 1.8-3.6 2.8-5.7s2-4.3 3-6.6c1-2.3 1.9-4.6 2.8-7 0.8-2.2 1.5-4.4 2.2-6.8 1.1-3.8 2.1-8.2 2.2-9.7 -0.5 0-1.1 0.1-1.7 0.2 -0.7 0.1-1.5 0.2-2.3 0.3 -2.4 0.2-4.4 0.4-5.8 0.5 -0.8 0.1-1.4 0.1-1.9 0.2 -0.4 0-0.7 0.1-1 0.1 -2.5 0-2.9-1.2-2.9-1.9 0-0.6 0.3-1.2 0.8-1.7 0.5-0.4 1.2-0.7 2.1-0.7h0.8c1.9 0 3.1 0 5.2-0.1 1.7-0.1 3-0.3 3.9-0.4l2.2-0.3c0.5-0.1 1-0.2 1.6-0.4 0.3-0.1 0.7-0.2 1-0.2 0.4 0 0.7 0.1 1.1 0.2 0.6 0.2 1.3 0.7 1.5 2.1 0.2 1.1-0.7 5-2.2 10.1 -1.7 5.5-3 9.3-3.9 11.7 -0.8 2.1-1.5 4.1-2.3 6.1 -0.8 2-1.6 3.9-2.4 5.8 -0.4 1-2.2 5.1-2.2 5.1 -0.9 2.1-1.6 3.8-2 5h0.3c5.9-0.3 11.4-0.9 16.5-2 0.4-0.1 0.8-0.1 1.1-0.1 0.6 0 1.1 0.1 1.5 0.3 0.7 0.4 1.1 0.9 1.2 1.5C327.2 1230.6 327 1231.2 326.5 1231.8zM333.1 857.5l-1.2-0.2c-0.9-0.2-1.9-0.4-2.3-0.4 -0.4 0.5-1 5.5-1.4 8.8 -0.2 1.8-0.4 3.6-0.6 5.1 -0.8 5.5-1.4 9.3-1.7 11.4 -0.3 1.8-0.5 3.6-0.7 5.3l-0.8 6c-0.3 2.2-0.5 3.9-0.7 5.2 -0.1 0.8-0.4 1.5-1 1.8 -0.4 0.3-0.9 0.4-1.3 0.4h-0.3c-0.5-0.1-1-0.3-1.5-0.8 -0.5-0.5-0.7-1.1-0.6-1.9l0.5-3.8c1.6-11 2.4-16.6 4-27.6 0.2-1.2 0.3-2.4 0.5-3.6 0.4-2.7 0.9-6 0.8-7 -0.5-0.1-2-0.2-3-0.2l-1.4-0.1c-2.2-0.1-3.8-0.2-4.8-0.2 -1.1 0-1.9-0.3-2.4-0.7 -0.7-0.6-0.8-1.2-0.8-1.6 0-0.6 0.4-1.1 1-1.5 0.4-0.3 1-0.5 1.8-0.5 0.2 0 0.5 0 0.7 0l2.4 0.3c0.7 0.1 1.3 0.2 1.8 0.2 0 0 2.1 0.3 2.5 0.4 0.4 0.1 3.2 0.4 3.2 0.4l0.5 0.1c1.7 0.2 6.1 0.6 13.4 2 1.4 0.3 2.4 0.9 2.7 1.9 0.1 0.3 0.1 0.6 0 1 -0.1 0.5-0.5 0.8-1.1 1.1 -0.3 0.1-0.6 0.2-1 0.2 -0.4 0-0.9-0.1-1.6-0.2 -1-0.2-2-0.4-3-0.7C334.8 857.8 333.9 857.7 333.1 857.5zM370 1220.4c-0.4 0.6-1.2 1-2.2 1.4 -2.9 0.9-6.1 2-9.5 3.2 -1.6 0.6-2.9 1-3.9 1.3 -1.1 0.4-1.8 0.6-2.2 0.8 -0.7 0.3-1.3 0.5-1.7 0.5 -0.1 0-0.3 0-0.4 0 -0.3 0-0.5 0-0.8-0.1 -0.9-0.2-1.5-0.8-1.6-1.7 -0.7-4.1-2.1-9.6-4.1-17.3 -1.9-7.1-3.1-11.5-3.5-13.2 -0.5-1.7-0.9-3.2-1.3-4.6 -0.7-2.5-1.6-4.9-2.5-7.4 -0.4-1-0.1-1.7 0.2-2.1 0.4-0.5 0.8-0.9 1.4-1 0.3-0.1 0.5-0.1 0.8-0.1 0.8 0 1.9 0.4 2.5 2.5 0.6 2.2 1.3 4.5 2 7l3.8 13.6c0.5 1.7 1 4.2 1.6 6.9 1 4.6 2.7 12.3 3.7 12.9 0 0 0.1 0 0.2 0 2.3 0 10.9-3.9 13.7-5.2 0.7-0.3 1.4-0.5 2-0.5 0.2 0 0.5 0 0.7 0.1 0.8 0.2 1.4 0.6 1.6 1.2C370.5 1219 370.6 1219.6 370 1220.4zM409 1199.9c-0.3 0.7-1 1.3-1.9 1.8l-2.2 1.3c-3 1.8-5.9 3.5-8.4 5.1 -1.9 1.2-3.3 2.1-4.2 2.6 -0.5 0.3-0.9 0.5-1 0.6 -0.4 0.3-0.8 0.5-1.2 0.6s-0.7 0.2-1.1 0.2h-0.1c-1 0-1.7-0.5-2-1.3 -2-4.7-4.5-10-8-16.8 -3.1-6.1-5.1-9.9-5.9-11.4l-0.3-0.5c-0.7-1.4-1.3-2.6-1.9-3.7 -1.7-3.3-2.8-5-3.2-5.8 -1-1.6-1.1-2.1-1.1-2.5s0.2-0.8 0.4-1.1c0.3-0.4 0.7-0.7 1.3-0.9 0.8-0.3 1.9-0.8 3.1-1.4 3-1.7 4.4-2.7 4.8-3 1-0.7 1.5-1.1 1.9-1.2 0.3-0.1 0.5-0.1 0.8-0.1h0.2c0.7 0.1 1.3 0.4 1.6 0.9 0.3 0.5 0.4 1.2 0.2 1.8 -0.2 0.6-0.7 1.1-1.4 1.5 -0.6 0.3-1.2 0.7-1.9 1 -0.7 0.3-3.2 1.7-3.2 1.7 -0.9 0.5-2.2 1.1-2.6 1.4 0.2 0.5 0.8 1.5 1.2 2.2 0.4 0.6 0.8 1.3 1 1.8l2.8 5.3c0.9 1.7 1.8 3.6 2.6 5.2 1.1 2.3 2.4 4.9 2.8 5.2 0.5-0.1 3.5-2.3 4.5-3l0.7-0.5c1.5-1.1 2.4-1.5 3-1.5 0.9 0 1.4 0.5 1.6 0.8 0.3 0.4 0.3 0.9 0.2 1.4 -0.2 0.9-1.2 1.9-3 2.8 0 0-1 0.5-1.2 0.7 -1.1 0.6-1.6 0.9-2.7 1.5 -0.6 0.3-0.9 0.5-1.4 0.8l1 1.9 5 9.1 0.5 0.9c0.2 0.5 0.5 0.9 0.7 1.2 0 0 0.2 0.3 0.2 0.4 2.1-0.2 7.8-4.6 10.1-6.3l1-0.7c2.2-1.6 3.1-2.3 3.5-2.5 0.4-0.2 0.9-0.3 1.3-0.3l0 0c0.9 0 1.5 0.3 1.8 0.8C409.3 1198.3 409.5 1199 409 1199.9z"/>
  </g>

  <g id="Layer_1_1_">
    <path class="svg-clr-orange" fill="#F1B162" d="M443.4 909.6c6 5.8 12 11.7 17.5 18 -0.9-1.1-1.8-2.1-2.7-3.2 -9-10.8-18.4-21.5-27.7-32.1 2.9 4.1 5.6 8.3 8.3 12.7C440.3 906.5 441.9 908.1 443.4 909.6z"/>

    <path class="svg-clr-orange" fill="#F1B162" d="M81.1 1071c-5.7-25.2-5.5-52.4 2.7-77.2 8-24.6 21.5-46.2 37.2-66.6 10-13.1 20.1-26.6 32.4-37.5 0.4-0.7 0.9-1.1 1.3-1.8 9.7-10.6 22.5-18.1 35.8-23.9 13.7-6 27.8-12.7 42-17.3 32.1-10.4 66.8-10.4 100-6.4 21.5 2.6 43.2 6.8 62.2 17.9 6.7 3.9 12.5 8.5 17.9 13.5 -14.2-16.9-30.9-31.2-52.4-37.4 -11.1-3.3-23.4-3.3-35.2-4 -13.3-0.7-26.5-0.4-39.8 0.2 -25.7 1.3-51.3 5.8-76.3 12.4 -33.2 9.1-74.8 25.4-84.3 60.8 -8 8.6-14.8 18.6-21 28.5 -11.7 19-20.8 40.9-25.2 62.8 -4.9 24.6-4.9 50.7-1.5 75.4 3.5 26.1 18.8 48.2 33 69.7 4.4 6.7 9.1 13.4 13.9 19.9 -4.4-6.7-8.5-13.7-12.4-20.6C99.2 1117.7 86.6 1095.3 81.1 1071z"/>

    <path class="svg-clr-orange" fill="#F1B162" d="M507.9 1045.2c-1.3-20.4-5.3-40.7-12.2-59.7 -6.8-18.8-17-35.2-29-50.7 11.3 15.1 20.6 31.8 26.6 49.8 11.3 34.7 11.7 75.9 1.9 111.2 -10.2 37-32.6 69.7-62.2 93.6 -0.2 0.6-0.7 1.1-1.1 1.5 -33.2 39.1-87.9 47.3-136.3 48.4 -25.9 0.7-51.3-0.7-76.1-9.3 -23.4-8-48.1-18.7-66.8-35.5 2.4 2.6 4.9 5.1 7.4 7.7 18.1 18.1 38 36.1 61.7 46 23.9 10 52 9.7 77.2 6.2 23.9-3.3 48.2-8.4 71.7-13.9 46.2-10.8 84.7-36.1 109.7-77C501.9 1128.9 510.3 1086 507.9 1045.2z"/>

    <path class="svg-clr-orange-2" fill="#F5853F" d="M463.8 931.1c-1-1.2-1.9-2.4-2.9-3.5 2 2.4 3.9 4.8 5.8 7.2C465.7 933.6 464.7 932.3 463.8 931.1z"/>

    <path class="svg-clr-orange-2" fill="#F5853F" d="M152.1 1194.3c0.1 0.1 0.3 0.2 0.4 0.3 -10.2-10.9-19.8-22.6-28.7-34.6C132 1172.5 141.2 1184.2 152.1 1194.3z"/>

    <path class="svg-clr-orange-2" fill="#F5853F" d="M493.2 984.6c-5.9-18-15.2-34.7-26.6-49.8 -1.9-2.4-3.8-4.8-5.8-7.2 -5.5-6.3-11.5-12.2-17.5-18 -1.5-1.5-3.1-3.1-4.6-4.6 -2.7-4.4-5.4-8.6-8.3-12.7 -5.9-6.8-11.8-13.6-17.6-20.5 -0.1-0.1-0.1-0.1-0.2-0.2 -5.4-5-11.3-9.5-17.9-13.5 -19-11.1-40.7-15.3-62.2-17.9 -33.2-4-67.9-4-100 6.4 -14.2 4.6-28.3 11.3-42 17.3 -13.3 5.8-26.1 13.3-35.8 23.9 -0.4 0.7-0.9 1.1-1.3 1.8C141.1 900.5 131 914 121 927.1c-15.7 20.4-29.2 42-37.2 66.6 -8.2 24.8-8.4 52-2.7 77.2 5.5 24.3 18.1 46.7 30.3 68.4 3.9 7 8 13.9 12.4 20.6 8.9 12.1 18.4 23.7 28.7 34.6 18.8 16.8 43.4 27.4 66.8 35.5 24.8 8.6 50.2 10 76.1 9.3 48.4-1.1 103.1-9.3 136.3-48.4 0.4-0.4 0.9-0.9 1.1-1.5 29.6-23.9 52-56.6 62.2-93.6C505 1060.6 504.6 1019.3 493.2 984.6zM380.8 918.4c2.2-3.5 5.1-8.6 8.8-15.5 3.5-6.4 5.8-10.4 6.4-11.9 0.9-1.5 1.5-2.9 2.2-4.2 1.1-2.4 2.2-4.6 3.1-7.1 0.2-0.9 0.9-1.3 1.8-1.3h0.2c0.7 0 1.1 0.2 1.8 0.4 0.9 0.4 1.3 1.1 1.5 1.8 0.2 0.7 0 1.5-0.4 2.4 -1.1 2-2.4 4.2-3.5 6.2s-2.2 3.8-3.1 5.3l-4 6.9c-0.9 1.5-2.2 3.8-3.8 6 -2.7 4-6.9 10.6-6.6 11.7 0.4 0.7 4.4 2.7 7.1 4 1.3 0.7 2.4 1.1 3.3 1.8 0.8 0.3 1.1 0.9 1.4 1.5l0 0c0.1 0.1 0.1 0.3 0.1 0.4 0.2 0.7 0.2 1.2-0.2 1.7 0.1 0.4-0.4 0.8-1.5 0.8 -0.7 0-1.3-0.2-2-0.7 -2-1.5-4.2-2.9-6.4-4.2 -2.7-1.3-4-2-4.4-2.2 -0.7-0.2-1.1-0.4-1.3-0.7 -0.2-0.2-0.4-0.4-0.7-0.9C380.2 919.9 380.4 919.1 380.8 918.4zM344.1 900.3c0.7-1.1 1.3-2.4 2.2-3.8l3.1-5.3c1.1-1.8 2.2-3.8 3.3-5.5 1.1-2 2.4-3.8 3.5-5.8 1.1-2 2.4-3.8 3.5-5.5 1.1-1.8 2.2-3.5 3.3-5.1 0.7-1.1 1.3-2 1.8-2.7l0.7-0.9c0 0 0-0.1 0.1-0.1 0-0.1 0.1-0.2 0.1-0.2l0.1-0.1c0.7-0.8 1.4-1.4 2.3-1.5 0.6-0.2 1.2-0.2 1.9 0 0.3 0.1 0.5 0.2 0.7 0.4 0.4 0.3 0.8 0.6 1.2 1 0.5 0.6 0.7 1.8 0.4 3.1 -0.3 1.3-0.2 3.1-0.7 5.5l-0.7 7.5c-0.2 2.7-0.4 5.5-0.9 8.4 0 0-2.2 19.2-2.4 22.1 -0.2 1.1-0.7 1.8-1.1 2 -0.1-0.2-0.5-0.2-1-0.2 -0.2 0-0.4 0-0.7-0.2 -0.4-0.2-0.9-0.4-1.1-0.9 -0.2-0.5-0.4-1.3-0.2-2.4 0.2-1.1 0.4-2.9 0.7-5.1 0.2-1.3 0.4-2.9 0.7-4.4l0.4-3.3c-0.4-0.2-2.2-0.9-3.5-1.3 -0.7-0.2-1.3-0.4-2.2-0.7l-2-0.7c-1.8-0.7-3.8-1.3-4.6-1.5 -1.3 2.2-2.4 4.4-3.5 6.2 -1.3 2.2-2.4 4.2-3.1 5.8 -0.7 1.1-1.3 1.3-2 1.3 -0.2 0-0.4 0-0.7 0 -1.1-0.2-1.8-1.1-1.8-2.2 0-0.4 0.2-0.9 0.7-1.5C342.8 902.3 343.5 901.4 344.1 900.3zM184.1 912.3l-4-5.5c-1.3-2-2.7-3.8-3.8-5.3 -2.4-3.3-4.6-6.2-6.2-8.2 -0.4-0.7-0.7-1.1-0.7-1.8s0.7-1.5 1.5-2.2c2-1.8 3.8-2.9 5.1-3.8 4.6-2.9 8.8-4.2 12.8-4.2 4 0 7.5 1.5 10.6 4.4 1.8 1.8 3.3 4 4.6 6.6 1.3 2.7 2.2 5.1 2.9 7.7 0.7 2.4 0.9 4.9 1.1 7.3 0 2.4 0 4.6-0.4 6.9 -0.4 2.2-1.1 4.2-1.8 6.2 -1.8 4-4.2 6.9-7.5 9.1 -0.9-0.2-1.3-0.2-1.5-0.2s-0.4 0-0.7-0.2c-0.4-0.2-0.9-0.7-1.1-1.1l-1.3-2c-0.7-1.1-5.8-8.4-5.8-8.4C186.8 915.8 185.5 914.1 184.1 912.3zM227.8 1179.8c0 0-0.2 0.2-0.2 0.4 0 0.2-0.2 0.4-0.4 0.9 -0.4 0.4-0.9 0.9-1.5 1.1 -0.2 0-0.4 0.2-0.9 0.2 -0.4 0-0.7 0-1.1-0.2 -0.7-0.2-1.1-0.9-1.1-1.5 -0.2-0.4-0.2-1.3 0.4-2 0.9-1.1 1.5-2 1.8-2.7 0.2-0.7 0.4-1.1 0.4-1.8s0-1.3-0.2-2c-0.4-1.3-1.3-2.4-2.9-3.3 -0.3-0.2-0.6-0.3-0.9-0.5 -1.3-0.5-2.6-0.5-3.9-0.2 -1.9 0.4-3.3 1.4-4.3 2.9 -0.1 0.1-0.2 0.3-0.3 0.4 -0.2 0.4-0.4 0.7-0.6 1.1 -0.1 0.1-0.2 0.3-0.2 0.4 0 0 0 0 0 0.1 -0.3 0.7-0.6 1.5-0.7 2.1 -0.2 1.3-0.2 2.7 0 3.8 0.2 1.3 0.7 2.7 1.1 3.8 0.7 1.3 1.1 2.7 1.8 4 0.7 1.3 1.3 2.7 2 4 0.7 1.3 1.1 2.9 1.5 4.2 0.9 3.3 0.4 6.2-0.9 9.1 -0.1 0.3-0.3 0.5-0.4 0.8 -1.5 3.3-4 5.2-7.3 5.9s-6.9 0-10.8-2.2c-2.3-1.3-4-3-5.3-4.9 -0.9-1.2-1.6-2.5-2-3.9 -0.9-3.3-0.7-6 0.9-8.4 1.1-1.8 2.4-2.7 3.5-2.7 0.4 0 0.9 0.2 1.3 0.4 0.9 0.7 1.3 1.3 1.3 2.2 0 0.7-0.4 1.5-1.1 2.7 -0.7 0.9-1.1 2-1.1 2.9 -0.2 1.1 0 2 0.2 2.9 0.7 2 2.2 3.8 4.6 5.1 1.8 1.1 3.5 1.5 5.1 1.5 0.7 0 1.1 0 1.8-0.2 2-0.4 3.8-2 4.9-4.4 1.5-3.1 1.3-6.9-0.9-11.5 -0.7-1.3-2-4-2-4 -0.7-1.3-1.3-2.7-1.8-4.2 -0.4-1.3-0.9-2.9-1.1-4.2 -0.4-3.1 0.2-6.2 2.2-8.8 1.8-2.7 4.2-4.4 7.3-4.9 0.7-0.2 1.5-0.2 2.2-0.2 2 0 4.2 0.7 6.2 1.8 2.4 1.3 4 3.1 4.6 5.5C229.8 1174.1 229.3 1177.2 227.8 1179.8zM232.1 910.5c-0.7-0.2-1.1-0.9-1.5-2 -0.2-0.9-0.9-2.2-1.3-4l-2-5.3c-1.3-3.8-2.7-7.3-4-10.6 -1.3-3.3-2.2-5.8-2.9-7.5 -0.7-1.8-1.3-3.5-2-4.9 -1.3-3.1-2.4-6-3.5-8 -0.4-0.9-0.2-1.5 0-2 0.2-0.4 0.9-0.9 1.5-1.1 0.4-0.2 0.9-0.2 1.3-0.2 0.2 0 0.4 0 0.7 0 0.7 0 1.3 0.4 1.8 1.5l1.3 4.2c0.2 0.7 0.4 1.5 0.9 2.7 0.4 1.1 1.8 5.1 4.4 11.9 2.7 6.9 5.3 14.4 8.4 21.9 0.4 0.9 0.2 1.8 0 2 -0.4 0.7-0.9 0.9-1.3 1.1 -0.4 0.5-0.6 0.5-0.9 0.5C232.8 910.7 232.3 910.7 232.1 910.5zM252.1 1181.4l-1.5 4.2c-0.2 0.7-0.7 1.5-0.9 2.7 -0.4 1.1-1.5 5.1-4 12.2 -2.7 8-4.9 15.3-6.9 22.6 -0.2 0.9-0.9 1.3-1.5 1.5 -0.3-0.1-0.7-0.1-0.9-0.1 -0.4 0-0.7 0-1.1-0.2 -0.7-0.2-1.1-0.7-1.5-1.1 -0.4-0.7-0.4-1.5 0-2.7 0.4-0.9 0.9-2.2 1.5-4 0.7-1.8 1.3-3.5 2-5.3 1.3-3.5 2.7-7.1 3.8-10.6 1.1-3.3 2-5.8 2.7-7.7 0.7-1.8 1.1-3.5 1.5-5.1 1.1-3.3 2-6.2 2.4-8.2 0.2-0.9 0.7-1.3 1.1-1.5 0.2-0.2 0.7-0.2 0.9-0.2 0.2 0 0.4 0 0.9 0.2 0.7 0.2 1.1 0.7 1.3 1.1S252.6 1180.3 252.1 1181.4zM253 898.8c-3.1-3.8-5.8-9.7-7.7-18.1 -2.2-8.8-2-15.5 0.9-20.1 2-3.1 5.1-5.3 9.3-6.2 1.3-0.2 2.4-0.4 3.5-0.4 4.2 0 9.7 2.2 11.3 12.6 0.2 0.9 0 1.5-0.4 2 -0.4 0.4-0.9 0.7-1.5 0.9 -0.2 0-0.2 0-0.4 0 -0.4 0-0.9-0.2-1.3-0.4 -0.4-0.2-0.9-0.7-1.1-1.5 -0.9-5.8-2.9-8.8-6-9.3 -0.2 0-0.4 0-0.9 0 -0.9 0-2 0.2-3.1 0.4 -1.5 0.4-2.9 1.3-4 2.4 -1.1 1.3-2 2.9-2.4 4.9 -0.9 3.5-0.7 8.2 0.9 14.4 2.9 12.2 6.6 18.6 11.1 19 0.2 0 0.4 0 0.7 0 0.4 0 1.1 0 1.5-0.2 3.5-0.7 5.3-4.2 5.3-11.1 0-1.1 0-3.5-0.2-4.4 -1.1 0-3.5 0.7-4.2 0.9 -1.5 0.4-2.4 0.7-2.9 0.7 -0.2 0-0.4 0-0.4 0 -0.4 0-0.9-0.2-1.3-0.4 -0.4-0.4-0.9-0.9-0.9-1.3 0-0.7 0-1.1 0.4-1.5 0.4-0.4 1.1-0.9 2-0.9 0.7 0 1.3-0.2 2-0.2l2-0.2c1.1-0.2 2-0.4 2.7-0.4 1.1-0.2 1.8-0.4 2.4-0.4 0.2 0 0.2 0 0.4 0 1.3 0 2 0.7 2.2 2 0.7 6 0.4 11.1-1.1 15 -1.5 3.9-4 6.2-7.5 6.9 -1.2-0.9-2.1-0.7-2.7-0.7C258.3 903.2 255.6 901.7 253 898.8zM288 1188.9c0 1.1-1.8 4.6-4.4 9.5 -3.1 5.5-5.5 9.3-6.4 10.6 -1.1 1.8-2.4 3.8-3.5 5.5 -1.1 1.8-2.4 3.5-3.5 5.1 -0.7 0.9-3.3 4.4-3.3 4.4 -1.2 1.9-2.3 3.1-3 4.2 0.1 0 0.2 0.1 0.3 0.1 0.2 0 0.2 0 0.4 0 4.4 0.8 8.4 1.2 12.1 1.5 1.3 0.1 2.6 0.1 3.9 0.1 1.1 0 2 0.2 2.4 0.7 0.7 0.4 0.9 1.1 0.9 1.8s-0.4 1.1-1.1 1.5c-0.2-0.1-0.7 0.1-1.3 0.1 -0.2 0-0.4 0-0.9 0 -1.5-0.2-3.3-0.4-5.1-0.7 -2-0.2-3.5-0.4-4.9-0.7h-0.4c-1.1-0.2-2.4-0.4-3.5-0.4 -1.1-0.2-2.2-0.4-2.9-0.4 -1.1-0.2-2-0.4-2.4-0.4 -0.7 0-1.1-0.2-1.5-0.2 -0.4-0.2-0.7-0.4-1.1-0.7 -0.7-0.7-0.9-1.5-0.7-2.2s0.7-1.3 1.5-2.4c0.9-1.1 1.8-2.2 3.1-3.8 1.1-1.5 2.4-3.1 4-4.9 1.3-1.8 2.9-3.8 4.4-5.8 1.3-2 2.9-4 4.2-6.2 1.3-2 2.4-4 3.8-6.2 2-3.5 3.8-7.5 4.2-8.8 -0.4 0-1.1-0.2-1.8-0.2 -0.7 0-1.5-0.2-2.4-0.2 -2.4-0.2-4.4-0.7-5.8-0.9 -0.9-0.2-1.3-0.2-2-0.2 -1.5-0.2-2.7-0.7-3.1-1.3 -0.2-0.4-0.4-0.9-0.2-1.3 0-0.4 0.4-1.1 1.1-1.5 0.3-0.2 0.8-0.2 1.1-0.2 0.1 0 0.1-0.1 0.2-0.1 -0.4-0.1 0.2-0.1 0.9-0.1 2.4 0.4 3.5 0.9 6 1.1 1.8 0.2 3.1 0.4 4 0.4s1.8 0 2.2 0.2c0.4 0 1.1 0 1.8 0 0.7 0 1.1 0 1.5 0.4 0.1 0 0.1 0.1 0.2 0.2h0.1C287.5 1186.7 288.2 1187.4 288 1188.9zM295 898.1c-0.2 0.9-0.9 1.1-1.6 1.1s-1.1-0.2-1.5-0.7c-0.4-0.4-0.7-1.1-0.7-2.4 0-1.1 0-2.4 0-4.2v-5.8c0-4 0-7.7 0-11.3s-0.2-6.2-0.2-8.2 -0.2-3.8-0.2-5.3c-0.2-3.5-0.2-6.4-0.7-8.6 -0.2-1.1 0.2-1.5 0.7-2 0.4-0.4 1.1-0.7 1.8-0.7 0.7 0 1.3 0.2 2 0.4 0.4 0.2 1.1 0.9 1.1 2.2l-0.2 4.4c0 0.9 0 1.8 0 2.9s0 5.3 0 12.8c0 7.5 0.2 15.3 0.4 23.4C295.9 897.2 295.5 897.6 295 898.1zM326.8 1231.2L326.8 1231.2c0 0.4 0 0.8-0.4 1.2 -0.4 0.4-1.1 0.7-2 0.7 -1.5 0.2-3.3 0.2-5.3 0.4 -2 0.2-3.5 0.4-4.9 0.4 -1.3 0-2.7 0.2-3.8 0.2 -2.9 0.2-4.9 0.2-5.3 0.2 -0.3 0-0.5 0-0.7 0 -0.3 0.2-0.5 0.2-0.6 0.2 -0.2 0-0.4 0-0.7 0 -0.4 0-0.9-0.2-1.1-0.4 -0.9-0.4-1.3-1.3-1.1-2.2 0.2-0.7 0.4-1.5 1.1-2.9 0.4-1.1 1.3-2.7 2-4.4 0.9-1.8 1.8-3.5 2.7-5.8 0.9-2.3 2-4.2 2.9-6.6 0.9-2.2 2-4.6 2.9-7.1 0.9-2.2 1.5-4.4 2.2-6.9 1.1-3.7 1.9-7.9 2.2-9.5 -0.9 0.1-2.3 0.3-3.5 0.4 -3.8 0.4-6.4 0.4-7.7 0.7 -1.5 0.1-2.4 0-2.9-0.5 -1.2-0.3-1.5-1.1-1.5-1.8 0-0.7 0.2-1.1 0.9-1.8 0.4-0.4 1.1-0.7 2-0.7h0.9c2 0 3.1 0 5.3 0 1.8-0.2 3.1-0.2 4-0.4l2.2-0.4c0.4 0 1.1-0.2 1.5-0.4 0.2 0 0.7-0.2 1.1-0.2 0.4 0 0.7 0 1.1 0.2 0.7 0.2 1.3 0.7 1.5 2 0.2 1.1-0.7 5.1-2.2 10.2 -1.8 5.5-3.1 9.3-4 11.7 -0.7 2-1.5 4-2.2 6.2 -0.9 2-1.5 4-2.4 5.8 -0.4 1.1-2.2 5.1-2.2 5.1 -0.9 2.2-1.5 3.8-2 4.9h0.4c6-0.2 11.3-0.9 16.6-2 0.4 0 0.7-0.2 1.1-0.2 0.7 0 1.1 0.2 1.5 0.4 0.7 0.4 1.1 0.9 1.1 1.5S327.3 1230.5 326.8 1231.2zM332.6 857.7l-1.1-0.2c-0.9-0.2-2-0.4-2.2-0.4 -0.4 0.4-1.1 5.5-1.3 8.8 -0.2 1.8-0.4 3.5-0.7 5.1 -0.9 5.5-1.3 9.3-1.8 11.3 -0.2 1.8-0.4 3.5-0.7 5.3l-0.9 6c-0.2 2.2-0.4 4-0.7 5.3 0 0.9-0.4 1.5-0.9 1.8 -0.5 0.3-0.9 0.4-1.3 0.4l0.1-0.1c-0.4 0-1.1-0.4-1.5-0.9 -0.4-0.4-0.7-1.1-0.7-2l0.4-3.8c1.5-11.1 2.4-16.6 4-27.7 0.2-1.1 0.4-2.4 0.4-3.5 0.4-2.7 0.9-6 0.9-6.9 -0.4-0.2-2-0.2-2.9-0.2h-1.3c-2.2-0.2-3.8-0.2-4.9-0.2 -1.1 0-2-0.2-2.4-0.7 -0.7-0.7-0.9-1.1-0.7-1.5 0-0.7 0.4-1.1 0.9-1.5 0.4-0.4 1.1-0.4 1.8-0.4 0.2 0 0.4 0 0.7 0l2.4 0.2c0.7 0 1.3 0.2 1.8 0.2 0 0 2.2 0.2 2.4 0.4 0.4 0 3.1 0.4 3.1 0.4h0.4c1.8 0.2 6.2 0.7 13.3 2 1.3 0.2 2.4 0.9 2.7 2 0 0.2 0.2 0.7 0 1.1 0 0.4-0.4 0.9-1.1 1.1 -0.2 0.2-0.7 0.2-0.9 0.2 -0.4 0-0.9 0-1.5-0.2 -1.1-0.2-2-0.4-3.1-0.7C334.4 858.2 333.5 858 332.6 857.7zM369.9 1220.8c-0.4 0.7-1.1 1.1-2.2 1.3 -2.9 0.9-6.2 2-9.5 3.1 -1.5 0.7-2.9 1.1-4 1.3 -1.1 0.4-1.8 0.7-2.2 0.7 -0.7 0.2-1.3 0.4-1.8 0.4 0.1 0.2 0.1 0.2-0.1 0.2 -0.2 0-0.4 0-0.9 0 -0.9-0.2-1.5-0.9-1.5-1.8 -0.7-4-2-9.5-4.2-17.3 -2-7.1-3.1-11.5-3.5-13.1 -0.4-1.8-0.9-3.3-1.3-4.6 -0.7-2.4-1.5-4.9-2.4-7.3 -0.4-0.9-0.2-1.5 0.2-2 0.4-0.4 0.9-0.9 1.5-1.1 0.2 0 0.4 0 0.7 0 0.9 0 2 0.4 2.4 2.4 0.7 2.2 1.3 4.4 2 7.1l3.8 13.5c0.4 1.8 1.1 4.2 1.5 6.9 1.1 4.6 2.7 12.4 3.8 13.1 0 0 0 0 0.2 0 2.4 0 10.8-4 13.7-5.3 0.7-0.4 1.3-0.4 2-0.4 0.2 0 0.4 0 0.7 0 0.9 0.2 1.3 0.7 1.5 1.1C370.5 1219.4 370.5 1220.1 369.9 1220.8zM409.2 1200.6c-0.4 0.7-0.9 1.3-1.8 1.8l-2.2 1.3c-3.1 1.8-6 3.5-8.4 5.1 -2 1.1-3.3 2-4.2 2.7 -0.4 0.2-0.9 0.4-1.1 0.7 -0.4 0.2-0.9 0.4-1.1 0.7 -0.5-0.6-1-0.6-1.4-0.6 -0.9 0-1.8-0.4-2-1.3 -2-4.6-4.4-10-8-16.8 -3.1-6-5.1-10-6-11.5l-0.2-0.4c-0.7-1.3-1.3-2.7-2-3.8 -1.8-3.3-2.9-5.1-3.3-5.8 -1.1-1.5-1.1-2.2-1.1-2.4 0-0.4 0.2-0.9 0.4-1.1 0.2-0.4 0.7-0.7 1.3-0.9 0.9-0.2 2-0.9 3.1-1.5 3.1-1.8 4.4-2.7 4.9-3.1 0.9-0.7 1.5-1.1 2-1.1 0.2 0 0.4-0.2 0.9-0.2h0.2c0.7 0 1.3 0.4 1.5 0.9 0.4 0.4 0.4 1.1 0.2 1.8 -0.2 0.7-0.7 1.1-1.3 1.5 -0.7 0.4-1.3 0.7-2 1.1 -0.7 0.4-3.3 1.8-3.3 1.8 -0.9 0.4-2.2 1.1-2.7 1.5 0.2 0.4 0.9 1.5 1.3 2.2 0.4 0.7 0.7 1.3 1.1 1.8l2.9 5.3c0.9 1.8 1.8 3.5 2.7 5.3 1.1 2.2 2.4 4.9 2.9 5.3 0.4 0 3.5-2.2 4.4-3.1l0.7-0.4c1.5-1.1 2.4-1.5 3.1-1.5 0.9 0 1.3 0.4 1.5 0.9 0.2 0.4 0.2 0.9 0.2 1.3 -0.2 0.9-1.3 2-2.9 2.9 0 0-0.9 0.4-1.3 0.7 -1.1 0.7-1.5 0.9-2.7 1.5 -0.7 0.2-0.9 0.4-1.3 0.7l1.1 2 5.1 9.1 0.4 0.9c0.2 0.4 0.4 0.9 0.7 1.3 0 0 0.2 0.2 0.2 0.4 2-0.2 7.7-4.6 10-6.4l0.9-0.7c2.2-1.5 3.1-2.2 3.5-2.4 0.4-0.2 0.9-0.2 1.3-0.2 0.9 0 1.5 0.2 1.8 0.7C409.4 1199 409.6 1199.7 409.2 1200.6z"/>

    <path class="svg-clr-orange-2" fill="#F5853F" d="M430.5 892.3c-5.3-7.5-11.1-14.5-17.8-20.7 0.1 0.1 0.1 0.1 0.2 0.2C418.7 878.7 424.6 885.5 430.5 892.3z"/>

    <g id="Sausage_2_">
      <path class="svg-clr-grey" fill="#939598" d="M530.4 951.9c0 0 7.5-7.3 7.7-26.1 0.2-18.8 18.4-1.3 21.2 2.7 4 6 1.8 14.6 4.6 20.4 2 3.8 16.6 7.1 21.7 12.6 5.3 5.8 12.4 26.3 7.1 33.4 -5.3 7.1 7.3 16.6 0.9 26.1 -2.9 4.2-13.7-1.8-23.2-8.8 -12.8-9.5-15.7-13.9-20.6-13.1C544.6 1000.3 530.4 951.9 530.4 951.9z"/>

      <path class="svg-clr-grey-2" fill="#808285" d="M544.6 920c3.5 0.4 32.7 25-5.5 40.9 -2.2-1.5-5.8-1.8-3.3-8.6C539.5 942.1 541.1 919.6 544.6 920z"/>

      <path class="svg-clr-grey-3" fill="#6D6E71" d="M544.6 920c3.5 0.4 32.7 25-5.5 40.9 -2.2-1.5 9.1-11.1 11.5-17.9C554.3 932.8 541.1 919.6 544.6 920z"/>

      <path class="svg-clr-grey-2" fill="#808285" d="M541.7 968.2c0.7-3.3 33.6-27 47.6 8.6 7.1 18.1-31.2 10.8-38 7.7C541.1 980 541.1 971.6 541.7 968.2z"/>

      <path class="svg-clr-grey-2" fill="#808285" d="M549 990.8c0.7-3.3 40.5 3.8 41.6 19.7 1.3 19.2-23-6.6-29.9-9.7C550.6 996.1 548.4 994.1 549 990.8z"/>

      <path class="svg-clr-grey-3" fill="#6D6E71" d="M560.3 978.6c11.3 1.1 15-10.4 29-1.5 7.1 18.1-31.2 10.8-38 7.7C541.1 980 556.8 978.2 560.3 978.6z"/>

      <path class="svg-clr-grey-3" fill="#6D6E71" d="M549 990.8c0.7-3.3 40.5 3.8 41.6 19.7 1.3 19.2-16.8-11.3-23.7-14.4C556.8 991.5 548.4 994.1 549 990.8z"/>

      <path id="bg_2_" class="svg-clr-grey" fill="#939598" d="M152 933.5c59.3 30.1 183.9 47.8 310.7-5.1 66.4-27.7 122.1 122.3 41.4 163.7 -89.8 46.2-185 87.6-373.9 33.6C-27.7 1080.7 59.9 886.6 152 933.5z"/>

      <path id="shadow_2_" class="svg-clr-grey-2" fill="#808285" d="M545.9 1005.4c-101.6 145.9-391.7 151.6-502.3 30.1 3.8 37.2 28.8 73.7 86.5 90.3 189 54 297 5.8 386.8-40.5C555.4 1039.5 540.4 1023.5 545.9 1005.4z"/>

      <path id="highlight_2_" class="svg-clr-grey-4" fill="#BCBEC0" d="M71.5 972.2c0 0 13.5-47.8 113.3-9.3 95.6 36.7 152 20.8 286.6-19 44.2-13.3 45.8 42 49.1 58 -17-32.5-33-32.7-51.1-29 -130.1 28.3-131.8 53.3-290.6 12.8C130.3 973.1 114.1 953.9 71.5 972.2z"/>

      <path class="svg-clr-grey-3" fill="#6D6E71" d="M287.9 1156.6c-49.6 0-101.5-8-159.1-24.3 -62.1-17.7-96.2-62-90.7-118.2 5.1-52 43.1-94.5 84.9-94.5 10.4 0 21 2.7 31 7.7 44.7 22.8 86.9 27.7 133.2 27.7 51.1 0 106.8-7.3 170.9-33.8 6.2-2.7 12.4-3.8 18.8-3.8 36.9 0 66.6 42.3 73.9 83 7.3 41.4-7.1 76.1-38.7 93.4C455.4 1124.1 386.8 1156.6 287.9 1156.6zM123 932.8c-36.3 0-69.5 37.2-73.9 82.7 -4.9 49 25.9 87.7 82.3 103.8 56.7 16.2 107.8 24.2 156.5 24.2 96.7 0 163.9-32.1 219.5-61.9 38.3-20.6 35.6-61.7 32.5-78.3 -6.2-35-32.1-72.6-63-72.6 -5.1 0-10.2 1.1-15.3 3.1 -65 27.2-122.1 34.7-174.4 34.7 -47.8 0-91.4-5.1-137.4-28.5C140.9 935.1 132.1 932.8 123 932.8z"/>

      <path class="svg-clr-grey-3" fill="#6D6E71" d="M287 967.8c8.2 20.6 16.6 76.8 2 102.2 14.2 19.2 46 3.1 50.9-2.2 6.9-7.3 10.2-96.4-5.5-103.7C307.6 961.6 291.4 963.6 287 967.8z"/>

      <path class="svg-clr-grey-3" fill="#6D6E71" d="M277.7 970.4c-0.7 0-1.3-0.2-2-0.7 -0.4-0.4-0.9-1.1-0.9-1.8 0-0.7 0.2-1.3 0.7-1.8 0.9-1.1 2.7-1.1 3.8-0.2 0.4 0.4 0.9 1.1 0.9 1.8 0 0.7-0.2 1.3-0.7 1.8C279 970.2 278.4 970.4 277.7 970.4z"/>

      <path class="svg-clr-grey-3" fill="#6D6E71" d="M281.9 1068.3c-1.3-0.4-2.2-1.8-1.5-3.1l0 0c0.4-1.3 2-2 3.3-1.5l0 0c1.3 0.4 2 1.8 1.5 3.3l0 0c-0.4 0.9-1.3 1.5-2.4 1.8l0 0C282.6 1068.3 282.4 1068.3 281.9 1068.3zM284.8 1058.7c-1.3-0.2-2.4-1.5-2.2-2.9l0 0c0.2-1.3 1.5-2.2 3.1-2l0 0c1.3 0.2 2.4 1.5 2.2 2.9l0 0c-0.2 1.1-1.3 2-2.4 2l0 0C285.2 1058.7 285 1058.7 284.8 1058.7zM286.1 1049c-1.5-0.2-2.4-1.3-2.4-2.7l0 0c0-1.3 1.3-2.4 2.9-2.4l0 0c1.5 0 2.4 1.3 2.4 2.7l0 0c0 1.3-1.1 2.2-2.4 2.4l0 0C286.3 1048.8 286.1 1048.8 286.1 1049zM286.6 1039c-1.5 0-2.7-1.1-2.7-2.4l0 0c0-1.3 1.1-2.4 2.7-2.7l0 0c1.5 0 2.7 1.1 2.7 2.4l0 0C289.2 1037.7 288.1 1038.8 286.6 1039L286.6 1039C286.8 1039 286.6 1039 286.6 1039zM286.3 1029.1c-1.5 0-2.7-1.1-2.7-2.4l0 0c0-1.3 1.1-2.7 2.4-2.7l0 0c1.3 0 2.7 1.1 2.7 2.4l0 0C289 1027.7 287.9 1029.1 286.3 1029.1L286.3 1029.1 286.3 1029.1zM283 1016.9c-0.2-1.3 0.9-2.7 2.4-2.7l0 0c1.3-0.2 2.7 0.9 2.9 2.2l0 0 0 0 0 0c0.2 1.3-0.9 2.7-2.4 2.7l0 0 0 0 0 0C284.4 1019.3 283 1018.2 283 1016.9zM281.9 1007.2L281.9 1007.2c-0.2-1.3 0.9-2.7 2.2-2.9l0 0c1.3-0.2 2.7 0.9 2.9 2.2l0 0c0.2 1.3-0.9 2.7-2.2 2.9l0 0c0 0 0 0-0.2 0l0 0C283.3 1009.6 281.9 1008.5 281.9 1007.2zM280.6 997.4L280.6 997.4c-0.2-1.3 0.7-2.7 2.2-2.9l0 0c1.3-0.2 2.7 0.7 2.9 2.2l0 0 0 0 0 0c0.2 1.3-0.7 2.7-2.2 2.9l0 0h-0.2l0 0C281.9 999.6 280.6 998.8 280.6 997.4zM278.8 987.7c-0.2-1.3 0.7-2.7 2.2-2.9l0 0c1.3-0.2 2.9 0.7 3.1 2l0 0c0.2 1.3-0.7 2.7-2.2 2.9l0 0h-0.2l0 0C280.4 989.9 279 989 278.8 987.7zM277.1 978.2L277.1 978.2c-0.2-1.3 0.7-2.7 2-2.9l0 0c1.3-0.2 2.9 0.7 3.1 2l0 0 0 0 0 0c0.2 1.3-0.7 2.7-2 2.9l0 0c-0.2 0-0.2 0-0.4 0l0 0C278.4 980.2 277.3 979.3 277.1 978.2z"/>

      <path class="svg-clr-grey-3" fill="#6D6E71" d="M278.4 1077.2c-0.7 0-1.3-0.2-1.8-0.7 -0.4-0.4-0.9-1.1-0.9-1.8 0-0.7 0.2-1.3 0.7-1.8 0.9-1.1 2.7-1.1 3.8-0.2 0.4 0.4 0.9 1.1 0.9 1.8s-0.2 1.3-0.7 1.8C279.7 1076.9 279 1077.2 278.4 1077.2z"/>

      <path class="svg-clr-grey-3" fill="#6D6E71" d="M304.5 1090.2L304.5 1090.2c-1.5 0-2.7-1.1-2.7-2.7l0 0c0-1.3 1.1-2.4 2.7-2.4l0 0 0 0 0 0c1.5 0 2.7 1.1 2.7 2.7l0 0C307.1 1089.1 306 1090.2 304.5 1090.2L304.5 1090.2C304.7 1090.2 304.7 1090.2 304.5 1090.2zM312.2 1087.3c-0.2-1.3 0.7-2.7 2.2-2.9l0 0 0 0 0 0c1.3-0.2 2.9 0.7 3.1 2l0 0c0.2 1.3-0.7 2.7-2.2 2.9l0 0h-0.2l0 0C313.8 1089.6 312.5 1088.5 312.2 1087.3zM293.6 1088.9c-1.3-0.4-2.2-1.8-1.8-3.1l0 0c0.4-1.3 1.8-2.2 3.3-1.8l0 0c1.3 0.4 2.2 1.8 1.8 3.1l0 0c-0.2 1.1-1.3 1.8-2.4 2l0 0C294.1 1088.9 293.9 1088.9 293.6 1088.9zM322.4 1085.4c-0.4-1.3 0.4-2.7 1.8-3.1l0 0c1.3-0.4 2.9 0.4 3.3 1.8l0 0c0.4 1.3-0.4 2.7-1.8 3.1l0 0c-0.2 0-0.4 0-0.7 0.2l0 0C324 1087.1 322.8 1086.5 322.4 1085.4zM332.1 1082c-0.7-1.3 0-2.9 1.3-3.3l0 0c1.3-0.7 2.9 0 3.5 1.1l0 0c0.7 1.3 0 2.9-1.1 3.3l0 0c-0.4 0.2-0.7 0.2-0.9 0.2l0 0C333.7 1083.6 332.6 1082.9 332.1 1082zM283.5 1084.2L283.5 1084.2c-1.1-0.9-1.3-2.4-0.4-3.5l0 0c0.9-1.1 2.4-1.3 3.8-0.4l0 0 0 0 0 0c1.1 0.9 1.3 2.4 0.4 3.5l0 0c-0.4 0.7-1.1 0.9-2 1.1l0 0C284.6 1084.7 283.9 1084.7 283.5 1084.2z"/>

      <path class="svg-clr-grey-3" fill="#6D6E71" d="M343.2 1077.8c-0.7 0-1.3-0.2-2-0.7 -0.4-0.4-0.9-1.1-0.9-1.8s0.2-1.3 0.7-1.8c0.9-0.9 2.7-1.1 3.8-0.2 0.4 0.4 0.9 1.1 0.9 1.8 0 0.7-0.2 1.3-0.7 1.8C344.5 1077.4 343.9 1077.6 343.2 1077.8z"/>

      <path class="svg-clr-grey-3" fill="#6D6E71" d="M180.6 953c0 0 9.7 81.2-13.1 105.5 21 18.4 42.9 4.6 42.9 4.6s25-62.4 12.2-99.3C197.4 945.7 180.6 953 180.6 953z"/>

      <path class="svg-clr-grey-3" fill="#6D6E71" d="M172.6 950.8c-0.7 0-1.3-0.2-1.8-0.7 -0.4-0.4-0.7-1.1-0.7-1.8s0.2-1.3 0.7-1.8c0.9-0.9 2.4-0.9 3.3 0 0.4 0.4 0.7 1.1 0.7 1.8s-0.2 1.3-0.7 1.8C174 950.5 173.3 950.8 172.6 950.8z"/>

      <path class="svg-clr-grey-3" fill="#6D6E71" d="M159.7 1054.9c-1.1-0.7-1.5-2-1.1-3.3l0 0c0.7-1.1 2-1.5 3.3-0.9l0 0c1.1 0.7 1.5 2 0.9 3.3l0 0c-0.4 0.9-1.3 1.3-2.2 1.3l0 0C160.6 1055.2 160.2 1055.2 159.7 1054.9zM163.9 1046.3c-1.3-0.4-2-1.8-1.5-3.1l0 0c0.4-1.3 1.8-2 3.1-1.5l0 0c1.3 0.4 2 1.8 1.5 3.1l0 0c-0.4 0.9-1.3 1.5-2.2 1.5l0 0C164.6 1046.3 164.1 1046.3 163.9 1046.3zM167.1 1037c-1.3-0.4-2-1.5-1.8-2.9l0 0c0.4-1.3 1.5-2 2.9-1.8l0 0c1.3 0.4 2 1.5 1.8 2.9l0 0c-0.2 1.1-1.3 1.8-2.4 1.8l0 0C167.6 1037.3 167.3 1037 167.1 1037zM169.3 1027.7c-1.3-0.2-2.2-1.5-2-2.9l0 0c0.2-1.3 1.5-2.2 2.9-2l0 0c1.3 0.2 2.2 1.5 2 2.9l0 0c-0.2 1.1-1.3 2-2.4 2l0 0C169.5 1027.7 169.5 1027.7 169.3 1027.7zM170.9 1018.2c-1.3-0.2-2.2-1.3-2-2.7l0 0c0.2-1.3 1.3-2.2 2.7-2l0 0c1.3 0.2 2.2 1.3 2 2.7l0 0c-0.2 1.1-1.1 2-2.4 2l0 0C171.1 1018.2 171.1 1018.2 170.9 1018.2zM172.2 1008.7c-1.3-0.2-2.2-1.3-2.2-2.7l0 0c0.2-1.3 1.3-2.2 2.7-2.2l0 0c1.3 0 2.2 1.3 2.2 2.7l0 0C174.6 1007.6 173.5 1008.7 172.2 1008.7L172.2 1008.7 172.2 1008.7zM172.9 999c-1.3 0-2.4-1.1-2.2-2.7l0 0c0-1.3 1.3-2.4 2.7-2.2l0 0c1.3 0 2.4 1.3 2.2 2.7l0 0 0 0 0 0C175.5 998.1 174.4 999 172.9 999L172.9 999C173.1 999 173.1 999 172.9 999zM173.5 989.2c-1.3 0-2.4-1.1-2.4-2.4l0 0c0-1.3 1.1-2.4 2.4-2.4l0 0c1.3 0 2.4 1.1 2.4 2.4l0 0C176 988.4 174.9 989.2 173.5 989.2L173.5 989.2 173.5 989.2zM171.3 977.3c0-1.3 1.1-2.4 2.4-2.4l0 0c1.3 0 2.4 1.1 2.4 2.4l0 0c0 1.3-1.1 2.4-2.4 2.4l0 0C172.4 979.7 171.3 978.6 171.3 977.3zM176 977.3L176 977.3 176 977.3 176 977.3 176 977.3 176 977.3zM171.1 967.8c0-1.3 1.1-2.4 2.4-2.4l0 0c1.3 0 2.4 1.1 2.4 2.4l0 0c0 1.3-1.1 2.4-2.4 2.4l0 0 0 0 0 0C172.2 970 171.1 969.1 171.1 967.8zM170.9 958.1c0-1.3 0.9-2.4 2.2-2.4l0 0c1.3 0 2.4 0.9 2.4 2.2l0 0 0 0 0 0c0 1.3-0.9 2.4-2.2 2.4l0 0 0 0 0 0C172 960.5 170.9 959.4 170.9 958.1z"/>

      <path class="svg-clr-grey-3" fill="#6D6E71" d="M155.5 1063.2c-0.7 0-1.3-0.2-1.8-0.7 -0.4-0.4-0.7-1.1-0.7-1.8s0.2-1.3 0.7-1.8c0.9-0.9 2.4-0.9 3.3 0 0.4 0.4 0.7 1.1 0.7 1.8s-0.2 1.3-0.7 1.8C156.8 1063 156.2 1063.2 155.5 1063.2z"/>

      <path class="svg-clr-grey-3" fill="#6D6E71" d="M188.4 1076.5c0-1.3 1.1-2.4 2.4-2.4l0 0 0 0 0 0c1.3 0 2.4 1.1 2.4 2.4l0 0c0 1.3-1.1 2.4-2.4 2.4l0 0C189.5 1078.9 188.4 1077.8 188.4 1076.5zM198.3 1076.1c-0.2-1.3 0.4-2.7 1.8-2.9l0 0c1.3-0.2 2.7 0.4 2.9 1.8l0 0c0.2 1.3-0.4 2.7-1.8 2.9l0 0c-0.2 0-0.4 0-0.4 0l0 0C199.4 1078.1 198.5 1077.2 198.3 1076.1zM180.4 1077.6c-1.3-0.2-2.2-1.5-1.8-2.9l0 0c0.2-1.3 1.5-2.2 2.9-1.8l0 0 0 0 0 0c1.3 0.2 2.2 1.5 1.8 2.9l0 0c-0.2 1.1-1.3 1.8-2.4 1.8l0 0C180.8 1077.6 180.6 1077.6 180.4 1077.6zM170.7 1074.5c-1.3-0.4-1.8-2-1.3-3.1l0 0c0.4-1.1 2-1.8 3.1-1.3l0 0c1.3 0.4 1.8 2 1.3 3.1l0 0c-0.4 0.9-1.3 1.5-2.2 1.5l0 0C171.3 1074.7 170.9 1074.5 170.7 1074.5zM161.5 1069.4L161.5 1069.4c-1.1-0.7-1.3-2.2-0.4-3.3l0 0c0.7-1.1 2.2-1.3 3.3-0.7l0 0 0 0 0 0c1.1 0.7 1.3 2.2 0.7 3.3l0 0c-0.4 0.7-1.1 1.1-2 1.1l0 0C162.4 1069.9 161.9 1069.6 161.5 1069.4z"/>

      <path class="svg-clr-grey-3" fill="#6D6E71" d="M209.4 1073.9c-0.7 0-1.3-0.2-1.8-0.7 -0.4-0.4-0.7-1.1-0.7-1.8 0-0.7 0.2-1.3 0.7-1.8 0.9-0.9 2.4-0.9 3.3 0 0.4 0.4 0.7 1.1 0.7 1.8 0 0.7-0.2 1.3-0.7 1.8C210.5 1073.4 210 1073.9 209.4 1073.9z"/>

      <path class="svg-clr-grey" fill="#939598" d="M51.3 1039.2c0 0-10.8 4-19.9 22.3 -9.1 18.1-19-6.4-19.7-11.7 -1.1-7.5 5.1-15 4.9-21.9 -0.2-4.4-13.1-13.9-15.5-21.4 -2.7-8 0-31 8.6-35.6 8.6-4.6 0.4-19.5 11.5-25.9 4.9-2.9 12.6 7.5 19 18.6 8.4 14.8 9.1 20.4 14.4 21.5C59.7 986.2 51.3 1039.2 51.3 1039.2z"/>

      <path class="svg-clr-grey-2" fill="#808285" d="M22.6 1064.8c-3.3-2-21-38.3 24.6-37.6 1.5 2.7 4.9 4.2-0.7 9.7C37.8 1045.2 25.9 1066.6 22.6 1064.8z"/>

      <path class="svg-clr-grey-3" fill="#6D6E71" d="M22.6 1064.8c-3.3-2-21-38.3 24.6-37.6 1.5 2.7-14.2 7.1-19.9 12.8C18.8 1048.1 25.9 1066.6 22.6 1064.8z"/>

      <path class="svg-clr-grey-2" fill="#808285" d="M47.8 1018.7c-2.2 3.1-46 12.2-43.4-28.5 1.3-20.8 36.1 2.4 41.4 8.6C54 1007.4 50 1015.6 47.8 1018.7z"/>

      <path class="svg-clr-grey-2" fill="#808285" d="M50.9 993.5c-2.2 3.1-38.5-20.8-32.1-36.7 7.7-19.5 19.7 16.1 25 22.1C51.8 987.7 53.1 990.6 50.9 993.5z"/>

      <path class="svg-clr-grey-3" fill="#6D6E71" d="M34.3 1000.8c-10.6-5.8-19.7 3.8-29.6-10.6 1.3-20.8 36.1 2.4 41.4 8.6C54 1007.4 37.6 1002.5 34.3 1000.8z"/>

      <path class="svg-clr-grey-3" fill="#6D6E71" d="M50.9 993.5c-2.2 3.1-38.5-20.8-32.1-36.7 7.7-19.5 11.5 18.1 16.8 24.1C43.6 989.7 53.1 990.6 50.9 993.5z"/>

      <path class="svg-clr-grey-3" fill="#6D6E71" d="M394.5 953.2c12.8 16.8 35.2 65.9 29.2 92.9 17.7 13.9 41.6-9.1 44.5-15 4.2-8.4-16.8-90.7-32.7-93.6C411.3 942.1 397.4 948.1 394.5 953.2z"/>

      <path class="svg-clr-grey-3" fill="#6D6E71" d="M387 958.1c-0.7 0.2-1.3 0.2-1.8 0 -0.7-0.2-1.1-0.7-1.3-1.3 -0.2-0.6-0.2-1.3 0-1.8 0.4-1.1 2-1.8 3.3-1.1 0.7 0.2 1.1 0.7 1.3 1.3s0.2 1.3 0 1.8C388.1 957.4 387.7 957.8 387 958.1z"/>

      <path class="svg-clr-grey-3" fill="#6D6E71" d="M417.1 1046.1c-1.3 0-2.4-1.1-2.4-2.4l0 0c0-1.3 1.1-2.4 2.4-2.4l0 0c1.3 0 2.4 1.1 2.4 2.4l0 0c0 1.1-0.7 1.8-1.5 2.2l0 0C417.7 1046.1 417.3 1046.1 417.1 1046.1zM416.9 1036.8c-1.3 0.2-2.4-0.9-2.7-2.2l0 0c-0.2-1.3 0.9-2.4 2.2-2.7l0 0c1.3-0.2 2.4 0.9 2.7 2.2l0 0c0.2 1.1-0.4 2.2-1.5 2.7l0 0C417.3 1036.6 417.1 1036.8 416.9 1036.8zM415.5 1027.5c-1.3 0.2-2.7-0.4-2.9-1.8l0 0c-0.2-1.3 0.4-2.7 1.8-2.9l0 0c1.3-0.2 2.7 0.4 2.9 1.8l0 0c0.2 1.1-0.4 2.4-1.5 2.9l0 0C415.8 1027.3 415.5 1027.5 415.5 1027.5zM413.3 1018.2c-1.3 0.4-2.7-0.4-3.1-1.5l0 0c-0.4-1.3 0.4-2.7 1.5-3.1l0 0c1.3-0.4 2.7 0.4 3.1 1.5l0 0C415.3 1016.5 414.7 1017.8 413.3 1018.2L413.3 1018.2 413.3 1018.2zM410.4 1009.4c-1.3 0.4-2.7-0.2-3.1-1.5l0 0c-0.4-1.3 0.2-2.7 1.5-3.1l0 0c1.3-0.4 2.7 0.2 3.1 1.5l0 0C412.4 1007.4 411.8 1008.9 410.4 1009.4L410.4 1009.4 410.4 1009.4zM404.3 999c-0.4-1.3 0.2-2.7 1.3-3.1l0 0c1.3-0.4 2.7 0.2 3.1 1.3l0 0 0 0 0 0c0.4 1.3-0.2 2.7-1.3 3.1l0 0 0 0 0 0C406 1001 404.7 1000.3 404.3 999zM400.5 990.4L400.5 990.4c-0.4-1.3 0-2.7 1.3-3.1l0 0c1.3-0.4 2.7 0 3.1 1.3l0 0c0.4 1.1 0 2.7-1.3 3.1l0 0c0 0 0 0-0.2 0l0 0C402.5 992.1 401.2 991.7 400.5 990.4zM396.7 981.9L396.7 981.9c-0.7-1.3 0-2.7 1.1-3.3l0 0c1.1-0.7 2.7 0 3.3 1.1l0 0 0 0 0 0c0.7 1.1 0 2.7-1.1 3.1l0 0h-0.2l0 0C398.7 983.5 397.4 983.1 396.7 981.9zM392.8 973.5c-0.7-1.1 0-2.7 1.1-3.3l0 0c1.1-0.7 2.7 0 3.3 1.1l0 0c0.7 1.1 0 2.7-1.1 3.3l0 0h-0.2l0 0C394.5 975.1 393.2 974.6 392.8 973.5zM388.5 965.1L388.5 965.1c-0.7-1.1-0.2-2.7 1.1-3.3l0 0c1.1-0.7 2.7-0.2 3.3 1.1l0 0 0 0 0 0c0.7 1.1 0.2 2.7-1.1 3.3l0 0c0 0-0.2 0-0.2 0.2l0 0C390.3 966.7 389 966.2 388.5 965.1z"/>

      <path class="svg-clr-grey-3" fill="#6D6E71" d="M416.2 1055.2c-0.7 0.2-1.3 0.2-1.8 0 -0.7-0.2-1.1-0.7-1.3-1.3 -0.2-0.7-0.2-1.3 0-1.8 0.4-1.1 2-1.8 3.1-1.1 0.7 0.2 1.1 0.9 1.3 1.3 0.2 0.7 0.2 1.3 0 1.8C417.3 1054.5 416.9 1054.9 416.2 1055.2z"/>

      <path class="svg-clr-grey-3" fill="#6D6E71" d="M443 1060.6L443 1060.6c-1.3 0.4-2.7-0.4-2.9-1.8l0 0c-0.4-1.3 0.4-2.7 1.8-2.9l0 0 0 0 0 0c1.3-0.4 2.7 0.4 2.9 1.8l0 0C445 1058.7 444.3 1060.1 443 1060.6L443 1060.6 443 1060.6zM448.9 1055.6c-0.7-1.1 0-2.7 1.1-3.3l0 0 0 0 0 0c1.1-0.7 2.7 0 3.3 1.1l0 0c0.7 1.1 0 2.7-1.1 3.3l0 0H452l0 0C450.7 1057.4 449.6 1056.9 448.9 1055.6zM432.8 1062.1c-1.3 0-2.4-1.1-2.4-2.4l0 0c0-1.3 1.1-2.4 2.4-2.4l0 0c1.3 0 2.4 1.1 2.4 2.4l0 0c0 1.1-0.7 2-1.5 2.4l0 0C433.5 1062.1 433.2 1062.1 432.8 1062.1zM457.3 1051.2c-0.7-1.1-0.4-2.7 0.7-3.3l0 0c1.1-0.7 2.7-0.4 3.3 0.7l0 0c0.7 1.1 0.4 2.7-0.7 3.3l0 0c-0.2 0-0.4 0.2-0.4 0.2l0 0C459.1 1052.5 458 1052.3 457.3 1051.2zM465.1 1045.7c-0.9-1.1-0.9-2.4 0.2-3.5l0 0c0.9-0.9 2.4-0.9 3.3 0.2l0 0c0.9 0.9 0.9 2.4-0.2 3.3l0 0c-0.2 0.2-0.4 0.4-0.9 0.4l0 0C466.9 1046.8 466 1046.5 465.1 1045.7zM422.6 1060.6L422.6 1060.6c-1.3-0.4-2-1.8-1.3-3.1l0 0c0.4-1.3 1.8-1.8 3.1-1.3l0 0 0 0 0 0c1.3 0.4 1.8 1.8 1.3 3.1l0 0c-0.2 0.7-0.9 1.1-1.3 1.5l0 0C423.7 1060.8 423.1 1060.8 422.6 1060.6z"/>

      <path class="svg-clr-grey-3" fill="#6D6E71" d="M473.7 1039c-0.7 0.2-1.3 0.2-1.8 0 -0.7-0.2-1.1-0.7-1.3-1.3 -0.2-0.6-0.2-1.3 0-1.8 0.4-1.1 2-1.8 3.1-1.1 0.7 0.2 1.1 0.7 1.3 1.3 0.2 0.7 0.2 1.3 0 1.8C474.8 1038.4 474.4 1038.8 473.7 1039z"/>
    </g>

    <path class="svg-clr-orange-2" fill="#F5853F" d="M200 894.3c-1.3-2.4-2.9-4.4-4.6-6 -1.8-1.3-3.5-2.2-5.3-2.7 -1.3-0.1-2.2-0.1-2.9-0.1 -2.7 0-5.5 0.9-8.4 2.7 -2.2 1.3-3.3 2.4-3.5 2.7 0 0.4 1.5 2.9 2.9 4.4 0.4 0.7 1.1 1.5 1.5 2.2 2.4 3.5 4.2 6.4 5.5 8.2 1.3 2 2.4 3.8 3.8 5.5l3.5 5.3c1.1 1.8 2.2 3.1 3.1 4.4 0.4 0.7 0.9 1.3 1.3 1.8 0.4 0.7 0.9 1.3 1.1 1.8 0.7-0.4 2.9-3.3 4-5.8 1.4-3.2 2-6.7 1.9-10.4 0-0.8-0.1-1.6-0.2-2.4 -0.2-1.5-0.4-3-0.8-4.5C202.2 899.2 201.4 896.8 200 894.3z"/>

    <path class="svg-clr-orange-2" fill="#F5853F" d="M354.9 889.7c0.7 0.2 1.8 0.7 2.9 0.9 1.1 0.2 2.2 0.7 3.1 1.1 0.9 0.2 1.8 0.7 2.7 0.9 0.9 0.2 1.8 0.7 2.2 0.9 0-0.7 0.2-1.8 0.2-2.7 0-0.9 0-1.5 0.2-2.2 0.2-2.9 0.7-6 0.9-8.6 0.2-3.1 0.4-7.3 0.7-10 -0.9 1.1-4 6-4 6 -3.1 4.6-5.1 8-6.4 10.2 -0.2 0.4-0.7 1.1-1.1 1.5C355.8 888.4 355.4 889 354.9 889.7z"/>

    <path class="svg-clr-white" fill="#FFFFFF" d="M197.4 925.1c0.7 0.2 3.5-3.5 4.6-6.2 1.4-3.3 2-6.8 1.9-10.6 0.1 3.7-0.5 7.2-1.9 10.4 -1.1 2.5-3.3 5.4-4 5.8 -0.2-0.5-0.7-1.1-1.1-1.8 -0.4-0.5-0.9-1.1-1.3-1.8 -0.9-1.3-2-2.6-3.1-4.4l-3.5-5.3c-1.4-1.7-2.5-3.5-3.8-5.5 -1.3-1.8-3.1-4.7-5.5-8.2 -0.4-0.7-1.1-1.5-1.5-2.2 -1.4-1.5-2.9-4-2.9-4.4 0.2-0.3 1.3-1.4 3.5-2.7 2.9-1.8 5.7-2.7 8.4-2.7 0.7 0 1.6 0 2.9 0.1 1.8 0.5 3.5 1.4 5.3 2.7 1.7 1.6 3.3 3.6 4.6 6 1.4 2.5 2.2 4.9 2.9 7.1 0.4 1.5 0.6 3 0.8 4.5 -0.2-1.5-0.4-3.1-0.8-4.7 -0.7-2.2-1.5-4.6-2.9-7.3 -1.3-2.7-2.9-4.6-4.6-6 -1.8-1.5-3.8-2.4-5.8-2.9 -3.5-0.7-7.5 0-11.3 2.4 -1.8 1.1-3.8 2.4-3.8 3.1 -0.2 0.9 2.4 4.2 4.4 7.3 2.4 3.5 4.2 6.4 5.5 8.4s2.4 3.8 3.8 5.5c1.4 1.7 2.4 3.5 3.5 5.3 1.1 1.8 2.2 3.1 3.1 4.4C195.9 922.9 197.2 925.1 197.4 925.1z"/>

    <path class="svg-clr-white" fill="#FFFFFF" d="M203.7 905.9c0.1 0.8 0.1 1.6 0.2 2.4C203.8 907.5 203.8 906.7 203.7 905.9z"/>

    <path class="svg-clr-white" fill="#FFFFFF" d="M365.8 865.3c0.9-0.8 1.6-1.3 2.3-1.5C367.2 864 366.5 864.5 365.8 865.3z"/>

    <path class="svg-clr-white" fill="#FFFFFF" d="M365.7 865.4c0 0.1-0.1 0.1-0.1 0.2C365.6 865.5 365.7 865.4 365.7 865.4 365.7 865.3 365.7 865.4 365.7 865.4z"/>

    <path class="svg-clr-white" fill="#FFFFFF" d="M370.1 863.9c0.2 0.1 0.4 0.2 0.6 0.3 -0.2-0.2-0.4-0.3-0.7-0.4 -0.7-0.2-1.3-0.2-1.9 0 0.2 0 0.5-0.1 0.7-0.1C369.2 863.7 369.7 863.7 370.1 863.9z"/>

    <path class="svg-clr-white" fill="#FFFFFF" d="M397.1 926.8c0-0.1-0.1-0.3-0.1-0.4l0 0c0 0.1 0.1 0.2 0.1 0.3C397.1 926.7 397.1 926.8 397.1 926.8z"/>

    <path class="svg-clr-white" fill="#FFFFFF" d="M212.7 1171.6c0.1-0.1 0.2-0.3 0.3-0.4C212.9 1171.2 212.8 1171.4 212.7 1171.6 212.7 1171.5 212.7 1171.5 212.7 1171.6z"/>

    <path class="svg-clr-white" fill="#FFFFFF" d="M212 1172.7c-0.1 0.2-0.2 0.3-0.2 0.4C211.9 1173 211.9 1172.8 212 1172.7z"/>

    <path class="svg-clr-white" fill="#FFFFFF" d="M212.7 1171.6c-0.2 0.4-0.4 0.7-0.6 1.1C212.2 1172.3 212.4 1171.9 212.7 1171.6z"/>

    <path class="svg-clr-white" fill="#FFFFFF" d="M211.8 1173.1C211.8 1173.1 211.8 1173.2 211.8 1173.1 211.8 1173.2 211.8 1173.1 211.8 1173.1z"/>

    <path class="svg-clr-white" fill="#FFFFFF" d="M217.3 1168c-1.8 0.4-3.1 1.3-4.2 2.9 -0.1 0.1-0.1 0.1-0.1 0.2 1.1-1.6 2.5-2.6 4.3-2.9 1.3-0.3 2.6-0.3 3.9 0.2 -0.9-0.4-1.8-0.6-2.6-0.6C218.2 1167.8 217.7 1167.8 217.3 1168z"/>

    <path class="svg-clr-white" fill="#FFFFFF" d="M264.2 1228.4c4.4 0.7 8.5 1.2 12.5 1.4 -3.7-0.3-7.7-0.7-12.1-1.5C264.4 1228.3 264.4 1228.3 264.2 1228.4c-0.1-0.1-0.2-0.2-0.3-0.2 0 0.1-0.1 0.1-0.1 0.2H264.2z"/>

    <path class="svg-clr-white" fill="#FFFFFF" d="M271.3 1184.4c2.4 0.4 3.5 0.9 6 1.1 1.8 0.2 2.9 0.4 4 0.4l2.2 0.2c0.2 0 0.4 0 0.7 0s0.7 0 0.9 0h0.2c0.7 0 1.1 0.2 1.7 0.4 -0.1-0.1-0.1-0.1-0.2-0.2 -0.4-0.4-0.8-0.4-1.5-0.4s-1.4 0-1.8 0c-0.4-0.2-1.3-0.2-2.2-0.2s-2.2-0.2-4-0.4c-2.5-0.2-3.6-0.7-6-1.1 -0.7 0-1.3 0-0.9 0.1 -0.1 0-0.1 0.1-0.2 0.1 0.1 0 0.1 0 0.2 0C270.6 1184.4 270.8 1184.4 271.3 1184.4z"/>

    <path class="svg-clr-white" fill="#FFFFFF" d="M324.4 1232.1c-1.5 0.2-3.3 0.2-5.1 0.4 -2 0.2-3.5 0.4-4.9 0.4h-0.9c-1.1 0-2 0.2-3.1 0.2l-2.9 0.2c-1.3 0-2 0-2.4 0.2 -0.3 0.4-0.5 0.7-0.7 0.8 0.2 0 0.4 0 0.7 0 0.4 0 2.4 0 5.3-0.2 1.1 0 2.5-0.2 3.8-0.2 1.4 0 2.9-0.2 4.9-0.4 2-0.2 3.8-0.2 5.3-0.4 0.9 0 1.6-0.3 2-0.7 0.4-0.4 0.4-0.8 0.4-1.2C326.3 1231.9 325.5 1232.1 324.4 1232.1z"/>

    <path class="svg-clr-white" fill="#FFFFFF" d="M315.1 1188.7c-0.7 0-1.5 0.2-2.2 0.2 -2.4 0.2-4.4 0.4-5.8 0.4 -0.9 0-1.5 0-2 0.2 -0.4 0-0.7 0-0.9 0 -0.6 0-1-0.1-1.4-0.2 0.5 0.5 1.4 0.6 2.9 0.5 1.3-0.3 3.9-0.3 7.7-0.7 1.2-0.1 2.5-0.3 3.5-0.4 0-0.1 0-0.1 0-0.2C316.5 1188.5 315.8 1188.7 315.1 1188.7z"/>
  </g>
</svg>
