<svg class="svg-logo-3b" style="display: none;" xmlns="http://www.w3.org/2000/svg" xmlns:xlink="http://www.w3.org/1999/xlink" version="1.1" id="Layer_1" x="0" y="0" viewBox="0 0 539.7 124.7" enable-background="new 0 0 539.7 124.7" xml:space="preserve">
  <path class="svg-clr-brown" fill="#351D0F" d="M104 0c-7.9-0.4-1.4 9.7-10.4 16.3 -2.7-5.8-13.5 1.3-22.1 1.6 -8.6-0.3-19.4-7.4-22.1-1.6C40.4 9.7 47-0.3 39.1 0c-7.9 0.4-3.5 28.7 0.6 39.6 4.1 10.9 20.1 17.5 31.7 17.5h0.2 0.2c11.6 0 27.6-6.6 31.7-17.5C107.6 28.7 112 0.4 104 0zM81.9 34.4c-1.9 1.3-5.5 2.6-10.4 2.6 -4.8-0.1-8.5-1.3-10.4-2.6 -1.6-1.1-5-2.7-5.3-7.2 3.1 2.5 9 4.2 15.7 4.2 6.7-0.1 12.6-1.8 15.7-4.2C86.9 31.7 83.5 33.3 81.9 34.4z"/>

  <path class="svg-clr-brown-2" fill="#9E7751" d="M110.3 123.3c4.3-6.7-7.7-6.1-8.9-17.1 6.3 0.5 5.6-12.4 9.7-20 4.6-7.3 16.1-13.1 12.5-18.3 10.2-4.5 15.6 6.2 19.3-0.9 3.6-7-23.1-17.4-34.6-19.3 -11.5-1.9-25.2 8.6-31.1 18.7L77 66.6l-0.1 0.2c-5.8 10.1-8.1 27.2-0.7 36.2C83.6 112 106 130 110.3 123.3zM91.6 86.9c-0.2-2.3 0.6-6.1 2.9-10.3 2.5-4.2 5.4-6.7 7.5-7.7 1.7-0.8 4.8-3 8.9-1 -3.7 1.5-8.1 5.7-11.5 11.5 -3.3 5.9-4.8 11.8-4.2 15.7C91.4 92.6 91.7 88.9 91.6 86.9z"/>

  <path class="svg-clr-brown-3" fill="#81593D" d="M66.9 103c7.4-9 5.2-26.2-0.7-36.2l-0.1-0.2L66 66.4C60.2 56.3 46.5 45.8 35 47.7 23.4 49.6-3.3 60 0.3 67c3.6 7 9.1-3.7 19.3 0.9 -3.6 5.2 7.9 11.1 12.5 18.3 4 7.6 3.3 20.5 9.7 20 -1.2 11.1-13.2 10.5-8.9 17.1C37.1 130 59.5 112 66.9 103zM48 95.2c0.6-4-0.9-9.9-4.2-15.7 -3.4-5.8-7.8-10-11.5-11.5 4.1-1.9 7.1 0.2 8.9 1 2.1 1 5 3.5 7.5 7.7 2.4 4.2 3.1 8 2.9 10.3C51.4 88.9 51.7 92.6 48 95.2z"/>

  <path class="svg-clr-black" fill="#19181C" d="M168.4 93.5c0-0.7 0-1.3 0.1-1.7 0.1-0.4 0.2-0.8 0.5-1 0.2-0.2 0.6-0.4 1-0.6 0.4-0.1 1-0.3 1.7-0.5 0.4-0.2 0.9-0.3 1.5-0.6 0.6-0.2 1.1-0.4 1.4-0.4 0.6 0 1.1 0.1 1.6 0.4 0.5 0.3 1 0.6 1.6 0.9 0.5 0.3 1 0.7 1.6 0.9 0.6 0.3 1.2 0.4 1.8 0.4 0.9 0 1.8-0.2 2.6-0.5 0.9-0.3 1.6-0.8 2.4-1.3 0.7-0.5 1.4-1.2 2-1.9 0.6-0.7 1.1-1.5 1.5-2.2 0.1-0.2 0.1-0.5 0.2-0.9 0.1-0.5 0.1-0.8 0.1-1 0.2-0.2 0.3-0.3 0.5-0.4 0.2-0.1 0.4-0.2 0.6-0.3 0.2-0.1 0.4-0.3 0.5-0.4 0.2-0.2 0.2-0.4 0.2-0.8v-5.7c0-0.2-0.1-0.5-0.3-0.9 -0.2-0.3-0.4-0.7-0.6-1 -0.2-0.3-0.4-0.6-0.6-0.9 -0.2-0.2-0.4-0.4-0.4-0.5 -0.6-0.8-1.2-1.6-1.9-2.2 -0.7-0.6-1.4-1.2-2.1-1.8 -0.7-0.5-1.5-1.1-2.3-1.6 -0.8-0.5-1.6-1-2.4-1.6 0-0.1-0.1-0.2-0.3-0.4 -0.1-0.2-0.3-0.3-0.5-0.5 -0.2-0.2-0.3-0.4-0.5-0.5 -0.2-0.1-0.3-0.2-0.4-0.2 -0.4 0-0.9 0.1-1.3 0.3 -0.5 0.2-0.9 0.3-1.4 0.5 -0.5 0.2-0.9 0.4-1.4 0.5 -0.5 0.2-0.9 0.3-1.2 0.3 -0.5 0-0.9-0.3-1.3-0.8 -0.4-0.5-0.7-1-0.7-1.5 0-0.8 0.3-1.5 1-2 0.6-0.5 1.4-1 2.2-1.4 0.9-0.4 1.7-0.7 2.6-1 0.9-0.3 1.6-0.5 2-0.7 0 0 0.1-0.1 0.3-0.3 0.2-0.2 0.3-0.4 0.5-0.6 0.2-0.2 0.4-0.4 0.6-0.6 0.2-0.2 0.3-0.3 0.5-0.3 0.4-0.3 0.8-0.6 1.2-0.9 0.4-0.3 0.9-0.5 1.2-0.8 0.4-0.2 0.8-0.5 1.2-0.8 0.4-0.3 0.7-0.7 1-1.1l0.7-1c1-1.7 2-3.4 2.8-5.1 0.9-1.7 1.3-3.6 1.3-5.4 0-0.1-0.1-0.2-0.3-0.5 -0.2-0.3-0.5-0.6-0.9-0.9 -0.3-0.3-0.7-0.7-1-1.1 -0.3-0.4-0.6-0.8-0.9-1.1 -0.3-0.6-0.9-0.9-1.6-1.1 -0.7-0.2-1.4-0.3-2-0.3 -1.4 0.5-2.6 0.8-3.5 1.1 -0.9 0.3-2 0.4-3.3 0.4l-2.6-0.1c-0.6 0-1-0.3-1.2-0.9 -0.2-0.5-0.3-1-0.3-1.4 0-0.9 0.1-1.4 0.3-1.6l1.5-0.8c0.8-0.4 1.4-0.9 1.9-1.5 0.5-0.6 1-1.2 1.7-1.8 0.7-0.5 1.4-0.9 2.2-1.2 0.8-0.3 1.7-0.6 2.5-0.9 0.9-0.2 1.7-0.4 2.6-0.5 0.9-0.1 1.7-0.2 2.6-0.2 0.8 0 1.5 0.2 2.1 0.5 0.6 0.3 1.3 0.7 2.1 1.1 1.3 0.5 2.4 1 3.2 1.4 0.8 0.5 1.5 1 2 1.7 0.5 0.6 0.9 1.4 1.2 2.3 0.3 0.9 0.6 1.9 0.9 3.2 0.1 0.4 0.2 0.8 0.4 1.2 0.2 0.4 0.3 0.8 0.3 1.2 0 0.8-0.1 1.8-0.4 2.8 -0.3 1-0.7 2.1-1.1 3.1 -0.5 1.1-1 2.1-1.6 3 -0.6 0.9-1.2 1.8-1.7 2.4 -0.3 0.4-0.6 0.7-0.9 0.9 -0.3 0.2-0.7 0.4-1 0.5 -0.3 0.1-0.7 0.3-1 0.4 -0.4 0.2-0.7 0.4-0.9 0.7 -0.6 0.6-1 1.2-1.2 1.8 -0.2 0.6-0.5 1.1-0.9 1.6 -0.8 0.3-1.1 0.8-1.1 1.6 0 0.2 0 0.2 0 0.3 0 0 0 0.1 0 0.1 0.2 0.5 0.7 1 1.4 1.6 0.7 0.6 1.5 1.2 2.3 1.9 0.8 0.6 1.6 1.3 2.4 1.8 0.8 0.6 1.3 1.1 1.6 1.5 0.1 1.1 0.3 2 0.7 2.8 0.4 0.7 0.7 1.4 1.1 2.1 0.4 0.7 0.7 1.4 1 2.2 0.3 0.8 0.4 1.8 0.4 3 0 0.4 0 1-0.1 1.8 -0.1 0.8-0.2 1.6-0.3 2.5 -0.1 0.9-0.3 1.7-0.5 2.4 -0.2 0.8-0.3 1.3-0.5 1.6l-1.5 1.9c-0.2 0.3-0.4 0.6-0.6 1 -0.2 0.4-0.3 0.8-0.5 1.1 -0.2 0.4-0.3 0.8-0.5 1.1 -0.2 0.4-0.4 0.7-0.7 1 -1 1.1-2.3 2.2-4.1 3.5 -1.7 1.2-3.6 2.4-5.6 3.5 -2 1.1-4 1.9-6 2.6 -2 0.7-3.7 1-5.2 1 -0.6 0-1.2-0.2-1.6-0.7 -0.4-0.5-0.9-1-1.3-1.5 -0.5-0.3-1-0.6-1.4-0.9 -0.4-0.3-0.7-0.6-1-1 -0.3-0.4-0.5-0.8-0.7-1.3C168.5 94.9 168.4 94.3 168.4 93.5z"/>

  <path class="svg-clr-black" fill="#19181C" d="M216 74.9c0-1.1 0.4-1.9 1.1-2.4 0.7-0.5 1.6-1 2.7-1.5 0.1 0 0.4-0.2 0.7-0.3 0.4-0.2 0.8-0.4 1.2-0.5 0.4-0.2 0.8-0.4 1.2-0.5 0.4-0.2 0.6-0.3 0.7-0.4 0.1-0.2 0.2-0.5 0.4-0.9 0.2-0.4 0.3-0.7 0.3-0.9l-0.3-2.9 0.3-3.8v-2.9c0-0.1 0.1-0.2 0.2-0.3 0-0.1 0.1-0.2 0.1-0.2 0-0.1 0.1-0.1 0.1-0.2L225 55v-3.3c0 0 0-0.2 0.1-0.4 0.1-0.2 0.1-0.5 0.2-0.8 0.1-0.3 0.2-0.6 0.3-0.9 0.1-0.3 0.1-0.6 0.1-0.8 0-0.7-0.2-1.4-0.6-2.1 -0.4-0.7-0.6-1.4-0.6-2.3 0-0.5 0.1-1 0.4-1.6 0-0.1-0.1-0.4-0.2-0.7 -0.1-0.3-0.2-0.7-0.3-1.1 -0.1-0.4-0.2-0.8-0.3-1.2 -0.1-0.4-0.1-0.7-0.2-1 0-0.2 0-0.5 0.1-0.9 0-0.4 0.2-1.1 0.4-2 0-0.9-0.3-1.5-0.9-2.1 -0.6-0.5-1.3-1-2.1-1.5 -0.8-0.5-1.5-1-2.1-1.6 -0.6-0.6-0.9-1.4-0.9-2.4 0-0.6 0.2-1.1 0.7-1.5 0.4-0.4 1-0.7 1.7-0.9 0.7-0.2 1.3-0.4 2-0.5 0.7-0.1 1.2-0.2 1.7-0.2 3.1-0.2 5.8-0.4 8.4-0.4 2.2 0 4.4 0.1 6.5 0.4 0.1 0 0.3 0 0.5 0 0.3 0 0.6 0.1 0.9 0.1 0.3 0 0.7 0.1 1 0.1 0.3 0 0.6 0.1 0.7 0.1 0.9 0.1 1.7 0.3 2.5 0.6 0.8 0.3 1.6 0.6 2.4 0.9 0.7 0.2 1.3 0.4 1.9 0.5 0.6 0.1 1.1 0.3 1.6 0.6 0.5 0.2 1 0.6 1.4 1 0.4 0.4 0.9 1 1.4 1.7 0.2 0.4 0.5 0.8 0.9 1.4 0.4 0.6 0.6 1.1 0.6 1.5l-0.4 3.6c0 0.1 0 0.2 0.1 0.5 0.1 0.2 0.2 0.5 0.3 0.8 0.1 0.3 0.2 0.6 0.3 0.8s0.1 0.4 0.2 0.6c0 0.3-0.2 0.7-0.5 1.1 -0.3 0.4-0.6 0.7-0.7 0.9l-1.3 1.8c0 0.1 0 0.3-0.1 0.6 -0.1 0.3-0.1 0.5-0.2 0.5 0 0.1-0.1 0.2-0.2 0.3 -0.1 0.1-0.3 0.3-0.5 0.5 -0.2 0.2-0.3 0.3-0.5 0.5 -0.1 0.1-0.2 0.2-0.3 0.3 -0.1 0.3-0.2 0.6-0.3 0.8 -0.1 0.2-0.2 0.4-0.2 0.5 -0.1 0.2-0.1 0.3-0.2 0.3 -0.3 0.5-0.6 0.9-0.9 1.2 -0.3 0.2-0.5 0.7-0.5 1.5 0 0.4 0.1 0.7 0.3 1 0.2 0.2 0.4 0.5 0.7 0.6 0.3 0.2 0.6 0.3 0.9 0.5 0.3 0.1 0.6 0.3 0.9 0.4 0.7 0.4 1.2 0.7 1.5 0.9 0.4 0.2 0.7 0.4 1 0.6 0.3 0.2 0.6 0.5 0.8 0.8 0.2 0.3 0.6 0.8 0.9 1.4 0 0.1 0.1 0.3 0.3 0.6 0.2 0.3 0.4 0.5 0.4 0.6v1c0 0.1 0.1 0.3 0.3 0.6 0.2 0.3 0.4 0.5 0.5 0.6 0 0 0.1 0.1 0.2 0.2 0.1 0.1 0.2 0.2 0.4 0.3 0.1 0.1 0.3 0.2 0.4 0.4 0.1 0.1 0.2 0.2 0.2 0.2 0 0.1-0.1 0.2-0.2 0.5 -0.1 0.2-0.2 0.6-0.3 1 0.1 0.1 0.2 0.3 0.3 0.8 0.1 0.4 0.2 0.8 0.2 1.2 0 0-0.1 0.1-0.2 0.2 -0.1 0.1-0.2 0.3-0.3 0.5 -0.1 0.2-0.2 0.3-0.3 0.5 -0.1 0.2-0.2 0.3-0.2 0.3v1.3c-0.1 0.9-0.3 1.7-0.6 2.6 -0.3 0.9-0.7 1.6-1.2 2.3l-1.6 0.7c-1.6 0.9-3.3 1.5-5 1.7 -1.8 0.3-3.5 0.6-5.3 0.9 -0.9 0.2-1.8 0.4-2.6 0.9 -0.8 0.4-1.6 0.6-2.4 0.6l-7-0.4c0 0-0.2 0-0.3 0.1 -0.2 0-0.4 0.1-0.6 0.1 -0.2 0-0.4 0.1-0.6 0.1 -0.2 0-0.3 0.1-0.4 0.1h-4.5c-0.2 0.2-0.4 0.3-0.6 0.3 -0.2 0-0.5 0-0.9 0 -0.2 0-0.6-0.1-1.2-0.2 -0.6-0.1-1.1-0.1-1.7-0.2 -0.6-0.1-1.2-0.2-1.7-0.2 -0.5-0.1-0.9-0.1-1-0.1 -0.6-0.1-1.2-0.3-1.8-0.6C216.3 76.1 216 75.6 216 74.9zM235.1 69.2c0.1 0.2 0.5 0.5 1.1 0.8 0.6 0.3 1.3 0.5 2.1 0.7 0.8 0.2 1.5 0.4 2.3 0.5 0.8 0.1 1.3 0.2 1.6 0.2 0.9 0 1.9-0.3 2.8-0.8 1-0.5 1.6-1.3 1.9-2.2 0 0 0.1-0.2 0.1-0.4 0-0.2 0.1-0.5 0.1-0.8 0-0.3 0.1-0.6 0.1-0.8 0-0.2 0-0.4 0-0.4 0.1-0.1 0.2-0.3 0.4-0.6 0.2-0.3 0.3-0.7 0.3-1.1 0-0.4-0.1-0.9-0.3-1.2 -0.2-0.4-0.3-0.8-0.4-1.2 0-0.1 0-0.3 0-0.7 0-0.4-0.1-0.8-0.1-1.3 0-0.5-0.1-0.9-0.1-1.3 0-0.4-0.1-0.7-0.1-0.8 -0.1-0.6-0.2-1.2-0.5-1.8 -0.2-0.6-0.7-1-1.4-1.2 -0.1 0-0.3-0.1-0.6-0.1 -0.3 0-0.7-0.1-1.1-0.1 -0.4 0-0.7-0.1-1.1-0.1 -0.3 0-0.5 0-0.6 0 -0.1 0-0.4-0.2-1.1-0.5 -0.7-0.3-1.1-0.5-1.5-0.7 -0.5-0.2-1-0.5-1.6-0.9 -0.5-0.4-1-0.6-1.6-0.6 -0.4 0-0.7 0.1-0.8 0.2 -0.1 0.1-0.1 0.3-0.1 0.5 0 0.2 0 0.4 0 0.6 0 0.2 0 0.5 0 0.8l-0.1 0.6c-0.1 0.1-0.2 0.3-0.5 0.6 -0.2 0.3-0.3 0.5-0.3 0.6v1.9c0 0-0.1 0.2-0.2 0.5 -0.1 0.3-0.2 0.5-0.2 0.6 0 0.2-0.1 0.3-0.1 0.5v0.7 0.8c0 0.2 0 0.3 0.1 0.5 0 0.2 0.1 0.4 0.2 0.9 0.1 0.4 0.2 0.7 0.2 0.7V64c0 0 0 0.2 0.1 0.4 0.1 0.2 0.1 0.5 0.2 0.7 0.1 0.3 0.2 0.5 0.3 0.8 0.1 0.2 0.1 0.4 0.2 0.4V69.2zM234.6 42.7c0 0.8 0.2 1.6 0.5 2.3 0.3 0.7 1 1.1 1.9 1.1 0.7 0 1.3-0.2 1.7-0.6 0.4-0.4 0.9-0.7 1.5-0.9 0.1 0 0.3-0.1 0.7-0.2 0.3-0.1 0.7-0.2 1-0.2 0.4-0.1 0.7-0.1 1.1-0.2 0.4-0.1 0.7-0.1 1-0.2 0.6-0.5 0.9-0.9 0.9-1.3 0-0.4 0.1-0.9 0.2-1.6 0-0.1 0.1-0.3 0.2-0.6 0.1-0.3 0.2-0.5 0.2-0.6 0 0 0-0.1 0.1-0.1 0 0 0-0.1 0-0.1 0 0 0-0.1 0-0.2 0-0.1-0.1-0.4-0.2-1 -0.1-0.5-0.3-1.1-0.5-1.7 -0.2-0.6-0.3-1.1-0.5-1.6 -0.2-0.5-0.3-0.8-0.3-0.9 -0.1-0.1-0.2-0.2-0.4-0.4 -0.2-0.2-0.4-0.4-0.6-0.6 -0.2-0.2-0.4-0.4-0.6-0.5 -0.2-0.2-0.3-0.3-0.4-0.4 0-0.1-0.1-0.2-0.3-0.3 -0.2-0.1-0.4-0.2-0.4-0.2 -0.1 0-0.3-0.2-0.7-0.6 -0.4-0.3-0.6-0.5-0.7-0.5h-1.2c-0.9 0-1.6 0.1-2 0.4 -0.5 0.3-0.8 0.6-1 1.1 -0.2 0.5-0.4 1.1-0.4 1.7 0 0.7-0.1 1.4-0.2 2.1 0 0.2-0.1 0.5-0.1 1 0 0.5-0.1 1.1-0.1 1.7 0 0.6-0.1 1.2-0.1 1.8 0 0.6 0 1 0 1.3 0 0-0.1 0.1-0.1 0.2C234.6 42.5 234.6 42.6 234.6 42.7z"/>

  <path class="svg-clr-black" fill="#19181C" d="M269.1 74.6c0-0.9 0.2-1.5 0.6-2 0.4-0.5 0.9-0.9 1.5-1.3 0.6-0.3 1.2-0.6 1.9-0.9 0.7-0.3 1.3-0.7 1.9-1.1 0.6-0.4 1.1-1 1.5-1.8 0.4-0.7 0.6-1.7 0.6-2.9 0-0.3 0-0.6 0-0.9 0-0.3 0-0.6-0.1-0.9 -0.1-0.7-0.2-1.5-0.2-2.3 0-0.7 0.1-1.3 0.2-2 0.1-0.3 0.1-0.6 0.1-0.9 0-0.3 0-0.6 0-0.9 0-0.4 0-0.9-0.1-1.2 0-0.4-0.1-0.8-0.2-1.2 0-0.4-0.1-0.9-0.1-1.4 0-0.5-0.1-1-0.1-1.5 0-0.4 0-0.9 0.1-1.3 0-0.4 0.1-0.9 0.1-1.3 0.1-0.4 0.2-0.9 0.2-1.3s0.1-0.9 0.1-1.3c0-0.7-0.1-1.5-0.2-2.2 -0.1-0.8-0.3-1.5-0.5-2.2 -0.2-0.6-0.3-1.3-0.4-1.9 -0.1-0.7-0.2-1.3-0.2-2 0-0.2 0-0.5 0.1-0.7 0-0.2 0.1-0.4 0.2-0.6 0.1-0.4 0.2-0.8 0.2-1.3 0 0 0-0.1 0-0.1 0 0 0-0.1 0-0.2v-0.2c0-0.1-0.1-0.3-0.2-0.5 -0.1-0.2-0.2-0.4-0.3-0.7 -0.1-0.2-0.2-0.4-0.3-0.6 -0.1-0.2-0.2-0.3-0.2-0.4 -0.2-0.2-0.4-0.5-0.9-0.9 -0.4-0.4-0.8-0.9-1.3-1.3 -0.4-0.5-0.9-0.9-1.3-1.3 -0.4-0.4-0.7-0.7-0.9-0.8 0-0.1-0.1-0.2-0.2-0.4 -0.1-0.2-0.2-0.3-0.2-0.4 0-0.8 0.3-1.6 0.9-2.3 0.6-0.7 1.2-1.1 1.9-1.3 0.3-0.1 0.7-0.3 1.1-0.4 0.5-0.2 0.9-0.3 1.4-0.5 0.5-0.1 0.9-0.3 1.3-0.4 0.4-0.1 0.6-0.2 0.7-0.2 0.1 0 0.3 0 0.6-0.1 0.3 0 0.6-0.1 0.7-0.1 0.6 0 1.1 0.1 1.6 0.2 0.5 0.1 1 0.2 1.6 0.4 0.3 0 0.7 0.1 1 0.2 0.4 0.1 0.7 0.1 1.1 0.1 0.4 0 0.7 0 1-0.1 0.3 0 0.6-0.1 0.9-0.2 0.3 0 0.6-0.1 0.9-0.1 0.3 0 0.6-0.1 0.9-0.1 0.8 0 1.5 0.1 2.1 0.4 0.7 0.2 1.3 0.4 2 0.4 0 0 0.2 0 0.4 0 0.2 0 0.5 0 0.8 0 0.3 0 0.6 0 0.9 0 0.3 0 0.6 0 0.8 0 2 0 3.9-0.1 5.8-0.4 1.9-0.2 3.9-0.4 5.8-0.5 0.2-0.2 0.4-0.3 0.5-0.3 0.1 0 0.4 0 0.6 0 1.1 0.4 1.9 1 2.4 1.8 0.5 0.7 0.9 1.6 1.2 2.6 0 0.1 0 0.2 0 0.5 0 0.2 0.1 0.5 0.1 0.8 0 0.3 0.1 0.5 0.1 0.8 0 0.2 0.1 0.4 0.1 0.4 0 0 0 0.1 0.1 0.2 0 0.1 0.1 0.3 0.1 0.7 0 0.3 0.1 0.8 0.1 1.4 0 0.6 0.1 1.4 0.1 2.4 0 0.5-0.3 1-0.8 1.3 -0.6 0.3-1 0.5-1.5 0.5 -0.4 0-0.8 0-1.1-0.1 -0.3-0.1-0.6-0.2-0.8-0.4 -0.2-0.2-0.5-0.4-0.7-0.6 -0.2-0.2-0.6-0.5-0.9-0.7 0 0-0.2-0.1-0.3-0.2 -0.2-0.1-0.3-0.2-0.4-0.3 0 0-0.2 0-0.6-0.1 -0.3-0.1-0.5-0.1-0.6-0.2 -0.8-0.3-1.5-0.8-1.9-1.4 -0.5-0.6-1-1.2-1.7-1.9 -0.2 0-0.5 0-0.9 0 -0.4 0-0.9-0.1-1.4-0.1 -0.5 0-1-0.1-1.4-0.1 -0.4 0-0.8-0.1-0.9-0.2 -0.1 0-0.3-0.1-0.7-0.3 -0.4-0.2-0.7-0.3-0.8-0.3 0-0.1-0.3-0.1-0.7-0.1 -0.4 0-0.7 0-0.9 0 -0.8 0-1.5 0.1-2.1 0.4 -0.6 0.3-1.1 0.7-1.5 1.2 -0.4 0.5-0.7 1-1 1.7 -0.3 0.6-0.5 1.3-0.6 1.9 0 0.1-0.1 0.3-0.2 0.7 -0.1 0.4-0.2 0.7-0.3 0.9 0 0.1 0 0.2 0.1 0.3 0.1 0.1 0.2 0.6 0.3 1.4 0 1.3-0.2 2.5-0.5 3.8 -0.3 1.2-0.5 2.5-0.5 3.8 0 0.4 0.1 0.7 0.4 0.9 0.2 0.2 0.5 0.3 0.9 0.4 0.3 0.1 0.7 0.1 1.1 0.2 0.4 0 0.7 0 1 0h1.4c0.2 0 0.5 0 0.8-0.1 0.3 0 0.7-0.1 1-0.1 0.3 0 0.6-0.1 0.9-0.1 0.3 0 0.4-0.1 0.4-0.1 0 0 0.2-0.1 0.4-0.2 0.2-0.1 0.4-0.3 0.6-0.5 0.2-0.2 0.5-0.4 0.7-0.6 0.2-0.2 0.4-0.4 0.6-0.5 0.1-0.1 0.3-0.3 0.5-0.4 0.2-0.2 0.4-0.3 0.6-0.5 0.2-0.2 0.3-0.4 0.5-0.5 0.1-0.2 0.2-0.3 0.3-0.3 0.4-0.5 0.6-1 0.6-1.6 0-0.6 0.1-1.1 0.1-1.6 0.1-0.5 0.2-0.9 0.5-1.2 0.3-0.3 0.9-0.5 1.8-0.5 1.2 0 2 0.4 2.5 1.1 0.5 0.7 0.7 1.7 0.7 2.8 0 0.7-0.1 1.2-0.2 1.7 -0.2 0.4-0.3 0.8-0.5 1.1 -0.2 0.3-0.3 0.7-0.5 1 -0.1 0.4-0.2 0.8-0.2 1.4 0 0.5 0.1 1 0.3 1.3 0.2 0.3 0.3 0.7 0.4 1.2l0.3 4c0 0 0.1 0.2 0.2 0.4 0.1 0.2 0.1 0.4 0.2 0.7 0.1 0.3 0.2 0.5 0.2 0.8 0.1 0.3 0.1 0.5 0.1 0.6 0 0.2-0.1 0.4-0.1 0.7 0 0.3-0.1 0.6-0.1 0.9 0 0.3-0.1 0.7-0.1 1 0 0.1-0.1 0.3-0.3 0.5 -0.2 0.2-0.4 0.4-0.6 0.5 -0.2 0.2-0.5 0.4-0.7 0.5 -0.2 0.2-0.4 0.2-0.6 0.2 -0.2 0-0.4 0-0.6 0 -0.2 0-0.4-0.1-0.4-0.3 -0.1-0.1-0.2-0.3-0.2-0.7 -0.1-0.4-0.1-0.7-0.1-0.7 -0.2-0.4-0.5-0.8-0.8-1.3 -0.3-0.5-0.7-1.1-1.1-1.7 -0.4-0.6-0.9-1.2-1.3-1.7 -0.5-0.6-1-1.1-1.5-1.5 -0.4-0.3-0.9-0.5-1.4-0.6 -0.5-0.1-0.9-0.1-1.3-0.1l-2.4 0.8c-0.1 0-0.3-0.1-0.6-0.2 -0.3-0.1-0.5-0.2-0.6-0.2h-0.2c-0.1 0-0.1 0-0.2 0 0 0-0.1 0-0.2 0 -0.2 0-0.5 0.1-0.8 0.4 -0.3 0.2-0.6 0.5-0.9 0.9 -0.3 0.3-0.6 0.7-0.8 1.1 -0.2 0.4-0.4 0.7-0.4 0.9 0 0.1 0 0.3-0.1 0.8s-0.1 0.8-0.1 1.1c0 0.1 0 0.2 0 0.4s0 0.3 0.1 0.5c0 0.2 0 0.4 0.1 0.6 0 0.3 0.1 0.9 0.2 1.7 0.1 0.8 0.3 1.7 0.4 2.6 0.2 0.9 0.3 1.8 0.5 2.6 0.1 0.8 0.2 1.4 0.3 1.7 0.6 0.6 1 1.2 1.2 1.7 0.2 0.5 0.5 1 0.7 1.4 0.2 0.4 0.5 0.7 1 0.9 0.4 0.2 1.1 0.3 2 0.3 1 0 2-0.1 3-0.3 1-0.2 2-0.3 3-0.4h1.5c0.1 0 0.3-0.1 0.7-0.3 0.4-0.2 0.6-0.3 0.7-0.4l1.5-0.3c0.2-0.1 0.4-0.2 0.6-0.2 0.3-0.1 0.4-0.1 0.4-0.2 0.1-0.1 0.4-0.3 0.9-0.7 0.5-0.4 0.8-0.6 1-0.6 0.4-0.3 0.8-0.5 1.3-0.6 0.4-0.1 0.8-0.3 1.2-0.6 0.5-0.4 1-0.9 1.4-1.4 0.5-0.5 0.9-1 1.4-1.4 0.5-0.4 1-0.8 1.6-1.1 0.6-0.3 1.3-0.4 2-0.4h1.3c0.3 0.2 0.5 0.5 0.6 0.9 0.1 0.4 0.1 0.7 0.1 1.1 0 1.9-0.5 3.6-1.5 5.3 0 0-0.1 0.2-0.2 0.4 -0.1 0.2-0.3 0.4-0.5 0.7 -0.2 0.2-0.3 0.5-0.5 0.7 -0.1 0.2-0.2 0.4-0.3 0.5 0 0-0.1 0.2-0.1 0.4 0 0.2-0.1 0.4-0.1 0.7 0 0.2-0.1 0.5-0.1 0.7 0 0.2-0.1 0.4-0.1 0.4 0 0.1 0 0.2-0.1 0.4 -0.1 0.2-0.1 0.3-0.2 0.4 -0.1 0.1-0.2 0.3-0.5 0.5 -0.2 0.2-0.5 0.5-0.8 0.8 -0.3 0.3-0.6 0.5-0.8 0.8 -0.2 0.2-0.4 0.4-0.5 0.5h-0.6c-0.7 0-1.5 0.1-2.2 0.2 -0.9 0.1-1.7 0.2-2.6 0.2 -0.9 0-1.6-0.1-2.3-0.4 -0.7-0.3-1.5-0.4-2.6-0.4 -0.2 0-0.5 0-1 0 -0.4 0-0.7 0-0.8 0l-2.9 0.4c-0.9 0.2-1.8 0.3-2.7 0.3 -0.9 0-1.9 0-2.8 0h-4.5c-0.7 0-1.2-0.1-1.7-0.2 -0.5-0.1-1-0.2-1.6-0.2 -0.4 0-0.8 0.1-1.2 0.4 -0.4 0.2-0.8 0.4-1.1 0.4l-3.4-0.7c0 0-0.2 0-0.5 0.1 -0.3 0.1-0.6 0.1-1 0.2 -0.4 0.1-0.8 0.2-1.2 0.2 -0.4 0.1-0.7 0.1-1 0.2 -0.5 0-1-0.1-1.6-0.2 -0.6-0.1-1.1-0.3-1.5-0.6 -0.5-0.3-0.9-0.6-1.2-1C269.3 75.6 269.1 75.1 269.1 74.6z"/>

  <path class="svg-clr-black" fill="#19181C" d="M357.3 69.2c0 0-0.1-0.2-0.2-0.4 -0.1-0.2-0.2-0.5-0.2-0.7 -0.1-0.2-0.2-0.5-0.2-0.7 -0.1-0.2-0.1-0.3-0.1-0.4 -0.1-0.1-0.1-0.3-0.1-0.5s0-0.5 0-0.8c0-0.2 0-0.5 0-0.7 0-0.2 0-0.4 0.1-0.6 -0.6-0.5-0.9-1-1-1.4 -0.1-0.4-0.2-0.9-0.2-1.5v-1.3c0-0.1 0-0.2-0.1-0.4 -0.1-0.2-0.1-0.3-0.2-0.4 -0.1-0.1-0.4-0.3-0.7-0.7 -0.3-0.4-0.6-0.6-0.8-0.7 -0.3-0.3-0.7-0.5-1.2-0.6 -0.5-0.1-0.9-0.3-1.3-0.6 -0.1 0-0.3 0-0.6 0 -0.3 0-0.5 0-0.6-0.1 -0.3 0.1-0.6 0.2-1 0.4 -0.4 0.2-0.6 0.3-0.7 0.4l-0.6 0.4 -3-0.4h-1.5c-0.5 0-1.1 0.1-1.6 0.3 -0.6 0.2-1.1 0.5-1.7 0.8 -0.6 0.3-1.1 0.7-1.5 1.1s-0.8 0.9-1.1 1.3c-0.1 0.1-0.2 0.3-0.2 0.7 -0.1 0.4-0.1 0.7-0.1 0.7 -0.1 0.2-0.2 0.5-0.4 0.8 -0.2 0.3-0.2 0.6-0.2 0.9L336 66l-0.4 1.6 0.6 2.8c0 0.1 0.1 0.2 0.2 0.3 0.1 0.1 0.3 0.3 0.4 0.4 0.4 0.4 0.7 0.7 0.7 0.8 0 0 0.1 0.1 0.2 0.1 0.1 0 0.3 0.1 0.5 0.1 0.2 0 0.3 0.1 0.5 0.1 0.2 0 0.3 0 0.3 0 0.2 0 0.6 0 1 0.1 0.4 0 0.8 0.1 1.2 0.3 0.4 0.2 0.7 0.4 1 0.6 0.3 0.3 0.4 0.6 0.4 1.1 0 0.5-0.2 1-0.6 1.4 -0.4 0.4-0.8 0.8-1.3 0.9 -0.2 0-0.5 0.1-1 0.2 -0.4 0.1-0.9 0.2-1.5 0.3 -0.5 0.1-1 0.2-1.5 0.3 -0.5 0.1-0.8 0.2-1 0.2l-1.5-0.6 -8.9 0.6c-0.5-0.1-1-0.2-1.4-0.2 -0.4-0.1-0.7-0.2-1-0.4 -0.3-0.2-0.6-0.4-0.8-0.7 -0.2-0.3-0.5-0.7-0.7-1.2 0-0.7 0.2-1.3 0.6-1.8 0.4-0.5 0.9-0.9 1.6-1.2 0.6-0.3 1.2-0.6 1.9-0.9 0.7-0.3 1.2-0.5 1.6-0.8 0-0.1 0.1-0.2 0.2-0.2 0.1-0.1 0.2-0.1 0.3-0.2 0.4-0.4 0.8-0.8 1.2-1.3 0.4-0.5 0.7-1 0.9-1.6 0 0 0.1-0.2 0.2-0.4 0.1-0.2 0.2-0.4 0.2-0.7 0.1-0.2 0.2-0.5 0.2-0.7 0.1-0.2 0.1-0.3 0.1-0.4 0.4-1.2 1-2.3 1.6-3.2 0.6-1 1.1-1.9 1.6-2.8 0 0 0.1-0.2 0.2-0.4 0.1-0.2 0.2-0.4 0.2-0.7 0.1-0.2 0.2-0.5 0.2-0.7 0.1-0.2 0.1-0.3 0.1-0.4l1-4.3c0 0 0.1-0.2 0.2-0.3 0.1-0.2 0.2-0.4 0.2-0.6 0.1-0.2 0.2-0.4 0.2-0.6C336 51.1 336 51 336 51l1.1-3.6c0.2-0.9 0.6-1.6 0.9-2.2 0.4-0.6 0.8-1.3 1.1-2.1l0.3-1.8c0.1-0.2 0.2-0.4 0.2-0.8 0.1-0.4 0.1-0.6 0.2-0.6l0.7-2.1c0-0.2 0-0.4 0.1-0.7 0.1-0.3 0.1-0.6 0.2-0.9 0-0.3 0.1-0.6 0.1-0.9 0-0.3 0.1-0.5 0.1-0.6v-4.6c0-0.1 0.1-0.3 0.2-0.5 0.1-0.2 0.2-0.5 0.3-0.8 0.1-0.3 0.3-0.5 0.4-0.7 0.2-0.2 0.3-0.4 0.6-0.5l2.1-0.7c0.1 0 0.3-0.2 0.6-0.5 0.3-0.3 0.4-0.5 0.5-0.6l2.1-1 1.6-1.5c0.7 0 1.3 0.3 1.7 0.8 0.5 0.5 0.8 1.1 1.1 1.7 0 0.2 0.1 0.5 0.3 1 0.1 0.4 0.3 0.9 0.4 1.4 0.1 0.5 0.3 1 0.4 1.4 0.1 0.4 0.2 0.8 0.2 0.9V32c0.1 0.1 0.2 0.2 0.2 0.4 0.1 0.2 0.1 0.3 0.2 0.4 0.6 0.9 1.1 2 1.5 3.1 0.4 1.2 0.8 2.3 1.1 3.5 0.1 0.8 0.1 1.3 0.2 1.4 0 0.1 0.1 0.2 0.2 0.2 0.4 0 0.6 0.2 0.8 0.5 0.2 0.3 0.4 0.7 0.6 1.2l0.7 2c0 0.1 0.1 0.3 0.2 0.6 0.1 0.3 0.3 0.6 0.4 0.9 0.2 0.3 0.3 0.6 0.5 0.9 0.1 0.3 0.2 0.5 0.3 0.6 0 0 0.2 0.2 0.4 0.5 0.1 0.2 0.2 0.3 0.3 0.4 0 0.1 0.1 0.3 0.2 0.6 0.1 0.3 0.2 0.7 0.4 1.1 0.1 0.4 0.2 0.8 0.3 1.1 0.1 0.3 0.2 0.6 0.2 0.6 0.2 0.8 0.4 1.6 0.7 2.5s0.6 1.6 1.1 2.3c0 0.1 0.2 0.4 0.5 0.8 0.3 0.4 0.5 0.6 0.6 0.8l0.4 1.6c0.2 0.7 0.3 1.3 0.5 1.7 0.2 0.4 0.3 0.9 0.3 1.3 0 0.1 0.1 0.4 0.2 0.7 0.1 0.4 0.2 0.8 0.3 1.2 0.1 0.4 0.2 0.8 0.3 1.2 0.1 0.3 0.2 0.6 0.2 0.6 0.1 0.4 0.3 0.9 0.6 1.5 0.3 0.5 0.7 0.9 1 1 0 0 0.2 0.1 0.5 0.2 0.3 0.1 0.5 0.3 0.9 0.4 0.3 0.1 0.6 0.3 0.9 0.4 0.3 0.1 0.4 0.2 0.5 0.2 0.5 0.3 0.9 0.6 1.4 0.7 0.4 0.1 0.8 0.3 1.1 0.5 0.3 0.2 0.5 0.4 0.7 0.8 0.2 0.3 0.2 0.8 0.2 1.5 0 0.6-0.3 1.1-1 1.6 -0.7 0.4-1.4 0.8-2.3 1 -0.9 0.3-1.8 0.5-2.6 0.6 -0.9 0.1-1.5 0.2-1.9 0.2 -1.1 0-2-0.1-2.9-0.4 -0.9-0.3-1.9-0.4-3.1-0.4l-4.8 0.6c-0.4 0-0.9 0-1.5-0.1 -0.6-0.1-1.2-0.2-1.8-0.4s-1.1-0.4-1.5-0.8 -0.6-0.8-0.6-1.3c0-0.8 0.3-1.3 1-1.6 0.7-0.3 1.5-0.6 2.3-0.8 0.8-0.2 1.6-0.5 2.3-0.9 0.7-0.3 1-0.9 1-1.8V69.2zM345.7 53.4c0 0 0.2 0 0.5 0.1 0.3 0.1 0.6 0.1 0.9 0.2 0.3 0.1 0.7 0.2 1 0.2 0.3 0.1 0.6 0.1 0.8 0.2l1.4 0.3c0 0 0.2-0.1 0.5-0.1 0.3 0 0.6-0.1 0.9-0.2l1.2-0.2 -1.2-4.6c-0.1-0.4-0.2-0.9-0.2-1.5 -0.1-0.6-0.1-1-0.1-1.3 0-0.5-0.1-1-0.2-1.4 -0.1-0.4-0.2-0.8-0.4-1.1 -0.2-0.4-0.3-0.7-0.6-1.1 -0.2-0.4-0.4-0.8-0.6-1.3 -0.1-0.3-0.4-0.6-0.8-1 -0.5-0.4-0.9-0.7-1.2-1 -0.1-0.1-0.3-0.2-0.6-0.2 -0.4 0-0.7 0.1-1.1 0.4 -0.4 0.3-0.8 0.4-1.2 0.4 -0.4 0-0.7 0.3-1.1 0.9 -0.4 0.6-0.8 1.3-1.1 2.1 -0.3 0.8-0.6 1.6-0.9 2.4 -0.2 0.8-0.4 1.4-0.4 1.7V52c0.1 0.1 0.2 0.4 0.4 0.7 0.2 0.4 0.3 0.6 0.4 0.7 0.1 0.1 0.2 0.2 0.2 0.3 0.1 0.1 0.2 0.2 0.4 0.2 0.1 0 0.3 0 0.6-0.1 0.3 0 0.6-0.1 0.9-0.2 0.3-0.1 0.6-0.1 0.9-0.2C345.4 53.4 345.6 53.4 345.7 53.4z"/>

  <path class="svg-clr-black" fill="#19181C" d="M379.8 74.6c0-0.1 0.1-0.3 0.3-0.7 0.2-0.4 0.3-0.6 0.4-0.7 0.6-0.7 1.3-1.3 2.3-1.6 1-0.3 1.9-0.5 2.9-0.5 0.3 0 0.5 0 0.8 0 0.2 0 0.5 0 0.7 0.1 0.4-0.3 0.8-0.7 1.1-1.2 0.3-0.4 0.6-0.9 0.8-1.5 0-0.2-0.1-0.4-0.1-0.8 0-0.4-0.1-0.8-0.1-1.3 0-0.4 0-0.9 0.1-1.3s0.1-0.7 0.1-0.9c0.1-0.7 0.3-1.2 0.6-1.8 0.3-0.5 0.5-1.1 0.5-1.8v-0.5l-0.7-1.5v-1.8c-0.1-1.1-0.3-2.2-0.5-3.3 -0.2-1.1-0.3-2.3-0.3-3.5l0.8-4.5 -0.1-2.3c0-0.2 0-0.3 0-0.5s0-0.4 0.1-0.5c0.1-0.7 0.2-1.3 0.2-2 0.1-0.7 0.1-1.3 0.1-2 0-0.7 0-1.3-0.1-1.9 -0.1-0.6-0.1-1.3-0.2-2 -0.1-0.4-0.1-0.9-0.1-1.4 0-0.5-0.1-1-0.3-1.4 -0.3-0.6-0.7-1.2-1.2-1.7 -0.4-0.6-0.9-1-1.5-1.4 -0.5-0.4-1-0.7-1.6-0.8 -0.6-0.1-1.2-0.2-1.7-0.2 -0.6-0.1-1.1-0.2-1.6-0.4 -0.5-0.2-0.9-0.6-1.3-1.2 0 0-0.1-0.1-0.1-0.2 0 0-0.1-0.1-0.1-0.2 0-0.4 0.1-0.7 0.3-0.9 0.2-0.2 0.5-0.4 0.8-0.5 0.3-0.1 0.6-0.2 1-0.2 0.4 0 0.7-0.1 0.9-0.1h2.6c0.6-0.1 1.2-0.2 1.8-0.5 0.6-0.2 1.3-0.4 1.9-0.4 0.1 0 0.2 0 0.4 0s0.3 0 0.3 0.1c0 0 0.3 0.1 0.7 0.4 0.4 0.2 0.7 0.4 0.8 0.4h2.5l4 0.3c0.1 0.1 0.3 0.1 0.5 0.1s0.4 0 0.5 0c0.7 0 1.2-0.1 1.6-0.2 0.4-0.1 1-0.2 1.7-0.2 1.5 0 3 0.1 4.5 0.2 1.5 0.1 3.1 0.4 4.6 0.9 1 0.3 1.9 0.5 2.8 0.7 0.9 0.2 1.7 0.4 2.5 0.7 0.8 0.3 1.5 0.6 2.3 1.1 0.7 0.5 1.4 1.1 2 2 0.5 0.7 0.9 1.3 1.2 1.8 0.3 0.5 0.5 0.9 0.7 1.4 0.2 0.5 0.3 1 0.3 1.6 0 0.6 0.1 1.4 0.1 2.3 0 0.8-0.1 1.6-0.3 2.4 -0.2 0.8-0.6 1.4-1.3 2 -0.1 0.1-0.3 0.4-0.7 0.7 -0.3 0.4-0.7 0.7-1.1 1.1 -0.4 0.4-0.8 0.8-1.1 1.1 -0.3 0.4-0.6 0.6-0.7 0.7 -0.2 0-0.4 0-0.8 0.1 -0.4 0.1-0.6 0.2-0.6 0.3 -0.1 0-0.3 0.1-0.6 0.3 -0.3 0.1-0.6 0.3-1 0.4 -0.3 0.1-0.7 0.3-0.9 0.4 -0.3 0.1-0.4 0.2-0.5 0.2 -0.2 0.1-0.4 0.1-0.7 0.2 -0.3 0-0.5 0.1-0.8 0.2 -0.2 0.1-0.4 0.2-0.6 0.3 -0.2 0.1-0.2 0.4-0.2 0.6 0 0.5 0.1 1.1 0.2 1.7 0.2 0.6 0.4 1.2 0.6 1.7 0.3 0.6 0.6 1.1 0.9 1.6 0.4 0.5 0.8 0.9 1.2 1.2 0.1 0.1 0.3 0.2 0.6 0.5 0.3 0.2 0.5 0.3 0.6 0.3l0.4 0.4c0.1 0 0.3 0.3 0.6 0.7 0.3 0.4 0.5 0.7 0.6 0.8 0.3 0.4 0.6 0.7 0.8 0.9 0.2 0.2 0.4 0.4 0.6 0.6 0.2 0.2 0.3 0.3 0.4 0.4 0 0.1 0.2 0.3 0.4 0.8 0.2 0.4 0.4 0.9 0.7 1.4 0.2 0.5 0.5 0.9 0.7 1.4 0.2 0.4 0.4 0.7 0.5 0.8 0 0.1 0.2 0.3 0.4 0.6 0.2 0.3 0.4 0.6 0.7 1 0.3 0.4 0.5 0.7 0.8 1.1 0.3 0.3 0.5 0.6 0.7 0.8 0.4 0.5 0.9 1 1.4 1.3 0.5 0.4 1 0.8 1.5 1.2l3 2.2 3.8 0.4c0.2 0 0.4 0.1 0.8 0.3 0.4 0.2 0.7 0.4 1.1 0.6 0.3 0.3 0.7 0.6 0.9 0.9 0.3 0.3 0.4 0.6 0.4 0.9 0 0.2-0.1 0.4-0.3 0.8 -0.2 0.4-0.5 0.8-0.8 1.2 -0.3 0.4-0.6 0.7-1 1 -0.3 0.3-0.7 0.5-0.9 0.5h-5.1c-0.4-0.4-1.1-0.6-2-0.8 -0.9-0.2-1.6-0.3-2.1-0.4h-4.5c-1.6-0.6-2.8-1.4-3.6-2.5 -0.8-1.1-1.4-2.5-2-4 0-0.1-0.1-0.3-0.2-0.6 -0.1-0.3-0.4-0.7-0.9-1.3l-0.4-1.8c0-0.1 0-0.2-0.1-0.4 -0.1-0.2-0.1-0.3-0.2-0.4 -0.2-0.4-0.6-0.9-1-1.5 -0.4-0.6-0.9-1.3-1.3-1.9 -0.4-0.7-0.8-1.2-1.2-1.7 -0.3-0.5-0.5-0.7-0.6-0.8l-4.4-4.8c-0.6-0.6-1.2-1-2-1.4 -0.7-0.4-1.5-0.6-2.2-0.6 -0.2 0-0.3 0-0.4 0.1 -0.1 0-0.2 0.2-0.3 0.4 0 0.1 0 0.3 0.1 0.5 0 0.2 0.1 0.5 0.1 0.8 0 0.3 0 0.6-0.1 0.8 0 0.2-0.1 0.4-0.1 0.5l-0.3 1.6v4.3c0 0.1-0.1 0.3-0.2 0.8 -0.1 0.4-0.2 0.8-0.3 1 0 0.9 0.1 1.6 0.3 2.1 0.2 0.5 0.5 1.2 0.8 2l-0.4 1.9c0 0.7 0.3 1.2 0.8 1.3 0.6 0.2 1.1 0.3 1.8 0.4 0.6 0.1 1.2 0.3 1.8 0.6 0.6 0.3 0.8 1 0.8 2 0 0.6-0.2 1.1-0.5 1.4 -0.3 0.3-0.8 0.5-1.3 0.6 -0.5 0.1-1 0.2-1.6 0.2 -0.5 0-1 0.1-1.4 0.1h-7.1c-0.2 0-0.6 0.1-1.1 0.2 -0.6 0.1-1.1 0.1-1.8 0.2 -0.6 0.1-1.2 0.1-1.8 0.2 -0.6 0.1-1 0.1-1.2 0.2 -0.4 0.3-0.8 0.5-1 0.6 -0.2 0.1-0.5 0.1-0.9 0.1 -0.7 0-1.2-0.1-1.6-0.4 -0.4-0.2-0.8-0.5-1.3-0.8 0 0-0.2 0-0.6-0.1 -0.3-0.1-0.5-0.1-0.6-0.2 -0.2-0.1-0.4-0.3-0.6-0.6C380 74.8 379.8 74.6 379.8 74.6zM397.9 40.6c0.1 0.1 0.2 0.4 0.2 0.8 0.1 0.4 0.1 0.7 0.1 0.7 0.1 0.4 0.2 0.8 0.2 1.2 0 0.4 0.1 0.9 0.2 1.3 0.1 0.4 0.2 0.9 0.4 1.2 0.2 0.4 0.4 0.7 0.8 0.9 0.7 0.6 1.4 1 2 1.2 0.6 0.2 1.4 0.3 2.5 0.3 0.1 0 0.3-0.1 0.5-0.2 0.3-0.1 0.4-0.2 0.5-0.2l3.4-2.3c0.2-0.2 0.6-0.3 0.9-0.5 0.4-0.1 0.7-0.3 1-0.5 0.3-0.2 0.6-0.4 0.9-0.7 0.3-0.2 0.4-0.5 0.5-0.9 0-0.1 0-0.3 0.1-0.6 0-0.3 0.1-0.7 0.1-1.1s0.1-0.8 0.1-1.2c0-0.4 0.1-0.7 0.1-1V39c0-1.8-0.3-3.6-1-5.4 -0.7-1.8-1.7-3.3-3.1-4.5 -0.4-0.4-0.9-0.9-1.4-1.3 -0.5-0.4-1-0.6-1.7-0.6h-0.9l-3.7 0.4c-1.1 0.7-1.7 1.6-2 2.5 -0.2 1-0.4 2-0.4 3.3V38c0 0.1 0 0.5-0.1 1 -0.1 0.5-0.1 1-0.2 1.3V40.6z"/>

  <path class="svg-clr-black" fill="#19181C" d="M440.5 74.6c0-0.3 0.1-0.7 0.2-1.3 0.1-0.6 0.2-0.9 0.2-1 0.1 0 0.3-0.2 0.7-0.3 0.4-0.2 0.6-0.3 0.8-0.4 0.9-0.1 1.6-0.2 2.3-0.4 0.7-0.2 1.3-0.4 1.8-0.6 0.2-0.1 0.4-0.2 0.6-0.5 0.2-0.2 0.5-0.5 0.7-0.7 0.2-0.3 0.4-0.5 0.6-0.7 0.2-0.2 0.3-0.4 0.3-0.4 0 0 0-0.2 0.1-0.6 0.1-0.3 0.1-0.7 0.2-1.2 0.1-0.4 0.2-0.9 0.2-1.4 0.1-0.5 0.1-0.9 0.2-1.3 0-0.7-0.1-1.4-0.4-2 -0.2-0.6-0.4-1.3-0.4-2 0-0.4 0-0.9 0.1-1.5 0.1-0.6 0.2-1.2 0.3-1.9 0.1-0.7 0.3-1.3 0.5-1.9 0.2-0.6 0.4-1.1 0.6-1.5v-5.6c0-0.2-0.1-0.5-0.2-0.7 -0.2-0.2-0.3-0.5-0.5-0.7 -0.2-0.2-0.3-0.5-0.5-0.8 -0.1-0.3-0.2-0.5-0.2-0.8l0.7-4.5c0-0.4-0.1-1.1-0.2-2 -0.2-0.9-0.4-1.8-0.6-2.7 -0.2-0.9-0.5-1.8-0.8-2.6 -0.3-0.8-0.6-1.4-0.8-1.7l-1.9-1.9c-0.2-0.2-0.5-0.3-0.9-0.5 -0.3-0.2-0.6-0.4-0.9-0.6 -0.3-0.2-0.5-0.4-0.7-0.7 -0.2-0.3-0.3-0.6-0.3-0.9 0-0.3 0-0.5 0.1-0.6 0.1-0.1 0.3-0.2 0.7-0.3 0.9-0.2 1.9-0.3 2.9-0.4 1-0.1 1.9-0.2 2.9-0.2l2.5 0.1c0.1 0 0.3-0.1 0.5-0.2 0.3-0.1 0.5-0.2 0.6-0.2l1.5 0.3c0.9-0.2 1.8-0.3 2.7-0.3 0.9-0.1 1.8-0.1 2.8-0.1 1 0 2 0 3 0.1 1 0.1 2 0.2 3 0.3l1.2-0.3c1.2 0.3 2.3 0.5 3.3 0.7 1 0.1 2 0.3 3 0.5 0.2 0 0.6 0.1 1.1 0.2 0.5 0.1 0.9 0.2 1.4 0.3 0.5 0.1 0.9 0.2 1.3 0.3 0.4 0.1 0.6 0.2 0.7 0.2 0.1 0.1 0.3 0.2 0.6 0.4 0.3 0.2 0.5 0.3 0.6 0.3 0.1 0.1 0.2 0.1 0.4 0.1 0.1 0 0.2 0 0.5 0 0.2 0 0.5 0 0.8-0.1 0.4 0 0.8 0.1 1.2 0.4 0 0.1 0.2 0.2 0.5 0.4 0.3 0.2 0.6 0.4 0.9 0.7 0.3 0.3 0.6 0.5 0.9 0.7 0.3 0.2 0.4 0.4 0.5 0.4 0.4 0.4 1 0.6 1.6 0.6 0.6 0 1.2 0.2 1.6 0.5 0.7 0.4 1.4 0.9 2.1 1.7 0.8 0.7 1.3 1.4 1.6 2.1 0.1 0.1 0.2 0.3 0.2 0.7 0.1 0.4 0.1 0.7 0.2 0.7 0 0.1 0.1 0.3 0.3 0.5 0.2 0.2 0.3 0.5 0.5 0.7 0.2 0.2 0.4 0.5 0.6 0.7 0.2 0.2 0.3 0.3 0.5 0.4 0 0 0.2 0.1 0.4 0.3 0.2 0.1 0.4 0.3 0.7 0.5 0.3 0.2 0.5 0.3 0.7 0.5 0.2 0.1 0.4 0.2 0.4 0.3 0.1 0.1 0.2 0.3 0.2 0.8 0.1 0.4 0.1 0.7 0.1 0.7 0 0.1 0.1 0.2 0.2 0.5s0.2 0.5 0.4 0.8c0.1 0.3 0.2 0.6 0.4 0.8C497 43.8 497 44 497 44l-0.7 9.4c-0.4 0.4-0.7 1-0.9 1.5 -0.1 0.6-0.2 1.2-0.2 1.8 0 0.7-0.1 1.3-0.2 2 -0.1 0.7-0.3 1.4-0.7 2 -0.8 1.5-1.7 2.9-2.6 4.2 -0.9 1.2-2 2.4-3.4 3.7l-1.2 0.7c0 0-0.2 0.2-0.4 0.4 -0.2 0.2-0.4 0.5-0.7 0.7 -0.2 0.2-0.5 0.5-0.7 0.7 -0.2 0.2-0.4 0.4-0.5 0.4 -0.5 0.4-1.1 0.6-1.8 0.6 -0.7 0-1.4 0.2-1.9 0.6 -0.1 0.1-0.4 0.3-1 0.7 -0.6 0.4-1.1 0.7-1.6 0.9 -0.1 0-0.3 0.1-0.7 0.2 -0.4 0.1-0.7 0.1-0.7 0.1 -0.1 0-0.3 0.2-0.6 0.4 -0.3 0.2-0.7 0.4-1.2 0.6 -0.4 0.2-0.8 0.4-1.2 0.6 -0.4 0.2-0.6 0.3-0.7 0.3h-4.1c-0.1 0-0.2 0-0.5 0.1 -0.2 0.1-0.5 0.1-0.7 0.2 -0.3 0.1-0.5 0.2-0.8 0.2 -0.3 0.1-0.5 0.1-0.6 0.2 -0.1-0.1-0.4-0.2-0.9-0.2 -0.5-0.1-0.8-0.2-0.9-0.4l-18.6 0.6c-0.1 0-0.3-0.1-0.6-0.2 -0.3-0.1-0.7-0.2-1.1-0.4 -0.4-0.1-0.7-0.3-1.1-0.4 -0.3-0.1-0.6-0.2-0.7-0.2 -0.2 0-0.4-0.1-0.7-0.1 -0.3 0-0.6 0-0.8-0.1 -0.3 0-0.5-0.1-0.7-0.2 -0.2-0.1-0.3-0.3-0.3-0.7V74.6zM464.5 72.3c1.6 0 3.3-0.2 5-0.6 1.7-0.4 3.3-0.8 4.9-1.2 0.1-0.1 0.4-0.2 0.9-0.4 0.5-0.2 0.8-0.3 1-0.5 0.1-0.1 0.3-0.3 0.7-0.6 0.3-0.3 0.7-0.7 1.1-1.1 0.4-0.4 0.8-0.8 1.1-1.1 0.3-0.4 0.6-0.7 0.8-0.9 0.1-0.1 0.3-0.3 0.5-0.6 0.2-0.3 0.5-0.6 0.8-0.9 0.3-0.3 0.5-0.6 0.8-0.9 0.2-0.3 0.4-0.5 0.5-0.6 0 0 0.1-0.1 0.2-0.3 0.1-0.2 0.2-0.3 0.2-0.5 0 0 0-0.2 0.1-0.3 0.1-0.2 0.2-0.4 0.2-0.6 0.1-0.2 0.2-0.4 0.2-0.6 0.1-0.2 0.1-0.3 0.2-0.3 0.2-0.4 0.4-0.7 0.7-1.1 0.3-0.3 0.4-0.7 0.4-1.2l-0.4-2.5c0-0.9 0.2-1.9 0.5-2.8 0.3-1 0.6-1.9 0.6-2.9v-2.2c0-1.2-0.2-2.3-0.5-3.4 -0.3-1.1-0.7-2.2-1-3.4 -0.1-0.4-0.4-0.8-0.8-1.2 -0.4-0.4-0.8-0.9-1.3-1.4 -0.5-0.5-0.9-0.9-1.4-1.4 -0.4-0.4-0.8-0.8-1.1-1.2 -0.4-0.7-0.8-1.3-1.1-1.8 -0.3-0.5-0.9-0.9-1.8-1.2 -0.1 0-0.3-0.1-0.8-0.2 -0.4-0.1-0.7-0.2-0.7-0.3 -0.1 0-0.4-0.2-0.9-0.5 -0.5-0.3-1-0.7-1.4-0.9 -1.7-0.6-3.4-1.1-5.1-1.5 -1.7-0.4-3.6-0.7-5.7-0.7 -0.2 0-0.4 0-0.5 0.1 -0.1 0-0.3 0.2-0.7 0.4 -0.2 0.1-0.4 0.4-0.7 0.8 -0.3 0.4-0.6 0.9-0.9 1.3 -0.3 0.5-0.5 1-0.7 1.4 -0.2 0.5-0.3 0.8-0.3 1.1 0 0.7 0.1 1.3 0.4 1.9 0.3 0.6 0.4 1.2 0.4 2 0 0.1 0 0.3 0 0.6 0 0.3 0 0.5-0.1 0.5 -0.2 2.3-0.3 4.5-0.4 6.6 -0.1 2.1-0.2 4.2-0.2 6.1l0.3 1.2c0.1 0.2 0.2 0.4 0.2 0.5 0 0.2 0.1 0.3 0.2 0.5 0 0.2 0.1 0.5 0.1 1v1c0 0.2 0 0.4 0 0.8s0 0.5-0.1 0.5c0 0.1-0.1 0.3-0.3 0.7 -0.2 0.4-0.3 0.7-0.3 0.8l1.1 2.2c0 0.1 0 0.3 0.1 0.7 0 0.4 0.1 0.9 0.1 1.4 0 0.5 0.1 1 0.1 1.5 0 0.5 0.1 0.9 0.1 1.2 0.1 0.4 0.2 0.9 0.2 1.3 0.1 0.4 0.1 0.9 0.1 1.4 0 0.7-0.1 1.4-0.3 2.2 0 0.3 0.2 0.6 0.3 0.8 0.2 0.2 0.4 0.5 0.7 0.7L464.5 72.3z"/>

  <path class="svg-clr-black" fill="#19181C" d="M506.2 68.5c0-0.4 0-0.7 0.1-1.1 0-0.4 0.1-0.8 0.2-1.1 0.1-0.3 0.3-0.6 0.5-0.8 0.2-0.2 0.5-0.3 0.9-0.3h0.5c0.7 0.2 1.3 0.6 1.8 1.1 0.5 0.5 0.9 1.1 1.2 1.8l0.3 1.5c0.1 0.1 0.2 0.2 0.4 0.4 0.2 0.2 0.3 0.3 0.5 0.4l0.6 0.4c0.1 0.1 0.2 0.3 0.4 0.8 0.2 0.4 0.3 0.7 0.4 0.8 0.1 0 0.2 0.2 0.4 0.3 0.2 0.2 0.3 0.3 0.4 0.4 0.2-0.1 0.4-0.1 0.6-0.1s0.4 0 0.6 0c0.4 0 0.9 0.1 1.4 0.2 0.5 0.1 0.9 0.3 1.3 0.7 0.4 0.1 0.9 0.2 1.3 0.2 0.4 0.1 0.9 0.1 1.4 0.1 0.4 0 0.9 0 1.4-0.1 0.5-0.1 1-0.1 1.5-0.2 0.4-0.1 0.9-0.4 1.5-1.1 0.6-0.7 1.2-1.4 1.7-2.2 0.5-0.8 1-1.6 1.4-2.4 0.4-0.8 0.6-1.4 0.6-1.7v-0.7c0-0.2 0-0.4-0.1-0.8 0-0.3-0.1-0.7-0.1-1.1 0-0.4-0.1-0.7-0.1-0.9 0-0.3-0.1-0.4-0.1-0.5 -0.1 0-0.2-0.2-0.4-0.5 -0.2-0.3-0.3-0.5-0.3-0.6 -0.2-0.2-0.3-0.5-0.4-0.9 -0.1-0.3-0.2-0.6-0.3-0.9 -0.1-0.3-0.3-0.6-0.5-0.8 -0.2-0.2-0.4-0.4-0.8-0.6 -0.1-0.1-0.3-0.2-0.6-0.2 -0.3-0.1-0.5-0.1-0.5-0.2 -0.1 0-0.3-0.2-0.6-0.5 -0.3-0.3-0.5-0.5-0.6-0.6 -0.1-0.1-0.2-0.2-0.4-0.3 -0.2-0.1-0.4-0.3-0.7-0.4 -0.2-0.1-0.5-0.3-0.7-0.4 -0.2-0.1-0.4-0.2-0.5-0.3 0 0-0.2-0.1-0.4-0.2 -0.2-0.1-0.5-0.2-0.7-0.4 -0.2-0.1-0.5-0.2-0.7-0.3 -0.2-0.1-0.4-0.2-0.4-0.2 -0.1-0.1-0.4-0.3-0.8-0.6 -0.4-0.3-0.6-0.5-0.7-0.6 -0.9-0.6-1.6-1-2.2-1.3 -0.6-0.3-1.2-0.6-1.7-0.9 -0.5-0.3-1-0.7-1.5-1.2 -0.5-0.5-1-1.2-1.6-2.1 -0.1-0.2-0.3-0.6-0.6-0.9 -0.2-0.4-0.5-0.8-0.7-1.2 -0.2-0.4-0.5-0.7-0.6-1.1 -0.2-0.3-0.3-0.5-0.3-0.6 0-0.1-0.1-0.3-0.2-0.7 -0.1-0.4-0.2-0.6-0.2-0.8v-7.4c0 0 0-0.2 0.1-0.6 0.1-0.3 0.2-0.8 0.3-1.3 0.1-0.5 0.3-1 0.4-1.5 0.1-0.5 0.3-0.9 0.3-1.2 0.1-0.6 0.3-1 0.5-1.3 0.2-0.3 0.4-0.5 0.6-0.6 0.2-0.2 0.5-0.3 0.8-0.4 0.3-0.1 0.6-0.3 1-0.6 0.1-0.1 0.4-0.4 0.7-0.7 0.4-0.4 0.8-0.8 1.2-1.2 0.4-0.4 0.8-0.8 1.2-1.2 0.4-0.4 0.6-0.6 0.7-0.7 0.2-0.2 0.6-0.4 1.2-0.5 0.5-0.1 0.9-0.2 1-0.3 1.2-0.4 2.4-0.6 3.5-0.8 1.1-0.2 2.4-0.2 3.7-0.2h1.8c0.2 0 0.7 0 1.3 0 0.6 0 1.2 0.1 1.9 0.1 0.7 0 1.3 0.1 1.9 0.1 0.6 0 1 0.1 1.3 0.1 0.4 0.1 0.8 0.4 1.3 0.8s1 0.8 1.5 1.3c0.5 0.5 0.9 1 1.2 1.6 0.3 0.6 0.5 1.1 0.5 1.7 0 0-0.1 0.3-0.2 0.7 -0.1 0.4-0.1 0.7-0.1 0.8v2.9c0 0.1-0.1 0.3-0.2 0.5 -0.1 0.3-0.1 0.6-0.2 0.9 -0.1 0.3-0.2 0.6-0.3 0.9 -0.1 0.3-0.2 0.5-0.2 0.6 0 0.2-0.2 0.3-0.3 0.4 -0.2 0-0.4 0.1-0.6 0.1h-1.3c-0.2-0.1-0.4-0.2-0.5-0.5 -0.1-0.2-0.3-0.5-0.4-0.7 -0.1-0.2-0.2-0.5-0.3-0.7 -0.1-0.2-0.2-0.4-0.2-0.5 -0.1 0-0.2-0.1-0.4-0.3 -0.2-0.2-0.3-0.3-0.5-0.6 -0.2-0.2-0.4-0.4-0.5-0.6 -0.2-0.2-0.3-0.3-0.4-0.5 0 0-0.2 0-0.4-0.1 -0.2-0.1-0.4-0.1-0.4-0.2 -0.2-0.1-0.4-0.3-0.5-0.5 -0.1-0.2-0.2-0.5-0.3-0.7s-0.2-0.5-0.4-0.7c-0.1-0.2-0.3-0.5-0.6-0.7 -0.2 0-0.4-0.1-0.9-0.3 -0.4-0.2-0.9-0.3-1.3-0.5 -0.5-0.1-1-0.3-1.4-0.4 -0.4-0.1-0.8-0.2-0.9-0.3h-1.8c-0.1 0.1-0.3 0.3-0.6 0.6 -0.3 0.3-0.6 0.6-0.9 0.9 -0.3 0.3-0.6 0.6-0.9 0.9 -0.3 0.3-0.4 0.5-0.5 0.6 -0.5 0.7-0.9 1.5-1 2.6 -0.1 1-0.2 1.9-0.2 2.7 0 0.7 0.1 1.3 0.3 1.9 0.2 0.6 0.4 1.1 0.7 1.7 0.3 0.5 0.7 1 1.1 1.5 0.4 0.5 0.8 1 1.3 1.6 0.4 0.5 0.8 0.8 1.2 1 0.4 0.2 0.9 0.3 1.3 0.4 0.5 0.1 0.9 0.2 1.4 0.2 0.4 0.1 0.9 0.3 1.3 0.6 0 0 0.2 0.2 0.4 0.4 0.2 0.2 0.5 0.4 0.7 0.6 0.2 0.2 0.5 0.4 0.7 0.6 0.2 0.2 0.4 0.3 0.4 0.3 0.1 0.1 0.2 0.2 0.5 0.3 0.2 0.1 0.5 0.3 0.7 0.4 0.2 0.1 0.5 0.3 0.7 0.4s0.4 0.2 0.5 0.3c0.1 0.1 0.3 0.2 0.7 0.4 0.4 0.2 0.7 0.3 0.8 0.3 0 0.1 0.1 0.2 0.2 0.4 0.1 0.2 0.4 0.7 0.9 1.5l2.9 2.9 1.2 0.7c0.6 0.4 0.9 1.1 1 1.9 0.1 0.8 0.2 1.6 0.2 2.3V61c-0.2 0.4-0.3 0.7-0.3 1.1 0 0.4 0 0.8 0 1.1v1.9c0 0.2-0.1 0.4-0.2 0.8 -0.1 0.4-0.2 0.6-0.2 0.7 0 0-0.1 0.1-0.2 0.3 -0.1 0.1-0.2 0.3-0.3 0.5 -0.1 0.2-0.2 0.3-0.4 0.5 -0.1 0.1-0.2 0.2-0.2 0.3 0 0.1-0.1 0.4-0.2 0.8 -0.1 0.4-0.2 0.6-0.2 0.7l-0.3 1.2c-0.1 0.2-0.4 0.4-0.7 0.9 -0.3 0.4-0.7 0.8-1.1 1.3 -0.4 0.4-0.8 0.8-1.1 1.2 -0.3 0.4-0.6 0.6-0.7 0.7 -0.1 0.1-0.3 0.3-0.6 0.5 -0.3 0.2-0.5 0.3-0.5 0.4 -0.1 0-0.2 0-0.5 0 -0.2 0-0.5 0.1-0.8 0.1 -0.3 0-0.6 0.1-0.9 0.1 -0.3 0-0.4 0.1-0.5 0.1 -0.5 0.1-1 0.3-1.5 0.5 -0.5 0.2-1 0.5-1.5 0.7 -0.5 0.2-1 0.5-1.5 0.7 -0.5 0.2-1 0.3-1.5 0.4 0 0-0.4 0-1.1 0 -0.7 0-1.3 0-1.7 0l-2.7-0.1c-0.2-0.1-0.5-0.2-0.9-0.4 -0.5-0.2-0.8-0.3-0.9-0.4 -0.5-0.2-1-0.3-1.5-0.4 -0.5-0.1-1-0.2-1.5-0.2 -0.5-0.1-1-0.2-1.5-0.3 -0.5-0.1-1-0.3-1.5-0.6 -0.5-0.2-1-0.6-1.5-1.1 -0.5-0.5-0.9-1-1.3-1.6 -0.4-0.6-0.7-1.2-0.9-1.8 -0.2-0.6-0.3-1.2-0.3-1.8V68.5z"/>
</svg>
